<?xml version="1.0" encoding="utf-8"?>
<!-- Generator: Adobe Illustrator 19.0.0, SVG Export Plug-In . SVG Version: 6.00 Build 0)  -->
<svg version="1.1" id="Calque_1" xmlns="http://www.w3.org/2000/svg" xmlns:xlink="http://www.w3.org/1999/xlink" x="0px" y="0px"
	 width="35px" height="35px" viewBox="0 0 35 35" style="enable-background:new 0 0 35 35;" xml:space="preserve">
<style type="text/css">
	.st0{fill:#FFFFFF;}
</style>
<g id="XMLID_33_">
	<path id="LinkedIn__x28_alt_x29_" class="st0" d="M32.6-0.2h-30C1.2-0.2,0,1,0,2.4v30.1C0,33.9,1.2,35,2.6,35h30
		c1.4,0,2.6-1.1,2.6-2.5V2.4C35.2,1,34-0.2,32.6-0.2z M10.7,29.3H5.3V13.4h5.3V29.3z M8,11.2L8,11.2c-1.8,0-3-1.2-3-2.7
		c0-1.6,1.2-2.7,3-2.7c1.8,0,2.9,1.2,3,2.7C11,10,9.9,11.2,8,11.2z M29.8,29.3h-5.3v-8.5c0-2.1-0.8-3.6-2.7-3.6
		c-1.5,0-2.3,1-2.7,1.9c-0.1,0.3-0.2,0.8-0.2,1.3v8.9h-5.3c0,0,0.1-14.4,0-15.9h5.3v2.3c0.7-1.1,2-2.6,4.8-2.6
		c3.5,0,6.1,2.3,6.1,7.1L29.8,29.3L29.8,29.3z M18.9,15.7C18.9,15.7,18.9,15.7,18.9,15.7L18.9,15.7L18.9,15.7z"/>
</g>
</svg>
