<?xml version="1.0" encoding="utf-8"?>
<!-- Generator: Adobe Illustrator 19.0.0, SVG Export Plug-In . SVG Version: 6.00 Build 0)  -->
<svg version="1.1" id="Calque_1" xmlns="http://www.w3.org/2000/svg" xmlns:xlink="http://www.w3.org/1999/xlink" x="0px" y="0px"
	 viewBox="0 0 51 59.5" style="enable-background:new 0 0 51 59.5;" xml:space="preserve">
<style type="text/css">
	.st0{fill:#FFFFFF;}
	.st1{fill:#DF0B24;}
	.st2{fill:none;stroke:#FFFFFF;stroke-width:0.5;stroke-linecap:round;stroke-linejoin:round;stroke-miterlimit:10;}
</style>
<g id="XMLID_64_">
	<circle id="XMLID_103_" class="st0" cx="25.7" cy="9.8" r="4.7"/>
	<path id="XMLID_102_" class="st0" d="M30.8,37.2H20.5c-0.3,0-0.6-0.3-0.6-0.6V15.8c0-0.3,0.3-0.6,0.6-0.6h10.4
		c0.3,0,0.6,0.3,0.6,0.6v20.8C31.4,37,31.2,37.2,30.8,37.2z"/>
	<path id="XMLID_101_" class="st0" d="M23.2,59.5h-1.3c-1.1,0-1.9-0.9-1.9-1.9V35.1c0-1.1,0.9-1.9,1.9-1.9h1.3
		c1.1,0,1.9,0.9,1.9,1.9v22.5C25.1,58.7,24.2,59.5,23.2,59.5z"/>
	<path id="XMLID_100_" class="st0" d="M29.5,59.5h-1.3c-1.1,0-1.9-0.9-1.9-1.9V35.1c0-1.1,0.9-1.9,1.9-1.9h1.3
		c1.1,0,1.9,0.9,1.9,1.9v22.5C31.4,58.7,30.5,59.5,29.5,59.5z"/>
	<path id="XMLID_99_" class="st0" d="M17.7,37h-1c-0.8,0-1.5-0.7-1.5-1.5v-15c0-0.8,0.7-1.5,1.5-1.5h1c0.8,0,1.5,0.7,1.5,1.5v15
		C19.2,36.3,18.5,37,17.7,37z"/>
	<path id="XMLID_98_" class="st0" d="M18.6,22.3h2.3v-7c0,0-4.8-0.2-5.8,5.2v1.8H18.6z"/>
	<path id="XMLID_97_" class="st0" d="M33.6,37h1c0.8,0,1.5-0.7,1.5-1.5v-15c0-0.8-0.7-1.5-1.5-1.5h-1c-0.8,0-1.5,0.7-1.5,1.5v15
		C32.1,36.3,32.8,37,33.6,37z"/>
	<path id="XMLID_96_" class="st0" d="M32.8,22.3h-2.4v-7c0,0,4.8-0.2,5.8,5.2v1.8H32.8z"/>
	<polygon id="XMLID_95_" class="st1" points="26.3,19.4 25.6,19.4 25,19.4 24.3,29.1 25.6,30.4 27,29.1 	"/>
	<polygon id="XMLID_94_" class="st1" points="25.6,16.6 24.5,17.4 24.9,18.8 25.6,18.8 26.3,18.8 26.7,17.4 	"/>
	<g id="XMLID_80_">
		<path id="XMLID_93_" class="st2" d="M35.6,0.7h9c0.9,0,1.6,0.7,1.6,1.6v5.8c0,0.9-0.7,1.6-1.6,1.6h-5.6l-2.7,2.7V9.8h-0.8
			c-0.9,0-1.6-0.7-1.6-1.6V2.4C34,1.5,34.7,0.7,35.6,0.7z"/>
		<g id="XMLID_81_">
			<circle id="XMLID_92_" class="st2" cx="43.3" cy="5.4" r="1"/>
			<circle id="XMLID_85_" class="st2" cx="40.1" cy="5.4" r="1"/>
			<circle id="XMLID_82_" class="st2" cx="36.9" cy="5.4" r="1"/>
		</g>
	</g>
</g>
</svg>
