<?xml version="1.0" encoding="utf-8"?>
<!-- Generator: Adobe Illustrator 19.0.0, SVG Export Plug-In . SVG Version: 6.00 Build 0)  -->
<svg version="1.1" id="Calque_1" xmlns="http://www.w3.org/2000/svg" xmlns:xlink="http://www.w3.org/1999/xlink" x="0px" y="0px"
	 viewBox="285.1 408.4 25 25" style="enable-background:new 285.1 408.4 25 25;" xml:space="preserve">
<style type="text/css">
	.st0{fill:#FFFFFF;}
</style>
<g>
	<path class="st0" d="M304,433.4c0-3.4,0-6.7,0-10.1c0.9,0,1.8-0.1,2.8-0.1c0.1-1.1,0.3-2.2,0.4-3.3c-1.1,0-2.1,0-3.2,0
		c0-0.5,0-1,0-1.5c0-0.2,0-0.4,0-0.6c0-0.6,0.4-1,1-1c0.7,0,1.4,0,2.1,0c0-1.2,0-2.3,0-3.5c0,0-0.1,0-0.2,0c-1.2,0-2.3,0-3.5,0
		c-0.4,0-0.8,0.1-1.2,0.2c-1.5,0.4-2.4,1.6-2.4,3.2c0,0.9,0,1.9,0,2.8c0,0.1,0,0.2,0,0.4c-0.7,0-1.3,0-2,0c0,1.1,0,2.2,0,3.4
		c0.7,0,1.3,0,2,0c0,3.4,0,6.7,0,10.1c-0.1,0-0.2,0-0.4,0c-3.4,0-6.8,0-10.2,0c-1.9,0-3.8-1.5-4.1-3.5c0-0.2-0.1-0.5-0.1-0.8
		c0-5.6,0-11.2,0-16.8c0-1.9,1.2-3.4,3-3.9c0.3-0.1,0.7-0.1,1.1-0.1c5.7,0,11.4,0,17.1,0c2.2,0,3.8,1.6,3.8,3.8c0,5.7,0,11.4,0,17.2
		c0,1.8-1.3,3.5-3,3.9c-0.4,0.1-0.7,0.1-1.1,0.1C305.4,433.4,304.7,433.4,304,433.4z"/>
</g>
</svg>
