<?xml version="1.0" encoding="utf-8"?>
<!-- Generator: Adobe Illustrator 19.0.0, SVG Export Plug-In . SVG Version: 6.00 Build 0)  -->
<svg version="1.1" id="Calque_1" xmlns="http://www.w3.org/2000/svg" xmlns:xlink="http://www.w3.org/1999/xlink" x="0px" y="0px"
	 width="41.5px" height="33px" viewBox="0 0 41.5 33" style="enable-background:new 0 0 41.5 33;" xml:space="preserve">
<style type="text/css">
	.st0{fill:#FFFFFF;}
	.st1{fill:#1A1A1A;}
</style>
<g id="XMLID_127_">
	<path id="XMLID_128_" class="st0" d="M22.4,7.6c-0.3-0.2-0.6-0.3-1-0.3c-0.4,0-0.7,0.1-1,0.3C20.2,7.7,20,8,19.8,8.3
		c-0.1,0.3-0.2,0.7-0.2,1.1c0,0.4,0.1,0.8,0.2,1.1c0.1,0.3,0.4,0.6,0.6,0.8c0.3,0.2,0.6,0.3,1,0.3c0.4,0,0.7-0.1,1-0.3
		c0.3-0.2,0.5-0.4,0.7-0.7c0.2-0.3,0.3-0.7,0.3-1.2c0-0.4-0.1-0.8-0.3-1.2C23,8,22.7,7.7,22.4,7.6z"/>
	<path id="XMLID_157_" class="st0" d="M41.4,0H0v29.3h41.4V0z M3.3,7.9C3.6,7.4,3.9,7,4.4,6.8c0.5-0.3,1-0.4,1.6-0.4
		c0.5,0,0.9,0.1,1.3,0.2c0.4,0.1,0.8,0.3,1.2,0.5c0.1,0.1,0.2,0.2,0.2,0.4c0,0.1,0,0.2-0.1,0.3C8.6,7.9,8.4,8,8.3,8
		C8.2,8,8.1,8,8.1,7.9C7.5,7.5,6.8,7.3,6,7.3c-0.4,0-0.8,0.1-1.1,0.3C4.6,7.8,4.4,8,4.2,8.3C4,8.7,4,9,4,9.4c0,0.4,0.1,0.8,0.3,1.1
		c0.2,0.3,0.4,0.6,0.7,0.8c0.3,0.2,0.7,0.3,1.1,0.3c0.4,0,0.8-0.1,1.1-0.2c0.4-0.1,0.7-0.3,1-0.5c0.1-0.1,0.2-0.1,0.2-0.1
		c0.1,0,0.2,0.1,0.3,0.2c0.1,0.1,0.1,0.2,0.1,0.3c0,0.1-0.1,0.3-0.2,0.4c-0.4,0.3-0.8,0.5-1.2,0.6C7,12.5,6.5,12.5,6,12.5
		c-0.6,0-1.1-0.1-1.6-0.4c-0.5-0.3-0.8-0.6-1.1-1.1c-0.3-0.5-0.4-1-0.4-1.6C2.9,8.9,3.1,8.3,3.3,7.9z M10.8,22.6
		c-0.1,0.1-0.2,0.1-0.4,0.1H8.9v2.2c0,0.2,0,0.4-0.1,0.4c-0.1,0.1-0.3,0.1-0.5,0.1h0c-0.2,0-0.4,0-0.5-0.1c-0.1-0.1-0.1-0.2-0.1-0.4
		v-2.2H3.4c-0.2,0-0.3-0.1-0.4-0.2c-0.1-0.1-0.1-0.3-0.1-0.5c0-0.2,0-0.3,0.1-0.4l4.3-6.4c0.1-0.2,0.3-0.3,0.4-0.4
		c0.1-0.1,0.3-0.1,0.6-0.1c0.5,0,0.8,0.2,0.8,0.7v6h1.4c0.2,0,0.3,0,0.4,0.1c0.1,0.1,0.1,0.3,0.1,0.5S10.8,22.5,10.8,22.6z
		 M12.2,12.1c-0.5-0.3-0.8-0.6-1.1-1.1c-0.3-0.5-0.4-1-0.4-1.6c0-0.6,0.1-1.1,0.4-1.6c0.3-0.5,0.6-0.8,1.1-1.1
		c0.5-0.3,1-0.4,1.6-0.4c0.6,0,1.1,0.1,1.6,0.4c0.5,0.3,0.8,0.6,1.1,1.1c0.3,0.5,0.4,1,0.4,1.6c0,0.6-0.1,1.1-0.4,1.6
		c-0.3,0.5-0.6,0.8-1.1,1.1c-0.5,0.3-1,0.4-1.6,0.4C13.2,12.5,12.7,12.4,12.2,12.1z M21,23.1c-0.3,0.8-0.7,1.4-1.3,1.9
		c-0.6,0.4-1.2,0.7-2,0.7c-0.8,0-1.4-0.2-2-0.7c-0.6-0.4-1-1.1-1.3-1.9c-0.3-0.8-0.5-1.8-0.5-2.8c0-1.1,0.2-2,0.5-2.8
		c0.3-0.8,0.7-1.5,1.3-1.9c0.6-0.4,1.2-0.7,2-0.7c0.8,0,1.4,0.2,2,0.7c0.6,0.4,1,1.1,1.3,1.9c0.3,0.8,0.5,1.8,0.5,2.8
		C21.5,21.3,21.3,22.2,21,23.1z M24.4,12.1c0,0.1,0,0.3-0.1,0.3c-0.1,0.1-0.2,0.1-0.3,0.1h0c-0.2,0-0.3,0-0.3-0.1
		c-0.1-0.1-0.1-0.2-0.1-0.3v-0.6c-0.3,0.4-0.6,0.6-0.9,0.8c-0.4,0.2-0.7,0.3-1.2,0.3c-0.5,0-1-0.1-1.4-0.4c-0.4-0.2-0.7-0.6-1-1.1
		c-0.2-0.5-0.4-1-0.4-1.6c0-0.6,0.1-1.2,0.4-1.6c0.2-0.5,0.6-0.8,1-1.1c0.4-0.2,0.9-0.4,1.4-0.4c0.8,0,1.5,0.4,2,1.1v-3
		c0-0.1,0-0.3,0.1-0.3c0.1-0.1,0.2-0.1,0.4-0.1h0c0.2,0,0.3,0,0.4,0.1c0.1,0.1,0.1,0.2,0.1,0.3V12.1z M32.4,22.6
		c-0.1,0.1-0.2,0.1-0.4,0.1h-1.4v2.2c0,0.2,0,0.4-0.1,0.4c-0.1,0.1-0.3,0.1-0.5,0.1h0c-0.2,0-0.4,0-0.5-0.1
		c-0.1-0.1-0.1-0.2-0.1-0.4v-2.2H25c-0.2,0-0.3-0.1-0.4-0.2c-0.1-0.1-0.1-0.3-0.1-0.5c0-0.2,0-0.3,0.1-0.4l4.3-6.4
		c0.1-0.2,0.3-0.3,0.4-0.4c0.1-0.1,0.3-0.1,0.6-0.1c0.5,0,0.8,0.2,0.8,0.7v6H32c0.2,0,0.3,0,0.4,0.1c0.1,0.1,0.1,0.3,0.1,0.5
		S32.5,22.5,32.4,22.6z M32.5,9.6c-0.1,0.1-0.2,0.1-0.3,0.1h-4.6c0,0.6,0.2,1.1,0.5,1.4c0.3,0.3,0.8,0.5,1.4,0.5
		c0.4,0,0.8,0,1.3-0.1c0.4-0.1,0.8-0.2,1.1-0.4c0.1,0,0.1-0.1,0.2-0.1c0.1,0,0.2,0,0.2,0.1c0.1,0.1,0.1,0.2,0.2,0.3
		c0,0.1,0,0.2,0,0.2c0,0.2-0.1,0.3-0.3,0.4c-0.3,0.2-0.8,0.3-1.2,0.4c-0.5,0.1-0.9,0.2-1.4,0.2c-0.6,0-1.1-0.1-1.6-0.4
		c-0.4-0.2-0.8-0.6-1-1.1c-0.2-0.5-0.3-1-0.3-1.7c0-0.6,0.1-1.2,0.4-1.6C27.2,7.4,27.5,7,28,6.7c0.5-0.3,1-0.4,1.6-0.4
		c0.6,0,1.1,0.1,1.6,0.4c0.4,0.2,0.8,0.6,1,1c0.2,0.4,0.4,0.9,0.4,1.5C32.6,9.4,32.5,9.5,32.5,9.6z M39.4,13.8h-6v-0.5h6V13.8z"/>
	<path id="XMLID_165_" class="st0" d="M29.6,7.3c-0.5,0-1,0.1-1.3,0.4c-0.3,0.3-0.6,0.6-0.7,1.1h3.9c-0.1-0.5-0.3-0.9-0.6-1.1
		C30.6,7.4,30.1,7.3,29.6,7.3z"/>
	<path id="XMLID_166_" class="st0" d="M18.8,16.4c-0.3-0.2-0.6-0.3-1-0.3c-0.5,0-0.9,0.2-1.2,0.5c-0.4,0.3-0.6,0.8-0.8,1.4
		c-0.2,0.6-0.3,1.4-0.3,2.2c0,0.6,0,1.1,0.1,1.6l4-4.5C19.3,16.9,19.1,16.6,18.8,16.4z"/>
	<polygon id="XMLID_167_" class="st0" points="7.6,21.5 7.7,16.7 4.5,21.5 	"/>
	<path id="XMLID_168_" class="st0" d="M15.9,9.4c0-0.4-0.1-0.8-0.3-1.1c-0.2-0.3-0.4-0.6-0.7-0.8c-0.3-0.2-0.7-0.3-1.1-0.3
		c-0.4,0-0.8,0.1-1.1,0.3C12.4,7.7,12.1,8,12,8.3c-0.2,0.3-0.3,0.7-0.3,1.1c0,0.4,0.1,0.8,0.3,1.1c0.2,0.3,0.4,0.6,0.7,0.8
		c0.3,0.2,0.7,0.3,1.1,0.3c0.4,0,0.8-0.1,1.1-0.3c0.3-0.2,0.6-0.4,0.7-0.8C15.8,10.2,15.9,9.9,15.9,9.4z"/>
	<path id="XMLID_169_" class="st0" d="M16,23.1c0.2,0.4,0.5,0.7,0.8,0.9c0.3,0.2,0.6,0.3,1,0.3c0.5,0,0.9-0.2,1.2-0.5
		c0.4-0.3,0.6-0.8,0.8-1.4c0.2-0.6,0.3-1.4,0.3-2.2c0-0.6,0-1.1-0.1-1.6L16,23.1z"/>
	<polygon id="XMLID_170_" class="st0" points="29.2,21.5 29.3,16.7 26.2,21.5 	"/>
	<path id="XMLID_171_" d="M4.4,12.1c0.5,0.3,1,0.4,1.6,0.4c0.5,0,1-0.1,1.4-0.2c0.5-0.1,0.9-0.3,1.2-0.6c0.1-0.1,0.2-0.2,0.2-0.4
		c0-0.1,0-0.2-0.1-0.3c-0.1-0.2-0.2-0.2-0.3-0.2c-0.1,0-0.2,0-0.2,0.1c-0.3,0.2-0.6,0.4-1,0.5c-0.4,0.1-0.8,0.2-1.1,0.2
		c-0.4,0-0.8-0.1-1.1-0.3c-0.3-0.2-0.6-0.4-0.7-0.8C4,10.2,4,9.9,4,9.4C4,9,4,8.7,4.2,8.3C4.4,8,4.6,7.8,4.9,7.6
		C5.3,7.4,5.6,7.3,6,7.3c0.8,0,1.4,0.2,2,0.6C8.1,8,8.2,8,8.3,8c0.1,0,0.2-0.1,0.3-0.3c0.1-0.1,0.1-0.2,0.1-0.3
		c0-0.1-0.1-0.3-0.2-0.4C8.2,6.8,7.8,6.6,7.3,6.5C6.9,6.4,6.5,6.3,6,6.3c-0.6,0-1.1,0.1-1.6,0.4C3.9,7,3.6,7.4,3.3,7.9
		c-0.3,0.5-0.4,1-0.4,1.6c0,0.6,0.1,1.1,0.4,1.6C3.6,11.5,3.9,11.9,4.4,12.1z"/>
	<path id="XMLID_174_" d="M16.5,11c0.3-0.5,0.4-1,0.4-1.6c0-0.6-0.1-1.1-0.4-1.6c-0.3-0.5-0.6-0.8-1.1-1.1c-0.5-0.3-1-0.4-1.6-0.4
		c-0.6,0-1.1,0.1-1.6,0.4c-0.5,0.3-0.8,0.6-1.1,1.1c-0.3,0.5-0.4,1-0.4,1.6c0,0.6,0.1,1.1,0.4,1.6c0.3,0.5,0.6,0.8,1.1,1.1
		c0.5,0.3,1,0.4,1.6,0.4c0.6,0,1.1-0.1,1.6-0.4C15.8,11.9,16.2,11.5,16.5,11z M14.9,11.3c-0.3,0.2-0.7,0.3-1.1,0.3
		c-0.4,0-0.8-0.1-1.1-0.3c-0.3-0.2-0.6-0.4-0.7-0.8c-0.2-0.3-0.3-0.7-0.3-1.1c0-0.4,0.1-0.8,0.3-1.1c0.2-0.3,0.4-0.6,0.7-0.8
		c0.3-0.2,0.7-0.3,1.1-0.3c0.4,0,0.8,0.1,1.1,0.3c0.3,0.2,0.6,0.4,0.7,0.8c0.2,0.3,0.3,0.7,0.3,1.1c0,0.4-0.1,0.8-0.3,1.1
		C15.4,10.9,15.2,11.1,14.9,11.3z"/>
	<path id="XMLID_177_" d="M23.9,3.9L23.9,3.9c-0.2,0-0.3,0-0.4,0.1c-0.1,0.1-0.1,0.2-0.1,0.3v3c-0.6-0.7-1.2-1.1-2-1.1
		c-0.5,0-1,0.1-1.4,0.4c-0.4,0.2-0.7,0.6-1,1.1c-0.2,0.5-0.4,1-0.4,1.6c0,0.6,0.1,1.2,0.4,1.6c0.2,0.5,0.6,0.8,1,1.1
		c0.4,0.2,0.9,0.4,1.4,0.4c0.4,0,0.8-0.1,1.2-0.3c0.4-0.2,0.7-0.5,0.9-0.8v0.6c0,0.1,0,0.3,0.1,0.3c0.1,0.1,0.2,0.1,0.3,0.1h0
		c0.2,0,0.3,0,0.3-0.1c0.1-0.1,0.1-0.2,0.1-0.3V4.4c0-0.1,0-0.3-0.1-0.3C24.2,4,24.1,3.9,23.9,3.9z M23.1,10.6
		c-0.2,0.3-0.4,0.6-0.7,0.7c-0.3,0.2-0.6,0.3-1,0.3c-0.4,0-0.7-0.1-1-0.3c-0.3-0.2-0.5-0.4-0.6-0.8c-0.1-0.3-0.2-0.7-0.2-1.1
		c0-0.4,0.1-0.8,0.2-1.1C20,8,20.2,7.7,20.4,7.6c0.3-0.2,0.6-0.3,1-0.3c0.4,0,0.7,0.1,1,0.3S23,8,23.1,8.3c0.2,0.3,0.3,0.7,0.3,1.2
		C23.4,9.9,23.3,10.3,23.1,10.6z"/>
	<path id="XMLID_180_" d="M31.2,6.7c-0.4-0.2-1-0.4-1.6-0.4c-0.6,0-1.1,0.1-1.6,0.4c-0.5,0.3-0.8,0.6-1.1,1.1
		c-0.3,0.5-0.4,1-0.4,1.6c0,0.6,0.1,1.2,0.3,1.7c0.2,0.5,0.6,0.8,1,1.1c0.4,0.2,1,0.4,1.6,0.4c0.5,0,1-0.1,1.4-0.2
		c0.5-0.1,0.9-0.2,1.2-0.4c0.2-0.1,0.3-0.2,0.3-0.4c0-0.1,0-0.2,0-0.2c0-0.1-0.1-0.2-0.2-0.3C32.1,11,32,11,32,11
		c-0.1,0-0.1,0-0.2,0.1c-0.3,0.2-0.6,0.3-1.1,0.4c-0.4,0.1-0.8,0.1-1.3,0.1c-0.6,0-1.1-0.2-1.4-0.5c-0.3-0.3-0.5-0.8-0.5-1.4h4.6
		c0.1,0,0.3,0,0.3-0.1c0.1-0.1,0.1-0.2,0.1-0.3c0-0.6-0.2-1.1-0.4-1.5C31.9,7.3,31.6,7,31.2,6.7z M27.6,8.8c0.1-0.5,0.3-0.8,0.7-1.1
		c0.3-0.3,0.8-0.4,1.3-0.4c0.6,0,1,0.1,1.3,0.4c0.3,0.3,0.5,0.6,0.6,1.1H27.6z"/>
	<path id="XMLID_183_" d="M10.3,21.5H8.9v-6c0-0.5-0.3-0.7-0.8-0.7c-0.2,0-0.4,0-0.6,0.1c-0.1,0.1-0.3,0.2-0.4,0.4l-4.3,6.4
		c-0.1,0.1-0.1,0.2-0.1,0.4c0,0.2,0,0.4,0.1,0.5c0.1,0.1,0.2,0.2,0.4,0.2h4.2v2.2c0,0.2,0,0.4,0.1,0.4c0.1,0.1,0.3,0.1,0.5,0.1h0
		c0.2,0,0.4,0,0.5-0.1c0.1-0.1,0.1-0.2,0.1-0.4v-2.2h1.4c0.2,0,0.3,0,0.4-0.1c0.1-0.1,0.1-0.3,0.1-0.5s0-0.4-0.1-0.5
		C10.7,21.6,10.5,21.5,10.3,21.5z M7.6,21.5h-3l3.1-4.8L7.6,21.5z"/>
	<path id="XMLID_186_" d="M19.7,15.5c-0.6-0.4-1.2-0.7-2-0.7c-0.8,0-1.4,0.2-2,0.7c-0.6,0.4-1,1.1-1.3,1.9c-0.3,0.8-0.5,1.8-0.5,2.8
		c0,1.1,0.2,2,0.5,2.8c0.3,0.8,0.7,1.4,1.3,1.9c0.6,0.4,1.2,0.7,2,0.7c0.8,0,1.4-0.2,2-0.7c0.6-0.4,1-1.1,1.3-1.9
		c0.3-0.8,0.5-1.8,0.5-2.8c0-1.1-0.2-2-0.5-2.8C20.7,16.5,20.3,15.9,19.7,15.5z M15.5,21.8c-0.1-0.5-0.1-1-0.1-1.6
		c0-0.9,0.1-1.6,0.3-2.2c0.2-0.6,0.5-1.1,0.8-1.4c0.4-0.3,0.8-0.5,1.2-0.5c0.4,0,0.7,0.1,1,0.3c0.3,0.2,0.6,0.5,0.8,0.9L15.5,21.8z
		 M19.8,22.4c-0.2,0.6-0.5,1.1-0.8,1.4c-0.4,0.3-0.8,0.5-1.2,0.5c-0.4,0-0.7-0.1-1-0.3c-0.3-0.2-0.6-0.5-0.8-0.9l4-4.5
		c0.1,0.5,0.1,1,0.1,1.6C20.1,21.1,20,21.8,19.8,22.4z"/>
	<path id="XMLID_190_" d="M32,21.5h-1.4v-6c0-0.5-0.3-0.7-0.8-0.7c-0.2,0-0.4,0-0.6,0.1c-0.1,0.1-0.3,0.2-0.4,0.4l-4.3,6.4
		c-0.1,0.1-0.1,0.2-0.1,0.4c0,0.2,0,0.4,0.1,0.5c0.1,0.1,0.2,0.2,0.4,0.2h4.2v2.2c0,0.2,0,0.4,0.1,0.4c0.1,0.1,0.3,0.1,0.5,0.1h0
		c0.2,0,0.4,0,0.5-0.1c0.1-0.1,0.1-0.2,0.1-0.4v-2.2H32c0.2,0,0.3,0,0.4-0.1c0.1-0.1,0.1-0.3,0.1-0.5s0-0.4-0.1-0.5
		C32.3,21.6,32.2,21.5,32,21.5z M29.2,21.5h-3l3.1-4.8L29.2,21.5z"/>
	<rect id="XMLID_191_" x="33.5" y="13.3" width="6" height="0.5"/>
	<path id="XMLID_192_" class="st1" d="M12.8,31.4c0,0-0.1,0-0.1,0c-0.1,0-0.1,0-0.1,0c0,0-0.1,0.1-0.1,0.1c0,0,0,0.1,0,0.2
		c0,0.1,0,0.1,0,0.2c0,0,0.1,0.1,0.1,0.1c0,0,0.1,0,0.1,0c0.1,0,0.1,0,0.1,0c0,0,0.1-0.1,0.1-0.1c0,0,0-0.1,0-0.2c0-0.1,0-0.1,0-0.2
		C12.9,31.5,12.8,31.5,12.8,31.4z"/>
	<path id="XMLID_193_" class="st1" d="M8.1,31.4c-0.1,0-0.1,0-0.2,0.1c0,0-0.1,0.1-0.1,0.2h0.6c0-0.1,0-0.1-0.1-0.2
		C8.3,31.4,8.2,31.4,8.1,31.4z"/>
	<path id="XMLID_194_" class="st1" d="M6,31.4c0,0-0.1,0-0.2,0c-0.1,0-0.1,0-0.2,0c0,0-0.1,0.1-0.1,0.1c0,0,0,0.1,0,0.2
		c0,0.1,0,0.1,0,0.2c0,0,0.1,0.1,0.1,0.1c0,0,0.1,0,0.2,0C5.9,32,6,32,6,32c0,0,0.1-0.1,0.1-0.1s0-0.1,0-0.2c0-0.1,0-0.1,0-0.2
		S6.1,31.5,6,31.4z"/>
	<path id="XMLID_195_" class="st1" d="M13.8,31.4c-0.1,0-0.1,0-0.2,0.1c0,0-0.1,0.1-0.1,0.2h0.6c0-0.1,0-0.1-0.1-0.2
		C13.9,31.4,13.9,31.4,13.8,31.4z"/>
	<path id="XMLID_196_" class="st1" d="M20.5,31.4c-0.1,0-0.1,0-0.2,0.1c0,0-0.1,0.1-0.1,0.2h0.6c0-0.1,0-0.1-0.1-0.2
		C20.7,31.4,20.6,31.4,20.5,31.4z"/>
	<path id="XMLID_197_" class="st1" d="M17.2,31.4c-0.1,0-0.1,0-0.2,0.1c0,0-0.1,0.1-0.1,0.2h0.6c0-0.1,0-0.1-0.1-0.2
		C17.3,31.4,17.2,31.4,17.2,31.4z"/>
	<path id="XMLID_198_" class="st1" d="M3.6,31.4c-0.1,0-0.1,0-0.2,0.1c0,0-0.1,0.1-0.1,0.2h0.6c0-0.1,0-0.1-0.1-0.2
		C3.8,31.4,3.7,31.4,3.6,31.4z"/>
	<path id="XMLID_199_" class="st1" d="M37.5,31.4c-0.1,0-0.1,0-0.2,0.1c-0.1,0-0.1,0.1-0.1,0.2h0.6c0-0.1,0-0.1-0.1-0.2
		C37.6,31.4,37.6,31.4,37.5,31.4z"/>
	<path id="XMLID_202_" class="st1" d="M0,29.8V33h41.5v-3.2H0z M27.1,31.1l0.3-0.2c0,0,0,0,0,0c0,0,0,0,0.1,0c0,0,0,0,0,0.1
		c0,0,0,0,0,0L27.1,31.1c0.1,0.1,0.1,0.1,0,0.1C27.2,31.2,27.2,31.2,27.1,31.1C27.1,31.1,27.1,31.1,27.1,31.1
		C27.1,31.1,27.1,31.1,27.1,31.1z M15.9,30.9C15.9,30.9,15.9,30.9,15.9,30.9C16,30.9,16,30.9,15.9,30.9c0.1-0.1,0.1-0.1,0.2,0
		c0,0,0,0,0,0v0.1c0,0,0,0,0,0c0,0,0,0-0.1,0c0,0-0.1,0-0.1,0c0,0,0,0,0,0V30.9z M13.6,31.1l0.3-0.2c0,0,0,0,0,0c0,0,0,0,0.1,0
		c0,0,0,0,0,0.1c0,0,0,0,0,0L13.6,31.1c0.1,0.1,0.1,0.1,0,0.1C13.6,31.2,13.6,31.2,13.6,31.1C13.6,31.1,13.6,31.1,13.6,31.1
		C13.6,31.1,13.6,31.1,13.6,31.1z M3.4,31.1l0.3-0.2c0,0,0,0,0,0c0,0,0,0,0.1,0c0,0,0,0,0,0.1c0,0,0,0,0,0L3.4,31.1
		c0.1,0.1,0.1,0.1,0,0.1C3.5,31.2,3.5,31.2,3.4,31.1C3.4,31.1,3.4,31.1,3.4,31.1C3.4,31.1,3.4,31.1,3.4,31.1z M1.7,32.1
		C1.7,32.1,1.7,32.2,1.7,32.1l-0.6,0h0c0,0,0,0,0,0c0,0,0,0,0,0v-1c0,0,0,0,0,0c0,0,0,0,0.1,0h0c0,0,0,0,0.1,0c0,0,0,0,0,0V32h0.5
		c0,0,0,0,0,0C1.7,32,1.7,32.1,1.7,32.1C1.7,32.1,1.7,32.1,1.7,32.1z M2.6,31l-0.2,0.4c0,0,0,0-0.1,0c0,0,0,0,0,0c0,0,0,0,0,0
		c0,0,0,0,0,0L2.4,31c0,0,0,0,0,0L2.6,31C2.6,31,2.6,31,2.6,31C2.6,31,2.7,31,2.6,31C2.7,31,2.6,31,2.6,31z M4,31.7
		C4,31.7,4,31.8,4,31.7l-0.7,0c0,0.1,0,0.2,0.1,0.2c0,0,0.1,0.1,0.2,0.1c0.1,0,0.1,0,0.2,0c0.1,0,0.1,0,0.2-0.1c0,0,0,0,0,0
		c0,0,0,0,0,0c0,0,0,0,0,0c0,0,0,0,0,0c0,0,0,0,0,0.1c0,0-0.1,0-0.2,0.1c-0.1,0-0.1,0-0.2,0c-0.1,0-0.2,0-0.2-0.1
		c-0.1,0-0.1-0.1-0.1-0.2c0-0.1,0-0.1,0-0.2c0-0.1,0-0.2,0.1-0.2c0-0.1,0.1-0.1,0.2-0.2c0.1,0,0.1-0.1,0.2-0.1c0.1,0,0.2,0,0.2,0.1
		c0.1,0,0.1,0.1,0.1,0.2C4,31.5,4,31.6,4,31.7C4,31.7,4,31.7,4,31.7z M5.1,32.1c-0.1,0-0.1,0.1-0.2,0.1c-0.1,0-0.1,0-0.2,0
		c-0.1,0-0.2,0-0.2-0.1c-0.1,0-0.1-0.1-0.2-0.2c0-0.1-0.1-0.1-0.1-0.2c0-0.1,0-0.2,0.1-0.2c0-0.1,0.1-0.1,0.2-0.2
		c0.1,0,0.1-0.1,0.2-0.1c0.1,0,0.1,0,0.2,0c0.1,0,0.1,0,0.2,0.1c0,0,0,0,0,0.1c0,0,0,0,0,0c0,0,0,0,0,0c0,0,0,0,0,0
		c-0.1-0.1-0.2-0.1-0.3-0.1c-0.1,0-0.1,0-0.2,0c0,0-0.1,0.1-0.1,0.1c0,0,0,0.1,0,0.2c0,0.1,0,0.1,0,0.2c0,0,0.1,0.1,0.1,0.1
		c0,0,0.1,0,0.2,0c0.1,0,0.1,0,0.2,0C5,32,5,32,5.1,31.9c0,0,0,0,0,0c0,0,0,0,0,0C5.2,32,5.2,32,5.1,32.1C5.2,32,5.1,32,5.1,32.1z
		 M6.2,32c0,0.1-0.1,0.1-0.2,0.2c-0.1,0-0.1,0.1-0.2,0.1c-0.1,0-0.2,0-0.2-0.1c-0.1,0-0.1-0.1-0.2-0.2c0-0.1-0.1-0.1-0.1-0.2
		c0-0.1,0-0.2,0.1-0.2c0-0.1,0.1-0.1,0.2-0.2c0.1,0,0.1-0.1,0.2-0.1c0.1,0,0.2,0,0.2,0.1c0.1,0,0.1,0.1,0.2,0.2
		c0,0.1,0.1,0.1,0.1,0.2C6.3,31.8,6.3,31.9,6.2,32z M7.4,32.1C7.4,32.1,7.4,32.2,7.4,32.1l-0.8,0c0,0,0,0,0,0c0,0,0,0,0-0.1
		c0,0,0,0,0-0.1c0,0,0,0,0,0h0.3v-1H6.7c0,0,0,0,0,0c0,0,0,0,0-0.1c0,0,0,0,0-0.1c0,0,0,0,0,0H7h0c0,0,0,0,0,0c0,0,0,0,0,0v1h0.3
		c0,0,0,0,0,0C7.4,32,7.4,32.1,7.4,32.1C7.4,32.1,7.4,32.1,7.4,32.1z M8.5,31.7C8.5,31.7,8.5,31.8,8.5,31.7l-0.7,0
		c0,0.1,0,0.2,0.1,0.2C8,32,8,32,8.1,32c0.1,0,0.1,0,0.2,0c0.1,0,0.1,0,0.2-0.1c0,0,0,0,0,0c0,0,0,0,0,0c0,0,0,0,0,0c0,0,0,0,0,0
		c0,0,0,0,0,0.1c0,0-0.1,0-0.2,0.1c-0.1,0-0.1,0-0.2,0c-0.1,0-0.2,0-0.2-0.1S7.8,32,7.7,32c0-0.1,0-0.1,0-0.2c0-0.1,0-0.2,0.1-0.2
		c0-0.1,0.1-0.1,0.2-0.2c0.1,0,0.1-0.1,0.2-0.1c0.1,0,0.2,0,0.2,0.1c0.1,0,0.1,0.1,0.1,0.2C8.5,31.5,8.6,31.6,8.5,31.7
		C8.6,31.7,8.6,31.7,8.5,31.7z M10.7,32c0,0-0.1,0.1-0.1,0.1c-0.1,0-0.1,0-0.2,0c-0.2,0-0.3,0-0.4-0.1c0,0,0,0,0-0.1c0,0,0,0,0,0
		c0,0,0,0,0,0c0,0,0,0,0,0c0.1,0,0.1,0.1,0.2,0.1c0.1,0,0.1,0,0.2,0c0.1,0,0.1,0,0.2,0c0,0,0.1-0.1,0.1-0.1c0,0,0,0,0-0.1s0,0-0.1,0
		c0,0,0,0-0.1,0c0,0-0.1,0-0.1,0c-0.1,0-0.1,0-0.1,0c0,0-0.1,0-0.1,0c0,0-0.1,0-0.1-0.1c0,0,0-0.1,0-0.1c0-0.1,0-0.1,0-0.1
		c0,0,0.1-0.1,0.1-0.1c0.1,0,0.1,0,0.2,0c0.1,0,0.3,0,0.4,0.1c0,0,0,0,0,0.1c0,0,0,0,0,0c0,0,0,0,0,0c0,0,0,0,0,0
		c-0.1-0.1-0.2-0.1-0.3-0.1c-0.1,0-0.1,0-0.2,0c0,0-0.1,0.1-0.1,0.1c0,0,0,0,0,0c0,0,0,0,0.1,0c0,0,0,0,0.1,0c0,0,0.1,0,0.1,0
		c0.1,0,0.1,0,0.1,0c0,0,0.1,0,0.1,0c0,0,0.1,0,0.1,0.1c0,0,0,0.1,0,0.1C10.8,31.9,10.8,32,10.7,32z M11.9,32.1
		C11.9,32.1,11.9,32.1,11.9,32.1C11.9,32.2,11.8,32.2,11.9,32.1L11.9,32.1c-0.1,0.1-0.1,0.1-0.1,0c0,0,0,0,0,0v-0.2
		c0,0.1-0.1,0.1-0.2,0.2c-0.1,0-0.1,0.1-0.2,0.1c-0.1,0-0.2,0-0.2-0.1c-0.1-0.1-0.1-0.1-0.1-0.2v-0.5c0,0,0,0,0,0c0,0,0,0,0.1,0h0
		c0,0,0,0,0.1,0c0,0,0,0,0,0v0.5c0,0.1,0,0.1,0,0.1c0,0,0.1,0,0.1,0c0.1,0,0.1,0,0.2-0.1c0.1,0,0.1-0.1,0.1-0.1c0-0.1,0-0.1,0-0.2
		v-0.3c0,0,0,0,0,0c0,0,0,0,0.1,0h0c0,0,0,0,0.1,0c0,0,0,0,0,0V32.1z M13,32c0,0.1-0.1,0.1-0.1,0.2c-0.1,0-0.1,0.1-0.2,0.1
		c-0.1,0-0.2-0.1-0.3-0.2v0.4c0,0,0,0,0,0c0,0,0,0-0.1,0h0c0,0,0,0-0.1,0c0,0,0,0,0,0v-1.1c0,0,0,0,0,0c0,0,0,0,0,0h0c0,0,0,0,0,0
		c0,0,0,0,0,0v0.1c0-0.1,0.1-0.1,0.1-0.1c0.1,0,0.1,0,0.2,0c0.1,0,0.1,0,0.2,0.1c0.1,0,0.1,0.1,0.1,0.2c0,0.1,0.1,0.1,0.1,0.2
		C13.1,31.8,13.1,31.9,13,32z M14.2,31.7C14.2,31.7,14.2,31.8,14.2,31.7l-0.7,0c0,0.1,0,0.2,0.1,0.2c0,0,0.1,0.1,0.2,0.1
		c0.1,0,0.1,0,0.2,0c0.1,0,0.1,0,0.2-0.1c0,0,0,0,0,0c0,0,0,0,0,0c0,0,0,0,0,0c0,0,0,0,0,0c0,0,0,0,0,0.1c0,0-0.1,0-0.2,0.1
		c-0.1,0-0.1,0-0.2,0c-0.1,0-0.2,0-0.2-0.1c-0.1,0-0.1-0.1-0.1-0.2c0-0.1,0-0.1,0-0.2c0-0.1,0-0.2,0.1-0.2c0-0.1,0.1-0.1,0.2-0.2
		c0.1,0,0.1-0.1,0.2-0.1c0.1,0,0.2,0,0.2,0.1c0.1,0,0.1,0.1,0.1,0.2C14.2,31.5,14.2,31.6,14.2,31.7C14.2,31.7,14.2,31.7,14.2,31.7z
		 M15.3,31.4C15.3,31.4,15.3,31.4,15.3,31.4C15.3,31.4,15.3,31.4,15.3,31.4C15.3,31.4,15.3,31.4,15.3,31.4c-0.1,0-0.1,0-0.2,0
		c-0.1,0-0.1,0-0.2,0.1c-0.1,0-0.1,0.1-0.1,0.2c0,0.1-0.1,0.2-0.1,0.2v0.2c0,0,0,0,0,0c0,0,0,0-0.1,0h0c0,0,0,0-0.1,0c0,0,0,0,0,0
		v-0.8c0,0,0,0,0,0c0,0,0,0,0,0h0c0,0,0,0,0,0c0,0,0,0,0,0v0.2c0.1-0.1,0.1-0.2,0.2-0.2c0.1-0.1,0.2-0.1,0.2-0.1
		C15.2,31.3,15.2,31.3,15.3,31.4C15.3,31.3,15.3,31.3,15.3,31.4C15.3,31.4,15.3,31.4,15.3,31.4z M16.5,32.1
		C16.4,32.1,16.4,32.2,16.5,32.1l-0.8,0c0,0,0,0,0,0c0,0,0,0,0-0.1c0,0,0,0,0-0.1c0,0,0,0,0,0H16v-0.6h-0.2c0,0,0,0,0,0
		c0,0,0,0,0-0.1c0,0,0,0,0-0.1c0,0,0,0,0,0h0.3c0,0,0,0,0,0c0,0,0,0,0,0V32h0.3c0,0,0,0,0,0C16.5,32,16.5,32.1,16.5,32.1
		C16.5,32.1,16.5,32.1,16.5,32.1z M17.6,31.7C17.6,31.7,17.6,31.8,17.6,31.7l-0.7,0c0,0.1,0,0.2,0.1,0.2c0,0,0.1,0.1,0.2,0.1
		c0.1,0,0.1,0,0.2,0c0.1,0,0.1,0,0.2-0.1c0,0,0,0,0,0c0,0,0,0,0,0c0,0,0,0,0,0c0,0,0,0,0,0c0,0,0,0,0,0.1c0,0-0.1,0-0.2,0.1
		c-0.1,0-0.1,0-0.2,0c-0.1,0-0.2,0-0.2-0.1c-0.1,0-0.1-0.1-0.1-0.2c0-0.1,0-0.1,0-0.2c0-0.1,0-0.2,0.1-0.2c0-0.1,0.1-0.1,0.2-0.2
		c0.1,0,0.1-0.1,0.2-0.1c0.1,0,0.2,0,0.2,0.1c0.1,0,0.1,0.1,0.1,0.2C17.6,31.5,17.6,31.6,17.6,31.7C17.6,31.7,17.6,31.7,17.6,31.7z
		 M18.7,32.1C18.7,32.1,18.7,32.1,18.7,32.1C18.6,32.2,18.6,32.2,18.7,32.1L18.7,32.1c-0.1,0.1-0.1,0.1-0.1,0c0,0,0,0,0,0v-0.2
		c0,0.1-0.1,0.1-0.2,0.2c-0.1,0-0.1,0.1-0.2,0.1c-0.1,0-0.2,0-0.2-0.1c-0.1-0.1-0.1-0.1-0.1-0.2v-0.5c0,0,0,0,0,0c0,0,0,0,0.1,0h0
		c0,0,0,0,0.1,0c0,0,0,0,0,0v0.5c0,0.1,0,0.1,0,0.1c0,0,0.1,0,0.1,0c0.1,0,0.1,0,0.2-0.1c0.1,0,0.1-0.1,0.1-0.1c0-0.1,0-0.1,0-0.2
		v-0.3c0,0,0,0,0,0c0,0,0,0,0.1,0h0c0,0,0,0,0.1,0c0,0,0,0,0,0V32.1z M19.8,31.4C19.8,31.4,19.8,31.4,19.8,31.4
		C19.8,31.4,19.8,31.4,19.8,31.4C19.8,31.4,19.8,31.4,19.8,31.4c-0.1,0-0.1,0-0.2,0c-0.1,0-0.1,0-0.2,0.1c-0.1,0-0.1,0.1-0.1,0.2
		c0,0.1-0.1,0.2-0.1,0.2v0.2c0,0,0,0,0,0c0,0,0,0-0.1,0h0c0,0,0,0-0.1,0c0,0,0,0,0,0v-0.8c0,0,0,0,0,0c0,0,0,0,0,0h0c0,0,0,0,0,0
		c0,0,0,0,0,0v0.2c0.1-0.1,0.1-0.2,0.2-0.2c0.1-0.1,0.2-0.1,0.2-0.1C19.7,31.3,19.8,31.3,19.8,31.4C19.8,31.3,19.8,31.3,19.8,31.4
		C19.8,31.4,19.8,31.4,19.8,31.4z M21,31.7C21,31.7,20.9,31.8,21,31.7l-0.7,0c0,0.1,0,0.2,0.1,0.2c0,0,0.1,0.1,0.2,0.1
		c0.1,0,0.1,0,0.2,0c0.1,0,0.1,0,0.2-0.1c0,0,0,0,0,0c0,0,0,0,0,0c0,0,0,0,0,0c0,0,0,0,0,0c0,0,0,0,0,0.1c0,0-0.1,0-0.2,0.1
		c-0.1,0-0.1,0-0.2,0c-0.1,0-0.2,0-0.2-0.1c-0.1,0-0.1-0.1-0.1-0.2c0-0.1,0-0.1,0-0.2c0-0.1,0-0.2,0.1-0.2c0-0.1,0.1-0.1,0.2-0.2
		c0.1,0,0.1-0.1,0.2-0.1c0.1,0,0.2,0,0.2,0.1c0.1,0,0.1,0.1,0.1,0.2C20.9,31.5,21,31.6,21,31.7C21,31.7,21,31.7,21,31.7z M23.2,32.1
		C23.2,32.1,23.2,32.1,23.2,32.1C23.2,32.2,23.1,32.2,23.2,32.1L23.2,32.1c-0.1,0.1-0.1,0.1-0.1,0c0,0,0,0,0,0V32
		c0,0.1-0.1,0.1-0.1,0.1c-0.1,0-0.1,0-0.2,0c-0.1,0-0.1,0-0.2-0.1c-0.1,0-0.1-0.1-0.1-0.2c0-0.1-0.1-0.1-0.1-0.2
		c0-0.1,0-0.2,0.1-0.2c0-0.1,0.1-0.1,0.1-0.2c0.1,0,0.1-0.1,0.2-0.1c0.1,0,0.2,0.1,0.3,0.2V31c0,0,0,0,0,0c0,0,0,0,0.1,0h0
		c0,0,0,0,0.1,0c0,0,0,0,0,0V32.1z M24.3,32.1C24.3,32.1,24.3,32.1,24.3,32.1C24.3,32.2,24.3,32.2,24.3,32.1L24.3,32.1
		c-0.1,0.1-0.1,0.1-0.1,0c0,0,0,0,0,0v-0.2c0,0.1-0.1,0.1-0.2,0.2c-0.1,0-0.1,0.1-0.2,0.1c-0.1,0-0.2,0-0.2-0.1
		c-0.1-0.1-0.1-0.1-0.1-0.2v-0.5c0,0,0,0,0,0c0,0,0,0,0.1,0h0c0,0,0,0,0.1,0c0,0,0,0,0,0v0.5c0,0.1,0,0.1,0,0.1c0,0,0.1,0,0.1,0
		c0.1,0,0.1,0,0.2-0.1c0.1,0,0.1-0.1,0.1-0.1c0-0.1,0-0.1,0-0.2v-0.3c0,0,0,0,0,0c0,0,0,0,0.1,0h0c0,0,0,0,0.1,0c0,0,0,0,0,0V32.1z
		 M26.6,32.1C26.6,32.1,26.6,32.1,26.6,32.1C26.5,32.2,26.5,32.2,26.6,32.1L26.6,32.1c-0.1,0.1-0.1,0.1-0.1,0c0,0,0,0,0,0V32
		c0,0.1-0.1,0.1-0.1,0.1c-0.1,0-0.1,0-0.2,0c-0.1,0-0.1,0-0.2-0.1c-0.1,0-0.1-0.1-0.1-0.2c0-0.1-0.1-0.1-0.1-0.2
		c0-0.1,0-0.2,0.1-0.2c0-0.1,0.1-0.1,0.1-0.2c0.1,0,0.1-0.1,0.2-0.1c0.1,0,0.2,0.1,0.3,0.2V31c0,0,0,0,0,0s0,0,0.1,0h0
		c0,0,0,0,0.1,0s0,0,0,0V32.1z M27.7,31.7C27.7,31.7,27.7,31.8,27.7,31.7l-0.7,0c0,0.1,0,0.2,0.1,0.2c0,0,0.1,0.1,0.2,0.1
		c0.1,0,0.1,0,0.2,0c0.1,0,0.1,0,0.2-0.1c0,0,0,0,0,0c0,0,0,0,0,0c0,0,0,0,0,0c0,0,0,0,0,0c0,0,0,0,0,0.1c0,0-0.1,0-0.2,0.1
		c-0.1,0-0.1,0-0.2,0c-0.1,0-0.2,0-0.2-0.1S27,32,26.9,32c0-0.1,0-0.1,0-0.2c0-0.1,0-0.2,0.1-0.2c0-0.1,0.1-0.1,0.2-0.2
		c0.1,0,0.1-0.1,0.2-0.1c0.1,0,0.2,0,0.2,0.1c0.1,0,0.1,0.1,0.1,0.2C27.7,31.5,27.7,31.6,27.7,31.7C27.7,31.7,27.7,31.7,27.7,31.7z
		 M28.9,31.4l-0.3,0.7c0,0,0,0,0,0c0,0,0,0-0.1,0c0,0-0.1,0-0.1,0c0,0,0,0,0,0L28,31.4c0,0,0,0,0,0c0,0,0,0,0,0c0,0,0,0,0,0
		c0,0,0,0,0,0c0,0,0,0,0,0c0,0,0,0,0,0l0.3,0.7l0.3-0.7c0,0,0,0,0,0C28.8,31.3,28.8,31.3,28.9,31.4C28.8,31.3,28.8,31.3,28.9,31.4
		C28.9,31.3,28.9,31.3,28.9,31.4C28.9,31.3,28.9,31.3,28.9,31.4C28.9,31.3,28.9,31.4,28.9,31.4z M30,31.7C30,31.7,30,31.8,30,31.7
		l-0.7,0c0,0.1,0,0.2,0.1,0.2c0,0,0.1,0.1,0.2,0.1c0.1,0,0.1,0,0.2,0c0.1,0,0.1,0,0.2-0.1c0,0,0,0,0,0c0,0,0,0,0,0c0,0,0,0,0,0
		c0,0,0,0,0,0c0,0,0,0,0,0.1c0,0-0.1,0-0.2,0.1c-0.1,0-0.1,0-0.2,0c-0.1,0-0.2,0-0.2-0.1S29.2,32,29.2,32c0-0.1,0-0.1,0-0.2
		c0-0.1,0-0.2,0.1-0.2c0-0.1,0.1-0.1,0.2-0.2c0.1,0,0.1-0.1,0.2-0.1c0.1,0,0.2,0,0.2,0.1c0.1,0,0.1,0.1,0.1,0.2
		C30,31.5,30,31.6,30,31.7C30,31.7,30,31.7,30,31.7z M31.1,32.1C31.1,32.1,31.1,32.2,31.1,32.1l-0.8,0c0,0,0,0,0,0c0,0,0,0,0-0.1
		c0,0,0,0,0-0.1c0,0,0,0,0,0h0.3v-1h-0.3c0,0,0,0,0,0c0,0,0,0,0-0.1c0,0,0,0,0-0.1c0,0,0,0,0,0h0.3h0c0,0,0,0,0,0c0,0,0,0,0,0v1h0.3
		c0,0,0,0,0,0C31.1,32,31.1,32.1,31.1,32.1C31.1,32.1,31.1,32.1,31.1,32.1z M32.2,32c0,0.1-0.1,0.1-0.2,0.2c-0.1,0-0.1,0.1-0.2,0.1
		c-0.1,0-0.2,0-0.2-0.1c-0.1,0-0.1-0.1-0.2-0.2c0-0.1-0.1-0.1-0.1-0.2c0-0.1,0-0.2,0.1-0.2c0-0.1,0.1-0.1,0.2-0.2
		c0.1,0,0.1-0.1,0.2-0.1c0.1,0,0.2,0,0.2,0.1c0.1,0,0.1,0.1,0.2,0.2c0,0.1,0.1,0.1,0.1,0.2C32.3,31.8,32.2,31.9,32.2,32z M33.3,32
		c0,0.1-0.1,0.1-0.1,0.2c-0.1,0-0.1,0.1-0.2,0.1c-0.1,0-0.2-0.1-0.3-0.2v0.4c0,0,0,0,0,0c0,0,0,0-0.1,0h0c0,0,0,0-0.1,0c0,0,0,0,0,0
		v-1.1c0,0,0,0,0,0c0,0,0,0,0,0h0c0,0,0,0,0,0c0,0,0,0,0,0v0.1c0-0.1,0.1-0.1,0.1-0.1c0.1,0,0.1,0,0.2,0c0.1,0,0.1,0,0.2,0.1
		c0.1,0,0.1,0.1,0.1,0.2c0,0.1,0.1,0.1,0.1,0.2C33.4,31.8,33.4,31.9,33.3,32z M34.5,32c0,0.1-0.1,0.1-0.1,0.2
		c-0.1,0-0.1,0.1-0.2,0.1c-0.1,0-0.2-0.1-0.3-0.2v0.4c0,0,0,0,0,0c0,0,0,0-0.1,0h0c0,0,0,0-0.1,0c0,0,0,0,0,0v-1.1c0,0,0,0,0,0
		c0,0,0,0,0,0h0c0,0,0,0,0,0c0,0,0,0,0,0v0.1c0-0.1,0.1-0.1,0.1-0.1c0.1,0,0.1,0,0.2,0c0.1,0,0.1,0,0.2,0.1c0.1,0,0.1,0.1,0.1,0.2
		c0,0.1,0.1,0.1,0.1,0.2C34.5,31.8,34.5,31.9,34.5,32z M35.6,31.7C35.6,31.7,35.6,31.8,35.6,31.7l-0.7,0c0,0.1,0,0.2,0.1,0.2
		c0,0,0.1,0.1,0.2,0.1c0.1,0,0.1,0,0.2,0c0.1,0,0.1,0,0.2-0.1c0,0,0,0,0,0c0,0,0,0,0,0c0,0,0,0,0,0c0,0,0,0,0,0c0,0,0,0,0,0.1
		c0,0-0.1,0-0.2,0.1c-0.1,0-0.1,0-0.2,0c-0.1,0-0.2,0-0.2-0.1c-0.1,0-0.1-0.1-0.1-0.2c0-0.1,0-0.1,0-0.2c0-0.1,0-0.2,0.1-0.2
		c0-0.1,0.1-0.1,0.2-0.2c0.1,0,0.1-0.1,0.2-0.1c0.1,0,0.2,0,0.2,0.1c0.1,0,0.1,0.1,0.1,0.2C35.6,31.5,35.6,31.6,35.6,31.7
		C35.6,31.7,35.6,31.7,35.6,31.7z M36.8,32.1C36.8,32.1,36.8,32.1,36.8,32.1C36.8,32.2,36.8,32.2,36.8,32.1L36.8,32.1
		c-0.1,0.1-0.1,0.1-0.1,0c0,0,0,0,0,0v-0.6c0,0,0-0.1,0-0.1c0,0,0,0-0.1,0c0,0-0.1,0-0.1,0c0,0,0,0.1-0.1,0.1s0,0.1,0,0.2v0.4
		c0,0,0,0,0,0c0,0,0,0-0.1,0h0c0,0,0,0-0.1,0c0,0,0,0,0,0v-0.6c0,0,0-0.1,0-0.1c0,0,0,0-0.1,0c0,0-0.1,0-0.1,0c0,0,0,0.1-0.1,0.1
		c0,0,0,0.1,0,0.2v0.4c0,0,0,0,0,0c0,0,0,0-0.1,0h0c0,0,0,0-0.1,0c0,0,0,0,0,0v-0.8c0,0,0,0,0,0c0,0,0,0,0,0h0c0,0,0,0,0,0
		c0,0,0,0,0,0v0.1c0-0.1,0.1-0.1,0.1-0.1c0,0,0.1,0,0.1,0c0,0,0.1,0,0.1,0c0,0,0.1,0.1,0.1,0.1c0.1-0.1,0.1-0.2,0.2-0.2
		c0,0,0.1,0,0.1,0c0,0,0.1,0,0.1,0.1c0,0,0,0.1,0,0.1V32.1z M37.9,31.7C37.9,31.7,37.9,31.8,37.9,31.7l-0.7,0c0,0.1,0,0.2,0.1,0.2
		c0,0,0.1,0.1,0.2,0.1c0.1,0,0.1,0,0.2,0c0.1,0,0.1,0,0.2-0.1c0,0,0,0,0,0c0,0,0,0,0,0c0,0,0,0,0,0c0,0,0,0,0,0c0,0,0,0,0,0.1
		c0,0-0.1,0-0.2,0.1c-0.1,0-0.1,0-0.2,0c-0.1,0-0.2,0-0.2-0.1c-0.1,0-0.1-0.1-0.1-0.2c0-0.1,0-0.1,0-0.2c0-0.1,0-0.2,0.1-0.2
		c0-0.1,0.1-0.1,0.2-0.2c0.1,0,0.1-0.1,0.2-0.1c0.1,0,0.2,0,0.2,0.1c0.1,0,0.1,0.1,0.1,0.2C37.9,31.5,37.9,31.6,37.9,31.7
		C37.9,31.7,37.9,31.7,37.9,31.7z M39,32.1C39,32.1,39,32.1,39,32.1C39,32.2,38.9,32.2,39,32.1L39,32.1c-0.1,0.1-0.1,0.1-0.1,0
		c0,0,0,0,0,0v-0.5c0-0.1,0-0.1,0-0.1c0,0-0.1,0-0.1,0c-0.1,0-0.1,0-0.2,0.1c-0.1,0-0.1,0.1-0.1,0.1c0,0.1,0,0.1,0,0.2v0.3
		c0,0,0,0,0,0c0,0,0,0-0.1,0h0c0,0,0,0-0.1,0c0,0,0,0,0,0v-0.8c0,0,0,0,0,0c0,0,0,0,0,0h0c0,0,0,0,0,0c0,0,0,0,0,0v0.2
		c0-0.1,0.1-0.1,0.2-0.2c0.1,0,0.1-0.1,0.2-0.1c0.1,0,0.2,0,0.2,0.1c0.1,0.1,0.1,0.1,0.1,0.2V32.1z M40.1,32.1c0,0-0.1,0.1-0.2,0.1
		c-0.1,0-0.1,0-0.2,0c-0.1,0-0.2,0-0.2-0.1c0-0.1-0.1-0.1-0.1-0.2v-0.3h-0.2c0,0,0,0,0,0c0,0,0,0,0-0.1c0,0,0,0,0-0.1c0,0,0,0,0,0
		h0.2v-0.3c0,0,0,0,0,0c0,0,0,0,0.1,0c0,0,0,0,0.1,0c0,0,0,0,0,0v0.3H40c0,0,0,0,0,0c0,0,0,0,0,0.1c0,0,0,0,0,0.1c0,0,0,0,0,0h-0.4
		v0.3c0,0.1,0,0.1,0,0.2c0,0,0.1,0.1,0.1,0.1c0,0,0.1,0,0.1,0c0,0,0.1,0,0.1-0.1c0,0,0,0,0,0C40.1,31.9,40.1,31.9,40.1,32.1
		C40.2,32,40.2,32,40.1,32.1C40.2,32,40.2,32.1,40.1,32.1z"/>
	<path id="XMLID_238_" class="st1" d="M35.2,31.4c-0.1,0-0.1,0-0.2,0.1c-0.1,0-0.1,0.1-0.1,0.2h0.6c0-0.1,0-0.1-0.1-0.2
		C35.4,31.4,35.3,31.4,35.2,31.4z"/>
	<path id="XMLID_239_" class="st1" d="M33.1,31.4c0,0-0.1,0-0.1,0c-0.1,0-0.1,0-0.1,0c0,0-0.1,0.1-0.1,0.1c0,0,0,0.1,0,0.2
		c0,0.1,0,0.1,0,0.2c0,0,0.1,0.1,0.1,0.1c0,0,0.1,0,0.1,0c0.1,0,0.1,0,0.1,0c0,0,0.1-0.1,0.1-0.1c0,0,0-0.1,0-0.2c0-0.1,0-0.1,0-0.2
		C33.2,31.5,33.2,31.5,33.1,31.4z"/>
	<path id="XMLID_240_" class="st1" d="M29.6,31.4c-0.1,0-0.1,0-0.2,0.1c0,0-0.1,0.1-0.1,0.2h0.6c0-0.1,0-0.1-0.1-0.2
		C29.7,31.4,29.7,31.4,29.6,31.4z"/>
	<path id="XMLID_241_" class="st1" d="M22.9,31.4c0,0-0.1,0-0.1,0c-0.1,0-0.1,0-0.1,0c0,0-0.1,0.1-0.1,0.1c0,0,0,0.1,0,0.2
		c0,0.1,0,0.1,0,0.2c0,0,0.1,0.1,0.1,0.1c0,0,0.1,0,0.1,0c0.1,0,0.1,0,0.1,0c0,0,0.1-0.1,0.1-0.1c0,0,0-0.1,0-0.2c0-0.1,0-0.1,0-0.2
		C23,31.5,23,31.5,22.9,31.4z"/>
	<path id="XMLID_242_" class="st1" d="M26.3,31.4c0,0-0.1,0-0.1,0c-0.1,0-0.1,0-0.1,0c0,0-0.1,0.1-0.1,0.1c0,0,0,0.1,0,0.2
		c0,0.1,0,0.1,0,0.2c0,0,0.1,0.1,0.1,0.1c0,0,0.1,0,0.1,0c0.1,0,0.1,0,0.1,0c0,0,0.1-0.1,0.1-0.1c0,0,0-0.1,0-0.2c0-0.1,0-0.1,0-0.2
		C26.4,31.5,26.3,31.5,26.3,31.4z"/>
	<path id="XMLID_243_" class="st1" d="M32,31.4c0,0-0.1,0-0.2,0c-0.1,0-0.1,0-0.2,0c0,0-0.1,0.1-0.1,0.1c0,0,0,0.1,0,0.2
		c0,0.1,0,0.1,0,0.2c0,0,0.1,0.1,0.1,0.1c0,0,0.1,0,0.2,0c0.1,0,0.1,0,0.2,0c0,0,0.1-0.1,0.1-0.1c0,0,0-0.1,0-0.2c0-0.1,0-0.1,0-0.2
		C32.1,31.5,32,31.5,32,31.4z"/>
	<path id="XMLID_244_" class="st1" d="M27.3,31.4c-0.1,0-0.1,0-0.2,0.1c0,0-0.1,0.1-0.1,0.2h0.6c0-0.1,0-0.1-0.1-0.2
		C27.5,31.4,27.4,31.4,27.3,31.4z"/>
	<path id="XMLID_245_" class="st1" d="M34.3,31.4c0,0-0.1,0-0.1,0c-0.1,0-0.1,0-0.1,0c0,0-0.1,0.1-0.1,0.1c0,0,0,0.1,0,0.2
		c0,0.1,0,0.1,0,0.2c0,0,0.1,0.1,0.1,0.1c0,0,0.1,0,0.1,0c0.1,0,0.1,0,0.1,0c0,0,0.1-0.1,0.1-0.1c0,0,0-0.1,0-0.2c0-0.1,0-0.1,0-0.2
		C34.3,31.5,34.3,31.5,34.3,31.4z"/>
	<path id="XMLID_246_" class="st0" d="M1.7,32H1.1v-0.9c0,0,0,0,0,0c0,0,0,0-0.1,0h0c0,0,0,0-0.1,0c0,0,0,0,0,0v1c0,0,0,0,0,0
		c0,0,0,0,0,0h0h0.6c0,0,0,0,0,0S1.7,32.1,1.7,32C1.7,32.1,1.7,32,1.7,32C1.7,32,1.7,32,1.7,32z"/>
	<path id="XMLID_247_" class="st0" d="M2.6,31H2.5c0,0,0,0,0,0l-0.1,0.4c0,0,0,0,0,0c0,0,0,0,0,0c0,0,0,0,0,0c0,0,0.1,0,0.1,0
		L2.6,31C2.6,31,2.7,31,2.6,31C2.7,31,2.6,31,2.6,31C2.6,31,2.6,31,2.6,31z"/>
	<path id="XMLID_248_" class="st0" d="M3.5,31.2C3.5,31.2,3.5,31.2,3.5,31.2L3.9,31c0,0,0,0,0,0c0,0,0,0,0-0.1c0,0,0,0-0.1,0
		c0,0,0,0,0,0l-0.3,0.2C3.4,31.1,3.4,31.1,3.5,31.2C3.4,31.1,3.4,31.1,3.5,31.2C3.5,31.2,3.5,31.2,3.5,31.2z"/>
	<path id="XMLID_251_" class="st0" d="M3.8,31.3c-0.1,0-0.1-0.1-0.2-0.1c-0.1,0-0.2,0-0.2,0.1c-0.1,0-0.1,0.1-0.2,0.2
		c0,0.1-0.1,0.1-0.1,0.2c0,0.1,0,0.2,0,0.2c0,0.1,0.1,0.1,0.1,0.2c0.1,0,0.1,0.1,0.2,0.1c0.1,0,0.1,0,0.2,0c0.1,0,0.1,0,0.2-0.1
		c0,0,0,0,0-0.1c0,0,0,0,0,0c0,0,0,0,0,0c0,0,0,0,0,0c0,0,0,0,0,0c0,0-0.1,0-0.2,0.1c-0.1,0-0.1,0-0.2,0c-0.1,0-0.2,0-0.2-0.1
		c0,0-0.1-0.1-0.1-0.2H4c0,0,0,0,0,0c0,0,0,0,0,0c0-0.1,0-0.2-0.1-0.2C4,31.4,3.9,31.4,3.8,31.3z M3.3,31.6c0-0.1,0-0.1,0.1-0.2
		c0,0,0.1-0.1,0.2-0.1c0.1,0,0.1,0,0.2,0.1c0,0,0.1,0.1,0.1,0.2H3.3z"/>
	<path id="XMLID_252_" class="st0" d="M5.1,31.9C5.1,31.9,5.1,31.9,5.1,31.9C5,32,5,32,4.9,32c-0.1,0-0.1,0-0.2,0
		c-0.1,0-0.1,0-0.2,0c0,0-0.1-0.1-0.1-0.1c0,0,0-0.1,0-0.2c0-0.1,0-0.1,0-0.2c0,0,0.1-0.1,0.1-0.1c0,0,0.1,0,0.2,0
		c0.1,0,0.2,0,0.3,0.1c0,0,0,0,0,0c0,0,0,0,0,0c0,0,0,0,0,0c0,0,0,0,0-0.1c-0.1,0-0.1-0.1-0.2-0.1c-0.1,0-0.1,0-0.2,0
		c-0.1,0-0.2,0-0.2,0.1c-0.1,0-0.1,0.1-0.2,0.2c0,0.1-0.1,0.1-0.1,0.2c0,0.1,0,0.2,0.1,0.2c0,0.1,0.1,0.1,0.2,0.2
		c0.1,0,0.1,0.1,0.2,0.1c0.1,0,0.1,0,0.2,0c0.1,0,0.1-0.1,0.2-0.1C5.1,32,5.2,32,5.1,31.9C5.2,32,5.2,32,5.1,31.9
		C5.1,31.9,5.1,31.9,5.1,31.9z"/>
	<path id="XMLID_255_" class="st0" d="M6.1,31.3c-0.1,0-0.1-0.1-0.2-0.1c-0.1,0-0.2,0-0.2,0.1c-0.1,0-0.1,0.1-0.2,0.2
		c0,0.1-0.1,0.1-0.1,0.2c0,0.1,0,0.2,0.1,0.2c0,0.1,0.1,0.1,0.2,0.2c0.1,0,0.1,0.1,0.2,0.1c0.1,0,0.2,0,0.2-0.1
		c0.1,0,0.1-0.1,0.2-0.2c0-0.1,0.1-0.1,0.1-0.2c0-0.1,0-0.2-0.1-0.2C6.2,31.4,6.2,31.4,6.1,31.3z M6.1,31.9c0,0-0.1,0.1-0.1,0.1
		c0,0-0.1,0-0.2,0c-0.1,0-0.1,0-0.2,0c0,0-0.1-0.1-0.1-0.1c0,0,0-0.1,0-0.2c0-0.1,0-0.1,0-0.2c0,0,0.1-0.1,0.1-0.1c0,0,0.1,0,0.2,0
		c0.1,0,0.1,0,0.2,0c0,0,0.1,0.1,0.1,0.1s0,0.1,0,0.2C6.2,31.8,6.2,31.8,6.1,31.9z"/>
	<path id="XMLID_256_" class="st0" d="M7.4,32H7.1v-1c0,0,0,0,0,0c0,0,0,0,0,0h0H6.7c0,0,0,0,0,0c0,0,0,0,0,0.1c0,0,0,0,0,0.1
		c0,0,0,0,0,0h0.3v1H6.6c0,0,0,0,0,0c0,0,0,0,0,0.1c0,0,0,0,0,0.1c0,0,0,0,0,0h0.7c0,0,0,0,0,0C7.4,32.1,7.4,32.1,7.4,32
		C7.4,32.1,7.4,32,7.4,32C7.4,32,7.4,32,7.4,32z"/>
	<path id="XMLID_259_" class="st0" d="M8.4,31.3c-0.1,0-0.1-0.1-0.2-0.1c-0.1,0-0.2,0-0.2,0.1c-0.1,0-0.1,0.1-0.2,0.2
		c0,0.1-0.1,0.1-0.1,0.2c0,0.1,0,0.2,0,0.2c0,0.1,0.1,0.1,0.1,0.2s0.1,0.1,0.2,0.1c0.1,0,0.1,0,0.2,0c0.1,0,0.1,0,0.2-0.1
		c0,0,0,0,0-0.1c0,0,0,0,0,0c0,0,0,0,0,0c0,0,0,0,0,0c0,0,0,0,0,0c0,0-0.1,0-0.2,0.1c-0.1,0-0.1,0-0.2,0C8,32,8,32,7.9,32
		c0,0-0.1-0.1-0.1-0.2h0.7c0,0,0,0,0,0c0,0,0,0,0,0c0-0.1,0-0.2-0.1-0.2C8.5,31.4,8.4,31.4,8.4,31.3z M7.8,31.6c0-0.1,0-0.1,0.1-0.2
		c0,0,0.1-0.1,0.2-0.1c0.1,0,0.1,0,0.2,0.1c0,0,0.1,0.1,0.1,0.2H7.8z"/>
	<path id="XMLID_260_" class="st0" d="M10.6,31.7c0,0-0.1,0-0.1,0c0,0-0.1,0-0.1,0c0,0-0.1,0-0.1,0c0,0,0,0-0.1,0c0,0,0,0-0.1,0
		c0,0,0,0,0,0c0,0,0-0.1,0.1-0.1c0,0,0.1,0,0.2,0c0.1,0,0.2,0,0.3,0.1c0,0,0,0,0,0c0,0,0,0,0,0c0,0,0,0,0,0c0,0,0,0,0-0.1
		c-0.1-0.1-0.2-0.1-0.4-0.1c-0.1,0-0.1,0-0.2,0c-0.1,0-0.1,0.1-0.1,0.1c0,0,0,0.1,0,0.1c0,0.1,0,0.1,0,0.1c0,0,0.1,0.1,0.1,0.1
		c0,0,0.1,0,0.1,0c0,0,0.1,0,0.1,0c0,0,0.1,0,0.1,0c0,0,0.1,0,0.1,0c0,0,0,0,0.1,0s0,0,0,0.1c0,0,0,0.1-0.1,0.1c0,0-0.1,0-0.2,0
		c-0.1,0-0.1,0-0.2,0c-0.1,0-0.1,0-0.2-0.1c0,0,0,0,0,0c0,0,0,0,0,0c0,0,0,0,0,0c0,0,0,0,0,0.1c0.1,0.1,0.2,0.1,0.4,0.1
		c0.1,0,0.1,0,0.2,0c0.1,0,0.1-0.1,0.1-0.1c0,0,0-0.1,0-0.1c0-0.1,0-0.1,0-0.1C10.7,31.7,10.7,31.7,10.6,31.7z"/>
	<path id="XMLID_261_" class="st0" d="M11.8,31.3L11.8,31.3C11.8,31.3,11.8,31.3,11.8,31.3C11.8,31.3,11.7,31.3,11.8,31.3l-0.1,0.4
		c0,0.1,0,0.1,0,0.2c0,0.1-0.1,0.1-0.1,0.1c-0.1,0-0.1,0.1-0.2,0.1c-0.1,0-0.1,0-0.1,0c0,0,0-0.1,0-0.1v-0.5c0,0,0,0,0,0
		c0,0,0,0-0.1,0h0c0,0,0,0-0.1,0c0,0,0,0,0,0v0.5c0,0.1,0,0.2,0.1,0.2c0.1,0.1,0.1,0.1,0.2,0.1c0.1,0,0.1,0,0.2-0.1
		c0.1,0,0.1-0.1,0.2-0.2v0.2c0,0,0,0,0,0c0,0,0,0,0,0h0c0,0,0,0,0,0c0,0,0,0,0,0L11.8,31.3C11.9,31.3,11.9,31.3,11.8,31.3
		C11.9,31.3,11.8,31.3,11.8,31.3z"/>
	<path id="XMLID_264_" class="st0" d="M12.9,31.3c-0.1,0-0.1-0.1-0.2-0.1c-0.1,0-0.1,0-0.2,0c-0.1,0-0.1,0.1-0.1,0.1v-0.1
		c0,0,0,0,0,0c0,0,0,0,0,0h0c0,0,0,0,0,0c0,0,0,0,0,0v1.1c0,0,0,0,0,0c0,0,0,0,0.1,0h0c0,0,0,0,0.1,0c0,0,0,0,0,0V32
		c0.1,0.1,0.2,0.2,0.3,0.2c0.1,0,0.1,0,0.2-0.1c0.1,0,0.1-0.1,0.1-0.2c0-0.1,0.1-0.1,0.1-0.2c0-0.1,0-0.2-0.1-0.2
		C13,31.4,12.9,31.4,12.9,31.3z M12.9,31.9c0,0-0.1,0.1-0.1,0.1c0,0-0.1,0-0.1,0c-0.1,0-0.1,0-0.1,0c0,0-0.1-0.1-0.1-0.1
		c0,0,0-0.1,0-0.2c0-0.1,0-0.1,0-0.2c0,0,0.1-0.1,0.1-0.1c0,0,0.1,0,0.1,0c0.1,0,0.1,0,0.1,0c0,0,0.1,0.1,0.1,0.1c0,0,0,0.1,0,0.2
		C12.9,31.8,12.9,31.8,12.9,31.9z"/>
	<path id="XMLID_267_" class="st0" d="M14,31.3c-0.1,0-0.1-0.1-0.2-0.1c-0.1,0-0.2,0-0.2,0.1c-0.1,0-0.1,0.1-0.2,0.2
		c0,0.1-0.1,0.1-0.1,0.2c0,0.1,0,0.2,0,0.2c0,0.1,0.1,0.1,0.1,0.2c0.1,0,0.1,0.1,0.2,0.1c0.1,0,0.1,0,0.2,0c0.1,0,0.1,0,0.2-0.1
		c0,0,0,0,0-0.1c0,0,0,0,0,0c0,0,0,0,0,0c0,0,0,0,0,0c0,0,0,0,0,0c0,0-0.1,0-0.2,0.1c-0.1,0-0.1,0-0.2,0c-0.1,0-0.2,0-0.2-0.1
		c0,0-0.1-0.1-0.1-0.2h0.7c0,0,0,0,0,0c0,0,0,0,0,0c0-0.1,0-0.2-0.1-0.2C14.1,31.4,14.1,31.4,14,31.3z M13.5,31.6
		c0-0.1,0-0.1,0.1-0.2c0,0,0.1-0.1,0.2-0.1c0.1,0,0.1,0,0.2,0.1c0,0,0.1,0.1,0.1,0.2H13.5z"/>
	<path id="XMLID_268_" class="st0" d="M13.6,31.2C13.7,31.2,13.7,31.2,13.6,31.2L14,31c0,0,0,0,0,0c0,0,0,0,0-0.1c0,0,0,0-0.1,0
		c0,0,0,0,0,0l-0.3,0.2C13.6,31.1,13.6,31.1,13.6,31.2C13.6,31.1,13.6,31.1,13.6,31.2C13.6,31.2,13.6,31.2,13.6,31.2z"/>
	<path id="XMLID_269_" class="st0" d="M15.2,31.3c-0.1,0-0.2,0-0.2,0.1c-0.1,0.1-0.1,0.1-0.2,0.2v-0.2c0,0,0,0,0,0c0,0,0,0,0,0h0
		c0,0,0,0,0,0c0,0,0,0,0,0v0.8c0,0,0,0,0,0c0,0,0,0,0.1,0h0c0,0,0,0,0.1,0c0,0,0,0,0,0v-0.2c0-0.1,0-0.2,0.1-0.2
		c0-0.1,0.1-0.1,0.1-0.2c0.1,0,0.1-0.1,0.2-0.1c0,0,0.1,0,0.1,0c0,0,0,0,0,0c0,0,0,0,0,0c0,0,0,0,0,0c0,0,0,0,0,0c0,0,0-0.1,0-0.1
		C15.2,31.3,15.2,31.3,15.2,31.3z"/>
	<path id="XMLID_270_" class="st0" d="M16,31.1C16.1,31.1,16.1,31.1,16,31.1C16.1,31.1,16.1,31.1,16,31.1l0.1-0.2c0,0,0,0,0,0
		c0,0,0,0-0.1,0c0,0-0.1,0-0.1,0c0,0,0,0,0,0L16,31.1C15.9,31.1,15.9,31.1,16,31.1C16,31.1,16,31.1,16,31.1z"/>
	<path id="XMLID_271_" class="st0" d="M16.4,32h-0.3v-0.7c0,0,0,0,0,0c0,0,0,0,0,0h-0.3c0,0,0,0,0,0c0,0,0,0,0,0.1c0,0,0,0,0,0.1
		c0,0,0,0,0,0H16V32h-0.3c0,0,0,0,0,0c0,0,0,0,0,0.1c0,0,0,0,0,0.1c0,0,0,0,0,0h0.7c0,0,0,0,0,0C16.5,32.1,16.5,32.1,16.4,32
		C16.5,32.1,16.5,32,16.4,32C16.4,32,16.4,32,16.4,32z"/>
	<path id="XMLID_274_" class="st0" d="M17.4,31.3c-0.1,0-0.1-0.1-0.2-0.1c-0.1,0-0.2,0-0.2,0.1c-0.1,0-0.1,0.1-0.2,0.2
		c0,0.1-0.1,0.1-0.1,0.2c0,0.1,0,0.2,0,0.2c0,0.1,0.1,0.1,0.1,0.2c0.1,0,0.1,0.1,0.2,0.1c0.1,0,0.1,0,0.2,0c0.1,0,0.1,0,0.2-0.1
		c0,0,0,0,0-0.1c0,0,0,0,0,0c0,0,0,0,0,0c0,0,0,0,0,0c0,0,0,0,0,0c0,0-0.1,0-0.2,0.1c-0.1,0-0.1,0-0.2,0c-0.1,0-0.2,0-0.2-0.1
		c0,0-0.1-0.1-0.1-0.2h0.7c0,0,0,0,0,0c0,0,0,0,0,0c0-0.1,0-0.2-0.1-0.2C17.5,31.4,17.4,31.4,17.4,31.3z M16.9,31.6
		c0-0.1,0-0.1,0.1-0.2c0,0,0.1-0.1,0.2-0.1c0.1,0,0.1,0,0.2,0.1c0,0,0.1,0.1,0.1,0.2H16.9z"/>
	<path id="XMLID_275_" class="st0" d="M18.6,31.3L18.6,31.3C18.6,31.3,18.5,31.3,18.6,31.3C18.5,31.3,18.5,31.3,18.6,31.3l-0.1,0.4
		c0,0.1,0,0.1,0,0.2c0,0.1-0.1,0.1-0.1,0.1c-0.1,0-0.1,0.1-0.2,0.1c-0.1,0-0.1,0-0.1,0c0,0,0-0.1,0-0.1v-0.5c0,0,0,0,0,0
		c0,0,0,0-0.1,0h0c0,0,0,0-0.1,0c0,0,0,0,0,0v0.5c0,0.1,0,0.2,0.1,0.2c0.1,0.1,0.1,0.1,0.2,0.1c0.1,0,0.1,0,0.2-0.1
		c0.1,0,0.1-0.1,0.2-0.2v0.2c0,0,0,0,0,0c0,0,0,0,0,0h0c0,0,0,0,0,0c0,0,0,0,0,0L18.6,31.3C18.7,31.3,18.7,31.3,18.6,31.3
		C18.6,31.3,18.6,31.3,18.6,31.3z"/>
	<path id="XMLID_276_" class="st0" d="M19.7,31.3c-0.1,0-0.2,0-0.2,0.1c-0.1,0.1-0.1,0.1-0.2,0.2v-0.2c0,0,0,0,0,0c0,0,0,0,0,0h0
		c0,0,0,0,0,0c0,0,0,0,0,0v0.8c0,0,0,0,0,0c0,0,0,0,0.1,0h0c0,0,0,0,0.1,0c0,0,0,0,0,0v-0.2c0-0.1,0-0.2,0.1-0.2
		c0-0.1,0.1-0.1,0.1-0.2c0.1,0,0.1-0.1,0.2-0.1c0,0,0.1,0,0.1,0c0,0,0,0,0,0c0,0,0,0,0,0c0,0,0,0,0,0c0,0,0,0,0,0c0,0,0-0.1,0-0.1
		C19.8,31.3,19.7,31.3,19.7,31.3z"/>
	<path id="XMLID_279_" class="st0" d="M20.8,31.3c-0.1,0-0.1-0.1-0.2-0.1c-0.1,0-0.2,0-0.2,0.1c-0.1,0-0.1,0.1-0.2,0.2
		c0,0.1-0.1,0.1-0.1,0.2c0,0.1,0,0.2,0,0.2c0,0.1,0.1,0.1,0.1,0.2c0.1,0,0.1,0.1,0.2,0.1c0.1,0,0.1,0,0.2,0c0.1,0,0.1,0,0.2-0.1
		c0,0,0,0,0-0.1c0,0,0,0,0,0c0,0,0,0,0,0c0,0,0,0,0,0c0,0,0,0,0,0c0,0-0.1,0-0.2,0.1c-0.1,0-0.1,0-0.2,0c-0.1,0-0.2,0-0.2-0.1
		c0,0-0.1-0.1-0.1-0.2h0.7c0,0,0,0,0,0c0,0,0,0,0,0c0-0.1,0-0.2-0.1-0.2C20.9,31.4,20.8,31.4,20.8,31.3z M20.3,31.6
		c0-0.1,0-0.1,0.1-0.2c0,0,0.1-0.1,0.2-0.1c0.1,0,0.1,0,0.2,0.1c0,0,0.1,0.1,0.1,0.2H20.3z"/>
	<path id="XMLID_282_" class="st0" d="M23.1,30.9L23.1,30.9C23.1,30.9,23.1,30.9,23.1,30.9C23,30.9,23,30.9,23.1,30.9L23,31.4
		c-0.1-0.1-0.2-0.2-0.3-0.2c-0.1,0-0.1,0-0.2,0.1c-0.1,0-0.1,0.1-0.1,0.2c0,0.1-0.1,0.1-0.1,0.2c0,0.1,0,0.2,0.1,0.2
		c0,0.1,0.1,0.1,0.1,0.2c0.1,0,0.1,0.1,0.2,0.1c0.1,0,0.1,0,0.2,0c0.1,0,0.1-0.1,0.1-0.1v0.1c0,0,0,0,0,0c0,0,0,0,0.1,0h0
		c0,0,0,0,0,0c0,0,0,0,0,0L23.1,30.9C23.2,30.9,23.2,30.9,23.1,30.9C23.2,30.9,23.1,30.9,23.1,30.9z M23,31.9c0,0-0.1,0.1-0.1,0.1
		c0,0-0.1,0-0.1,0c-0.1,0-0.1,0-0.1,0c0,0-0.1-0.1-0.1-0.1c0,0,0-0.1,0-0.2c0-0.1,0-0.1,0-0.2c0,0,0.1-0.1,0.1-0.1c0,0,0.1,0,0.1,0
		c0.1,0,0.1,0,0.1,0c0,0,0.1,0.1,0.1,0.1c0,0,0,0.1,0,0.2C23,31.8,23,31.8,23,31.9z"/>
	<path id="XMLID_283_" class="st0" d="M24.2,31.3L24.2,31.3C24.2,31.3,24.2,31.3,24.2,31.3C24.2,31.3,24.2,31.3,24.2,31.3l-0.1,0.4
		c0,0.1,0,0.1,0,0.2c0,0.1-0.1,0.1-0.1,0.1c-0.1,0-0.1,0.1-0.2,0.1c-0.1,0-0.1,0-0.1,0c0,0,0-0.1,0-0.1v-0.5c0,0,0,0,0,0
		c0,0,0,0-0.1,0h0c0,0,0,0-0.1,0c0,0,0,0,0,0v0.5c0,0.1,0,0.2,0.1,0.2c0.1,0.1,0.1,0.1,0.2,0.1c0.1,0,0.1,0,0.2-0.1
		c0.1,0,0.1-0.1,0.2-0.2v0.2c0,0,0,0,0,0c0,0,0,0,0,0h0c0,0,0,0,0,0c0,0,0,0,0,0L24.2,31.3C24.3,31.3,24.3,31.3,24.2,31.3
		C24.3,31.3,24.3,31.3,24.2,31.3z"/>
	<path id="XMLID_286_" class="st0" d="M26.5,30.9L26.5,30.9C26.5,30.9,26.5,30.9,26.5,30.9C26.4,30.9,26.4,30.9,26.5,30.9l-0.1,0.5
		c-0.1-0.1-0.2-0.2-0.3-0.2c-0.1,0-0.1,0-0.2,0.1c-0.1,0-0.1,0.1-0.1,0.2c0,0.1-0.1,0.1-0.1,0.2c0,0.1,0,0.2,0.1,0.2
		c0,0.1,0.1,0.1,0.1,0.2c0.1,0,0.1,0.1,0.2,0.1c0.1,0,0.1,0,0.2,0c0.1,0,0.1-0.1,0.1-0.1v0.1c0,0,0,0,0,0c0,0,0,0,0,0h0c0,0,0,0,0,0
		c0,0,0,0,0,0L26.5,30.9C26.6,30.9,26.6,30.9,26.5,30.9C26.5,30.9,26.5,30.9,26.5,30.9z M26.4,31.9c0,0-0.1,0.1-0.1,0.1
		c0,0-0.1,0-0.1,0c-0.1,0-0.1,0-0.1,0c0,0-0.1-0.1-0.1-0.1c0,0,0-0.1,0-0.2c0-0.1,0-0.1,0-0.2c0,0,0.1-0.1,0.1-0.1c0,0,0.1,0,0.1,0
		c0.1,0,0.1,0,0.1,0c0,0,0.1,0.1,0.1,0.1c0,0,0,0.1,0,0.2C26.4,31.8,26.4,31.8,26.4,31.9z"/>
	<path id="XMLID_287_" class="st0" d="M27.2,31.2C27.2,31.2,27.2,31.2,27.2,31.2l0.4-0.2c0,0,0,0,0,0c0,0,0,0,0-0.1c0,0,0,0-0.1,0
		c0,0,0,0,0,0l-0.3,0.2C27.1,31.1,27.1,31.1,27.2,31.2C27.1,31.1,27.1,31.1,27.2,31.2C27.2,31.2,27.2,31.2,27.2,31.2z"/>
	<path id="XMLID_290_" class="st0" d="M27.5,31.3c-0.1,0-0.1-0.1-0.2-0.1c-0.1,0-0.2,0-0.2,0.1c-0.1,0-0.1,0.1-0.2,0.2
		c0,0.1-0.1,0.1-0.1,0.2c0,0.1,0,0.2,0,0.2c0,0.1,0.1,0.1,0.1,0.2s0.1,0.1,0.2,0.1c0.1,0,0.1,0,0.2,0c0.1,0,0.1,0,0.2-0.1
		c0,0,0,0,0-0.1c0,0,0,0,0,0c0,0,0,0,0,0c0,0,0,0,0,0c0,0,0,0,0,0c0,0-0.1,0-0.2,0.1c-0.1,0-0.1,0-0.2,0c-0.1,0-0.2,0-0.2-0.1
		c0,0-0.1-0.1-0.1-0.2h0.7c0,0,0,0,0,0c0,0,0,0,0,0c0-0.1,0-0.2-0.1-0.2C27.7,31.4,27.6,31.4,27.5,31.3z M27,31.6
		c0-0.1,0-0.1,0.1-0.2c0,0,0.1-0.1,0.2-0.1c0.1,0,0.1,0,0.2,0.1c0,0,0.1,0.1,0.1,0.2H27z"/>
	<path id="XMLID_291_" class="st0" d="M28.8,31.3C28.8,31.3,28.8,31.3,28.8,31.3C28.8,31.3,28.8,31.3,28.8,31.3
		C28.8,31.3,28.8,31.3,28.8,31.3L28.4,32l-0.3-0.7c0,0,0,0,0,0c0,0,0,0,0,0c0,0,0,0,0,0c0,0,0,0,0,0c0,0,0,0,0,0c0,0,0,0,0,0
		l0.3,0.7c0,0,0,0,0,0c0,0,0,0,0.1,0c0,0,0.1,0,0.1,0c0,0,0,0,0,0L28.8,31.3C28.9,31.4,28.9,31.3,28.8,31.3
		C28.9,31.3,28.9,31.3,28.8,31.3C28.9,31.3,28.9,31.3,28.8,31.3z"/>
	<path id="XMLID_294_" class="st0" d="M29.8,31.3c-0.1,0-0.1-0.1-0.2-0.1c-0.1,0-0.2,0-0.2,0.1c-0.1,0-0.1,0.1-0.2,0.2
		c0,0.1-0.1,0.1-0.1,0.2c0,0.1,0,0.2,0,0.2c0,0.1,0.1,0.1,0.1,0.2s0.1,0.1,0.2,0.1c0.1,0,0.1,0,0.2,0c0.1,0,0.1,0,0.2-0.1
		c0,0,0,0,0-0.1c0,0,0,0,0,0c0,0,0,0,0,0c0,0,0,0,0,0c0,0,0,0,0,0c0,0-0.1,0-0.2,0.1c-0.1,0-0.1,0-0.2,0c-0.1,0-0.2,0-0.2-0.1
		c0,0-0.1-0.1-0.1-0.2h0.7c0,0,0,0,0,0c0,0,0,0,0,0c0-0.1,0-0.2-0.1-0.2C29.9,31.4,29.9,31.4,29.8,31.3z M29.3,31.6
		c0-0.1,0-0.1,0.1-0.2c0,0,0.1-0.1,0.2-0.1c0.1,0,0.1,0,0.2,0.1c0,0,0.1,0.1,0.1,0.2H29.3z"/>
	<path id="XMLID_295_" class="st0" d="M31.1,32h-0.3v-1c0,0,0,0,0,0c0,0,0,0,0,0h0h-0.3c0,0,0,0,0,0c0,0,0,0,0,0.1c0,0,0,0,0,0.1
		c0,0,0,0,0,0h0.3v1h-0.3c0,0,0,0,0,0c0,0,0,0,0,0.1c0,0,0,0,0,0.1c0,0,0,0,0,0h0.7c0,0,0,0,0,0S31.1,32.1,31.1,32
		C31.1,32.1,31.1,32,31.1,32C31.1,32,31.1,32,31.1,32z"/>
	<path id="XMLID_298_" class="st0" d="M32,31.3c-0.1,0-0.1-0.1-0.2-0.1c-0.1,0-0.2,0-0.2,0.1c-0.1,0-0.1,0.1-0.2,0.2
		c0,0.1-0.1,0.1-0.1,0.2c0,0.1,0,0.2,0.1,0.2c0,0.1,0.1,0.1,0.2,0.2c0.1,0,0.1,0.1,0.2,0.1c0.1,0,0.2,0,0.2-0.1
		c0.1,0,0.1-0.1,0.2-0.2c0-0.1,0.1-0.1,0.1-0.2c0-0.1,0-0.2-0.1-0.2C32.2,31.4,32.1,31.4,32,31.3z M32.1,31.9c0,0-0.1,0.1-0.1,0.1
		c0,0-0.1,0-0.2,0c-0.1,0-0.1,0-0.2,0c0,0-0.1-0.1-0.1-0.1c0,0,0-0.1,0-0.2c0-0.1,0-0.1,0-0.2c0,0,0.1-0.1,0.1-0.1c0,0,0.1,0,0.2,0
		c0.1,0,0.1,0,0.2,0c0,0,0.1,0.1,0.1,0.1c0,0,0,0.1,0,0.2C32.1,31.8,32.1,31.8,32.1,31.9z"/>
	<path id="XMLID_301_" class="st0" d="M33.2,31.3c-0.1,0-0.1-0.1-0.2-0.1c-0.1,0-0.1,0-0.2,0c-0.1,0-0.1,0.1-0.1,0.1v-0.1
		c0,0,0,0,0,0c0,0,0,0,0,0h0c0,0,0,0,0,0c0,0,0,0,0,0v1.1c0,0,0,0,0,0c0,0,0,0,0.1,0h0c0,0,0,0,0.1,0c0,0,0,0,0,0V32
		c0.1,0.1,0.2,0.2,0.3,0.2c0.1,0,0.1,0,0.2-0.1c0.1,0,0.1-0.1,0.1-0.2c0-0.1,0.1-0.1,0.1-0.2c0-0.1,0-0.2-0.1-0.2
		C33.3,31.4,33.3,31.4,33.2,31.3z M33.2,31.9c0,0-0.1,0.1-0.1,0.1c0,0-0.1,0-0.1,0c-0.1,0-0.1,0-0.1,0c0,0-0.1-0.1-0.1-0.1
		c0,0,0-0.1,0-0.2c0-0.1,0-0.1,0-0.2c0,0,0.1-0.1,0.1-0.1c0,0,0.1,0,0.1,0c0.1,0,0.1,0,0.1,0c0,0,0.1,0.1,0.1,0.1c0,0,0,0.1,0,0.2
		C33.2,31.8,33.2,31.8,33.2,31.9z"/>
	<path id="XMLID_304_" class="st0" d="M34.3,31.3c-0.1,0-0.1-0.1-0.2-0.1c-0.1,0-0.1,0-0.2,0c-0.1,0-0.1,0.1-0.1,0.1v-0.1
		c0,0,0,0,0,0c0,0,0,0,0,0h0c0,0,0,0,0,0c0,0,0,0,0,0v1.1c0,0,0,0,0,0c0,0,0,0,0.1,0h0c0,0,0,0,0.1,0c0,0,0,0,0,0V32
		c0.1,0.1,0.2,0.2,0.3,0.2c0.1,0,0.1,0,0.2-0.1c0.1,0,0.1-0.1,0.1-0.2c0-0.1,0.1-0.1,0.1-0.2c0-0.1,0-0.2-0.1-0.2
		C34.4,31.4,34.4,31.4,34.3,31.3z M34.3,31.9c0,0-0.1,0.1-0.1,0.1c0,0-0.1,0-0.1,0c-0.1,0-0.1,0-0.1,0c0,0-0.1-0.1-0.1-0.1
		c0,0,0-0.1,0-0.2c0-0.1,0-0.1,0-0.2c0,0,0.1-0.1,0.1-0.1c0,0,0.1,0,0.1,0c0.1,0,0.1,0,0.1,0c0,0,0.1,0.1,0.1,0.1c0,0,0,0.1,0,0.2
		C34.4,31.8,34.4,31.8,34.3,31.9z"/>
	<path id="XMLID_307_" class="st0" d="M35.4,31.3c-0.1,0-0.1-0.1-0.2-0.1c-0.1,0-0.2,0-0.2,0.1c-0.1,0-0.1,0.1-0.2,0.2
		c0,0.1-0.1,0.1-0.1,0.2c0,0.1,0,0.2,0,0.2c0,0.1,0.1,0.1,0.1,0.2c0.1,0,0.1,0.1,0.2,0.1c0.1,0,0.1,0,0.2,0c0.1,0,0.1,0,0.2-0.1
		c0,0,0,0,0-0.1c0,0,0,0,0,0c0,0,0,0,0,0c0,0,0,0,0,0c0,0,0,0,0,0c0,0-0.1,0-0.2,0.1c-0.1,0-0.1,0-0.2,0C35.1,32,35,32,35,32
		c0,0-0.1-0.1-0.1-0.2h0.7c0,0,0,0,0,0c0,0,0,0,0,0c0-0.1,0-0.2-0.1-0.2C35.6,31.4,35.5,31.4,35.4,31.3z M34.9,31.6
		c0-0.1,0-0.1,0.1-0.2c0,0,0.1-0.1,0.2-0.1c0.1,0,0.1,0,0.2,0.1c0,0,0.1,0.1,0.1,0.2H34.9z"/>
	<path id="XMLID_308_" class="st0" d="M36.7,31.3C36.7,31.3,36.6,31.3,36.7,31.3c-0.2,0-0.3,0-0.3,0.1c0-0.1,0-0.1-0.1-0.1
		c0,0-0.1,0-0.1,0c0,0-0.1,0-0.1,0c0,0-0.1,0.1-0.1,0.1v-0.1c0,0,0,0,0,0c0,0,0,0,0,0h0c0,0,0,0,0,0c0,0,0,0,0,0v0.8c0,0,0,0,0,0
		c0,0,0,0,0.1,0h0c0,0,0,0,0.1,0c0,0,0,0,0,0v-0.4c0-0.1,0-0.1,0-0.2c0,0,0-0.1,0.1-0.1c0,0,0.1,0,0.1,0c0,0,0.1,0,0.1,0
		c0,0,0,0.1,0,0.1v0.6c0,0,0,0,0,0c0,0,0,0,0.1,0h0c0,0,0,0,0.1,0c0,0,0,0,0,0v-0.4c0-0.1,0-0.1,0-0.2s0-0.1,0.1-0.1
		c0,0,0.1,0,0.1,0c0,0,0.1,0,0.1,0c0,0,0,0.1,0,0.1v0.6c0,0,0,0,0,0c0,0,0,0,0.1,0h0c0,0,0,0,0.1,0c0,0,0,0,0,0v-0.6
		C36.8,31.5,36.8,31.4,36.7,31.3C36.8,31.3,36.7,31.3,36.7,31.3z"/>
	<path id="XMLID_311_" class="st0" d="M37.7,31.3c-0.1,0-0.1-0.1-0.2-0.1c-0.1,0-0.2,0-0.2,0.1c-0.1,0-0.1,0.1-0.2,0.2
		c0,0.1-0.1,0.1-0.1,0.2c0,0.1,0,0.2,0,0.2c0,0.1,0.1,0.1,0.1,0.2c0.1,0,0.1,0.1,0.2,0.1c0.1,0,0.1,0,0.2,0c0.1,0,0.1,0,0.2-0.1
		c0,0,0,0,0-0.1c0,0,0,0,0,0c0,0,0,0,0,0c0,0,0,0,0,0c0,0,0,0,0,0c0,0-0.1,0-0.2,0.1c-0.1,0-0.1,0-0.2,0c-0.1,0-0.2,0-0.2-0.1
		c0,0-0.1-0.1-0.1-0.2h0.7c0,0,0,0,0,0c0,0,0,0,0,0c0-0.1,0-0.2-0.1-0.2C37.8,31.4,37.8,31.4,37.7,31.3z M37.2,31.6
		c0-0.1,0-0.1,0.1-0.2c0,0,0.1-0.1,0.2-0.1c0.1,0,0.1,0,0.2,0.1c0,0,0.1,0.1,0.1,0.2H37.2z"/>
	<path id="XMLID_312_" class="st0" d="M38.7,31.3c-0.1,0-0.1,0-0.2,0.1c-0.1,0-0.1,0.1-0.2,0.2v-0.2c0,0,0,0,0,0c0,0,0,0,0,0h0
		c0,0,0,0,0,0c0,0,0,0,0,0v0.8c0,0,0,0,0,0c0,0,0,0,0.1,0h0c0,0,0,0,0.1,0c0,0,0,0,0,0v-0.3c0-0.1,0-0.1,0-0.2
		c0-0.1,0.1-0.1,0.1-0.1c0.1,0,0.1-0.1,0.2-0.1c0.1,0,0.1,0,0.1,0c0,0,0,0.1,0,0.1v0.5c0,0,0,0,0,0c0,0,0,0,0.1,0h0c0,0,0,0,0.1,0
		c0,0,0,0,0,0v-0.5c0-0.1,0-0.2-0.1-0.2C38.9,31.3,38.8,31.3,38.7,31.3z"/>
	<path id="XMLID_313_" class="st0" d="M40.1,31.9C40.1,31.9,40.1,31.9,40.1,31.9C40,32,40,32,39.9,32c0,0-0.1,0-0.1,0
		c-0.1,0-0.1,0-0.1-0.1c0,0,0-0.1,0-0.2v-0.3H40c0,0,0,0,0,0c0,0,0,0,0-0.1c0,0,0,0,0-0.1c0,0,0,0,0,0h-0.4v-0.3c0,0,0,0,0,0
		c0,0,0,0-0.1,0c0,0,0,0-0.1,0c0,0,0,0,0,0v0.3h-0.2c0,0,0,0,0,0c0,0,0,0,0,0.1c0,0,0,0,0,0.1c0,0,0,0,0,0h0.2v0.3
		c0,0.1,0,0.2,0.1,0.2c0,0.1,0.1,0.1,0.2,0.1c0.1,0,0.1,0,0.2,0c0.1,0,0.1,0,0.2-0.1C40.2,32.1,40.2,32,40.1,31.9
		C40.2,32,40.2,32,40.1,31.9C40.1,31.9,40.1,31.9,40.1,31.9z"/>
</g>
</svg>
