<?xml version="1.0" encoding="utf-8"?>
<!-- Generator: Adobe Illustrator 19.0.0, SVG Export Plug-In . SVG Version: 6.00 Build 0)  -->
<svg version="1.1" id="Calque_1" xmlns="http://www.w3.org/2000/svg" xmlns:xlink="http://www.w3.org/1999/xlink" x="0px" y="0px"
	 width="1299.8px" height="636.9px" viewBox="0 0 1299.8 636.9" style="enable-background:new 0 0 1299.8 636.9;"
	 xml:space="preserve">
<style type="text/css">
	.st0{fill:#E51F33;}
</style>
<g id="XMLID_1_">
	<path id="XMLID_14_" class="st0" d="M1299.8,74c0,149.6,0,299.3,0,448.9c-8.1,0.6-16.3,1.2-24.4,1.9c-24.5,2.1-49.1,4.3-73.6,6.4
		c-28.7,2.5-57.4,5.1-86.1,7.6c-24.4,2.1-48.8,4.2-73.1,6.4c-24.9,2.2-49.7,4.4-74.6,6.6c-24.5,2.2-49.1,4.2-73.6,6.4
		c-28.9,2.5-57.7,5.1-86.6,7.6c-24.4,2.1-48.8,4.2-73.1,6.4c-25,2.2-50.1,4.4-75.1,6.6c-24.4,2.1-48.8,4.2-73.1,6.4
		c-24.7,2.2-49.4,4.4-74.1,6.6c-24.7,2.2-49.4,4.3-74.1,6.4c-28.9,2.5-57.7,5.1-86.6,7.6c-24.4,2.1-48.8,4.2-73.1,6.4
		c-28.7,2.5-57.4,5.1-86.1,7.6c-24.5,2.2-49.1,4.3-73.6,6.4c-28.7,2.5-57.4,5-86.1,7.6c-9.6,0.9-19.1,2.1-28.6,3.1c-1.3,0-2.7,0-4,0
		C0,424.6,0,212.3,0,0c1.7,0,3.3,0,5,0c5.6,0.5,11.2,1.1,16.8,1.4c32.8,1.9,65.5,3.8,98.3,5.7c25.8,1.5,51.6,2.9,77.3,4.3
		c33.4,1.9,66.8,3.8,100.3,5.7c25.1,1.4,50.2,2.8,75.3,4.3c33.4,1.9,66.8,3.8,100.3,5.7c25.3,1.4,50.6,2.8,75.8,4.3
		c32.9,1.9,65.8,3.8,98.8,5.7c25.6,1.5,51.2,2.8,76.8,4.3c32.8,1.9,65.5,3.8,98.3,5.7c25.8,1.5,51.6,2.9,77.3,4.3
		c32.9,1.9,65.8,3.8,98.8,5.7c25.6,1.5,51.2,2.8,76.8,4.3c33.1,1.9,66.2,3.8,99.3,5.7c26.4,1.5,52.9,3.1,79.3,4.6
		C1269.6,72.6,1284.7,73.2,1299.8,74z"/>
</g>
</svg>
