<?xml version="1.0" encoding="utf-8"?>
<!-- Generator: Adobe Illustrator 19.0.0, SVG Export Plug-In . SVG Version: 6.00 Build 0)  -->
<svg version="1.1" id="Calque_1" xmlns="http://www.w3.org/2000/svg" xmlns:xlink="http://www.w3.org/1999/xlink" x="0px" y="0px"
	 viewBox="0 0 23.9 18" style="enable-background:new 0 0 23.9 18;" xml:space="preserve">
<style type="text/css">
	.st0{fill:#E62530;}
</style>
<g id="XMLID_115_">
	<path id="XMLID_152_" class="st0" d="M0,18C0,12,0,6,0,0c8,0,15.9,0,23.9,0c0,6,0,12,0,18C16,18,8,18,0,18z M2.9,1.7
		C3,1.8,3,1.8,3,1.8c2.7,2.7,5.4,5.5,8.1,8.2c0.6,0.6,1.2,0.5,1.8,0c2.7-2.7,5.3-5.4,8-8.1c0.1-0.1,0.1-0.2,0.2-0.3
		C15.1,1.7,9,1.7,2.9,1.7z M2.9,16.3c6.1,0,12.1,0,18.2,0c-2-2.1-4-4.1-6-6.1c-0.4,0.4-0.7,0.7-1,1c-1.2,1.2-2.9,1.2-4.1,0
		c-0.3-0.3-0.7-0.7-1-1C6.9,12.2,4.9,14.2,2.9,16.3z M1.7,15.1c2-2.1,4-4.1,6.1-6.2C5.7,6.9,3.7,5,1.7,3.1C1.7,7,1.7,11,1.7,15.1z
		 M22.3,15.1c0-4.1,0-8.1,0-11.9c-1.9,1.9-3.9,3.9-5.9,5.8C18.3,11,20.2,13,22.3,15.1z"/>
</g>
</svg>
