<?xml version="1.0" encoding="utf-8"?>
<!-- Generator: Adobe Illustrator 19.0.0, SVG Export Plug-In . SVG Version: 6.00 Build 0)  -->
<svg version="1.1" id="Calque_1" xmlns="http://www.w3.org/2000/svg" xmlns:xlink="http://www.w3.org/1999/xlink" x="0px" y="0px"
	 viewBox="0 0 19 30.1" style="enable-background:new 0 0 19 30.1;" xml:space="preserve">
<style type="text/css">
	.st0{fill:#E62530;}
</style>
<g id="XMLID_5_">
	<path id="XMLID_8_" class="st0" d="M9.5,6c-2,0-3.6,1.6-3.6,3.6c0,2,1.6,3.6,3.6,3.6c2,0,3.6-1.6,3.6-3.6C13.1,7.6,11.5,6,9.5,6z
		 M9.5,12.4c-1.5,0-2.8-1.2-2.8-2.8S8,6.9,9.5,6.9s2.8,1.2,2.8,2.8S11,12.4,9.5,12.4z"/>
	<path id="XMLID_13_" class="st0" d="M19,9.4C19,4.1,14.7,0,9.5,0C4.3,0,0,4.1,0,9.3c0,0.7,0.1,1.9,0.2,1.9H0.2l0.2,0.9
		c0.1,0.3,0.2,0.7,0.3,0.9l8.8,17.1l8.8-16.9l0,0c0.1-0.3,0.2-0.8,0.3-1l0.2-0.9h0C18.9,11.2,19,10.1,19,9.4z M17.8,12L17.8,12
		c-0.1,0.3-0.2,0.5-0.3,0.8l-8,15.4l-8-15.4c-0.1-0.2-0.2-0.5-0.2-0.7l0-0.1C1,11.2,0.9,10.4,0.9,9.6C0.9,4.9,4.7,1,9.5,1
		s8.6,3.9,8.6,8.6C18.1,10.4,18,11.2,17.8,12z"/>
</g>
</svg>
