<?xml version="1.0" encoding="utf-8"?>
<!-- Generator: Adobe Illustrator 19.0.0, SVG Export Plug-In . SVG Version: 6.00 Build 0)  -->
<svg version="1.1" id="Calque_1" xmlns="http://www.w3.org/2000/svg" xmlns:xlink="http://www.w3.org/1999/xlink" x="0px" y="0px"
	 viewBox="0 0 330 141.3" style="enable-background:new 0 0 330 141.3;" xml:space="preserve">
<style type="text/css">
	.st0{fill:#D4262A;}
	.st1{fill:#EDA1A2;}
	.st2{opacity:0.67;fill:#EEA8A9;}
	.st3{fill:#CB2628;}
	.st4{fill:#A62329;}
	.st5{fill:#D83435;}
	.st6{fill:#F2C1C2;}
	.st7{fill:#D89AA6;}
	.st8{fill:#DB4848;}
	.st9{fill:#F6C8C8;}
</style>
<g id="XMLID_154_">
	<g id="XMLID_161_">
		<ellipse id="XMLID_175_" class="st0" cx="174.1" cy="40.2" rx="45.6" ry="39.5"/>
		<g id="XMLID_168_">
			<path id="XMLID_173_" class="st1" d="M203.4,27.5l-56.7,1c-3.5,2.7-5.8,7-5.8,11.7v7.1l9.3,9h26l0.5-13.6l5.2,13.6h19.6l9.9-9.5
				v-5.3C211.6,35.6,208.3,30.3,203.4,27.5z"/>
			<polygon id="XMLID_172_" class="st2" points="176.3,56.4 182.1,56.4 176.8,42.8 			"/>
			<path id="XMLID_171_" class="st2" d="M211.6,48.2v-1.3l-9.9,9.5h1.7C207.9,56.4,211.6,52.7,211.6,48.2z"/>
			<path id="XMLID_170_" class="st2" d="M140.9,49.3c0,3.9,3.2,7.1,7.1,7.1h2.2l-9.3-9V49.3z"/>
			<path id="XMLID_169_" class="st2" d="M195.5,25.5H168c-8.9,0.3-14,0.4-16.9,0.8c-1.6,0.5-3,1.3-4.3,2.3l56.7-1
				C201.1,26.2,198.4,25.5,195.5,25.5z"/>
		</g>
		<path id="XMLID_167_" class="st3" d="M140.4,50.4c-0.1-6-0.3-16.9,3.4-23.7c3.7-6.8,14.9-9.7,14.9-9.7s-15.6-1-17.7,10.2
			c0,0-3.3,12.4-2,20.3C139.6,49.3,140.4,50.4,140.4,50.4z"/>
		<path id="XMLID_166_" class="st3" d="M211.7,51.1c0.1-6,0.3-16.9-3.4-23.7s-14.9-9.7-14.9-9.7s15.6-1,17.7,10.2
			c0,0,3.3,12.4,2,20.3C212.5,50,211.7,51.1,211.7,51.1z"/>
		<path id="XMLID_165_" class="st4" d="M122.1,13.7c0-1.2,1.9-5.1,4.1-5.7c2.3-0.6,7-0.9,12.4,2.1s3.5,3.4,3.5,3.4l-4.6,4.1
			c0,0-0.6-2.6-4.6-3s-7.7,1.1-9.2,0.5C122.3,14.5,122.1,13.7,122.1,13.7z"/>
		<path id="XMLID_164_" class="st3" d="M138.8,10.1c0.4,0.2,3.3,2,3.1,2.1c-0.2,0.2-4.5,4.7-4.6,4.7c-0.2-0.5-2.3-1.9-3.1-2.1
			C134.8,14.4,138.8,10.1,138.8,10.1z"/>
		<path id="XMLID_163_" class="st4" d="M136.2,18.3c0,0-8.2-1.9-12.9,0.1s-12,4.7-12.6,6.5s-1,4.9,1.2,5.3c2.2,0.4,5.2-0.9,5.6-1.6
			c0.3-0.7,4.4-5.5,7.1-6.1c2.6-0.6,3.6-1.4,6.5-1.5c3-0.2,4,2,4,2l2.3-2.5C137.4,20.4,137.4,18.3,136.2,18.3z"/>
		<path id="XMLID_162_" class="st3" d="M131.2,17.5c1.1,0,1.9,0.1,2.5,0.2c0.7,0.1,1.6,0.4,1.6,0.4s-2.1,2.9-2.2,3.1
			c-0.2-0.2-3.5-0.3-4.2,0.1C129.8,20.2,131.2,17.5,131.2,17.5z"/>
	</g>
	<polygon id="XMLID_160_" class="st4" points="155.2,35.9 166.3,38.4 166.3,37.2 155.2,32.4 	"/>
	<polygon id="XMLID_159_" class="st5" points="197,32.8 186.3,37.4 186.3,39 197,36.2 	"/>
	<path id="XMLID_158_" class="st4" d="M155.2,44.6c0,2.4,2.5,4.4,5.6,4.4s5.6-2,5.6-4.4c0-0.9-0.3-1.8-0.9-2.5h-9.3
		C155.5,42.9,155.2,43.7,155.2,44.6z"/>
	<path id="XMLID_157_" class="st4" d="M186.3,44.1c0,2.4,2.5,4.4,5.6,4.4c3.1,0,5.6-2,5.6-4.4c0-0.9-0.3-1.8-0.9-2.5h-9.3
		C186.6,42.3,186.3,43.2,186.3,44.1z"/>
	<path id="XMLID_156_" class="st2" d="M161.3,39.7c-0.2,0-0.4,0-0.6,0s-0.4,0-0.6,0c-2.1,0.2-3.9,1.1-5,2.5h0.9h9.3h0.9
		C165.2,40.8,163.4,39.8,161.3,39.7z"/>
	<path id="XMLID_155_" class="st2" d="M192.4,39.1c-0.2,0-0.4,0-0.6,0s-0.4,0-0.6,0c-2.1,0.2-3.9,1.1-5,2.5h0.9h9.3h0.9
		C196.3,40.2,194.5,39.2,192.4,39.1z"/>
</g>
<g id="XMLID_64_">
	<g id="XMLID_49_">
		<ellipse id="XMLID_63_" class="st5" cx="110.3" cy="56.5" rx="45.6" ry="39.5"/>
		<g id="XMLID_56_">
			<path id="XMLID_61_" class="st6" d="M139.6,43.9l-56.7,1c-3.5,2.7-5.8,7-5.8,11.7v7.1l9.3,9h26l0.5-13.6l5.2,13.6h19.6l9.9-9.5
				v-5.3C147.8,51.9,144.5,46.6,139.6,43.9z"/>
			<polygon id="XMLID_60_" class="st7" points="112.5,72.7 118.2,72.7 113,59.1 			"/>
			<path id="XMLID_59_" class="st7" d="M147.8,64.5v-1.3l-9.9,9.5h1.7C144.1,72.7,147.8,69,147.8,64.5z"/>
			<path id="XMLID_58_" class="st2" d="M77.1,65.6c0,3.9,3.2,7.1,7.1,7.1h2.2l-9.3-9V65.6z"/>
			<path id="XMLID_57_" class="st7" d="M131.7,41.8h-27.6c-8.9,0.3-14,0.4-16.9,0.8c-1.6,0.5-3,1.3-4.3,2.3l56.7-1
				C137.3,42.6,134.6,41.8,131.7,41.8z"/>
		</g>
		<path id="XMLID_55_" class="st4" d="M76.5,66.8c-0.1-6-0.3-16.9,3.4-23.7c3.7-6.8,14.9-9.7,14.9-9.7s-15.6-1-17.7,10.2
			c0,0-3.3,12.4-2,20.3C75.7,65.7,76.5,66.8,76.5,66.8z"/>
		<path id="XMLID_54_" class="st4" d="M147.9,67.4c0.1-6,0.3-16.9-3.4-23.7c-3.7-6.8-14.9-9.7-14.9-9.7s15.6-1,17.7,10.2
			c0,0,3.3,12.4,2,20.3C148.7,66.3,147.9,67.4,147.9,67.4z"/>
		<path id="XMLID_53_" class="st3" d="M58.3,30c0-1.2,1.9-5.1,4.1-5.7c2.3-0.6,7-0.9,12.4,2.1s3.5,3.4,3.5,3.4l-4.6,4.1
			c0,0-0.6-2.6-4.6-3c-4-0.4-7.7,1.1-9.2,0.5C58.5,30.8,58.3,30,58.3,30z"/>
		<path id="XMLID_52_" class="st4" d="M74.9,26.5c0.4,0.2,3.3,2,3.1,2.1c-0.2,0.2-4.5,4.7-4.6,4.7c-0.2-0.5-2.3-1.9-3.1-2.1
			C71,30.7,74.9,26.5,74.9,26.5z"/>
		<path id="XMLID_51_" class="st3" d="M72.4,34.6c0,0-8.2-1.9-12.9,0.1s-12,4.7-12.6,6.5c-0.6,1.9-1,4.9,1.2,5.3s5.2-0.9,5.6-1.6
			c0.3-0.7,4.4-5.5,7.1-6.1c2.6-0.6,3.6-1.4,6.5-1.5c3-0.2,4,2,4,2l2.3-2.5C73.6,36.8,73.6,34.6,72.4,34.6z"/>
		<path id="XMLID_50_" class="st4" d="M67.4,33.9c1.1,0,1.9,0.1,2.5,0.2c0.7,0.1,1.6,0.4,1.6,0.4s-2.1,2.9-2.2,3.1
			c-0.2-0.2-3.5-0.3-4.2,0.1C66,36.5,67.4,33.9,67.4,33.9z"/>
	</g>
	<polygon id="XMLID_48_" class="st5" points="91.3,52.2 102.5,54.7 102.5,53.5 91.3,48.7 	"/>
	<polygon id="XMLID_47_" class="st5" points="133.2,49.1 122.4,53.7 122.4,55.4 133.2,52.5 	"/>
	<path id="XMLID_46_" class="st5" d="M91.3,61c0,2.4,2.5,4.4,5.6,4.4c3.1,0,5.6-2,5.6-4.4c0-0.9-0.3-1.8-0.9-2.5h-9.3
		C91.7,59.2,91.3,60.1,91.3,61z"/>
	<path id="XMLID_45_" class="st5" d="M122.4,60.4c0,2.4,2.5,4.4,5.6,4.4s5.6-2,5.6-4.4c0-0.9-0.3-1.8-0.9-2.5h-9.3
		C122.8,58.6,122.4,59.5,122.4,60.4z"/>
	<path id="XMLID_44_" class="st2" d="M97.5,56c-0.2,0-0.4,0-0.6,0s-0.4,0-0.6,0c-2.1,0.2-3.9,1.1-5,2.5h0.9h9.3h0.9
		C101.4,57.1,99.6,56.2,97.5,56z"/>
	<path id="XMLID_43_" class="st2" d="M128.6,55.4c-0.2,0-0.4,0-0.6,0c-0.2,0-0.4,0-0.6,0c-2.1,0.2-3.9,1.1-5,2.5h0.9h9.3h0.9
		C132.5,56.5,130.7,55.6,128.6,55.4z"/>
</g>
<g id="XMLID_66_">
	<g id="XMLID_73_">
		<ellipse id="XMLID_87_" class="st5" cx="241.6" cy="56.5" rx="45.6" ry="39.5"/>
		<g id="XMLID_80_">
			<path id="XMLID_85_" class="st6" d="M270.9,43.9l-56.7,1c-3.5,2.7-5.8,7-5.8,11.7v7.1l9.3,9h26l0.5-13.6l5.2,13.6h19.6l9.9-9.5
				v-5.3C279.1,51.9,275.8,46.6,270.9,43.9z"/>
			<polygon id="XMLID_84_" class="st7" points="243.8,72.7 249.6,72.7 244.3,59.1 			"/>
			<path id="XMLID_83_" class="st2" d="M279.1,64.5v-1.3l-9.9,9.5h1.7C275.4,72.7,279.1,69,279.1,64.5z"/>
			<path id="XMLID_82_" class="st7" d="M208.4,65.6c0,3.9,3.2,7.1,7.1,7.1h2.2l-9.3-9V65.6z"/>
			<path id="XMLID_81_" class="st7" d="M263,41.8h-27.6c-8.9,0.3-14,0.4-16.9,0.8c-1.6,0.5-3,1.3-4.3,2.3l56.7-1
				C268.6,42.6,265.9,41.8,263,41.8z"/>
		</g>
		<path id="XMLID_79_" class="st4" d="M207.9,66.8c-0.1-6-0.3-16.9,3.4-23.7s14.9-9.7,14.9-9.7s-15.6-1-17.7,10.2
			c0,0-3.3,12.4-2,20.3C207.1,65.7,207.9,66.8,207.9,66.8z"/>
		<path id="XMLID_78_" class="st4" d="M279.2,67.4c0.1-6,0.3-16.9-3.4-23.7s-14.9-9.7-14.9-9.7s15.6-1,17.7,10.2
			c0,0,3.3,12.4,2,20.3C280,66.3,279.2,67.4,279.2,67.4z"/>
		<path id="XMLID_77_" class="st3" d="M189.6,30c0-1.2,1.9-5.1,4.1-5.7c2.3-0.6,7-0.9,12.4,2.1s3.5,3.4,3.5,3.4l-4.6,4.1
			c0,0-0.6-2.6-4.6-3c-4-0.4-7.7,1.1-9.2,0.5C189.8,30.8,189.6,30,189.6,30z"/>
		<path id="XMLID_76_" class="st4" d="M206.3,26.5c0.4,0.2,3.3,2,3.1,2.1c-0.2,0.2-4.5,4.7-4.6,4.7c-0.2-0.5-2.3-1.9-3.1-2.1
			C202.3,30.7,206.3,26.5,206.3,26.5z"/>
		<path id="XMLID_75_" class="st3" d="M203.7,34.6c0,0-8.2-1.9-12.9,0.1c-4.7,2-12,4.7-12.6,6.5c-0.6,1.9-1,4.9,1.2,5.3
			c2.2,0.4,5.2-0.9,5.6-1.6c0.3-0.7,4.4-5.5,7.1-6.1c2.6-0.6,3.6-1.4,6.5-1.5c3-0.2,4,2,4,2l2.3-2.5
			C204.9,36.8,204.9,34.6,203.7,34.6z"/>
		<path id="XMLID_74_" class="st4" d="M198.7,33.9c1.1,0,1.9,0.1,2.5,0.2c0.7,0.1,1.6,0.4,1.6,0.4s-2.1,2.9-2.2,3.1
			c-0.2-0.2-3.5-0.3-4.2,0.1C197.3,36.5,198.7,33.9,198.7,33.9z"/>
	</g>
	<polygon id="XMLID_72_" class="st5" points="222.7,52.2 233.8,54.7 233.8,53.5 222.7,48.7 	"/>
	<polygon id="XMLID_71_" class="st5" points="264.5,49.1 253.8,53.7 253.8,55.4 264.5,52.5 	"/>
	<path id="XMLID_70_" class="st5" d="M222.7,61c0,2.4,2.5,4.4,5.6,4.4c3.1,0,5.6-2,5.6-4.4c0-0.9-0.3-1.8-0.9-2.5h-9.3
		C223,59.2,222.7,60.1,222.7,61z"/>
	<path id="XMLID_69_" class="st5" d="M253.8,60.4c0,2.4,2.5,4.4,5.6,4.4s5.6-2,5.6-4.4c0-0.9-0.3-1.8-0.9-2.5h-9.3
		C254.1,58.6,253.8,59.5,253.8,60.4z"/>
	<path id="XMLID_68_" class="st2" d="M228.8,56c-0.2,0-0.4,0-0.6,0s-0.4,0-0.6,0c-2.1,0.2-3.9,1.1-5,2.5h0.9h9.3h0.9
		C232.7,57.1,230.9,56.2,228.8,56z"/>
	<path id="XMLID_67_" class="st2" d="M259.9,55.4c-0.2,0-0.4,0-0.6,0s-0.4,0-0.6,0c-2.1,0.2-3.9,1.1-5,2.5h0.9h9.3h0.9
		C263.8,56.5,262,55.6,259.9,55.4z"/>
</g>
<g id="XMLID_88_">
	<g id="XMLID_95_">
		<ellipse id="XMLID_109_" class="st8" cx="274" cy="101.5" rx="45.6" ry="39.5"/>
		<g id="XMLID_102_">
			<path id="XMLID_107_" class="st9" d="M303.3,88.8l-56.7,1c-3.5,2.7-5.8,7-5.8,11.7v7.1l9.3,9h26l0.5-13.6l5.2,13.6h19.6l9.9-9.5
				v-5.3C311.5,96.8,308.2,91.6,303.3,88.8z"/>
			<polygon id="XMLID_106_" class="st2" points="276.2,117.7 282,117.7 276.7,104.1 			"/>
			<path id="XMLID_105_" class="st2" d="M311.5,109.5v-1.3l-9.9,9.5h1.7C307.9,117.7,311.5,114,311.5,109.5z"/>
			<path id="XMLID_104_" class="st2" d="M240.9,110.6c0,3.9,3.2,7.1,7.1,7.1h2.2l-9.3-9V110.6z"/>
			<path id="XMLID_103_" class="st2" d="M295.4,86.8h-27.6c-8.9,0.3-14,0.4-16.9,0.8c-1.6,0.5-3,1.3-4.3,2.3l56.7-1
				C301,87.5,298.3,86.8,295.4,86.8z"/>
		</g>
		<path id="XMLID_101_" class="st3" d="M240.3,111.7c-0.1-6-0.3-16.9,3.4-23.7s14.9-9.7,14.9-9.7s-15.6-1-17.7,10.2
			c0,0-3.3,12.4-2,20.3C239.5,110.6,240.3,111.7,240.3,111.7z"/>
		<path id="XMLID_100_" class="st3" d="M311.6,112.4c0.1-6,0.3-16.9-3.4-23.7S293.3,79,293.3,79s15.6-1,17.7,10.2
			c0,0,3.3,12.4,2,20.3C312.4,111.3,311.6,112.4,311.6,112.4z"/>
		<path id="XMLID_99_" class="st8" d="M222,75c0-1.2,1.9-5.1,4.1-5.7c2.3-0.6,7-0.9,12.4,2.1c5.5,3,3.5,3.4,3.5,3.4l-4.6,4.1
			c0,0-0.6-2.6-4.6-3s-7.7,1.1-9.2,0.5C222.3,75.8,222,75,222,75z"/>
		<path id="XMLID_98_" class="st3" d="M238.7,71.4c0.4,0.2,3.3,2,3.1,2.1c-0.2,0.2-4.5,4.7-4.6,4.7c-0.2-0.5-2.3-1.9-3.1-2.1
			C234.7,75.6,238.7,71.4,238.7,71.4z"/>
		<path id="XMLID_97_" class="st8" d="M236.1,79.5c0,0-8.2-1.9-12.9,0.1c-4.7,2-12,4.7-12.6,6.5c-0.6,1.9-1,4.9,1.2,5.3
			c2.2,0.4,5.2-0.9,5.6-1.6c0.3-0.7,4.4-5.5,7.1-6.1c2.6-0.6,3.6-1.4,6.5-1.5c3-0.2,4,2,4,2l2.3-2.5
			C237.3,81.7,237.3,79.6,236.1,79.5z"/>
		<path id="XMLID_96_" class="st3" d="M231.1,78.8c1.1,0,1.9,0.1,2.5,0.2c0.7,0.1,1.6,0.4,1.6,0.4s-2.1,2.9-2.2,3.1
			c-0.2-0.2-3.5-0.3-4.2,0.1C229.7,81.5,231.1,78.8,231.1,78.8z"/>
	</g>
	<polygon id="XMLID_94_" class="st5" points="255.1,97.2 266.2,99.7 266.2,98.5 255.1,93.7 	"/>
	<polygon id="XMLID_93_" class="st5" points="296.9,94.1 286.2,98.7 286.2,100.3 296.9,97.4 	"/>
	<path id="XMLID_92_" class="st5" d="M255.1,105.9c0,2.4,2.5,4.4,5.6,4.4s5.6-2,5.6-4.4c0-0.9-0.3-1.8-0.9-2.5H256
		C255.4,104.2,255.1,105,255.1,105.9z"/>
	<path id="XMLID_91_" class="st5" d="M286.2,105.4c0,2.4,2.5,4.4,5.6,4.4s5.6-2,5.6-4.4c0-0.9-0.3-1.8-0.9-2.5h-9.3
		C286.5,103.6,286.2,104.4,286.2,105.4z"/>
	<path id="XMLID_90_" class="st2" d="M261.2,101c-0.2,0-0.4,0-0.6,0s-0.4,0-0.6,0c-2.1,0.2-3.9,1.1-5,2.5h0.9h9.3h0.9
		C265.1,102.1,263.3,101.1,261.2,101z"/>
	<path id="XMLID_89_" class="st2" d="M292.3,100.4c-0.2,0-0.4,0-0.6,0s-0.4,0-0.6,0c-2.1,0.2-3.9,1.1-5,2.5h0.9h9.3h0.9
		C296.2,101.5,294.4,100.5,292.3,100.4z"/>
</g>
<g id="XMLID_110_">
	<g id="XMLID_117_">
		<ellipse id="XMLID_131_" class="st8" cx="176.3" cy="101.5" rx="45.6" ry="39.5"/>
		<g id="XMLID_124_">
			<path id="XMLID_129_" class="st9" d="M205.6,88.8l-56.7,1c-3.5,2.7-5.8,7-5.8,11.7v7.1l9.3,9h26l0.5-13.6l5.2,13.6h19.6l9.9-9.5
				v-5.3C213.8,96.8,210.5,91.6,205.6,88.8z"/>
			<polygon id="XMLID_128_" class="st2" points="178.4,117.7 184.2,117.7 179,104.1 			"/>
			<path id="XMLID_127_" class="st2" d="M213.8,109.5v-1.3l-9.9,9.5h1.7C210.1,117.7,213.8,114,213.8,109.5z"/>
			<path id="XMLID_126_" class="st2" d="M143.1,110.6c0,3.9,3.2,7.1,7.1,7.1h2.2l-9.3-9V110.6z"/>
			<path id="XMLID_125_" class="st2" d="M197.7,86.8h-27.6c-8.9,0.3-14,0.4-16.9,0.8c-1.6,0.5-3,1.3-4.3,2.3l56.7-1
				C203.3,87.5,200.6,86.8,197.7,86.8z"/>
		</g>
		<path id="XMLID_123_" class="st3" d="M142.5,111.7c-0.1-6-0.3-16.9,3.4-23.7s14.9-9.7,14.9-9.7s-15.6-1-17.7,10.2
			c0,0-3.3,12.4-2,20.3C141.7,110.6,142.5,111.7,142.5,111.7z"/>
		<path id="XMLID_122_" class="st3" d="M213.9,112.4c0.1-6,0.3-16.9-3.4-23.7c-3.7-6.8-14.9-9.7-14.9-9.7s15.6-1,17.7,10.2
			c0,0,3.3,12.4,2,20.3C214.7,111.3,213.9,112.4,213.9,112.4z"/>
		<path id="XMLID_121_" class="st8" d="M124.3,75c0-1.2,1.9-5.1,4.1-5.7c2.3-0.6,7-0.9,12.4,2.1c5.5,3,3.5,3.4,3.5,3.4l-4.6,4.1
			c0,0-0.6-2.6-4.6-3s-7.7,1.1-9.2,0.5C124.5,75.8,124.3,75,124.3,75z"/>
		<path id="XMLID_120_" class="st3" d="M140.9,71.4c0.4,0.2,3.3,2,3.1,2.1c-0.2,0.2-4.5,4.7-4.6,4.7c-0.2-0.5-2.3-1.9-3.1-2.1
			C137,75.6,140.9,71.4,140.9,71.4z"/>
		<path id="XMLID_119_" class="st8" d="M138.4,79.5c0,0-8.2-1.9-12.9,0.1c-4.7,2-12,4.7-12.6,6.5c-0.6,1.9-1,4.9,1.2,5.3
			c2.2,0.4,5.2-0.9,5.6-1.6c0.3-0.7,4.4-5.5,7.1-6.1c2.6-0.6,3.6-1.4,6.5-1.5c3-0.2,4,2,4,2l2.3-2.5
			C139.6,81.7,139.6,79.6,138.4,79.5z"/>
		<path id="XMLID_118_" class="st3" d="M133.4,78.8c1.1,0,1.9,0.1,2.5,0.2c0.7,0.1,1.6,0.4,1.6,0.4s-2.1,2.9-2.2,3.1
			c-0.2-0.2-3.5-0.3-4.2,0.1C132,81.5,133.4,78.8,133.4,78.8z"/>
	</g>
	<polygon id="XMLID_116_" class="st5" points="157.3,97.2 168.5,99.7 168.5,98.5 157.3,93.7 	"/>
	<polygon id="XMLID_115_" class="st5" points="199.2,94.1 188.4,98.7 188.4,100.3 199.2,97.4 	"/>
	<path id="XMLID_114_" class="st5" d="M157.3,105.9c0,2.4,2.5,4.4,5.6,4.4c3.1,0,5.6-2,5.6-4.4c0-0.9-0.3-1.8-0.9-2.5h-9.3
		C157.7,104.2,157.3,105,157.3,105.9z"/>
	<path id="XMLID_113_" class="st5" d="M188.4,105.4c0,2.4,2.5,4.4,5.6,4.4c3.1,0,5.6-2,5.6-4.4c0-0.9-0.3-1.8-0.9-2.5h-9.3
		C188.8,103.6,188.4,104.4,188.4,105.4z"/>
	<path id="XMLID_112_" class="st2" d="M163.5,101c-0.2,0-0.4,0-0.6,0s-0.4,0-0.6,0c-2.1,0.2-3.9,1.1-5,2.5h0.9h9.3h0.9
		C167.4,102.1,165.6,101.1,163.5,101z"/>
	<path id="XMLID_111_" class="st2" d="M194.6,100.4c-0.2,0-0.4,0-0.6,0c-0.2,0-0.4,0-0.6,0c-2.1,0.2-3.9,1.1-5,2.5h0.9h9.3h0.9
		C198.5,101.5,196.7,100.5,194.6,100.4z"/>
</g>
<g id="XMLID_132_">
	<g id="XMLID_139_">
		<ellipse id="XMLID_153_" class="st8" cx="74.2" cy="101.5" rx="45.6" ry="39.5"/>
		<g id="XMLID_146_">
			<path id="XMLID_151_" class="st9" d="M103.5,88.8l-56.7,1c-3.5,2.7-5.8,7-5.8,11.7v7.1l9.3,9h26l0.5-13.6l5.2,13.6h19.6l9.9-9.5
				v-5.3C111.7,96.8,108.3,91.6,103.5,88.8z"/>
			<polygon id="XMLID_150_" class="st2" points="76.3,117.7 82.1,117.7 76.9,104.1 			"/>
			<path id="XMLID_149_" class="st2" d="M111.7,109.5v-1.3l-9.9,9.5h1.7C108,117.7,111.7,114,111.7,109.5z"/>
			<path id="XMLID_148_" class="st2" d="M41,110.6c0,3.9,3.2,7.1,7.1,7.1h2.2l-9.3-9V110.6z"/>
			<path id="XMLID_147_" class="st2" d="M95.6,86.8H68c-8.9,0.3-14,0.4-16.9,0.8c-1.6,0.5-3,1.3-4.3,2.3l56.7-1
				C101.1,87.5,98.4,86.8,95.6,86.8z"/>
		</g>
		<path id="XMLID_145_" class="st3" d="M40.4,111.7c-0.1-6-0.3-16.9,3.4-23.7s14.9-9.7,14.9-9.7s-15.6-1-17.7,10.2
			c0,0-3.3,12.4-2,20.3C39.6,110.6,40.4,111.7,40.4,111.7z"/>
		<path id="XMLID_144_" class="st3" d="M111.8,112.4c0.1-6,0.3-16.9-3.4-23.7S93.4,79,93.4,79s15.6-1,17.7,10.2c0,0,3.3,12.4,2,20.3
			C112.5,111.3,111.8,112.4,111.8,112.4z"/>
		<path id="XMLID_143_" class="st8" d="M22.1,75c0-1.2,1.9-5.1,4.1-5.7c2.3-0.6,7-0.9,12.4,2.1c5.5,3,3.5,3.4,3.5,3.4l-4.6,4.1
			c0,0-0.6-2.6-4.6-3s-7.7,1.1-9.2,0.5C22.4,75.8,22.1,75,22.1,75z"/>
		<path id="XMLID_142_" class="st3" d="M38.8,71.4c0.4,0.2,3.3,2,3.1,2.1s-4.5,4.7-4.6,4.7c-0.2-0.5-2.3-1.9-3.1-2.1
			C34.8,75.6,38.8,71.4,38.8,71.4z"/>
		<path id="XMLID_141_" class="st8" d="M36.2,79.5c0,0-8.2-1.9-12.9,0.1c-4.7,2-12,4.7-12.6,6.5c-0.6,1.9-1,4.9,1.2,5.3
			c2.2,0.4,5.2-0.9,5.6-1.6c0.3-0.7,4.4-5.5,7.1-6.1c2.6-0.6,3.6-1.4,6.5-1.5s4,2,4,2l2.3-2.5C37.4,81.7,37.5,79.6,36.2,79.5z"/>
		<path id="XMLID_140_" class="st3" d="M31.2,78.8c1.1,0,1.9,0.1,2.5,0.2c0.7,0.1,1.6,0.4,1.6,0.4s-2.1,2.9-2.2,3.1
			c-0.2-0.2-3.5-0.3-4.2,0.1C29.9,81.5,31.2,78.8,31.2,78.8z"/>
	</g>
	<polygon id="XMLID_138_" class="st5" points="55.2,97.2 66.4,99.7 66.4,98.5 55.2,93.7 	"/>
	<polygon id="XMLID_137_" class="st5" points="97.1,94.1 86.3,98.7 86.3,100.3 97.1,97.4 	"/>
	<path id="XMLID_136_" class="st5" d="M55.2,105.9c0,2.4,2.5,4.4,5.6,4.4c3.1,0,5.6-2,5.6-4.4c0-0.9-0.3-1.8-0.9-2.5h-9.3
		C55.6,104.2,55.2,105,55.2,105.9z"/>
	<path id="XMLID_135_" class="st5" d="M86.3,105.4c0,2.4,2.5,4.4,5.6,4.4s5.6-2,5.6-4.4c0-0.9-0.3-1.8-0.9-2.5h-9.3
		C86.6,103.6,86.3,104.4,86.3,105.4z"/>
	<path id="XMLID_134_" class="st2" d="M61.4,101c-0.2,0-0.4,0-0.6,0c-0.2,0-0.4,0-0.6,0c-2.1,0.2-3.9,1.1-5,2.5h0.9h9.3h0.9
		C65.3,102.1,63.4,101.1,61.4,101z"/>
	<path id="XMLID_133_" class="st2" d="M92.4,100.4c-0.2,0-0.4,0-0.6,0s-0.4,0-0.6,0c-2.1,0.2-3.9,1.1-5,2.5h0.9h9.3h0.9
		C96.3,101.5,94.5,100.5,92.4,100.4z"/>
</g>
</svg>
