<?xml version="1.0" encoding="utf-8"?>
<!-- Generator: Adobe Illustrator 19.0.0, SVG Export Plug-In . SVG Version: 6.00 Build 0)  -->
<svg version="1.1" id="Calque_1" xmlns="http://www.w3.org/2000/svg" xmlns:xlink="http://www.w3.org/1999/xlink" x="0px" y="0px"
	 viewBox="0 0 216.5 141.3" style="enable-background:new 0 0 216.5 141.3;" xml:space="preserve">
<style type="text/css">
	.st0{opacity:0.49;}
	.st1{fill:none;}
	.st2{fill:#B71E26;}
	.st3{fill:#D83435;}
	.st4{fill:#F2C1C2;}
	.st5{opacity:0.67;fill:#EEA8A9;}
	.st6{fill:#CB2628;}
	.st7{fill:#EEA8A9;}
</style>
<g id="XMLID_76_" class="st0">
	<rect id="XMLID_1221_" x="0.1" y="89.2" class="st1" width="0.1" height="2.6"/>
	<rect id="XMLID_1222_" x="0.1" y="92.6" class="st1" width="0.1" height="2.9"/>
	<path id="XMLID_1224_" class="st1" d="M-0.2,133.8c0,0.3,0.1,0.5,0.3,0.7v-1.5C-0.1,133.3-0.2,133.6-0.2,133.8z"/>
	<path id="XMLID_1261_" class="st2" d="M-0.3,19L0,19.7c0.1,0,0.1-0.1,0.2-0.1v-0.8C0,18.9-0.1,18.9-0.3,19z"/>
	<path id="XMLID_1263_" class="st2" d="M215.9,24c0.6-0.5,1.1-1.3,1.1-2.6c0-1.1-0.4-2-1.1-2.5v2.5V24z"/>
	<path id="XMLID_1390_" class="st2" d="M215.9,122.5h0.5c0-0.1,0-0.3,0-0.5c0-0.6-0.1-1.3-0.6-1.8V122.5z"/>
	<path id="XMLID_1391_" class="st2" d="M216.1,125l-0.2-0.8c0,0,0,0,0,0v0.8C216,125.1,216.1,125,216.1,125z"/>
	<path id="XMLID_1413_" class="st2" d="M42.7,141.1h0.8c0,0,0-0.1-0.1-0.1h-0.8C42.7,141,42.7,141.1,42.7,141.1z"/>
	<path id="XMLID_1414_" class="st2" d="M44,141.1h0.8c0,0,0.1-0.1,0.1-0.1h-0.8C44.1,141,44.1,141.1,44,141.1z"/>
	<path id="XMLID_1415_" class="st2" d="M47.4,141.1l0.7-0.1c0,0,0,0,0-0.1h-0.7C47.4,141,47.4,141.1,47.4,141.1z"/>
	<path id="XMLID_1416_" class="st2" d="M79.2,141.1H80c0,0,0-0.1-0.1-0.1h-0.8C79.1,141,79.2,141.1,79.2,141.1z"/>
	<path id="XMLID_1417_" class="st2" d="M149.6,141.1h0.8c0,0,0-0.1-0.1-0.1h-0.8C149.6,141,149.6,141.1,149.6,141.1z"/>
	<path id="XMLID_1418_" class="st2" d="M150.9,141.1h0.8c0,0,0.1-0.1,0.1-0.1H151C151,141,151,141.1,150.9,141.1z"/>
	<path id="XMLID_1419_" class="st2" d="M154.3,141.1h0.8c0,0,0.1-0.1,0.1-0.1h-0.8C154.4,141,154.4,141.1,154.3,141.1z"/>
	<path id="XMLID_1420_" class="st2" d="M77.5,95.7c1.1,0,1.8-0.9,1.8-2.2c0-1.2-0.6-2.2-1.7-2.2c-0.7,0-1.4,0.5-1.6,1.3
		c0,0.1-0.1,0.3-0.1,0.4v1c0,0.2,0,0.3,0,0.4C76.1,95.2,76.8,95.7,77.5,95.7z"/>
	<path id="XMLID_1421_" class="st2" d="M45.5,94.5c0-0.1,0-0.3,0-0.5v-1c0-0.1,0-0.3,0-0.4c-0.2-0.7-0.7-1.2-1.5-1.2
		c-1.1,0-1.7,1-1.7,2.2c0,1.2,0.6,2.1,1.7,2.1C44.6,95.7,45.3,95.2,45.5,94.5z"/>
	<path id="XMLID_1422_" class="st2" d="M81.5,106.6c0-1.9-1.1-3.1-3.3-3.1c-0.5,0-0.9,0-1.2,0.1v6.4c0.3,0,0.6,0.1,1.1,0.1
		C80.3,110.1,81.5,108.8,81.5,106.6z"/>
	<path id="XMLID_1423_" class="st2" d="M100.5,110.2c1.1,0,1.6-1.3,1.6-3.3c0-1.9-0.5-3.2-1.6-3.2c-0.9,0-1.6,1.1-1.6,3.3
		C98.9,109,99.5,110.2,100.5,110.2z"/>
	<path id="XMLID_1424_" class="st2" d="M97.3,60.3c-0.5,0-0.8,0-1,0.1v3.1c0.2,0.1,0.5,0.1,0.9,0.1c1.3,0,2-0.6,2-1.7
		C99.3,60.8,98.5,60.3,97.3,60.3z"/>
	<path id="XMLID_1425_" class="st2" d="M82.7,48.1c-1.1,0-1.5,1-1.6,1.7h3.1C84.2,49.1,83.9,48.1,82.7,48.1z"/>
	<path id="XMLID_1426_" class="st2" d="M83.2,76.9c-1.1,0-1.7,1-1.7,2.2c0,1.2,0.6,2.1,1.7,2.1c0.7,0,1.4-0.5,1.5-1.3
		c0-0.1,0-0.3,0-0.5v-1c0-0.1,0-0.3,0-0.4C84.5,77.5,83.9,76.9,83.2,76.9z"/>
	<path id="XMLID_1427_" class="st2" d="M50.6,91.3c-1.1,0-1.5,1-1.6,1.7H52C52,92.3,51.7,91.3,50.6,91.3z"/>
	<path id="XMLID_1428_" class="st2" d="M52.7,76.9c-1.1,0-1.7,1-1.7,2.2c0,1.2,0.6,2.1,1.7,2.1c0.7,0,1.4-0.5,1.5-1.3
		c0-0.1,0-0.3,0-0.5v-1c0-0.1,0-0.3,0-0.4C54,77.5,53.4,76.9,52.7,76.9z"/>
	<path id="XMLID_1429_" class="st2" d="M105.3,93.5c0-1-0.5-2.2-1.7-2.2c-1.2,0-1.8,1.2-1.8,2.3c0,1.3,0.7,2.2,1.8,2.2
		C104.5,95.8,105.3,94.8,105.3,93.5z"/>
	<path id="XMLID_1430_" class="st2" d="M57.8,79.2c0,1.2,0.6,2.1,1.7,2.1c0.7,0,1.4-0.5,1.5-1.3c0-0.1,0-0.3,0-0.5v-1
		c0-0.1,0-0.3,0-0.4c-0.2-0.7-0.7-1.2-1.5-1.2C58.4,76.9,57.8,77.9,57.8,79.2z"/>
	<path id="XMLID_1431_" class="st2" d="M72.7,37.2c0,0.7,0.5,1,1,1c0.8,0,1.2-0.5,1.4-1c0-0.1,0.1-0.2,0.1-0.3v-1
		C74,35.8,72.7,36.1,72.7,37.2z"/>
	<path id="XMLID_1432_" class="st2" d="M47.5,80.1v-1c-1.2,0-2.5,0.2-2.5,1.3c0,0.7,0.5,1,1,1c0.8,0,1.2-0.5,1.4-1
		C47.4,80.3,47.5,80.2,47.5,80.1z"/>
	<path id="XMLID_1433_" class="st2" d="M123.6,74.7c-1.7,0-2.6,1.6-2.6,3.4c0,1.7,0.9,3.3,2.6,3.3c1.7,0,2.6-1.5,2.6-3.4
		C126.1,76.4,125.3,74.7,123.6,74.7z"/>
	<path id="XMLID_1435_" class="st2" d="M125.4,60.3c-1.7,0-2.6,1.6-2.6,3.4c0,1.7,0.9,3.3,2.6,3.3c1.7,0,2.6-1.5,2.6-3.4
		C127.9,62,127.1,60.3,125.4,60.3z"/>
	<path id="XMLID_1437_" class="st2" d="M129,91.3c-1.1,0-1.5,1-1.6,1.7h3.1C130.5,92.3,130.2,91.3,129,91.3z"/>
	<path id="XMLID_1440_" class="st2" d="M115,94.8c0,0.7,0.5,1,1,1c0.8,0,1.2-0.5,1.4-1c0-0.1,0.1-0.2,0.1-0.3v-1
		C116.3,93.5,115,93.7,115,94.8z"/>
	<path id="XMLID_1445_" class="st2" d="M130.1,105.3c0-0.4,0-0.8,0-1.2h0c-0.2,0.5-0.4,0.8-0.6,1.2l-1.9,2.7v0h2.6V105.3z"/>
	<path id="XMLID_1448_" class="st2" d="M165.9,91.3c-1.1,0-1.5,1-1.6,1.7h3.1C167.3,92.3,167,91.3,165.9,91.3z"/>
	<path id="XMLID_1450_" class="st2" d="M166.7,110.2c1,0,1.8-0.9,1.8-2.3c0-1-0.5-2.2-1.7-2.2c-1.2,0-1.8,1.2-1.8,2.3
		C164.9,109.2,165.6,110.2,166.7,110.2z"/>
	<path id="XMLID_1454_" class="st2" d="M173.4,74.9L173.4,74.9c-0.1,0.5-0.3,1-0.4,1.5l-0.8,2.3h2.4l-0.8-2.3
		C173.6,75.8,173.5,75.3,173.4,74.9z"/>
	<path id="XMLID_1456_" class="st2" d="M0.1,76.2V81c0.2-0.7,0.3-1.5,0.3-2.4C0.5,77.7,0.3,76.9,0.1,76.2z"/>
	<path id="XMLID_1462_" class="st2" d="M37.8,91.3c-1.1,0-1.5,1-1.6,1.7h3.1C39.3,92.3,39,91.3,37.8,91.3z"/>
	<path id="XMLID_1463_" class="st2" d="M145.2,105.7c-1.1,0-1.5,1-1.6,1.7h3.1C146.7,106.7,146.4,105.7,145.2,105.7z"/>
	<path id="XMLID_1465_" class="st2" d="M65,77.9c0.2,0.1,0.5,0.1,0.9,0.1c1.3,0,2-0.6,2-1.7c0-1.1-0.8-1.6-1.9-1.6
		c-0.5,0-0.8,0-1,0.1V77.9z"/>
	<path id="XMLID_1466_" class="st2" d="M34.6,105.7c-1.1,0-1.5,1-1.6,1.7H36C36,106.7,35.8,105.7,34.6,105.7z"/>
	<path id="XMLID_1476_" class="st2" d="M76.5,81.4c1,0,1.8-0.9,1.8-2.3c0-1-0.5-2.2-1.7-2.2c-1.2,0-1.8,1.2-1.8,2.3
		C74.8,80.4,75.5,81.4,76.5,81.4z"/>
	<path id="XMLID_1893_" class="st2" d="M59.4,103.5c-0.5,0-0.8,0-1,0.1v3.1c0.2,0.1,0.5,0.1,0.9,0.1c1.3,0,2-0.6,2-1.7
		C61.3,104,60.5,103.5,59.4,103.5z"/>
	<path id="XMLID_1895_" class="st2" d="M156.4,120.1c-0.7,0-1.4,0.5-1.6,1.3c0,0.1-0.1,0.3-0.1,0.4v1c0,0.1,0,0.3,0,0.4
		c0.2,0.7,0.8,1.2,1.6,1.2c1.1,0,1.8-0.9,1.8-2.2C158.1,121.1,157.5,120.1,156.4,120.1z"/>
	<path id="XMLID_1896_" class="st2" d="M125.2,132.3c-0.5,0-0.9,0-1,0.1v3h1.1c1.1,0,1.8-0.6,1.8-1.5
		C127.1,132.8,126.3,132.3,125.2,132.3z"/>
	<path id="XMLID_1897_" class="st2" d="M131.8,134.5c-1.1,0-1.5,1-1.6,1.7h3.1C133.3,135.5,133,134.5,131.8,134.5z"/>
	<path id="XMLID_1899_" class="st2" d="M96.5,120.1c-1.1,0-1.5,1-1.6,1.7H98C98,121.1,97.7,120.1,96.5,120.1z"/>
	<path id="XMLID_1909_" class="st2" d="M4.3,3.2C4.8,3.2,5,3,5,2.6c0-0.4-0.3-0.7-0.6-0.7C4,1.9,3.7,2.2,3.7,2.6
		C3.7,3,4,3.2,4.3,3.2z"/>
	<rect id="XMLID_1910_" x="3.8" y="4.2" class="st2" width="1.1" height="5.8"/>
	<path id="XMLID_1911_" class="st2" d="M6.7,10h1.1V6.5c0-0.2,0-0.4,0.1-0.5C8,5.5,8.5,5,9.2,5c1,0,1.3,0.8,1.3,1.7V10h1.1V6.6
		c0-2-1.2-2.5-2.1-2.5c-1,0-1.6,0.5-1.9,1.1h0l-0.1-1H6.6c0,0.5,0,1,0,1.6V10z"/>
	<path id="XMLID_1912_" class="st2" d="M15.8,10.2c0.8,0,1.4-0.2,1.7-0.3L17.3,9C17,9.2,16.6,9.3,16,9.3c-1.2,0-2-0.8-2-2.2
		C14,5.9,14.7,5,16,5c0.6,0,1,0.1,1.2,0.3l0.2-0.8c-0.3-0.1-0.8-0.3-1.5-0.3c-1.9,0-3.1,1.3-3.1,3.1C12.9,9,14,10.2,15.8,10.2z"/>
	<rect id="XMLID_1913_" x="18.7" y="1.5" class="st2" width="1.1" height="8.5"/>
	<path id="XMLID_1914_" class="st2" d="M23.5,10.2c1,0,1.6-0.6,1.9-1.1h0l0.1,0.9h0.9c0-0.5,0-1,0-1.6V4.2h-1.1v3.6
		c0,0.2,0,0.4-0.1,0.5c-0.2,0.5-0.7,1-1.4,1c-1,0-1.3-0.7-1.3-1.8V4.2h-1.1v3.4C21.5,9.7,22.6,10.2,23.5,10.2z"/>
	<path id="XMLID_1917_" class="st2" d="M30.2,10.2c0.9,0,1.7-0.5,2-1.1h0l0,1h0.9c0-0.4,0-1,0-1.5v-7h-1.1V5h0
		c-0.3-0.5-0.9-0.9-1.8-0.9c-1.4,0-2.6,1.2-2.6,3.1C27.7,9,28.8,10.2,30.2,10.2z M30.5,4.9c0.8,0,1.4,0.6,1.5,1.2c0,0.1,0,0.3,0,0.4
		v1c0,0.2,0,0.3,0,0.5c-0.2,0.8-0.8,1.3-1.5,1.3c-1.1,0-1.7-1-1.7-2.1C28.8,5.9,29.4,4.9,30.5,4.9z"/>
	<path id="XMLID_1920_" class="st2" d="M37.3,10.2c0.9,0,1.6-0.2,1.9-0.4L39.1,9c-0.4,0.2-0.9,0.3-1.6,0.3c-1.1,0-2-0.6-2-2h4.1
		c0-0.1,0-0.3,0-0.5c0-1.1-0.5-2.7-2.4-2.7c-1.7,0-2.7,1.4-2.7,3.1S35.5,10.2,37.3,10.2z M37.1,4.9c1.2,0,1.5,1,1.5,1.7h-3.1
		C35.6,5.8,36.1,4.9,37.1,4.9z"/>
	<path id="XMLID_1921_" class="st2" d="M43.2,11.5c-0.9-1.2-1.5-2.7-1.5-4.9c0-2.2,0.6-3.7,1.5-4.9h-0.8c-0.8,1-1.6,2.5-1.6,4.9
		c0,2.3,0.8,3.9,1.6,4.9H43.2z"/>
	<polygon id="XMLID_1922_" class="st2" points="44.9,4.7 45.1,1.8 44.1,1.8 44.2,4.7 	"/>
	<path id="XMLID_1925_" class="st2" d="M49.7,10.2c0.2,0,0.3,0.1,0.5,0.1c0.9,0.3,2,0.6,3.1,0.9l0.3-0.9c-0.7-0.1-1.6-0.3-2.4-0.5v0
		c1.3-0.5,2.3-1.8,2.3-3.9c0-2.4-1.4-4.1-3.6-4.1c-2.2,0-3.8,1.7-3.8,4.3C46.1,8.7,47.7,10.1,49.7,10.2z M49.8,2.7
		c1.7,0,2.6,1.7,2.6,3.3c0,1.8-0.9,3.4-2.6,3.4c-1.6,0-2.6-1.5-2.6-3.3C47.2,4.3,48.1,2.7,49.8,2.7z"/>
	<path id="XMLID_1926_" class="st2" d="M54.8,10h1V6.9c0-0.2,0-0.3,0-0.5c0.1-0.8,0.7-1.4,1.4-1.4c0.1,0,0.3,0,0.4,0v-1
		c-0.1,0-0.2,0-0.3,0c-0.7,0-1.3,0.5-1.6,1.3h0l0-1.1h-0.9c0,0.5,0,1.1,0,1.8V10z"/>
	<rect id="XMLID_1927_" x="57.9" y="10.9" class="st2" width="6" height="0.6"/>
	<path id="XMLID_1930_" class="st2" d="M69.2,9.4c0.4-0.4,0.7-0.9,0.7-1.6c0-1.2-0.9-1.8-1.7-2v0c0.9-0.3,1.4-1,1.4-1.8
		c0-0.6-0.3-1.1-0.7-1.4c-0.5-0.4-1.2-0.6-2.2-0.6c-0.7,0-1.5,0.1-1.9,0.2v8c0.3,0,0.9,0.1,1.6,0.1C67.7,10.1,68.6,9.9,69.2,9.4z
		 M65.8,2.8c0.2,0,0.4-0.1,0.9-0.1c1.1,0,1.8,0.4,1.8,1.3c0,0.8-0.6,1.4-1.8,1.4h-0.9V2.8z M65.8,6.2h0.9c1.1,0,2.1,0.5,2.1,1.6
		c0,1.2-1,1.6-2.1,1.6c-0.4,0-0.7,0-0.9,0V6.2z"/>
	<path id="XMLID_1934_" class="st2" d="M70.8,8.5c0,0.8,0.6,1.7,1.8,1.7c0.8,0,1.5-0.4,1.8-0.9h0l0.1,0.7h1
		c-0.1-0.4-0.1-0.9-0.1-1.4V6.5c0-1.2-0.4-2.4-2.2-2.4c-0.7,0-1.4,0.2-1.9,0.5l0.2,0.7c0.4-0.3,1-0.4,1.5-0.4c1.2,0,1.3,0.9,1.3,1.3
		v0.1C72,6.3,70.8,7.1,70.8,8.5z M74.3,7.1v1c0,0.1,0,0.2-0.1,0.3c-0.2,0.5-0.6,1-1.4,1c-0.5,0-1-0.3-1-1
		C71.8,7.3,73.1,7.1,74.3,7.1z"/>
	<path id="XMLID_1935_" class="st2" d="M77,10h1V6.9c0-0.2,0-0.3,0-0.5c0.1-0.8,0.7-1.4,1.4-1.4c0.1,0,0.3,0,0.4,0v-1
		c-0.1,0-0.2,0-0.3,0c-0.7,0-1.3,0.5-1.6,1.3h0l0-1.1H77c0,0.5,0,1.1,0,1.8V10z"/>
	<path id="XMLID_1936_" class="st2" d="M84.5,10.2c1,0,1.8-0.2,2.1-0.4l-0.2-0.8c-0.4,0.2-1.1,0.3-1.7,0.3c-2,0-3.1-1.3-3.1-3.3
		c0-2.1,1.3-3.3,3.2-3.3c0.7,0,1.2,0.1,1.6,0.3l0.3-0.9c-0.3-0.1-0.9-0.4-1.9-0.4c-2.5,0-4.2,1.7-4.2,4.2
		C80.5,8.7,82.2,10.2,84.5,10.2z"/>
	<path id="XMLID_1939_" class="st2" d="M90.1,10.2c1.4,0,2.9-0.9,2.9-3.1c0-1.8-1.1-3-2.8-3c-1.6,0-2.9,1.1-2.9,3.1
		C87.4,9,88.6,10.2,90.1,10.2z M90.2,4.9c1.2,0,1.7,1.2,1.7,2.2c0,1.3-0.8,2.3-1.8,2.3c-1,0-1.8-1-1.8-2.2C88.4,6,89,4.9,90.2,4.9z"
		/>
	<path id="XMLID_1942_" class="st2" d="M96.4,10.2c0.9,0,1.7-0.5,2-1.1h0l0,1h0.9c0-0.4,0-1,0-1.5v-7h-1.1V5h0
		c-0.3-0.5-0.9-0.9-1.8-0.9c-1.4,0-2.6,1.2-2.6,3.1C93.9,9,95,10.2,96.4,10.2z M96.7,4.9c0.8,0,1.4,0.6,1.5,1.2c0,0.1,0,0.3,0,0.4v1
		c0,0.2,0,0.3,0,0.5c-0.2,0.8-0.8,1.3-1.5,1.3c-1.1,0-1.7-1-1.7-2.1C95,5.9,95.7,4.9,96.7,4.9z"/>
	<path id="XMLID_1945_" class="st2" d="M103.6,10.2c0.9,0,1.6-0.2,1.9-0.4L105.3,9c-0.4,0.2-0.9,0.3-1.6,0.3c-1.1,0-2-0.6-2-2h4.1
		c0-0.1,0-0.3,0-0.5c0-1.1-0.5-2.7-2.4-2.7c-1.7,0-2.7,1.4-2.7,3.1S101.8,10.2,103.6,10.2z M103.3,4.9c1.2,0,1.5,1,1.5,1.7h-3.1
		C101.8,5.8,102.3,4.9,103.3,4.9z"/>
	<path id="XMLID_1946_" class="st2" d="M107.5,10.2c0.4,0,0.7-0.3,0.7-0.8c0-0.4-0.3-0.8-0.7-0.8c-0.4,0-0.7,0.3-0.7,0.8
		C106.7,9.8,107,10.2,107.5,10.2z"/>
	<path id="XMLID_1949_" class="st2" d="M109.5,12.4h1V9.3h0c0.3,0.6,1,0.9,1.8,0.9c1.4,0,2.6-1,2.6-3.1c0-1.8-1.1-3-2.5-3
		c-0.9,0-1.6,0.4-2.1,1.1h0l0-1h-0.9c0,0.6,0,1.2,0,1.9V12.4z M110.5,6.7c0-0.1,0-0.3,0.1-0.4c0.2-0.8,0.9-1.3,1.6-1.3
		c1.1,0,1.7,1,1.7,2.2c0,1.3-0.6,2.2-1.8,2.2c-0.8,0-1.4-0.5-1.6-1.2c0-0.1,0-0.3,0-0.4V6.7z"/>
	<path id="XMLID_1950_" class="st2" d="M117.4,6.5c0-0.2,0-0.4,0.1-0.5c0.2-0.6,0.7-1.1,1.4-1.1c1,0,1.3,0.8,1.3,1.7V10h1.1V6.6
		c0-2-1.2-2.5-2-2.5c-0.4,0-0.8,0.1-1.1,0.3c-0.3,0.2-0.6,0.4-0.8,0.7h0V1.5h-1.1V10h1.1V6.5z"/>
	<path id="XMLID_1953_" class="st2" d="M123,12.4h1V9.3h0c0.3,0.6,1,0.9,1.8,0.9c1.4,0,2.6-1,2.6-3.1c0-1.8-1.1-3-2.5-3
		c-0.9,0-1.6,0.4-2.1,1.1h0l0-1h-0.9c0,0.6,0,1.2,0,1.9V12.4z M124,6.7c0-0.1,0-0.3,0.1-0.4c0.2-0.8,0.9-1.3,1.6-1.3
		c1.1,0,1.7,1,1.7,2.2c0,1.3-0.6,2.2-1.8,2.2c-0.8,0-1.4-0.5-1.6-1.2c0-0.1,0-0.3,0-0.4V6.7z"/>
	<polygon id="XMLID_1954_" class="st2" points="130.2,4.7 130.4,1.8 129.4,1.8 129.6,4.7 	"/>
	<path id="XMLID_1955_" class="st2" d="M132.1,11.5c0.8-1,1.6-2.5,1.6-4.9c0-2.4-0.8-3.9-1.6-4.9h-0.8c0.9,1.2,1.5,2.7,1.5,4.9
		c0,2.2-0.7,3.7-1.5,4.9H132.1z"/>
	<path id="XMLID_1956_" class="st2" d="M135.9,5.9c0.4,0,0.7-0.3,0.7-0.7c0-0.4-0.3-0.8-0.7-0.8c-0.4,0-0.7,0.3-0.7,0.8
		C135.2,5.6,135.5,5.9,135.9,5.9z"/>
	<path id="XMLID_1957_" class="st2" d="M136.5,8.5l-1.2,0.1c-0.1,0.9-0.5,2.2-0.7,2.9l0.7-0.1C135.7,10.9,136.3,9.5,136.5,8.5z"/>
	<rect id="XMLID_1958_" x="137.8" y="4.2" class="st2" width="1.1" height="5.8"/>
	<path id="XMLID_1959_" class="st2" d="M138.3,3.2c0.4,0,0.7-0.3,0.7-0.6c0-0.4-0.3-0.7-0.6-0.7c-0.4,0-0.7,0.3-0.7,0.7
		C137.7,3,137.9,3.2,138.3,3.2z"/>
	<path id="XMLID_1960_" class="st2" d="M140.6,10h1.1V6.5c0-0.2,0-0.4,0.1-0.5c0.2-0.6,0.7-1.1,1.4-1.1c1,0,1.3,0.8,1.3,1.7V10h1.1
		V6.6c0-2-1.2-2.5-2.1-2.5c-1,0-1.6,0.5-1.9,1.1h0l-0.1-1h-0.9c0,0.5,0,1,0,1.6V10z"/>
	<path id="XMLID_1961_" class="st2" d="M149.7,10.2c0.8,0,1.4-0.2,1.7-0.3L151.2,9c-0.3,0.1-0.7,0.3-1.3,0.3c-1.2,0-2-0.8-2-2.2
		c0-1.2,0.7-2.2,2.1-2.2c0.6,0,1,0.1,1.2,0.3l0.2-0.8c-0.3-0.1-0.8-0.3-1.5-0.3c-1.9,0-3.1,1.3-3.1,3.1C146.9,9,148,10.2,149.7,10.2
		z"/>
	<rect id="XMLID_1962_" x="152.7" y="1.5" class="st2" width="1.1" height="8.5"/>
	<path id="XMLID_1963_" class="st2" d="M157.5,10.2c1,0,1.6-0.6,1.9-1.1h0l0.1,0.9h0.9c0-0.5,0-1,0-1.6V4.2h-1.1v3.6
		c0,0.2,0,0.4-0.1,0.5c-0.2,0.5-0.7,1-1.4,1c-1,0-1.3-0.7-1.3-1.8V4.2h-1.1v3.4C155.5,9.7,156.5,10.2,157.5,10.2z"/>
	<path id="XMLID_1966_" class="st2" d="M164.2,10.2c0.9,0,1.7-0.5,2-1.1h0l0,1h0.9c0-0.4,0-1,0-1.5v-7h-1.1V5h0
		c-0.3-0.5-0.9-0.9-1.8-0.9c-1.4,0-2.6,1.2-2.6,3.1C161.7,9,162.8,10.2,164.2,10.2z M164.5,4.9c0.8,0,1.4,0.6,1.5,1.2
		c0,0.1,0,0.3,0,0.4v1c0,0.2,0,0.3,0,0.5c-0.2,0.8-0.8,1.3-1.5,1.3c-1.1,0-1.7-1-1.7-2.1C162.7,5.9,163.4,4.9,164.5,4.9z"/>
	<path id="XMLID_1969_" class="st2" d="M171.3,10.2c0.9,0,1.6-0.2,1.9-0.4L173.1,9c-0.4,0.2-0.9,0.3-1.6,0.3c-1.1,0-2-0.6-2-2h4.1
		c0-0.1,0-0.3,0-0.5c0-1.1-0.5-2.7-2.4-2.7c-1.7,0-2.7,1.4-2.7,3.1S169.5,10.2,171.3,10.2z M171.1,4.9c1.2,0,1.5,1,1.5,1.7h-3.1
		C169.6,5.8,170,4.9,171.1,4.9z"/>
	<polygon id="XMLID_1970_" class="st2" points="177.9,4.7 178.1,1.8 177.1,1.8 177.3,4.7 	"/>
	<polygon id="XMLID_1971_" class="st2" points="179.7,4.7 179.9,1.8 178.9,1.8 179.1,4.7 	"/>
	<path id="XMLID_1972_" class="st2" d="M180.5,10.2c0.4,0,0.7-0.3,0.7-0.8c0-0.4-0.3-0.8-0.7-0.8c-0.4,0-0.7,0.3-0.7,0.8
		C179.8,9.8,180.1,10.2,180.5,10.2z"/>
	<polygon id="XMLID_1973_" class="st2" points="185.8,1.8 185,1.8 181.6,10.5 182.4,10.5 	"/>
	<rect id="XMLID_1974_" x="185.8" y="10.9" class="st2" width="6" height="0.6"/>
	<path id="XMLID_1975_" class="st2" d="M195.1,10.2c0.8,0,1.4-0.2,1.7-0.3L196.6,9c-0.3,0.1-0.7,0.3-1.3,0.3c-1.2,0-2-0.8-2-2.2
		c0-1.2,0.7-2.2,2.1-2.2c0.6,0,1,0.1,1.2,0.3l0.2-0.8c-0.3-0.1-0.8-0.3-1.5-0.3c-1.9,0-3.1,1.3-3.1,3.1
		C192.2,9,193.3,10.2,195.1,10.2z"/>
	<rect id="XMLID_1976_" x="198" y="1.5" class="st2" width="1.1" height="8.5"/>
	<path id="XMLID_1979_" class="st2" d="M200.4,8.5c0,0.8,0.6,1.7,1.8,1.7c0.8,0,1.5-0.4,1.8-0.9h0l0.1,0.7h1
		c-0.1-0.4-0.1-0.9-0.1-1.4V6.5c0-1.2-0.4-2.4-2.2-2.4c-0.7,0-1.4,0.2-1.9,0.5l0.2,0.7c0.4-0.3,1-0.4,1.5-0.4c1.2,0,1.3,0.9,1.3,1.3
		v0.1C201.6,6.3,200.4,7.1,200.4,8.5z M203.9,7.1v1c0,0.1,0,0.2-0.1,0.3c-0.2,0.5-0.6,1-1.4,1c-0.5,0-1-0.3-1-1
		C201.4,7.3,202.7,7.1,203.9,7.1z"/>
	<path id="XMLID_1980_" class="st2" d="M207.9,9.4c-0.5,0-1.1-0.2-1.4-0.4l-0.3,0.8c0.4,0.2,1,0.4,1.6,0.4c1.4,0,2.2-0.7,2.2-1.7
		c0-0.9-0.5-1.4-1.5-1.8c-0.8-0.3-1.1-0.5-1.1-1c0-0.4,0.3-0.8,1-0.8c0.5,0,1,0.2,1.2,0.3l0.3-0.8c-0.3-0.2-0.8-0.4-1.4-0.4
		c-1.2,0-2,0.8-2,1.7c0,0.7,0.5,1.3,1.5,1.6c0.8,0.3,1.1,0.6,1.1,1.1C209,9,208.6,9.4,207.9,9.4z"/>
	<path id="XMLID_1981_" class="st2" d="M212.6,9.4c-0.5,0-1.1-0.2-1.4-0.4L211,9.8c0.4,0.2,1,0.4,1.6,0.4c1.4,0,2.2-0.7,2.2-1.7
		c0-0.9-0.5-1.4-1.5-1.8c-0.8-0.3-1.1-0.5-1.1-1c0-0.4,0.3-0.8,1-0.8c0.5,0,1,0.2,1.2,0.3l0.3-0.8c-0.3-0.2-0.8-0.4-1.4-0.4
		c-1.2,0-2,0.8-2,1.7c0,0.7,0.5,1.3,1.5,1.6c0.8,0.3,1.1,0.6,1.1,1.1C213.7,9,213.4,9.4,212.6,9.4z"/>
	<polygon id="XMLID_1982_" class="st2" points="215.9,10.5 215.9,8.7 215.2,10.5 	"/>
	<path id="XMLID_1985_" class="st2" d="M2.9,23.7L2.9,23.7L3,24.4h1C3.9,24,3.8,23.5,3.8,23v-2.2c0-1.2-0.4-2.4-2.2-2.4
		c-0.5,0-1.1,0.1-1.5,0.3v0.8c0.4-0.2,0.9-0.3,1.3-0.3c1.2,0,1.3,0.9,1.3,1.3v0.1c-1.2,0-2.1,0.2-2.7,0.6v3c0.3,0.1,0.6,0.2,0.9,0.2
		C1.9,24.6,2.5,24.2,2.9,23.7z M0.4,22.8c0-1.1,1.3-1.3,2.5-1.3v1c0,0.1,0,0.2-0.1,0.3c-0.2,0.5-0.6,1-1.4,1
		C0.8,23.8,0.4,23.5,0.4,22.8z"/>
	<path id="XMLID_1986_" class="st2" d="M6.8,23.8c-0.5,0-1.1-0.2-1.4-0.4l-0.3,0.8c0.4,0.2,1,0.4,1.6,0.4c1.4,0,2.2-0.7,2.2-1.7
		c0-0.9-0.5-1.4-1.5-1.8c-0.8-0.3-1.1-0.5-1.1-1c0-0.4,0.3-0.8,1-0.8c0.5,0,1,0.2,1.2,0.3l0.3-0.8c-0.3-0.2-0.8-0.4-1.4-0.4
		c-1.2,0-2,0.8-2,1.7c0,0.7,0.5,1.3,1.5,1.6c0.8,0.3,1.1,0.6,1.1,1.1C7.9,23.4,7.6,23.8,6.8,23.8z"/>
	<path id="XMLID_1987_" class="st2" d="M10.1,20.2c0,0.7,0.5,1.3,1.5,1.6c0.8,0.3,1.1,0.6,1.1,1.1c0,0.5-0.4,0.9-1.1,0.9
		c-0.5,0-1.1-0.2-1.4-0.4l-0.3,0.8c0.4,0.2,1,0.4,1.6,0.4c1.4,0,2.2-0.7,2.2-1.7c0-0.9-0.5-1.4-1.5-1.8c-0.8-0.3-1.1-0.5-1.1-1
		c0-0.4,0.3-0.8,1-0.8c0.5,0,1,0.2,1.2,0.3l0.3-0.8c-0.3-0.2-0.8-0.4-1.4-0.4C10.8,18.5,10.1,19.3,10.1,20.2z"/>
	<path id="XMLID_1988_" class="st2" d="M16.1,23.8c0-0.4-0.3-0.8-0.7-0.8c-0.4,0-0.7,0.3-0.7,0.8c0,0.4,0.3,0.8,0.7,0.8
		C15.8,24.6,16.1,24.2,16.1,23.8z"/>
	<path id="XMLID_1991_" class="st2" d="M17.4,20.5v6.3h1v-3.2h0c0.3,0.6,1,0.9,1.8,0.9c1.4,0,2.6-1,2.6-3.1c0-1.8-1.1-3-2.5-3
		c-0.9,0-1.6,0.4-2.1,1.1h0l0-1h-0.9C17.4,19.2,17.4,19.8,17.4,20.5z M18.4,21.1c0-0.1,0-0.3,0.1-0.4c0.2-0.8,0.9-1.3,1.6-1.3
		c1.1,0,1.7,1,1.7,2.2c0,1.3-0.6,2.2-1.8,2.2c-0.8,0-1.4-0.5-1.6-1.2c0-0.1,0-0.3,0-0.4V21.1z"/>
	<path id="XMLID_1992_" class="st2" d="M25.3,19.5L25.3,19.5l0-3.6h-1.1v8.5h1.1v-3.5c0-0.2,0-0.4,0.1-0.5c0.2-0.6,0.7-1.1,1.4-1.1
		c1,0,1.3,0.8,1.3,1.7v3.3h1.1V21c0-2-1.2-2.5-2-2.5c-0.4,0-0.8,0.1-1.1,0.3C25.7,19,25.5,19.2,25.3,19.5z"/>
	<path id="XMLID_1995_" class="st2" d="M31.9,19.6L31.9,19.6l-0.1-1h-0.9c0,0.6,0,1.2,0,1.9v6.3h1v-3.2h0c0.3,0.6,1,0.9,1.8,0.9
		c1.4,0,2.6-1,2.6-3.1c0-1.8-1.1-3-2.5-3C33,18.5,32.3,18.9,31.9,19.6z M33.6,19.3c1.1,0,1.7,1,1.7,2.2c0,1.3-0.6,2.2-1.8,2.2
		c-0.8,0-1.4-0.5-1.6-1.2c0-0.1,0-0.3,0-0.4v-1c0-0.1,0-0.3,0.1-0.4C32.2,19.9,32.9,19.3,33.6,19.3z"/>
	<polygon id="XMLID_1996_" class="st2" points="38.2,19.1 38.4,16.2 37.3,16.2 37.5,19.1 	"/>
	<polygon id="XMLID_1997_" class="st2" points="39.3,19.1 39.9,19.1 40.2,16.2 39.1,16.2 	"/>
	<path id="XMLID_1998_" class="st2" d="M42.9,19.6c0-0.4-0.3-0.8-0.7-0.8c-0.4,0-0.7,0.3-0.7,0.8c0,0.4,0.3,0.7,0.7,0.7
		C42.6,20.3,42.9,20,42.9,19.6z"/>
	<path id="XMLID_1999_" class="st2" d="M41.7,25.8c0.3-0.6,0.9-1.9,1.2-2.9L41.7,23c-0.1,0.9-0.5,2.2-0.7,2.9L41.7,25.8z"/>
	<rect id="XMLID_2000_" x="44.1" y="18.6" class="st2" width="1.1" height="5.8"/>
	<path id="XMLID_2001_" class="st2" d="M44.6,17.6c0.4,0,0.7-0.3,0.7-0.6c0-0.4-0.3-0.7-0.6-0.7c-0.4,0-0.7,0.3-0.7,0.7
		C44,17.4,44.2,17.6,44.6,17.6z"/>
	<path id="XMLID_2002_" class="st2" d="M49.8,18.5c-1,0-1.6,0.5-1.9,1.1h0l-0.1-1h-0.9c0,0.5,0,1,0,1.6v4.2H48v-3.5
		c0-0.2,0-0.4,0.1-0.5c0.2-0.6,0.7-1.1,1.4-1.1c1,0,1.3,0.8,1.3,1.7v3.3h1.1V21C51.9,19,50.6,18.5,49.8,18.5z"/>
	<path id="XMLID_2003_" class="st2" d="M56.1,24.6c0.8,0,1.4-0.2,1.7-0.3l-0.2-0.8c-0.3,0.1-0.7,0.3-1.3,0.3c-1.2,0-2-0.8-2-2.2
		c0-1.2,0.7-2.2,2.1-2.2c0.6,0,1,0.1,1.2,0.3l0.2-0.8c-0.3-0.1-0.8-0.3-1.5-0.3c-1.9,0-3.1,1.3-3.1,3.1
		C53.2,23.4,54.3,24.6,56.1,24.6z"/>
	<rect id="XMLID_2004_" x="59" y="15.9" class="st2" width="1.1" height="8.5"/>
	<path id="XMLID_2005_" class="st2" d="M62.8,21.8v-3.2h-1.1V22c0,2,1.1,2.5,2,2.5c1,0,1.6-0.6,1.9-1.1h0l0.1,0.9h0.9
		c0-0.5,0-1,0-1.6v-4.2h-1.1v3.6c0,0.2,0,0.4-0.1,0.5c-0.2,0.5-0.7,1-1.4,1C63.1,23.7,62.8,22.9,62.8,21.8z"/>
	<path id="XMLID_2008_" class="st2" d="M68,21.6c0,1.8,1.1,3,2.5,3c0.9,0,1.7-0.5,2-1.1h0l0,1h0.9c0-0.4,0-1,0-1.5v-7h-1.1v3.5h0
		c-0.3-0.5-0.9-0.9-1.8-0.9C69.2,18.5,68,19.7,68,21.6z M70.8,19.3c0.8,0,1.4,0.6,1.5,1.2c0,0.1,0,0.3,0,0.4v1c0,0.2,0,0.3,0,0.5
		c-0.2,0.8-0.8,1.3-1.5,1.3c-1.1,0-1.7-1-1.7-2.1C69,20.3,69.7,19.3,70.8,19.3z"/>
	<path id="XMLID_2011_" class="st2" d="M77.6,24.6c0.9,0,1.6-0.2,1.9-0.4l-0.2-0.8c-0.4,0.2-0.9,0.3-1.6,0.3c-1.1,0-2-0.6-2-2h4.1
		c0-0.1,0-0.3,0-0.5c0-1.1-0.5-2.7-2.4-2.7c-1.7,0-2.7,1.4-2.7,3.1C74.7,23.4,75.8,24.6,77.6,24.6z M77.4,19.3c1.2,0,1.5,1,1.5,1.7
		h-3.1C75.9,20.2,76.3,19.3,77.4,19.3z"/>
	<polygon id="XMLID_2012_" class="st2" points="88,19.1 88.2,16.2 87.2,16.2 87.4,19.1 	"/>
	<path id="XMLID_2013_" class="st2" d="M89.5,23.8c0-0.4-0.3-0.8-0.7-0.8c-0.4,0-0.7,0.3-0.7,0.8c0,0.4,0.3,0.8,0.7,0.8
		C89.2,24.6,89.5,24.2,89.5,23.8z"/>
	<polygon id="XMLID_2014_" class="st2" points="90.7,24.9 94.1,16.2 93.3,16.2 89.9,24.9 	"/>
	<rect id="XMLID_2015_" x="94" y="25.3" class="st2" width="6" height="0.6"/>
	<path id="XMLID_2016_" class="st2" d="M103.4,24.6c0.8,0,1.4-0.2,1.7-0.3l-0.2-0.8c-0.3,0.1-0.7,0.3-1.3,0.3c-1.2,0-2-0.8-2-2.2
		c0-1.2,0.7-2.2,2.1-2.2c0.6,0,1,0.1,1.2,0.3l0.2-0.8c-0.3-0.1-0.8-0.3-1.5-0.3c-1.9,0-3.1,1.3-3.1,3.1
		C100.5,23.4,101.6,24.6,103.4,24.6z"/>
	<rect id="XMLID_2017_" x="106.3" y="15.9" class="st2" width="1.1" height="8.5"/>
	<path id="XMLID_2020_" class="st2" d="M108.7,22.9c0,0.8,0.6,1.7,1.8,1.7c0.8,0,1.5-0.4,1.8-0.9h0l0.1,0.7h1
		c-0.1-0.4-0.1-0.9-0.1-1.4v-2.2c0-1.2-0.4-2.4-2.2-2.4c-0.7,0-1.4,0.2-1.9,0.5l0.2,0.7c0.4-0.3,1-0.4,1.5-0.4
		c1.2,0,1.3,0.9,1.3,1.3v0.1C109.9,20.7,108.7,21.5,108.7,22.9z M112.2,21.5v1c0,0.1,0,0.2-0.1,0.3c-0.2,0.5-0.6,1-1.4,1
		c-0.5,0-1-0.3-1-1C109.7,21.7,111,21.5,112.2,21.5z"/>
	<path id="XMLID_2021_" class="st2" d="M116.2,21.8c0.8,0.3,1.1,0.6,1.1,1.1c0,0.5-0.4,0.9-1.1,0.9c-0.5,0-1.1-0.2-1.4-0.4l-0.3,0.8
		c0.4,0.2,1,0.4,1.6,0.4c1.4,0,2.2-0.7,2.2-1.7c0-0.9-0.5-1.4-1.5-1.8c-0.8-0.3-1.1-0.5-1.1-1c0-0.4,0.3-0.8,1-0.8
		c0.5,0,1,0.2,1.2,0.3l0.3-0.8c-0.3-0.2-0.8-0.4-1.4-0.4c-1.2,0-2,0.8-2,1.7C114.7,20.9,115.2,21.5,116.2,21.8z"/>
	<path id="XMLID_2022_" class="st2" d="M119.4,20.2c0,0.7,0.5,1.3,1.5,1.6c0.8,0.3,1.1,0.6,1.1,1.1c0,0.5-0.4,0.9-1.1,0.9
		c-0.5,0-1.1-0.2-1.4-0.4l-0.3,0.8c0.4,0.2,1,0.4,1.6,0.4c1.4,0,2.2-0.7,2.2-1.7c0-0.9-0.5-1.4-1.5-1.8c-0.8-0.3-1.1-0.5-1.1-1
		c0-0.4,0.3-0.8,1-0.8c0.5,0,1,0.2,1.2,0.3l0.3-0.8c-0.3-0.2-0.8-0.4-1.4-0.4C120.2,18.5,119.4,19.3,119.4,20.2z"/>
	<polygon id="XMLID_2023_" class="st2" points="123.5,24.9 124.3,24.9 127.7,16.2 126.9,16.2 	"/>
	<path id="XMLID_2024_" class="st2" d="M128.5,24.4h1v-3.5c0-0.2,0-0.4,0.1-0.5c0.2-0.5,0.6-1.1,1.3-1.1c0.8,0,1.2,0.7,1.2,1.6v3.5
		h1v-3.6c0-0.2,0-0.4,0.1-0.5c0.2-0.5,0.6-1,1.2-1c0.9,0,1.3,0.7,1.3,1.8v3.3h1V21c0-2-1.1-2.5-1.9-2.5c-0.6,0-0.9,0.1-1.3,0.4
		c-0.2,0.2-0.5,0.4-0.6,0.8h0c-0.3-0.7-0.9-1.2-1.6-1.2c-1,0-1.5,0.5-1.8,1.1h0l0-0.9h-0.9c0,0.5,0,1,0,1.6V24.4z"/>
	<path id="XMLID_2027_" class="st2" d="M138.7,19.7c0.4-0.3,1-0.4,1.5-0.4c1.2,0,1.3,0.9,1.3,1.3v0.1c-2.2,0-3.5,0.8-3.5,2.2
		c0,0.8,0.6,1.7,1.8,1.7c0.8,0,1.5-0.4,1.8-0.9h0l0.1,0.7h1c-0.1-0.4-0.1-0.9-0.1-1.4v-2.2c0-1.2-0.4-2.4-2.2-2.4
		c-0.7,0-1.4,0.2-1.9,0.5L138.7,19.7z M141.6,22.5c0,0.1,0,0.2-0.1,0.3c-0.2,0.5-0.6,1-1.4,1c-0.5,0-1-0.3-1-1
		c0-1.1,1.3-1.3,2.5-1.3V22.5z"/>
	<path id="XMLID_2028_" class="st2" d="M144.9,16.3c-0.4,0-0.7,0.3-0.7,0.7c0,0.4,0.3,0.6,0.6,0.6c0.4,0,0.7-0.3,0.7-0.6
		C145.5,16.6,145.3,16.3,144.9,16.3z"/>
	<rect id="XMLID_2029_" x="144.3" y="18.6" class="st2" width="1.1" height="5.8"/>
	<path id="XMLID_2030_" class="st2" d="M150,18.5c-1,0-1.6,0.5-1.9,1.1h0l-0.1-1h-0.9c0,0.5,0,1,0,1.6v4.2h1.1v-3.5
		c0-0.2,0-0.4,0.1-0.5c0.2-0.6,0.7-1.1,1.4-1.1c1,0,1.3,0.8,1.3,1.7v3.3h1.1V21C152.1,19,150.8,18.5,150,18.5z"/>
	<rect id="XMLID_2031_" x="152.9" y="25.3" class="st2" width="6" height="0.6"/>
	<path id="XMLID_2032_" class="st2" d="M162.5,19.4c0.6,0,1,0.1,1.2,0.3l0.2-0.8c-0.3-0.1-0.8-0.3-1.5-0.3c-1.9,0-3.1,1.3-3.1,3.1
		c0,1.8,1.1,3,2.9,3c0.8,0,1.4-0.2,1.7-0.3l-0.2-0.8c-0.3,0.1-0.7,0.3-1.3,0.3c-1.2,0-2-0.8-2-2.2C160.4,20.3,161.2,19.4,162.5,19.4
		z"/>
	<rect id="XMLID_2033_" x="165.2" y="15.9" class="st2" width="1.1" height="8.5"/>
	<path id="XMLID_2036_" class="st2" d="M167.5,22.9c0,0.8,0.6,1.7,1.8,1.7c0.8,0,1.5-0.4,1.8-0.9h0l0.1,0.7h1
		c-0.1-0.4-0.1-0.9-0.1-1.4v-2.2c0-1.2-0.4-2.4-2.2-2.4c-0.7,0-1.4,0.2-1.9,0.5l0.2,0.7c0.4-0.3,1-0.4,1.5-0.4
		c1.2,0,1.3,0.9,1.3,1.3v0.1C168.8,20.7,167.5,21.5,167.5,22.9z M171.1,21.5v1c0,0.1,0,0.2-0.1,0.3c-0.2,0.5-0.6,1-1.4,1
		c-0.5,0-1-0.3-1-1C168.6,21.7,169.9,21.5,171.1,21.5z"/>
	<path id="XMLID_2037_" class="st2" d="M175.1,21.8c0.8,0.3,1.1,0.6,1.1,1.1c0,0.5-0.4,0.9-1.1,0.9c-0.5,0-1.1-0.2-1.4-0.4l-0.3,0.8
		c0.4,0.2,1,0.4,1.6,0.4c1.4,0,2.2-0.7,2.2-1.7c0-0.9-0.5-1.4-1.5-1.8c-0.8-0.3-1.1-0.5-1.1-1c0-0.4,0.3-0.8,1-0.8
		c0.5,0,1,0.2,1.2,0.3l0.3-0.8c-0.3-0.2-0.8-0.4-1.4-0.4c-1.2,0-2,0.8-2,1.7C173.5,20.9,174,21.5,175.1,21.8z"/>
	<path id="XMLID_2038_" class="st2" d="M179.8,23.8c-0.5,0-1.1-0.2-1.4-0.4l-0.3,0.8c0.4,0.2,1,0.4,1.6,0.4c1.4,0,2.2-0.7,2.2-1.7
		c0-0.9-0.5-1.4-1.5-1.8c-0.8-0.3-1.1-0.5-1.1-1c0-0.4,0.3-0.8,1-0.8c0.5,0,1,0.2,1.2,0.3l0.3-0.8c-0.3-0.2-0.8-0.4-1.4-0.4
		c-1.2,0-2,0.8-2,1.7c0,0.7,0.5,1.3,1.5,1.6c0.8,0.3,1.1,0.6,1.1,1.1C180.9,23.4,180.6,23.8,179.8,23.8z"/>
	<path id="XMLID_2039_" class="st2" d="M183.6,23.1c-0.4,0-0.7,0.3-0.7,0.8c0,0.4,0.3,0.8,0.7,0.8c0.4,0,0.7-0.3,0.7-0.8
		C184.3,23.4,184,23.1,183.6,23.1z"/>
	<path id="XMLID_2040_" class="st2" d="M188.3,19.4c0.6,0,1,0.1,1.2,0.3l0.2-0.8c-0.3-0.1-0.8-0.3-1.5-0.3c-1.9,0-3.1,1.3-3.1,3.1
		c0,1.8,1.1,3,2.9,3c0.8,0,1.4-0.2,1.7-0.3l-0.2-0.8c-0.3,0.1-0.7,0.3-1.3,0.3c-1.2,0-2-0.8-2-2.2C186.3,20.3,187,19.4,188.3,19.4z"
		/>
	<rect id="XMLID_2041_" x="191" y="15.9" class="st2" width="1.1" height="8.5"/>
	<path id="XMLID_2044_" class="st2" d="M193.8,19l0.2,0.7c0.4-0.3,1-0.4,1.5-0.4c1.2,0,1.3,0.9,1.3,1.3v0.1c-2.2,0-3.5,0.8-3.5,2.2
		c0,0.8,0.6,1.7,1.8,1.7c0.8,0,1.5-0.4,1.8-0.9h0l0.1,0.7h1c-0.1-0.4-0.1-0.9-0.1-1.4v-2.2c0-1.2-0.4-2.4-2.2-2.4
		C195,18.5,194.3,18.7,193.8,19z M196.9,22.5c0,0.1,0,0.2-0.1,0.3c-0.2,0.5-0.6,1-1.4,1c-0.5,0-1-0.3-1-1c0-1.1,1.3-1.3,2.5-1.3
		V22.5z"/>
	<path id="XMLID_2045_" class="st2" d="M200.9,23.8c-0.5,0-1.1-0.2-1.4-0.4l-0.3,0.8c0.4,0.2,1,0.4,1.6,0.4c1.4,0,2.2-0.7,2.2-1.7
		c0-0.9-0.5-1.4-1.5-1.8c-0.8-0.3-1.1-0.5-1.1-1c0-0.4,0.3-0.8,1-0.8c0.5,0,1,0.2,1.2,0.3l0.3-0.8c-0.3-0.2-0.8-0.4-1.4-0.4
		c-1.2,0-2,0.8-2,1.7c0,0.7,0.5,1.3,1.5,1.6c0.8,0.3,1.1,0.6,1.1,1.1C202,23.4,201.7,23.8,200.9,23.8z"/>
	<path id="XMLID_2046_" class="st2" d="M204.1,20.2c0,0.7,0.5,1.3,1.5,1.6c0.8,0.3,1.1,0.6,1.1,1.1c0,0.5-0.4,0.9-1.1,0.9
		c-0.5,0-1.1-0.2-1.4-0.4l-0.3,0.8c0.4,0.2,1,0.4,1.6,0.4c1.4,0,2.2-0.7,2.2-1.7c0-0.9-0.5-1.4-1.5-1.8c-0.8-0.3-1.1-0.5-1.1-1
		c0-0.4,0.3-0.8,1-0.8c0.5,0,1,0.2,1.2,0.3l0.3-0.8c-0.3-0.2-0.8-0.4-1.4-0.4C204.9,18.5,204.1,19.3,204.1,20.2z"/>
	<path id="XMLID_2047_" class="st2" d="M209.5,23.1c-0.4,0-0.7,0.3-0.7,0.8c0,0.4,0.3,0.8,0.7,0.8c0.4,0,0.7-0.3,0.7-0.8
		C210.2,23.4,209.9,23.1,209.5,23.1z"/>
	<path id="XMLID_2048_" class="st2" d="M212.5,19.6L212.5,19.6l-0.1-1h-0.9c0,0.6,0,1.2,0,1.9v6.3h1v-3.2h0c0.3,0.6,1,0.9,1.8,0.9
		c0.6,0,1.1-0.2,1.6-0.6v-2.5c0,1.3-0.6,2.2-1.8,2.2c-0.8,0-1.4-0.5-1.6-1.2c0-0.1,0-0.3,0-0.4v-1c0-0.1,0-0.3,0.1-0.4
		c0.2-0.8,0.9-1.3,1.6-1.3c1.1,0,1.7,1,1.7,2.2V19c-0.4-0.3-0.9-0.5-1.4-0.5C213.6,18.5,212.9,18.9,212.5,19.6z"/>
	<path id="XMLID_2049_" class="st2" d="M1.2,35.4H0.1v0.8h2.1c0-0.1,0-0.3,0-0.5c0-1-0.5-2.5-2.1-2.7v0.8C1,33.9,1.2,34.8,1.2,35.4z
		"/>
	<path id="XMLID_2050_" class="st2" d="M1.7,37.8c-0.4,0.2-0.8,0.3-1.6,0.3v0.8c0.8,0,1.4-0.2,1.8-0.4L1.7,37.8z"/>
	<path id="XMLID_2051_" class="st2" d="M6.5,36.1c0.2-0.6,0.4-1.2,0.5-1.9h0c0.1,0.7,0.3,1.3,0.5,1.9l0.9,2.8h1l1.9-5.8h-1l-0.8,2.9
		c-0.2,0.7-0.3,1.3-0.4,1.9h0c-0.1-0.6-0.3-1.2-0.5-1.9L7.6,33H6.7l-0.9,3c-0.2,0.6-0.4,1.2-0.5,1.8h0c-0.1-0.6-0.3-1.2-0.4-1.8
		L4,33H2.9l1.8,5.8h1L6.5,36.1z"/>
	<path id="XMLID_2052_" class="st2" d="M37.8,33.3c-0.2,0.2-0.5,0.4-0.6,0.8h0c-0.3-0.7-0.9-1.2-1.6-1.2c-1,0-1.5,0.5-1.8,1.1h0
		l0-0.9h-0.9c0,0.5,0,1,0,1.6v4.2h1v-3.5c0-0.2,0-0.4,0.1-0.5c0.2-0.5,0.6-1.1,1.3-1.1c0.8,0,1.2,0.7,1.2,1.6v3.5h1v-3.6
		c0-0.2,0-0.4,0.1-0.5c0.2-0.5,0.6-1,1.2-1c0.9,0,1.3,0.7,1.3,1.8v3.3h1v-3.4c0-2-1.1-2.5-1.9-2.5C38.5,32.9,38.1,33,37.8,33.3z"/>
	<path id="XMLID_2055_" class="st2" d="M42.6,33.4l0.2,0.7c0.4-0.3,1-0.4,1.5-0.4c1.2,0,1.3,0.9,1.3,1.3v0.1c-2.2,0-3.5,0.8-3.5,2.2
		c0,0.8,0.6,1.7,1.8,1.7c0.8,0,1.5-0.4,1.8-0.9h0l0.1,0.7h1c-0.1-0.4-0.1-0.9-0.1-1.4v-2.2c0-1.2-0.4-2.4-2.2-2.4
		C43.8,32.9,43.1,33.1,42.6,33.4z M45.7,36.9c0,0.1,0,0.2-0.1,0.3c-0.2,0.5-0.6,1-1.4,1c-0.5,0-1-0.3-1-1c0-1.1,1.3-1.3,2.5-1.3
		V36.9z"/>
	<rect id="XMLID_2056_" x="48.5" y="33" class="st2" width="1.1" height="5.8"/>
	<path id="XMLID_2057_" class="st2" d="M49,30.7c-0.4,0-0.7,0.3-0.7,0.7c0,0.4,0.3,0.6,0.6,0.6c0.4,0,0.7-0.3,0.7-0.6
		C49.6,31,49.4,30.7,49,30.7z"/>
	<path id="XMLID_2058_" class="st2" d="M56.2,35.4c0-2-1.2-2.5-2.1-2.5c-1,0-1.6,0.5-1.9,1.1h0l-0.1-1h-0.9c0,0.5,0,1,0,1.6v4.2h1.1
		v-3.5c0-0.2,0-0.4,0.1-0.5c0.2-0.6,0.7-1.1,1.4-1.1c1,0,1.3,0.8,1.3,1.7v3.3h1.1V35.4z"/>
	<rect id="XMLID_2059_" x="57" y="39.7" class="st2" width="6" height="0.6"/>
	<path id="XMLID_2060_" class="st2" d="M66.6,33.8c0.6,0,1,0.1,1.2,0.3l0.2-0.8c-0.3-0.1-0.8-0.3-1.5-0.3c-1.9,0-3.1,1.3-3.1,3.1
		c0,1.8,1.1,3,2.9,3c0.8,0,1.4-0.2,1.7-0.3l-0.2-0.8c-0.3,0.1-0.7,0.3-1.3,0.3c-1.2,0-2-0.8-2-2.2C64.6,34.7,65.3,33.8,66.6,33.8z"
		/>
	<rect id="XMLID_2061_" x="69.3" y="30.3" class="st2" width="1.1" height="8.5"/>
	<path id="XMLID_2064_" class="st2" d="M71.7,37.3c0,0.8,0.6,1.7,1.8,1.7c0.8,0,1.5-0.4,1.8-0.9h0l0.1,0.7h1
		c-0.1-0.4-0.1-0.9-0.1-1.4v-2.2c0-1.2-0.4-2.4-2.2-2.4c-0.7,0-1.4,0.2-1.9,0.5l0.2,0.7c0.4-0.3,1-0.4,1.5-0.4
		c1.2,0,1.3,0.9,1.3,1.3v0.1C72.9,35.1,71.7,35.9,71.7,37.3z M75.2,35.9v1c0,0.1,0,0.2-0.1,0.3c-0.2,0.5-0.6,1-1.4,1
		c-0.5,0-1-0.3-1-1C72.7,36.1,74,35.8,75.2,35.9z"/>
	<path id="XMLID_2065_" class="st2" d="M79.2,38.2c-0.5,0-1.1-0.2-1.4-0.4l-0.3,0.8c0.4,0.2,1,0.4,1.6,0.4c1.4,0,2.2-0.7,2.2-1.7
		c0-0.9-0.5-1.4-1.5-1.8c-0.8-0.3-1.1-0.5-1.1-1c0-0.4,0.3-0.8,1-0.8c0.5,0,1,0.2,1.2,0.3l0.3-0.8c-0.3-0.2-0.8-0.4-1.4-0.4
		c-1.2,0-2,0.8-2,1.7c0,0.7,0.5,1.3,1.5,1.6c0.8,0.3,1.1,0.6,1.1,1.1C80.3,37.8,79.9,38.2,79.2,38.2z"/>
	<path id="XMLID_2066_" class="st2" d="M83.9,38.2c-0.5,0-1.1-0.2-1.4-0.4l-0.3,0.8c0.4,0.2,1,0.4,1.6,0.4c1.4,0,2.2-0.7,2.2-1.7
		c0-0.9-0.5-1.4-1.5-1.8c-0.8-0.3-1.1-0.5-1.1-1c0-0.4,0.3-0.8,1-0.8c0.5,0,1,0.2,1.2,0.3l0.3-0.8c-0.3-0.2-0.8-0.4-1.4-0.4
		c-1.2,0-2,0.8-2,1.7c0,0.7,0.5,1.3,1.5,1.6c0.8,0.3,1.1,0.6,1.1,1.1C85,37.8,84.7,38.2,83.9,38.2z"/>
	<path id="XMLID_2067_" class="st2" d="M88.9,40.3h0.8c-0.9-1.2-1.5-2.7-1.5-4.9c0-2.2,0.6-3.7,1.5-4.9h-0.8c-0.8,1-1.6,2.5-1.6,4.9
		C87.3,37.8,88.1,39.3,88.9,40.3z"/>
	<polygon id="XMLID_2068_" class="st2" points="91.6,30.6 90.6,30.6 90.8,33.5 91.4,33.5 	"/>
	<polygon id="XMLID_2069_" class="st2" points="93.4,30.6 92.3,30.6 92.6,33.5 93.2,33.5 	"/>
	<path id="XMLID_2072_" class="st2" d="M94.9,30.9v8c0.5,0.1,1.2,0.1,1.9,0.1c1.6,0,2.8-0.4,3.6-1.2c0.8-0.7,1.2-1.8,1.2-3.1
		c0-1.3-0.4-2.2-1.1-2.9c-0.7-0.7-1.8-1-3.3-1C96.3,30.7,95.5,30.8,94.9,30.9z M100.4,34.6c0,2.2-1.2,3.4-3.4,3.4
		c-0.4,0-0.8,0-1.1-0.1v-6.4c0.3-0.1,0.7-0.1,1.2-0.1C99.4,31.5,100.5,32.7,100.4,34.6z"/>
	<path id="XMLID_2073_" class="st2" d="M102.9,30.8v4.8c0,2.5,1.2,3.5,2.9,3.5c1.8,0,3.1-1,3.1-3.5v-4.7h-1.1v4.8
		c0,1.8-0.8,2.6-2,2.6c-1.1,0-1.9-0.8-1.9-2.6v-4.8H102.9z"/>
	<path id="XMLID_2076_" class="st2" d="M115.6,32.9c0-0.6-0.2-1.2-0.6-1.5c-0.5-0.5-1.2-0.7-2.3-0.7c-0.7,0-1.5,0.1-2,0.2v8h1v-3.5
		h1c0.9,0,1.4,0.5,1.6,1.6c0.2,1,0.4,1.7,0.5,1.9h1.1c-0.2-0.3-0.4-1.1-0.6-2.2c-0.2-0.8-0.6-1.4-1.2-1.6v0
		C115,34.7,115.6,34,115.6,32.9z M112.8,34.5h-1.1v-3c0.2,0,0.5-0.1,1-0.1c1.1,0,1.9,0.5,1.9,1.5C114.6,33.9,113.9,34.5,112.8,34.5z
		"/>
	<path id="XMLID_2079_" class="st2" d="M122.2,38.8h1.1l-2.8-8.1h-1.3l-2.7,8.1h1.1l0.8-2.5h2.9L122.2,38.8z M118.7,35.5l0.8-2.3
		c0.2-0.5,0.3-1,0.4-1.5h0c0.1,0.5,0.2,0.9,0.4,1.5l0.8,2.3H118.7z"/>
	<path id="XMLID_2080_" class="st2" d="M128.2,34.8l-2.6-4.1h-1.1v8.1h1v-3.5c0-1.3,0-2.3-0.1-3.3l0,0c0.4,0.9,0.9,1.8,1.5,2.7
		l2.6,4.1h1.1v-8.1h-1v3.4c0,1.3,0,2.2,0.1,3.3l0,0C129.3,36.6,128.8,35.8,128.2,34.8z"/>
	<path id="XMLID_2083_" class="st2" d="M132.4,30.9v8c0.5,0.1,1.2,0.1,1.9,0.1c1.6,0,2.8-0.4,3.6-1.2c0.8-0.7,1.2-1.8,1.2-3.1
		c0-1.3-0.4-2.2-1.1-2.9c-0.7-0.7-1.8-1-3.3-1C133.8,30.7,133,30.8,132.4,30.9z M138,34.6c0,2.2-1.2,3.4-3.4,3.4
		c-0.4,0-0.8,0-1.1-0.1v-6.4c0.3-0.1,0.7-0.1,1.2-0.1C136.9,31.5,138,32.7,138,34.6z"/>
	<polygon id="XMLID_2084_" class="st2" points="142.1,33.5 142.7,33.5 142.9,30.6 141.9,30.6 	"/>
	<polygon id="XMLID_2085_" class="st2" points="141.2,30.6 140.1,30.6 140.3,33.5 140.9,33.5 	"/>
	<path id="XMLID_2086_" class="st2" d="M142.4,40.3l0.8-0.1c0.3-0.6,0.9-1.9,1.1-2.9l-1.2,0.1C143,38.3,142.6,39.6,142.4,40.3z"/>
	<polygon id="XMLID_2087_" class="st2" points="168.2,33.5 168.4,30.6 167.3,30.6 167.5,33.5 	"/>
	<polygon id="XMLID_2088_" class="st2" points="165.7,33.5 166.4,33.5 166.6,30.6 165.6,30.6 	"/>
	<polygon id="XMLID_2089_" class="st2" points="174.3,31.6 174.3,30.8 169.9,30.8 169.9,38.8 174.4,38.8 174.4,38 170.9,38 
		170.9,35 174.1,35 174.1,34.2 170.9,34.2 170.9,31.6 	"/>
	<rect id="XMLID_2090_" x="175.8" y="30.3" class="st2" width="1.1" height="8.5"/>
	<path id="XMLID_2093_" class="st2" d="M178.2,36c0,1.8,1.2,3,2.8,3c1.4,0,2.9-0.9,2.9-3.1c0-1.8-1.1-3-2.8-3
		C179.4,32.9,178.2,34,178.2,36z M182.8,35.9c0,1.3-0.8,2.3-1.8,2.3c-1,0-1.8-1-1.8-2.2c0-1.1,0.5-2.3,1.8-2.3
		C182.3,33.7,182.8,34.9,182.8,35.9z"/>
	<path id="XMLID_2094_" class="st2" d="M184.6,30.8c-0.3,0-0.6,0.3-0.6,0.6c0,0.3,0.3,0.6,0.6,0.6c0.3,0,0.6-0.3,0.6-0.6
		C185.2,31,184.9,30.8,184.6,30.8z"/>
	<rect id="XMLID_2095_" x="185.2" y="33" class="st2" width="1.1" height="5.8"/>
	<path id="XMLID_2096_" class="st2" d="M187.4,31.4c0-0.3-0.3-0.6-0.6-0.6s-0.6,0.3-0.6,0.6c0,0.3,0.2,0.6,0.6,0.6
		C187.2,32,187.4,31.7,187.4,31.4z"/>
	<path id="XMLID_2097_" class="st2" d="M189.7,33.7c0.5,0,1,0.2,1.2,0.3l0.3-0.8c-0.3-0.2-0.8-0.4-1.4-0.4c-1.2,0-2,0.8-2,1.7
		c0,0.7,0.5,1.3,1.5,1.6c0.8,0.3,1.1,0.6,1.1,1.1c0,0.5-0.4,0.9-1.1,0.9c-0.5,0-1.1-0.2-1.4-0.4l-0.3,0.8c0.4,0.2,1,0.4,1.6,0.4
		c1.4,0,2.2-0.7,2.2-1.7c0-0.9-0.5-1.4-1.5-1.8c-0.8-0.3-1.1-0.5-1.1-1C188.8,34.1,189.1,33.7,189.7,33.7z"/>
	<path id="XMLID_2100_" class="st2" d="M195,32.9c-1.7,0-2.7,1.4-2.7,3.1s1.1,2.9,2.9,2.9c0.9,0,1.6-0.2,1.9-0.4l-0.2-0.8
		c-0.4,0.2-0.9,0.3-1.6,0.3c-1.1,0-2-0.6-2-2h4.1c0-0.1,0-0.3,0-0.5C197.4,34.6,196.9,32.9,195,32.9z M193.3,35.4
		c0.1-0.7,0.6-1.7,1.6-1.7c1.2,0,1.5,1,1.5,1.7H193.3z"/>
	<polygon id="XMLID_2101_" class="st2" points="199.5,30.6 198.5,30.6 198.7,33.5 199.3,33.5 	"/>
	<polygon id="XMLID_2102_" class="st2" points="200.5,33.5 201.1,33.5 201.3,30.6 200.3,30.6 	"/>
	<path id="XMLID_2103_" class="st2" d="M201.5,40.2c0.3-0.6,0.9-1.9,1.1-2.9l-1.2,0.1c-0.1,0.9-0.5,2.2-0.7,2.9L201.5,40.2z"/>
	<path id="XMLID_2106_" class="st2" d="M2,53.4c1.7,0,2.7-1.5,2.7-4.1c0-2.5-0.9-3.9-2.6-3.9c-0.8,0-1.5,0.4-1.9,1v6
		C0.6,53,1.2,53.4,2,53.4z M2,46.1c1.1,0,1.6,1.3,1.6,3.2c0,2-0.5,3.3-1.6,3.3c-1,0-1.6-1.2-1.6-3.2C0.4,47.3,1.1,46.1,2,46.1z"/>
	<path id="XMLID_2107_" class="st2" d="M6.5,51.8l-0.8,0.8v0.6h5v-0.9H7.1v0l0.6-0.6c1.6-1.6,2.7-2.7,2.7-4.2c0-1.1-0.7-2.3-2.4-2.3
		c-0.9,0-1.7,0.3-2.2,0.8l0.3,0.7c0.4-0.3,0.9-0.7,1.7-0.7c1.2,0,1.5,0.7,1.5,1.5C9.4,48.9,8.5,49.9,6.5,51.8z"/>
	<path id="XMLID_2110_" class="st2" d="M11.4,51.1h3.6v2.1h1v-2.1h1.1v-0.8h-1.1v-4.8h-1.1l-3.5,5V51.1z M12.5,50.3l1.9-2.7
		c0.2-0.4,0.4-0.7,0.6-1.2h0c0,0.4,0,0.8,0,1.2v2.6L12.5,50.3L12.5,50.3z"/>
	<polygon id="XMLID_2111_" class="st2" points="18.2,47.9 18.9,47.9 19.1,45 18,45 	"/>
	<polygon id="XMLID_2112_" class="st2" points="20,47.9 20.7,47.9 20.9,45 19.8,45 	"/>
	<path id="XMLID_2113_" class="st2" d="M21,51.8c-0.1,0.9-0.5,2.2-0.7,2.9l0.8-0.1c0.3-0.6,0.9-1.9,1.1-2.9L21,51.8z"/>
	<polygon id="XMLID_2114_" class="st2" points="36,45 34.9,45 35.1,47.9 35.8,47.9 	"/>
	<polygon id="XMLID_2115_" class="st2" points="36.9,47.9 37.6,47.9 37.8,45 36.7,45 	"/>
	<path id="XMLID_2118_" class="st2" d="M37.9,53.2H39l0.8-2.5h2.9l0.9,2.5h1.1l-2.8-8.1h-1.3L37.9,53.2z M41.3,46.1L41.3,46.1
		c0.1,0.5,0.3,0.9,0.4,1.5l0.8,2.3h-2.4l0.8-2.3C41,47,41.2,46.6,41.3,46.1z"/>
	<polygon id="XMLID_2119_" class="st2" points="45.5,50.4 48.2,50.4 48.2,53.2 48.9,53.2 48.9,50.4 51.7,50.4 51.7,49.7 48.9,49.7 
		48.9,46.9 48.2,46.9 48.2,49.7 45.5,49.7 	"/>
	<polygon id="XMLID_2120_" class="st2" points="55.6,45 54.5,45 54.7,47.9 55.4,47.9 	"/>
	<polygon id="XMLID_2121_" class="st2" points="53.8,45 52.7,45 52.9,47.9 53.6,47.9 	"/>
	<path id="XMLID_2122_" class="st2" d="M57.2,54.7c0.8-1,1.6-2.5,1.6-4.9c0-2.4-0.8-3.9-1.6-4.9h-0.8c0.9,1.2,1.5,2.7,1.5,4.9
		c0,2.2-0.7,3.7-1.5,4.9H57.2z"/>
	<path id="XMLID_2123_" class="st2" d="M61.7,48.4c0-0.4-0.3-0.8-0.7-0.8c-0.4,0-0.7,0.3-0.7,0.8c0,0.4,0.3,0.7,0.7,0.7
		C61.4,49.1,61.7,48.8,61.7,48.4z"/>
	<path id="XMLID_2124_" class="st2" d="M60.5,54.6c0.3-0.6,0.9-1.9,1.2-2.9l-1.2,0.1c-0.1,0.9-0.5,2.2-0.7,2.9L60.5,54.6z"/>
	<path id="XMLID_2125_" class="st2" d="M64.9,52.2c-0.7,0-1.3-0.2-1.7-0.5l-0.3,0.8c0.4,0.3,1.1,0.5,1.8,0.5v1.2h0.8V53
		c1.2-0.2,1.9-1.1,1.9-2c0-1.1-0.6-1.7-1.9-2.2c-1-0.4-1.5-0.7-1.5-1.4c0-0.5,0.3-1,1.3-1c0.8,0,1.3,0.3,1.5,0.4l0.3-0.8
		c-0.3-0.2-0.8-0.4-1.6-0.4v-1.2h-0.7v1.2c-1.1,0.2-1.8,0.9-1.8,1.9c0,1,0.8,1.6,2,2.1c0.9,0.4,1.4,0.8,1.4,1.4
		C66.3,51.7,65.7,52.2,64.9,52.2z"/>
	<path id="XMLID_2126_" class="st2" d="M74,51.7v-4.2h-1.1V51c0,0.2,0,0.4-0.1,0.5c-0.2,0.5-0.7,1-1.4,1c-1,0-1.3-0.7-1.3-1.8v-3.2
		h-1.1v3.4c0,2,1.1,2.5,2,2.5c1,0,1.6-0.6,1.9-1.1h0l0.1,0.9H74C74,52.8,74,52.3,74,51.7z"/>
	<path id="XMLID_2127_" class="st2" d="M75.5,49c0,0.7,0.5,1.3,1.5,1.6c0.8,0.3,1.1,0.6,1.1,1.1c0,0.5-0.4,0.9-1.1,0.9
		c-0.5,0-1.1-0.2-1.4-0.4L75.3,53c0.4,0.2,1,0.4,1.6,0.4c1.4,0,2.2-0.7,2.2-1.7c0-0.9-0.5-1.4-1.5-1.8c-0.8-0.3-1.1-0.5-1.1-1
		c0-0.4,0.3-0.8,1-0.8c0.5,0,1,0.2,1.2,0.3l0.3-0.8c-0.3-0.2-0.8-0.4-1.4-0.4C76.2,47.3,75.5,48.1,75.5,49z"/>
	<path id="XMLID_2130_" class="st2" d="M80,50.4c0,1.8,1.1,2.9,2.9,2.9c0.9,0,1.6-0.2,1.9-0.4l-0.2-0.8c-0.4,0.2-0.9,0.3-1.6,0.3
		c-1.1,0-2-0.6-2-2h4.1c0-0.1,0-0.3,0-0.5c0-1.1-0.5-2.7-2.4-2.7C81.1,47.3,80,48.7,80,50.4z M82.7,48.1c1.2,0,1.5,1,1.5,1.7h-3.1
		C81.2,49,81.6,48.1,82.7,48.1z"/>
	<path id="XMLID_2131_" class="st2" d="M86.5,49.2v4h1v-3.1c0-0.2,0-0.3,0-0.5c0.1-0.8,0.7-1.4,1.4-1.4c0.1,0,0.3,0,0.4,0v-1
		c-0.1,0-0.2,0-0.3,0c-0.7,0-1.3,0.5-1.6,1.3h0l0-1.1h-0.9C86.5,48,86.5,48.6,86.5,49.2z"/>
	<rect id="XMLID_2132_" x="89.8" y="49.6" class="st2" width="3" height="0.8"/>
	<polygon id="XMLID_2133_" class="st2" points="93.9,52.4 93.9,53.2 99.5,50.4 99.5,49.7 93.9,46.9 93.9,47.7 98.7,50 98.7,50.1 	
		"/>
	<path id="XMLID_2136_" class="st2" d="M100.7,51.7c0,0.8,0.6,1.7,1.8,1.7c0.8,0,1.5-0.4,1.8-0.9h0l0.1,0.7h1
		c-0.1-0.4-0.1-0.9-0.1-1.4v-2.2c0-1.2-0.4-2.4-2.2-2.4c-0.7,0-1.4,0.2-1.9,0.5l0.2,0.7c0.4-0.3,1-0.4,1.5-0.4
		c1.2,0,1.3,0.9,1.3,1.3v0.1C102,49.5,100.7,50.3,100.7,51.7z M104.2,50.3v1c0,0.1,0,0.2-0.1,0.3c-0.2,0.5-0.6,1-1.4,1
		c-0.5,0-1-0.3-1-1C101.8,50.5,103.1,50.2,104.2,50.3z"/>
	<path id="XMLID_2139_" class="st2" d="M109.1,47.3c-1.4,0-2.6,1.2-2.6,3.1c0,1.8,1.1,3,2.5,3c0.9,0,1.7-0.5,2-1.1h0l0,1h0.9
		c0-0.4,0-1,0-1.5v-7h-1.1v3.5h0C110.6,47.7,110,47.3,109.1,47.3z M110.9,49.8v1c0,0.2,0,0.3,0,0.5c-0.2,0.8-0.8,1.3-1.5,1.3
		c-1.1,0-1.7-1-1.7-2.1c0-1.3,0.6-2.2,1.7-2.2c0.8,0,1.4,0.6,1.5,1.2C110.9,49.5,110.9,49.7,110.9,49.8z"/>
	<path id="XMLID_2142_" class="st2" d="M117.7,44.7v3.5h0c-0.3-0.5-0.9-0.9-1.8-0.9c-1.4,0-2.6,1.2-2.6,3.1c0,1.8,1.1,3,2.5,3
		c0.9,0,1.7-0.5,2-1.1h0l0,1h0.9c0-0.4,0-1,0-1.5v-7H117.7z M117.7,50.8c0,0.2,0,0.3,0,0.5c-0.2,0.8-0.8,1.3-1.5,1.3
		c-1.1,0-1.7-1-1.7-2.1c0-1.3,0.6-2.2,1.7-2.2c0.8,0,1.4,0.6,1.5,1.2c0,0.1,0,0.3,0,0.4V50.8z"/>
	<path id="XMLID_2145_" class="st2" d="M120.5,45.2v8h1V50c0.2,0.1,0.5,0.1,0.8,0.1c1,0,1.9-0.3,2.5-0.9c0.4-0.4,0.6-1,0.6-1.7
		c0-0.7-0.3-1.3-0.7-1.7c-0.5-0.4-1.2-0.7-2.3-0.7C121.7,45.1,121,45.2,120.5,45.2z M124.5,47.5c0,1.1-0.8,1.7-2,1.7
		c-0.3,0-0.6,0-0.9-0.1V46c0.2,0,0.5-0.1,1-0.1C123.7,45.9,124.5,46.4,124.5,47.5z"/>
	<path id="XMLID_2146_" class="st2" d="M129.6,48.3v-1c-0.1,0-0.2,0-0.3,0c-0.7,0-1.3,0.5-1.6,1.3h0l0-1.1h-0.9c0,0.5,0,1.1,0,1.8v4
		h1v-3.1c0-0.2,0-0.3,0-0.5c0.1-0.8,0.7-1.4,1.4-1.4C129.3,48.3,129.5,48.3,129.6,48.3z"/>
	<path id="XMLID_2149_" class="st2" d="M130.1,50.4c0,1.8,1.2,3,2.8,3c1.4,0,2.9-0.9,2.9-3.1c0-1.8-1.1-3-2.8-3
		C131.3,47.3,130.1,48.4,130.1,50.4z M132.9,48.1c1.2,0,1.7,1.2,1.7,2.2c0,1.3-0.8,2.3-1.8,2.3c-1,0-1.8-1-1.8-2.2
		C131.1,49.2,131.7,48.1,132.9,48.1z"/>
	<path id="XMLID_2152_" class="st2" d="M136.7,50.4c0,1.8,1.1,3,2.5,3c0.9,0,1.7-0.5,2-1.1h0l0,1h0.9c0-0.4,0-1,0-1.5v-7H141v3.5h0
		c-0.3-0.5-0.9-0.9-1.8-0.9C137.9,47.3,136.7,48.5,136.7,50.4z M141,49.4c0,0.1,0,0.3,0,0.4v1c0,0.2,0,0.3,0,0.5
		c-0.2,0.8-0.8,1.3-1.5,1.3c-1.1,0-1.7-1-1.7-2.1c0-1.3,0.6-2.2,1.7-2.2C140.3,48.1,140.8,48.7,141,49.4z"/>
	<path id="XMLID_2153_" class="st2" d="M144.9,50.6v-3.2h-1.1v3.4c0,2,1.1,2.5,2,2.5c1,0,1.6-0.6,1.9-1.1h0l0.1,0.9h0.9
		c0-0.5,0-1,0-1.6v-4.2h-1.1V51c0,0.2,0,0.4-0.1,0.5c-0.2,0.5-0.7,1-1.4,1C145.2,52.5,144.9,51.7,144.9,50.6z"/>
	<path id="XMLID_2154_" class="st2" d="M151,45.1c-0.4,0-0.7,0.3-0.7,0.7c0,0.4,0.3,0.6,0.6,0.6c0.4,0,0.7-0.3,0.7-0.6
		C151.6,45.4,151.4,45.1,151,45.1z"/>
	<rect id="XMLID_2155_" x="150.5" y="47.4" class="st2" width="1.1" height="5.8"/>
	<path id="XMLID_2156_" class="st2" d="M153.5,51.4c0,0.7,0.1,1.2,0.4,1.5c0.3,0.3,0.6,0.4,1.1,0.4c0.4,0,0.7-0.1,0.9-0.1l0-0.8
		c-0.1,0-0.3,0.1-0.6,0.1c-0.6,0-0.8-0.4-0.8-1.1v-3.1h1.5v-0.8h-1.5v-1.7l-1,0.3v1.4h-0.9v0.8h0.9V51.4z"/>
	<path id="XMLID_2157_" class="st2" d="M159.5,54.7c-0.9-1.2-1.5-2.7-1.5-4.9c0-2.2,0.6-3.7,1.5-4.9h-0.8c-0.8,1-1.6,2.5-1.6,4.9
		c0,2.3,0.8,3.9,1.6,4.9H159.5z"/>
	<polygon id="XMLID_2158_" class="st2" points="163,45.7 163,45 160.8,45 160.8,54.6 163,54.6 163,53.9 161.6,53.9 161.6,45.7 	"/>
	<polygon id="XMLID_2159_" class="st2" points="164,47.9 164.6,47.9 164.8,45 163.8,45 	"/>
	<polygon id="XMLID_2160_" class="st2" points="165.8,47.9 166.4,47.9 166.6,45 165.6,45 	"/>
	<path id="XMLID_2161_" class="st2" d="M169.1,49.8c0-1.3,0-2.3-0.1-3.3l0,0c0.4,0.9,0.9,1.8,1.5,2.7l2.6,4.1h1.1v-8.1h-1v3.4
		c0,1.3,0,2.2,0.1,3.3l0,0c-0.4-0.8-0.9-1.7-1.5-2.6l-2.6-4.1h-1.1v8.1h1V49.8z"/>
	<path id="XMLID_2164_" class="st2" d="M182.9,49.1c0-2.4-1.4-4.1-3.6-4.1c-2.2,0-3.8,1.7-3.8,4.2c0,2.4,1.5,4.1,3.6,4.1
		C181.3,53.4,182.9,51.9,182.9,49.1z M176.7,49.2c0-1.8,0.9-3.4,2.6-3.4c1.7,0,2.6,1.7,2.6,3.3c0,1.8-0.9,3.4-2.6,3.4
		C177.6,52.5,176.7,51,176.7,49.2z"/>
	<path id="XMLID_2165_" class="st2" d="M190.5,45.2l-1.4,3.9c-0.4,1-0.6,1.9-0.9,2.7h0c-0.2-0.8-0.5-1.7-0.8-2.7l-1.4-3.9h-1.3
		l-0.6,8.1h1l0.2-3.5c0.1-1.2,0.1-2.6,0.2-3.6h0c0.2,1,0.6,2,0.9,3.1l1.3,3.9h0.8l1.4-3.9c0.4-1.1,0.7-2.1,1-3.1h0
		c0,1,0.1,2.4,0.1,3.5l0.2,3.6h1l-0.5-8.1H190.5z"/>
	<polygon id="XMLID_2166_" class="st2" points="194.7,45 193.6,45 193.8,47.9 194.5,47.9 	"/>
	<polygon id="XMLID_2167_" class="st2" points="196.5,45 195.4,45 195.6,47.9 196.3,47.9 	"/>
	<rect id="XMLID_2168_" x="197.6" y="48.5" class="st2" width="6.2" height="0.7"/>
	<rect id="XMLID_2169_" x="197.6" y="50.8" class="st2" width="6.2" height="0.7"/>
	<polygon id="XMLID_2170_" class="st2" points="205,47.7 209.8,50 209.8,50.1 205,52.4 205,53.2 210.6,50.4 210.6,49.7 205,46.9 	
		"/>
	<polygon id="XMLID_2171_" class="st2" points="214.6,47.9 214.8,45 213.8,45 214,47.9 	"/>
	<polygon id="XMLID_2172_" class="st2" points="212.8,47.9 213,45 212,45 212.2,47.9 	"/>
	<polygon id="XMLID_2173_" class="st2" points="7.7,67.6 12.2,67.6 12.2,66.8 8.7,66.8 8.7,63.8 11.9,63.8 11.9,63 8.7,63 8.7,60.4 
		12.1,60.4 12.1,59.6 7.7,59.6 	"/>
	<polygon id="XMLID_2174_" class="st2" points="23.3,62.3 23.5,59.4 22.5,59.4 22.7,62.3 	"/>
	<polygon id="XMLID_2175_" class="st2" points="20.9,62.3 21.5,62.3 21.7,59.4 20.7,59.4 	"/>
	<path id="XMLID_2176_" class="st2" d="M32.3,66.1l-1.2,0.1c-0.1,0.9-0.5,2.2-0.7,2.9l0.8-0.1C31.5,68.5,32,67.1,32.3,66.1z"/>
	<polygon id="XMLID_2177_" class="st2" points="42.1,62.3 42.3,59.4 41.2,59.4 41.4,62.3 	"/>
	<polygon id="XMLID_2178_" class="st2" points="39.6,62.3 40.3,62.3 40.5,59.4 39.4,59.4 	"/>
	<path id="XMLID_2179_" class="st2" d="M53.6,63.1c-1.1-0.4-1.6-0.8-1.6-1.6c0-0.6,0.4-1.2,1.5-1.2c0.7,0,1.3,0.2,1.5,0.4l0.3-0.9
		c-0.4-0.2-1-0.4-1.8-0.4c-1.6,0-2.6,0.9-2.6,2.2c0,1.1,0.8,1.8,2.1,2.3c1.1,0.4,1.5,0.9,1.5,1.6c0,0.8-0.6,1.4-1.7,1.4
		c-0.7,0-1.4-0.2-1.9-0.5l-0.3,0.9c0.4,0.3,1.3,0.5,2.1,0.5c1.9,0,2.8-1.1,2.8-2.3C55.7,64.2,55,63.6,53.6,63.1z"/>
	<path id="XMLID_2180_" class="st2" d="M68.9,59.6l-1.2,2.2c-0.3,0.6-0.6,1.1-0.8,1.7h0c-0.3-0.6-0.5-1.1-0.8-1.7l-1.1-2.2h-1.2
		l2.6,4.7v3.4h1.1v-3.4l2.7-4.6H68.9z"/>
	<path id="XMLID_2181_" class="st2" d="M85.8,59.6h-1.3L83,63.5c-0.4,1-0.6,1.9-0.9,2.7h0c-0.2-0.8-0.5-1.7-0.8-2.7l-1.4-3.9h-1.3
		l-0.6,8.1h1l0.2-3.5c0.1-1.2,0.1-2.6,0.2-3.6h0c0.2,1,0.6,2,0.9,3.1l1.3,3.9h0.8l1.4-3.9c0.4-1.1,0.7-2.1,1-3.1h0
		c0,1,0.1,2.4,0.1,3.5l0.2,3.6h1L85.8,59.6z"/>
	<path id="XMLID_2184_" class="st2" d="M99.6,60.2c-0.5-0.4-1.2-0.7-2.3-0.7c-0.8,0-1.5,0.1-2,0.2v8h1v-3.2c0.2,0.1,0.5,0.1,0.8,0.1
		c1,0,1.9-0.3,2.5-0.9c0.4-0.4,0.6-1,0.6-1.7C100.3,61.1,100,60.5,99.6,60.2z M97.2,63.6c-0.3,0-0.6,0-0.9-0.1v-3.1
		c0.2,0,0.5-0.1,1-0.1c1.2,0,1.9,0.5,1.9,1.6C99.3,63,98.5,63.6,97.2,63.6z"/>
	<polygon id="XMLID_2185_" class="st2" points="111.7,60.4 114.2,60.4 114.2,59.6 108.2,59.6 108.2,60.4 110.6,60.4 110.6,67.6 
		111.7,67.6 	"/>
	<path id="XMLID_2188_" class="st2" d="M125.4,59.4c-2.2,0-3.8,1.7-3.8,4.2c0,2.4,1.5,4.1,3.6,4.1c2.1,0,3.8-1.5,3.8-4.3
		C129,61.1,127.6,59.4,125.4,59.4z M125.3,66.9c-1.6,0-2.6-1.5-2.6-3.3c0-1.8,0.9-3.4,2.6-3.4c1.7,0,2.6,1.7,2.6,3.3
		C127.9,65.4,127,66.9,125.3,66.9z"/>
	<path id="XMLID_2189_" class="st2" d="M141.2,67.6h0.8l1.4-3.9c0.4-1.1,0.7-2.1,1-3.1h0c0,1,0.1,2.4,0.1,3.5l0.2,3.6h1l-0.5-8.1
		H144l-1.4,3.9c-0.4,1-0.6,1.9-0.9,2.7h0c-0.2-0.8-0.5-1.7-0.8-2.7l-1.4-3.9h-1.3l-0.6,8.1h1l0.2-3.5c0.1-1.2,0.1-2.6,0.2-3.6h0
		c0.2,1,0.6,2,0.9,3.1L141.2,67.6z"/>
	<polygon id="XMLID_2190_" class="st2" points="159.4,66.8 155.9,66.8 155.9,63.8 159,63.8 159,63 155.9,63 155.9,60.4 159.2,60.4 
		159.2,59.6 154.8,59.6 154.8,67.6 159.4,67.6 	"/>
	<polygon id="XMLID_2191_" class="st2" points="168,62.3 168.7,62.3 168.9,59.4 167.8,59.4 	"/>
	<polygon id="XMLID_2192_" class="st2" points="169.6,59.4 169.8,62.3 170.5,62.3 170.7,59.4 	"/>
	<rect id="XMLID_2193_" x="179.2" y="65.2" class="st2" width="6.2" height="0.7"/>
	<rect id="XMLID_2194_" x="179.2" y="62.9" class="st2" width="6.2" height="0.7"/>
	<polygon id="XMLID_2195_" class="st2" points="194,62.1 198.7,64.4 198.7,64.5 194,66.8 194,67.6 199.6,64.8 199.6,64.1 194,61.3 	
		"/>
	<polygon id="XMLID_2196_" class="st2" points="211.2,59.4 210.2,59.4 210.4,62.3 211,62.3 	"/>
	<polygon id="XMLID_2197_" class="st2" points="209.2,62.3 209.4,59.4 208.4,59.4 208.6,62.3 	"/>
	<path id="XMLID_2198_" class="st2" d="M0.1,74.3v1.9c0.2,0.7,0.3,1.5,0.3,2.4c0,0.9-0.1,1.7-0.3,2.4v1.9c0.6-1,1.2-2.4,1.2-4.3
		C1.3,76.6,0.8,75.2,0.1,74.3z"/>
	<path id="XMLID_2199_" class="st2" d="M3.6,76.4c-0.4,0-0.7,0.3-0.7,0.8c0,0.4,0.3,0.7,0.7,0.7c0.4,0,0.7-0.3,0.7-0.7
		C4.3,76.7,4.1,76.4,3.6,76.4z"/>
	<path id="XMLID_2200_" class="st2" d="M2.4,83.5l0.7-0.1c0.3-0.6,0.9-1.9,1.2-2.9l-1.2,0.1C3,81.5,2.7,82.8,2.4,83.5z"/>
	<path id="XMLID_2201_" class="st2" d="M7.5,81c-0.7,0-1.3-0.2-1.7-0.5l-0.3,0.8c0.4,0.3,1.1,0.5,1.8,0.5v1.2h0.8v-1.2
		c1.2-0.2,1.9-1.1,1.9-2c0-1.1-0.6-1.7-1.9-2.2c-1-0.4-1.5-0.7-1.5-1.4c0-0.5,0.3-1,1.3-1c0.8,0,1.3,0.3,1.5,0.4l0.3-0.8
		c-0.3-0.2-0.8-0.4-1.6-0.4v-1.2H7.5v1.2c-1.1,0.2-1.8,0.9-1.8,1.9c0,1,0.8,1.6,2,2.1C8.5,78.8,9,79.2,9,79.9C9,80.5,8.4,81,7.5,81z
		"/>
	<path id="XMLID_2202_" class="st2" d="M15.8,81.1L15.8,81.1l0.1,0.9h0.9c0-0.5,0-1,0-1.6v-4.2h-1.1v3.6c0,0.2,0,0.4-0.1,0.5
		c-0.2,0.5-0.7,1-1.4,1c-1,0-1.3-0.7-1.3-1.8v-3.2h-1.1v3.4c0,2,1.1,2.5,2,2.5C14.9,82.2,15.5,81.6,15.8,81.1z"/>
	<path id="XMLID_2203_" class="st2" d="M18.3,77.8c0,0.7,0.5,1.3,1.5,1.6c0.8,0.3,1.1,0.6,1.1,1.1c0,0.5-0.4,0.9-1.1,0.9
		c-0.5,0-1.1-0.2-1.4-0.4l-0.3,0.8c0.4,0.2,1,0.4,1.6,0.4c1.4,0,2.2-0.7,2.2-1.7c0-0.9-0.5-1.4-1.5-1.8c-0.8-0.3-1.1-0.5-1.1-1
		c0-0.4,0.3-0.8,1-0.8c0.5,0,1,0.2,1.2,0.3l0.3-0.8c-0.3-0.2-0.8-0.4-1.4-0.4C19.1,76.1,18.3,76.9,18.3,77.8z"/>
	<path id="XMLID_2206_" class="st2" d="M27.7,81.8L27.6,81c-0.4,0.2-0.9,0.3-1.6,0.3c-1.1,0-2-0.6-2-2H28c0-0.1,0-0.3,0-0.5
		c0-1.1-0.5-2.7-2.4-2.7c-1.7,0-2.7,1.4-2.7,3.1s1.1,2.9,2.9,2.9C26.7,82.2,27.4,82,27.7,81.8z M25.6,76.9c1.2,0,1.5,1,1.5,1.7H24
		C24.1,77.8,24.5,76.9,25.6,76.9z"/>
	<path id="XMLID_2207_" class="st2" d="M29.4,76.2c0,0.5,0,1.1,0,1.8v4h1v-3.1c0-0.2,0-0.3,0-0.5c0.1-0.8,0.7-1.4,1.4-1.4
		c0.1,0,0.3,0,0.4,0v-1c-0.1,0-0.2,0-0.3,0c-0.7,0-1.3,0.5-1.6,1.3h0l0-1.1H29.4z"/>
	<rect id="XMLID_2208_" x="32.9" y="78.4" class="st2" width="3" height="0.8"/>
	<polygon id="XMLID_2209_" class="st2" points="37.1,76.5 41.8,78.8 41.8,78.9 37.1,81.2 37.1,82 42.7,79.2 42.7,78.5 37.1,75.7 	
		"/>
	<path id="XMLID_2212_" class="st2" d="M47.5,81.3L47.5,81.3l0.1,0.7h1c-0.1-0.4-0.1-0.9-0.1-1.4v-2.2c0-1.2-0.4-2.4-2.2-2.4
		c-0.7,0-1.4,0.2-1.9,0.5l0.2,0.7c0.4-0.3,1-0.4,1.5-0.4c1.2,0,1.3,0.9,1.3,1.3v0.1c-2.2,0-3.5,0.8-3.5,2.2c0,0.8,0.6,1.7,1.8,1.7
		C46.6,82.2,47.2,81.8,47.5,81.3z M46,81.4c-0.5,0-1-0.3-1-1c0-1.1,1.3-1.3,2.5-1.3v1c0,0.1,0,0.2-0.1,0.3
		C47.2,80.9,46.8,81.4,46,81.4z"/>
	<path id="XMLID_2215_" class="st2" d="M54.2,73.5V77h0c-0.3-0.5-0.9-0.9-1.8-0.9c-1.4,0-2.6,1.2-2.6,3.1c0,1.8,1.1,3,2.5,3
		c0.9,0,1.7-0.5,2-1.1h0l0,1h0.9c0-0.4,0-1,0-1.5v-7H54.2z M54.2,79.6c0,0.2,0,0.3,0,0.5c-0.2,0.8-0.8,1.3-1.5,1.3
		c-1.1,0-1.7-1-1.7-2.1c0-1.3,0.6-2.2,1.7-2.2c0.8,0,1.4,0.6,1.5,1.2c0,0.1,0,0.3,0,0.4V79.6z"/>
	<path id="XMLID_2218_" class="st2" d="M56.7,79.2c0,1.8,1.1,3,2.5,3c0.9,0,1.7-0.5,2-1.1h0l0,1h0.9c0-0.4,0-1,0-1.5v-7h-1.1V77h0
		c-0.3-0.5-0.9-0.9-1.8-0.9C57.9,76.1,56.7,77.3,56.7,79.2z M61,78.2c0,0.1,0,0.3,0,0.4v1c0,0.2,0,0.3,0,0.5
		c-0.2,0.8-0.8,1.3-1.5,1.3c-1.1,0-1.7-1-1.7-2.1c0-1.3,0.6-2.2,1.7-2.2C60.3,76.9,60.9,77.5,61,78.2z"/>
	<path id="XMLID_2221_" class="st2" d="M64,74v8h1v-3.2c0.2,0.1,0.5,0.1,0.8,0.1c1,0,1.9-0.3,2.5-0.9c0.4-0.4,0.6-1,0.6-1.7
		c0-0.7-0.3-1.3-0.7-1.7c-0.5-0.4-1.2-0.7-2.3-0.7C65.2,73.9,64.5,74,64,74z M67.9,76.3c0,1.1-0.8,1.7-2,1.7c-0.3,0-0.6,0-0.9-0.1
		v-3.1c0.2,0,0.5-0.1,1-0.1C67.2,74.7,67.9,75.2,67.9,76.3z"/>
	<path id="XMLID_2222_" class="st2" d="M71.3,82v-3.1c0-0.2,0-0.3,0-0.5c0.1-0.8,0.7-1.4,1.4-1.4c0.1,0,0.3,0,0.4,0v-1
		c-0.1,0-0.2,0-0.3,0c-0.7,0-1.3,0.5-1.6,1.3h0l0-1.1h-0.9c0,0.5,0,1.1,0,1.8v4H71.3z"/>
	<path id="XMLID_2225_" class="st2" d="M76.5,82.2c1.4,0,2.9-0.9,2.9-3.1c0-1.8-1.1-3-2.8-3c-1.6,0-2.9,1.1-2.9,3.1
		C73.7,81,74.9,82.2,76.5,82.2z M76.5,76.9c1.2,0,1.7,1.2,1.7,2.2c0,1.3-0.8,2.3-1.8,2.3c-1,0-1.8-1-1.8-2.2
		C74.8,78,75.3,76.9,76.5,76.9z"/>
	<path id="XMLID_2228_" class="st2" d="M84.7,73.5V77h0c-0.3-0.5-0.9-0.9-1.8-0.9c-1.4,0-2.6,1.2-2.6,3.1c0,1.8,1.1,3,2.5,3
		c0.9,0,1.7-0.5,2-1.1h0l0,1h0.9c0-0.4,0-1,0-1.5v-7H84.7z M84.7,79.6c0,0.2,0,0.3,0,0.5c-0.2,0.8-0.8,1.3-1.5,1.3
		c-1.1,0-1.7-1-1.7-2.1c0-1.3,0.6-2.2,1.7-2.2c0.8,0,1.4,0.6,1.5,1.2c0,0.1,0,0.3,0,0.4V79.6z"/>
	<path id="XMLID_2229_" class="st2" d="M91.5,81.1L91.5,81.1l0.1,0.9h0.9c0-0.5,0-1,0-1.6v-4.2h-1.1v3.6c0,0.2,0,0.4-0.1,0.5
		c-0.2,0.5-0.7,1-1.4,1c-1,0-1.3-0.7-1.3-1.8v-3.2h-1.1v3.4c0,2,1.1,2.5,2,2.5C90.6,82.2,91.2,81.6,91.5,81.1z"/>
	<path id="XMLID_2230_" class="st2" d="M94.8,73.9c-0.4,0-0.7,0.3-0.7,0.7c0,0.4,0.3,0.6,0.6,0.6c0.4,0,0.7-0.3,0.7-0.6
		C95.5,74.2,95.2,73.9,94.8,73.9z"/>
	<rect id="XMLID_2231_" x="94.3" y="76.2" class="st2" width="1.1" height="5.8"/>
	<path id="XMLID_2232_" class="st2" d="M100,77v-0.8h-1.5v-1.7l-1,0.3v1.4h-0.9V77h0.9v3.2c0,0.7,0.1,1.2,0.4,1.5
		c0.3,0.3,0.6,0.4,1.1,0.4c0.4,0,0.7-0.1,0.9-0.1l0-0.8c-0.1,0-0.3,0.1-0.6,0.1c-0.6,0-0.8-0.4-0.8-1.1V77H100z"/>
	<path id="XMLID_2233_" class="st2" d="M102.7,73.7c-0.8,1-1.6,2.5-1.6,4.9c0,2.3,0.8,3.9,1.6,4.9h0.8c-0.9-1.2-1.5-2.7-1.5-4.9
		c0-2.2,0.6-3.7,1.5-4.9H102.7z"/>
	<polygon id="XMLID_2234_" class="st2" points="107,74.5 107,73.8 104.8,73.8 104.8,83.4 107,83.4 107,82.7 105.6,82.7 105.6,74.5 	
		"/>
	<polygon id="XMLID_2235_" class="st2" points="108.1,76.7 108.8,76.7 109,73.8 107.9,73.8 	"/>
	<polygon id="XMLID_2236_" class="st2" points="109.9,76.7 110.6,76.7 110.8,73.8 109.7,73.8 	"/>
	<path id="XMLID_2237_" class="st2" d="M114.8,77.9l2.6,4.1h1.1V74h-1v3.4c0,1.3,0,2.2,0.1,3.3l0,0c-0.4-0.8-0.9-1.7-1.5-2.6
		l-2.6-4.1h-1.1V82h1v-3.5c0-1.3,0-2.3-0.1-3.3l0,0C113.7,76.1,114.3,77,114.8,77.9z"/>
	<path id="XMLID_2240_" class="st2" d="M127.2,77.9c0-2.4-1.4-4.1-3.6-4.1c-2.2,0-3.8,1.7-3.8,4.2c0,2.4,1.5,4.1,3.6,4.1
		C125.6,82.2,127.2,80.7,127.2,77.9z M123.6,81.3c-1.6,0-2.6-1.5-2.6-3.3c0-1.8,0.9-3.4,2.6-3.4c1.7,0,2.6,1.7,2.6,3.3
		C126.1,79.8,125.2,81.3,123.6,81.3z"/>
	<path id="XMLID_2241_" class="st2" d="M135.4,75c0,1,0.1,2.4,0.1,3.5l0.2,3.5h1l-0.5-8.1h-1.3l-1.4,3.9c-0.4,1-0.6,1.9-0.9,2.7h0
		c-0.2-0.8-0.5-1.7-0.8-2.7l-1.4-3.9H129l-0.6,8.1h1l0.2-3.5c0.1-1.2,0.1-2.6,0.2-3.6h0c0.2,1,0.6,2,0.9,3.1l1.3,3.9h0.8l1.4-3.9
		C134.7,77,135.1,75.9,135.4,75L135.4,75z"/>
	<polygon id="XMLID_2242_" class="st2" points="140.1,76.7 140.7,76.7 140.9,73.8 139.9,73.8 	"/>
	<polygon id="XMLID_2243_" class="st2" points="139.2,73.8 138.1,73.8 138.3,76.7 138.9,76.7 	"/>
	<rect id="XMLID_2244_" x="142.1" y="77.3" class="st2" width="6.2" height="0.7"/>
	<rect id="XMLID_2245_" x="142.1" y="79.6" class="st2" width="6.2" height="0.7"/>
	<polygon id="XMLID_2246_" class="st2" points="155.2,78.5 149.6,75.7 149.6,76.5 154.4,78.8 154.4,78.9 149.6,81.2 149.6,82 
		155.2,79.2 	"/>
	<polygon id="XMLID_2247_" class="st2" points="158.7,76.7 159.3,76.7 159.5,73.8 158.5,73.8 	"/>
	<polygon id="XMLID_2248_" class="st2" points="157.7,73.8 156.7,73.8 156.9,76.7 157.5,76.7 	"/>
	<path id="XMLID_2249_" class="st2" d="M165,80.6L165,80.6c-0.2-0.8-0.5-1.7-0.9-2.7l-1.4-3.9h-1.3l-0.6,8.1h1l0.2-3.5
		c0.1-1.2,0.1-2.6,0.2-3.6h0c0.2,1,0.6,2,0.9,3.1l1.3,3.9h0.8l1.4-3.9c0.4-1.1,0.7-2.1,1-3.1h0c0,1,0.1,2.4,0.1,3.5l0.2,3.5h1
		l-0.5-8.1h-1.3l-1.4,3.9C165.5,78.9,165.2,79.8,165,80.6z"/>
	<path id="XMLID_2252_" class="st2" d="M174.1,74h-1.3L170,82h1.1l0.8-2.5h2.9l0.9,2.5h1.1L174.1,74z M172.2,78.7l0.8-2.3
		c0.2-0.5,0.3-1,0.4-1.5h0c0.1,0.5,0.2,0.9,0.4,1.5l0.8,2.3H172.2z"/>
	<path id="XMLID_2253_" class="st2" d="M181.7,74.7c0.7,0,1.2,0.1,1.6,0.3l0.3-0.9c-0.3-0.1-0.9-0.4-1.9-0.4c-2.5,0-4.2,1.7-4.2,4.2
		c0,2.7,1.7,4.1,4,4.1c1,0,1.8-0.2,2.1-0.4l-0.2-0.8c-0.4,0.2-1.1,0.3-1.7,0.3c-2,0-3.1-1.3-3.1-3.3
		C178.5,75.9,179.8,74.7,181.7,74.7z"/>
	<path id="XMLID_2256_" class="st2" d="M190.2,82c-0.2-0.3-0.4-1.1-0.6-2.2c-0.2-0.8-0.6-1.4-1.2-1.6v0c0.9-0.3,1.5-1,1.5-2.1
		c0-0.6-0.2-1.2-0.6-1.5c-0.5-0.5-1.2-0.7-2.3-0.7c-0.7,0-1.5,0.1-2,0.2v8h1v-3.5h1c0.9,0,1.4,0.5,1.6,1.6c0.2,1,0.4,1.7,0.5,1.9
		H190.2z M187,77.7H186v-3c0.2,0,0.5-0.1,1-0.1c1.1,0,1.9,0.5,1.9,1.5C188.9,77.1,188.2,77.7,187,77.7z"/>
	<path id="XMLID_2259_" class="st2" d="M198.4,77.9c0-2.4-1.4-4.1-3.6-4.1c-2.2,0-3.8,1.7-3.8,4.2c0,2.4,1.5,4.1,3.6,4.1
		C196.7,82.2,198.4,80.7,198.4,77.9z M194.7,81.3c-1.6,0-2.6-1.5-2.6-3.3c0-1.8,0.9-3.4,2.6-3.4c1.7,0,2.6,1.7,2.6,3.3
		C197.3,79.8,196.4,81.3,194.7,81.3z"/>
	<polygon id="XMLID_2260_" class="st2" points="204.3,81.2 200.9,81.2 200.9,74 199.8,74 199.8,82 204.3,82 	"/>
	<rect id="XMLID_2261_" x="205.6" y="74" class="st2" width="1" height="8.1"/>
	<path id="XMLID_2264_" class="st2" d="M208.5,74.1v8c0.5,0.1,1.2,0.1,1.9,0.1c1.6,0,2.8-0.4,3.6-1.2c0.8-0.7,1.2-1.8,1.2-3.1
		c0-1.3-0.4-2.2-1.1-2.9c-0.7-0.7-1.8-1-3.3-1C209.9,73.9,209.2,74,208.5,74.1z M214.1,77.8c0,2.2-1.2,3.4-3.4,3.4
		c-0.4,0-0.8,0-1.1-0.1v-6.4c0.3-0.1,0.7-0.1,1.2-0.1C213,74.7,214.1,75.9,214.1,77.8z"/>
	<rect id="XMLID_2265_" x="0.1" y="91.8" class="st2" width="3.1" height="0.9"/>
	<rect id="XMLID_2266_" x="0.1" y="95.6" class="st2" width="3.4" height="0.9"/>
	<rect id="XMLID_2267_" x="0.1" y="88.4" class="st2" width="3.2" height="0.9"/>
	<polygon id="XMLID_2268_" class="st2" points="7.2,91.1 7.5,88.2 6.4,88.2 6.6,91.1 	"/>
	<polygon id="XMLID_2269_" class="st2" points="5.5,91.1 5.7,88.2 4.6,88.2 4.8,91.1 	"/>
	<rect id="XMLID_2270_" x="8.5" y="91.7" class="st2" width="6.2" height="0.7"/>
	<rect id="XMLID_2271_" x="8.5" y="94" class="st2" width="6.2" height="0.7"/>
	<polygon id="XMLID_2272_" class="st2" points="21.6,92.9 16,90.1 16,90.9 20.7,93.2 20.7,93.3 16,95.6 16,96.4 21.6,93.6 	"/>
	<polygon id="XMLID_2273_" class="st2" points="24,88.2 23,88.2 23.2,91.1 23.8,91.1 	"/>
	<polygon id="XMLID_2274_" class="st2" points="25.6,91.1 25.8,88.2 24.8,88.2 25,91.1 	"/>
	<path id="XMLID_2277_" class="st2" d="M34.2,92.3c0-2.4-1.4-4.1-3.6-4.1c-2.2,0-3.8,1.7-3.8,4.2c0,2.4,1.5,4.1,3.6,4.1
		C32.5,96.6,34.2,95.1,34.2,92.3z M27.9,92.4c0-1.8,0.9-3.4,2.6-3.4c1.7,0,2.6,1.7,2.6,3.3c0,1.8-0.9,3.4-2.6,3.4
		C28.8,95.7,27.9,94.2,27.9,92.4z"/>
	<path id="XMLID_2280_" class="st2" d="M39.9,96.2l-0.2-0.8c-0.4,0.2-0.9,0.3-1.6,0.3c-1.1,0-2-0.6-2-2h4.1c0-0.1,0-0.3,0-0.5
		c0-1.1-0.5-2.7-2.4-2.7c-1.7,0-2.7,1.4-2.7,3.1c0,1.8,1.1,2.9,2.9,2.9C38.9,96.6,39.6,96.4,39.9,96.2z M37.8,91.3
		c1.2,0,1.5,1,1.5,1.7h-3.1C36.2,92.2,36.7,91.3,37.8,91.3z"/>
	<path id="XMLID_2283_" class="st2" d="M45.6,95.4L45.6,95.4l0.1,1h0.9c0-0.4,0-1,0-1.5v-7h-1.1v3.5h0c-0.3-0.5-0.9-0.9-1.8-0.9
		c-1.4,0-2.6,1.2-2.6,3.1c0,1.8,1.1,3,2.5,3C44.6,96.6,45.3,96.1,45.6,95.4z M42.2,93.6c0-1.3,0.6-2.2,1.7-2.2
		c0.8,0,1.4,0.6,1.5,1.2c0,0.1,0,0.3,0,0.4v1c0,0.2,0,0.3,0,0.5c-0.2,0.8-0.8,1.3-1.5,1.3C42.8,95.7,42.2,94.7,42.2,93.6z"/>
	<path id="XMLID_2286_" class="st2" d="M50.8,96.6c0.9,0,1.6-0.2,1.9-0.4l-0.2-0.8c-0.4,0.2-0.9,0.3-1.6,0.3c-1.1,0-2-0.6-2-2H53
		c0-0.1,0-0.3,0-0.5c0-1.1-0.5-2.7-2.4-2.7c-1.7,0-2.7,1.4-2.7,3.1C47.9,95.4,49,96.6,50.8,96.6z M50.6,91.3c1.2,0,1.5,1,1.5,1.7
		h-3.1C49,92.2,49.5,91.3,50.6,91.3z"/>
	<path id="XMLID_2287_" class="st2" d="M62.6,96.4V93c0-2-1.1-2.5-1.9-2.5c-0.6,0-0.9,0.1-1.3,0.4c-0.2,0.2-0.5,0.4-0.6,0.8h0
		c-0.3-0.7-0.9-1.2-1.6-1.2c-1,0-1.5,0.5-1.8,1.1h0l0-0.9h-0.9c0,0.5,0,1,0,1.6v4.2h1v-3.5c0-0.2,0-0.4,0.1-0.5
		c0.2-0.5,0.6-1.1,1.3-1.1c0.8,0,1.2,0.7,1.2,1.6v3.5h1v-3.6c0-0.2,0-0.4,0.1-0.5c0.2-0.5,0.6-1,1.2-1c0.9,0,1.3,0.7,1.3,1.8v3.3
		H62.6z"/>
	<path id="XMLID_2290_" class="st2" d="M75.9,95.7L75.9,95.7c0.4,0.6,1,0.9,1.8,0.9c1.4,0,2.6-1,2.6-3.1c0-1.8-1.1-3-2.5-3
		c-0.9,0-1.6,0.4-2.1,1.1h0l0-1h-0.9c0,0.6,0,1.2,0,1.9v6.3h1V95.7z M75.9,93.1c0-0.1,0-0.3,0.1-0.4c0.2-0.8,0.9-1.3,1.6-1.3
		c1.1,0,1.7,1,1.7,2.2c0,1.3-0.6,2.2-1.8,2.2c-0.8,0-1.4-0.5-1.6-1.2c0-0.1,0-0.3,0-0.4V93.1z"/>
	<path id="XMLID_2291_" class="st2" d="M85.6,95.5L85.6,95.5l0.1,0.9h0.9c0-0.5,0-1,0-1.6v-4.2h-1.1v3.6c0,0.2,0,0.4-0.1,0.5
		c-0.2,0.5-0.7,1-1.4,1c-1,0-1.3-0.7-1.3-1.8v-3.2h-1.1V94c0,2,1.1,2.5,2,2.5C84.7,96.6,85.3,96,85.6,95.5z"/>
	<rect id="XMLID_2292_" x="88.3" y="87.9" class="st2" width="1.1" height="8.5"/>
	<path id="XMLID_2293_" class="st2" d="M97.1,91.4c0.9,0,1.3,0.7,1.3,1.8v3.3h1V93c0-2-1.1-2.5-1.9-2.5c-0.6,0-0.9,0.1-1.3,0.4
		c-0.2,0.2-0.5,0.4-0.6,0.8h0c-0.3-0.7-0.9-1.2-1.6-1.2c-1,0-1.5,0.5-1.8,1.1h0l0-0.9h-0.9c0,0.5,0,1,0,1.6v4.2h1v-3.5
		c0-0.2,0-0.4,0.1-0.5c0.2-0.5,0.6-1.1,1.3-1.1c0.8,0,1.2,0.7,1.2,1.6v3.5h1v-3.6c0-0.2,0-0.4,0.1-0.5C96,91.8,96.5,91.4,97.1,91.4z
		"/>
	<path id="XMLID_2296_" class="st2" d="M106.4,93.5c0-1.8-1.1-3-2.8-3c-1.6,0-2.9,1.1-2.9,3.1c0,1.8,1.2,3,2.8,3
		C104.9,96.6,106.4,95.6,106.4,93.5z M101.8,93.5c0-1.1,0.5-2.3,1.8-2.3c1.2,0,1.7,1.2,1.7,2.2c0,1.3-0.8,2.3-1.8,2.3
		C102.5,95.8,101.8,94.8,101.8,93.5z"/>
	<path id="XMLID_2297_" class="st2" d="M112.6,96.4V93c0-2-1.2-2.5-2.1-2.5c-1,0-1.6,0.5-1.9,1.1h0l-0.1-1h-0.9c0,0.5,0,1,0,1.6v4.2
		h1.1v-3.5c0-0.2,0-0.4,0.1-0.5c0.2-0.6,0.7-1.1,1.4-1.1c1,0,1.3,0.8,1.3,1.7v3.3H112.6z"/>
	<path id="XMLID_2300_" class="st2" d="M113.9,94.9c0,0.8,0.6,1.7,1.8,1.7c0.8,0,1.5-0.4,1.8-0.9h0l0.1,0.7h1
		c-0.1-0.4-0.1-0.9-0.1-1.4v-2.2c0-1.2-0.4-2.4-2.2-2.4c-0.7,0-1.4,0.2-1.9,0.5l0.2,0.7c0.4-0.3,1-0.4,1.5-0.4
		c1.2,0,1.3,0.9,1.3,1.3v0.1C115.2,92.7,113.9,93.5,113.9,94.9z M117.4,93.5v1c0,0.1,0,0.2-0.1,0.3c-0.2,0.5-0.6,1-1.4,1
		c-0.5,0-1-0.3-1-1C115,93.7,116.3,93.5,117.4,93.5z"/>
	<path id="XMLID_2301_" class="st2" d="M120.7,88.3c-0.4,0-0.7,0.3-0.7,0.7c0,0.4,0.3,0.6,0.6,0.6c0.4,0,0.7-0.3,0.7-0.6
		C121.3,88.6,121.1,88.3,120.7,88.3z"/>
	<rect id="XMLID_2302_" x="120.1" y="90.6" class="st2" width="1.1" height="5.8"/>
	<path id="XMLID_2303_" class="st2" d="M125.8,90.5c-0.1,0-0.2,0-0.3,0c-0.7,0-1.3,0.5-1.6,1.3h0l0-1.1h-0.9c0,0.5,0,1.1,0,1.8v4h1
		v-3.1c0-0.2,0-0.3,0-0.5c0.1-0.8,0.7-1.4,1.4-1.4c0.1,0,0.3,0,0.4,0V90.5z"/>
	<path id="XMLID_2306_" class="st2" d="M129.2,96.6c0.9,0,1.6-0.2,1.9-0.4l-0.2-0.8c-0.4,0.2-0.9,0.3-1.6,0.3c-1.1,0-2-0.6-2-2h4.1
		c0-0.1,0-0.3,0-0.5c0-1.1-0.5-2.7-2.4-2.7c-1.7,0-2.7,1.4-2.7,3.1C126.3,95.4,127.4,96.6,129.2,96.6z M129,91.3
		c1.2,0,1.5,1,1.5,1.7h-3.1C127.4,92.2,127.9,91.3,129,91.3z"/>
	<polygon id="XMLID_2307_" class="st2" points="134.3,88.2 134.5,91.1 135.1,91.1 135.3,88.2 	"/>
	<polygon id="XMLID_2308_" class="st2" points="133.3,91.1 133.6,88.2 132.5,88.2 132.7,91.1 	"/>
	<polygon id="XMLID_2309_" class="st2" points="138.4,88.2 136.2,88.2 136.2,88.9 137.5,88.9 137.5,97.1 136.2,97.1 136.2,97.8 
		138.4,97.8 	"/>
	<path id="XMLID_2310_" class="st2" d="M140.4,97.9c0.8-1,1.6-2.5,1.6-4.9c0-2.4-0.8-3.9-1.6-4.9h-0.8c0.9,1.2,1.5,2.7,1.5,4.9
		c0,2.2-0.7,3.7-1.5,4.9H140.4z"/>
	<path id="XMLID_2311_" class="st2" d="M143,97.9l0.7-0.1c0.3-0.6,0.9-1.9,1.2-2.9l-1.2,0.1C143.5,95.9,143.2,97.2,143,97.9z"/>
	<path id="XMLID_2312_" class="st2" d="M144.2,90.8c-0.4,0-0.7,0.3-0.7,0.8c0,0.4,0.3,0.7,0.7,0.7c0.4,0,0.7-0.3,0.7-0.7
		C144.9,91.1,144.6,90.8,144.2,90.8z"/>
	<path id="XMLID_2313_" class="st2" d="M148.6,97.5v-1.2c1.2-0.2,1.9-1.1,1.9-2c0-1.1-0.6-1.7-1.9-2.2c-1-0.4-1.5-0.7-1.5-1.4
		c0-0.5,0.3-1,1.3-1c0.8,0,1.3,0.3,1.5,0.4l0.3-0.8c-0.3-0.2-0.8-0.4-1.6-0.4v-1.2h-0.7v1.2c-1.1,0.2-1.8,0.9-1.8,1.9
		c0,1,0.8,1.6,2,2.1c0.9,0.4,1.4,0.8,1.4,1.4c0,0.7-0.6,1.2-1.4,1.2c-0.7,0-1.3-0.2-1.7-0.5l-0.3,0.8c0.4,0.3,1.1,0.5,1.8,0.5v1.2
		H148.6z"/>
	<path id="XMLID_2314_" class="st2" d="M154.2,96.6c1,0,1.6-0.6,1.9-1.1h0l0.1,0.9h0.9c0-0.5,0-1,0-1.6v-4.2h-1.1v3.6
		c0,0.2,0,0.4-0.1,0.5c-0.2,0.5-0.7,1-1.4,1c-1,0-1.3-0.7-1.3-1.8v-3.2h-1.1V94C152.2,96.1,153.3,96.6,154.2,96.6z"/>
	<path id="XMLID_2315_" class="st2" d="M162.3,94.8c0-0.9-0.5-1.4-1.5-1.8c-0.8-0.3-1.1-0.5-1.1-1c0-0.4,0.3-0.8,1-0.8
		c0.5,0,1,0.2,1.2,0.3l0.3-0.8c-0.3-0.2-0.8-0.4-1.4-0.4c-1.2,0-2,0.8-2,1.7c0,0.7,0.5,1.3,1.5,1.6c0.8,0.3,1.1,0.6,1.1,1.1
		c0,0.5-0.4,0.9-1.1,0.9c-0.5,0-1.1-0.2-1.4-0.4l-0.3,0.8c0.4,0.2,1,0.4,1.6,0.4C161.5,96.6,162.3,95.8,162.3,94.8z"/>
	<path id="XMLID_2318_" class="st2" d="M168.3,93.2c0-1.1-0.5-2.7-2.4-2.7c-1.7,0-2.7,1.4-2.7,3.1c0,1.8,1.1,2.9,2.9,2.9
		c0.9,0,1.6-0.2,1.9-0.4l-0.2-0.8c-0.4,0.2-0.9,0.3-1.6,0.3c-1.1,0-2-0.6-2-2h4.1C168.3,93.6,168.3,93.5,168.3,93.2z M164.2,93
		c0.1-0.7,0.6-1.7,1.6-1.7c1.2,0,1.5,1,1.5,1.7H164.2z"/>
	<path id="XMLID_2319_" class="st2" d="M170.7,93.3c0-0.2,0-0.3,0-0.5c0.1-0.8,0.7-1.4,1.4-1.4c0.1,0,0.3,0,0.4,0v-1
		c-0.1,0-0.2,0-0.3,0c-0.7,0-1.3,0.5-1.6,1.3h0l0-1.1h-0.9c0,0.5,0,1.1,0,1.8v4h1V93.3z"/>
	<rect id="XMLID_2320_" x="173" y="92.8" class="st2" width="3" height="0.8"/>
	<polygon id="XMLID_2321_" class="st2" points="182.7,92.9 177.1,90.1 177.1,90.9 181.8,93.2 181.8,93.3 177.1,95.6 177.1,96.4 
		182.7,93.6 	"/>
	<polygon id="XMLID_2322_" class="st2" points="188.9,95.6 185.4,95.6 185.4,88.4 184.4,88.4 184.4,96.4 188.9,96.4 	"/>
	<path id="XMLID_2325_" class="st2" d="M192.7,96.6c2.1,0,3.8-1.5,3.8-4.3c0-2.4-1.4-4.1-3.6-4.1c-2.2,0-3.8,1.7-3.8,4.2
		C189.1,94.9,190.6,96.6,192.7,96.6z M192.8,89.1c1.7,0,2.6,1.7,2.6,3.3c0,1.8-0.9,3.4-2.6,3.4c-1.6,0-2.6-1.5-2.6-3.3
		C190.2,90.7,191.1,89.1,192.8,89.1z"/>
	<path id="XMLID_2326_" class="st2" d="M201.5,96.5c1.1,0,2-0.3,2.5-0.4v-3.9h-2.7V93h1.6v2.4c-0.2,0.1-0.7,0.2-1.4,0.2
		c-1.9,0-3.1-1.2-3.1-3.3c0-2,1.3-3.3,3.3-3.3c0.8,0,1.4,0.2,1.8,0.3l0.3-0.9c-0.3-0.2-1.1-0.4-2-0.4c-2.7,0-4.4,1.8-4.4,4.2
		c0,1.3,0.4,2.3,1.1,3C199.3,96.2,200.3,96.5,201.5,96.5z"/>
	<rect id="XMLID_2327_" x="205.6" y="88.4" class="st2" width="1" height="8.1"/>
	<path id="XMLID_2328_" class="st2" d="M209.5,93c0-1.3,0-2.3-0.1-3.3l0,0c0.4,0.9,0.9,1.8,1.5,2.7l2.6,4.1h1.1v-8.1h-1v3.4
		c0,1.3,0,2.2,0.1,3.3l0,0c-0.4-0.8-0.9-1.7-1.5-2.6l-2.6-4.1h-1.1v8.1h1V93z"/>
	<path id="XMLID_2329_" class="st2" d="M0.1,104.5v4.2c0.3-0.6,0.5-1.3,0.5-2.2C0.6,105.8,0.5,105.1,0.1,104.5z"/>
	<polygon id="XMLID_2330_" class="st2" points="5.6,102.6 4.5,102.6 4.7,105.5 5.4,105.5 	"/>
	<polygon id="XMLID_2331_" class="st2" points="3.6,105.5 3.8,102.6 2.8,102.6 2.9,105.5 	"/>
	<path id="XMLID_2332_" class="st2" d="M8.7,105.2c-0.4,0-0.7,0.3-0.7,0.8c0,0.4,0.3,0.7,0.7,0.7c0.4,0,0.7-0.3,0.7-0.7
		C9.4,105.5,9.1,105.2,8.7,105.2z"/>
	<path id="XMLID_2333_" class="st2" d="M9.3,109.3l-1.2,0.1c-0.1,0.9-0.5,2.2-0.7,2.9l0.7-0.1C8.5,111.7,9,110.3,9.3,109.3z"/>
	<path id="XMLID_2334_" class="st2" d="M14.2,111.9v-1.2c1.2-0.2,1.9-1.1,1.9-2c0-1.1-0.6-1.7-1.9-2.2c-1-0.4-1.5-0.7-1.5-1.4
		c0-0.5,0.3-1,1.3-1c0.8,0,1.3,0.3,1.5,0.4l0.3-0.8c-0.3-0.2-0.8-0.4-1.6-0.4V102h-0.7v1.2c-1.1,0.2-1.8,0.9-1.8,1.9
		c0,1,0.8,1.6,2,2.1c0.9,0.4,1.4,0.8,1.4,1.4c0,0.7-0.6,1.2-1.4,1.2c-0.7,0-1.3-0.2-1.7-0.5l-0.3,0.8c0.4,0.3,1.1,0.5,1.8,0.5v1.2
		H14.2z"/>
	<path id="XMLID_2335_" class="st2" d="M20.8,111c1,0,1.6-0.6,1.9-1.1h0l0.1,0.9h0.9c0-0.5,0-1,0-1.6V105h-1.1v3.6
		c0,0.2,0,0.4-0.1,0.5c-0.2,0.5-0.7,1-1.4,1c-1,0-1.3-0.7-1.3-1.8V105h-1.1v3.4C18.8,110.5,19.9,111,20.8,111z"/>
	<path id="XMLID_2336_" class="st2" d="M28.4,107.5c-0.8-0.3-1.1-0.5-1.1-1c0-0.4,0.3-0.8,1-0.8c0.5,0,1,0.2,1.2,0.3l0.3-0.8
		c-0.3-0.2-0.8-0.4-1.4-0.4c-1.2,0-2,0.8-2,1.7c0,0.7,0.5,1.3,1.5,1.6c0.8,0.3,1.1,0.6,1.1,1.1c0,0.5-0.4,0.9-1.1,0.9
		c-0.5,0-1.1-0.2-1.4-0.4l-0.3,0.8c0.4,0.2,1,0.4,1.6,0.4c1.4,0,2.2-0.7,2.2-1.7C29.9,108.4,29.4,107.8,28.4,107.5z"/>
	<path id="XMLID_2339_" class="st2" d="M37.1,107.6c0-1.1-0.5-2.7-2.4-2.7c-1.7,0-2.7,1.4-2.7,3.1s1.1,2.9,2.9,2.9
		c0.9,0,1.6-0.2,1.9-0.4l-0.2-0.8c-0.4,0.2-0.9,0.3-1.6,0.3c-1.1,0-2-0.6-2-2H37C37,108,37.1,107.8,37.1,107.6z M33,107.4
		c0.1-0.7,0.6-1.7,1.6-1.7c1.2,0,1.5,1,1.5,1.7H33z"/>
	<path id="XMLID_2340_" class="st2" d="M40.5,110.8v-3.1c0-0.2,0-0.3,0-0.5c0.1-0.8,0.7-1.4,1.4-1.4c0.1,0,0.3,0,0.4,0v-1
		c-0.1,0-0.2,0-0.3,0c-0.7,0-1.3,0.5-1.6,1.3h0l0-1.1h-0.9c0,0.5,0,1.1,0,1.8v4H40.5z"/>
	<rect id="XMLID_2341_" x="43.8" y="107.2" class="st2" width="3" height="0.8"/>
	<polygon id="XMLID_2342_" class="st2" points="54.6,107.3 49,104.5 49,105.3 53.7,107.6 53.7,107.7 49,110 49,110.8 54.6,108 	"/>
	<path id="XMLID_2345_" class="st2" d="M62.3,105.1c0-0.7-0.3-1.3-0.7-1.7c-0.5-0.4-1.2-0.7-2.3-0.7c-0.8,0-1.5,0.1-2,0.2v8h1v-3.2
		c0.2,0.1,0.5,0.1,0.8,0.1c1,0,1.9-0.3,2.5-0.9C62.1,106.4,62.3,105.8,62.3,105.1z M59.2,106.8c-0.3,0-0.6,0-0.9-0.1v-3.1
		c0.2,0,0.5-0.1,1-0.1c1.2,0,1.9,0.5,1.9,1.6C61.3,106.2,60.5,106.8,59.2,106.8z"/>
	<path id="XMLID_2346_" class="st2" d="M73.9,102.8h-1.1l-1.1,4.1c-0.3,1-0.5,1.9-0.6,2.8h0c-0.1-0.9-0.3-1.8-0.6-2.8l-1-4.1h-1.1
		l-1.1,4.1c-0.3,1-0.5,2-0.7,2.8h0c-0.1-0.8-0.4-1.8-0.6-2.8l-1-4.1H64l2.1,8.1h1.1l1.2-4.2c0.3-1,0.5-1.8,0.6-2.6h0
		c0.1,0.8,0.3,1.6,0.5,2.6l1,4.2h1.1L73.9,102.8z"/>
	<path id="XMLID_2349_" class="st2" d="M81.5,109.7c0.8-0.7,1.2-1.8,1.2-3.1c0-1.3-0.4-2.2-1.1-2.9c-0.7-0.7-1.8-1-3.3-1
		c-0.8,0-1.6,0.1-2.2,0.2v8c0.5,0.1,1.2,0.1,1.9,0.1C79.5,110.9,80.7,110.5,81.5,109.7z M77,103.6c0.3-0.1,0.7-0.1,1.2-0.1
		c2.2,0,3.3,1.2,3.3,3.1c0,2.2-1.2,3.4-3.4,3.4c-0.4,0-0.8,0-1.1-0.1V103.6z"/>
	<rect id="XMLID_2350_" x="84.6" y="106.1" class="st2" width="6.2" height="0.7"/>
	<rect id="XMLID_2351_" x="84.6" y="108.4" class="st2" width="6.2" height="0.7"/>
	<polygon id="XMLID_2352_" class="st2" points="94,102.6 92.9,102.6 93.1,105.5 93.8,105.5 	"/>
	<polygon id="XMLID_2353_" class="st2" points="94.9,105.5 95.6,105.5 95.8,102.6 94.7,102.6 	"/>
	<path id="XMLID_2356_" class="st2" d="M100.4,111c1.7,0,2.7-1.5,2.7-4.1c0-2.5-0.9-3.9-2.6-3.9c-1.6,0-2.7,1.4-2.7,4.1
		C97.9,109.5,98.9,111,100.4,111z M100.5,103.7c1.1,0,1.6,1.3,1.6,3.2c0,2-0.5,3.3-1.6,3.3c-1,0-1.6-1.2-1.6-3.2
		C98.9,104.9,99.6,103.7,100.5,103.7z"/>
	<polygon id="XMLID_2357_" class="st2" points="108.5,110.8 108.5,103 107.6,103 105.9,104 106.1,104.8 107.5,104 107.5,104 
		107.5,110.8 	"/>
	<path id="XMLID_2358_" class="st2" d="M117.4,110h-3.5v0l0.6-0.6c1.6-1.6,2.7-2.7,2.7-4.2c0-1.1-0.7-2.3-2.4-2.3
		c-0.9,0-1.7,0.3-2.2,0.8l0.3,0.7c0.4-0.3,0.9-0.7,1.7-0.7c1.2,0,1.5,0.7,1.5,1.5c0,1.2-0.9,2.2-2.9,4.1l-0.8,0.8v0.6h5V110z"/>
	<path id="XMLID_2359_" class="st2" d="M121.6,110.1c-0.7,0-1.4-0.3-1.7-0.5l-0.3,0.8c0.4,0.3,1.2,0.5,2,0.5c1.9,0,2.8-1.1,2.8-2.3
		c0-1.1-0.8-1.8-1.7-2v0c1-0.3,1.4-1,1.4-1.8c0-0.9-0.7-1.9-2.2-1.9c-0.8,0-1.6,0.3-2,0.6l0.3,0.8c0.3-0.2,0.9-0.5,1.6-0.5
		c1,0,1.4,0.6,1.4,1.2c0,0.9-1,1.3-1.7,1.3h-0.6v0.8h0.6c1,0,2,0.5,2,1.6C123.4,109.3,123,110.1,121.6,110.1z"/>
	<path id="XMLID_2362_" class="st2" d="M131.1,110.8v-2.1h1.1v-0.8h-1.1V103h-1.1l-3.5,5v0.7h3.6v2.1H131.1z M127.5,107.9
		L127.5,107.9l1.9-2.7c0.2-0.4,0.4-0.7,0.6-1.2h0c0,0.4,0,0.8,0,1.2v2.6H127.5z"/>
	<polygon id="XMLID_2363_" class="st2" points="136.1,105.5 136.7,105.5 136.9,102.6 135.9,102.6 	"/>
	<polygon id="XMLID_2364_" class="st2" points="134.3,105.5 135,105.5 135.2,102.6 134.1,102.6 	"/>
	<path id="XMLID_2365_" class="st2" d="M140,105.2c-0.4,0-0.7,0.3-0.7,0.8c0,0.4,0.3,0.7,0.7,0.7c0.4,0,0.7-0.3,0.7-0.7
		C140.7,105.5,140.5,105.2,140,105.2z"/>
	<path id="XMLID_2366_" class="st2" d="M138.8,112.3l0.7-0.1c0.3-0.6,0.9-1.9,1.2-2.9l-1.2,0.1C139.4,110.3,139.1,111.6,138.8,112.3
		z"/>
	<path id="XMLID_2369_" class="st2" d="M147.7,107.6c0-1.1-0.5-2.7-2.4-2.7c-1.7,0-2.7,1.4-2.7,3.1s1.1,2.9,2.9,2.9
		c0.9,0,1.6-0.2,1.9-0.4l-0.2-0.8c-0.4,0.2-0.9,0.3-1.6,0.3c-1.1,0-2-0.6-2-2h4.1C147.7,108,147.7,107.8,147.7,107.6z M143.6,107.4
		c0.1-0.7,0.6-1.7,1.6-1.7c1.2,0,1.5,1,1.5,1.7H143.6z"/>
	<path id="XMLID_2370_" class="st2" d="M154,109.8c-0.3,0.1-0.7,0.3-1.3,0.3c-1.2,0-2-0.8-2-2.2c0-1.2,0.7-2.2,2.1-2.2
		c0.6,0,1,0.1,1.2,0.3l0.2-0.8c-0.3-0.1-0.8-0.3-1.5-0.3c-1.9,0-3.1,1.3-3.1,3.1c0,1.8,1.1,3,2.9,3c0.8,0,1.4-0.2,1.7-0.3L154,109.8
		z"/>
	<path id="XMLID_2371_" class="st2" d="M161.5,110.8v-3.5c0-2-1.2-2.5-2-2.5c-0.4,0-0.8,0.1-1.1,0.3c-0.3,0.2-0.6,0.4-0.8,0.7h0
		v-3.6h-1.1v8.5h1.1v-3.5c0-0.2,0-0.4,0.1-0.5c0.2-0.6,0.7-1.1,1.4-1.1c1,0,1.3,0.8,1.3,1.7v3.3H161.5z"/>
	<path id="XMLID_2374_" class="st2" d="M166.6,111c1.4,0,2.9-0.9,2.9-3.1c0-1.8-1.1-3-2.8-3c-1.6,0-2.9,1.1-2.9,3.1
		C163.8,109.8,165,111,166.6,111z M166.7,105.7c1.2,0,1.7,1.2,1.7,2.2c0,1.3-0.8,2.3-1.8,2.3c-1,0-1.8-1-1.8-2.2
		C164.9,106.8,165.4,105.7,166.7,105.7z"/>
	<path id="XMLID_2375_" class="st2" d="M174.4,111.9v-1.2c1.2-0.2,1.9-1.1,1.9-2c0-1.1-0.6-1.7-1.9-2.2c-1-0.4-1.5-0.7-1.5-1.4
		c0-0.5,0.3-1,1.3-1c0.8,0,1.3,0.3,1.5,0.4l0.3-0.8c-0.3-0.2-0.8-0.4-1.6-0.4V102h-0.7v1.2c-1.1,0.2-1.8,0.9-1.8,1.9
		c0,1,0.8,1.6,2,2.1c0.9,0.4,1.4,0.8,1.4,1.4c0,0.7-0.6,1.2-1.4,1.2c-0.7,0-1.3-0.2-1.7-0.5l-0.3,0.8c0.4,0.3,1.1,0.5,1.8,0.5v1.2
		H174.4z"/>
	<path id="XMLID_2376_" class="st2" d="M183,109.9L183,109.9l0.1,0.9h0.9c0-0.5,0-1,0-1.6V105h-1.1v3.6c0,0.2,0,0.4-0.1,0.5
		c-0.2,0.5-0.7,1-1.4,1c-1,0-1.3-0.7-1.3-1.8V105h-1.1v3.4c0,2,1.1,2.5,2,2.5C182.1,111,182.7,110.4,183,109.9z"/>
	<path id="XMLID_2377_" class="st2" d="M188,110.2c-0.5,0-1.1-0.2-1.4-0.4l-0.3,0.8c0.4,0.2,1,0.4,1.6,0.4c1.4,0,2.2-0.7,2.2-1.7
		c0-0.9-0.5-1.4-1.5-1.8c-0.8-0.3-1.1-0.5-1.1-1c0-0.4,0.3-0.8,1-0.8c0.5,0,1,0.2,1.2,0.3l0.3-0.8c-0.3-0.2-0.8-0.4-1.4-0.4
		c-1.2,0-2,0.8-2,1.7c0,0.7,0.5,1.3,1.5,1.6c0.8,0.3,1.1,0.6,1.1,1.1C189.1,109.8,188.8,110.2,188,110.2z"/>
	<path id="XMLID_2380_" class="st2" d="M196.9,110.6l-0.2-0.8c-0.4,0.2-0.9,0.3-1.6,0.3c-1.1,0-2-0.6-2-2h4.1c0-0.1,0-0.3,0-0.5
		c0-1.1-0.5-2.7-2.4-2.7c-1.7,0-2.7,1.4-2.7,3.1s1.1,2.9,2.9,2.9C195.9,111,196.6,110.8,196.9,110.6z M194.8,105.7
		c1.2,0,1.5,1,1.5,1.7h-3.1C193.3,106.6,193.7,105.7,194.8,105.7z"/>
	<path id="XMLID_2381_" class="st2" d="M200.7,110.8v-3.1c0-0.2,0-0.3,0-0.5c0.1-0.8,0.7-1.4,1.4-1.4c0.1,0,0.3,0,0.4,0v-1
		c-0.1,0-0.2,0-0.3,0c-0.7,0-1.3,0.5-1.6,1.3h0l0-1.1h-0.9c0,0.5,0,1.1,0,1.8v4H200.7z"/>
	<rect id="XMLID_2382_" x="204.1" y="107.2" class="st2" width="3" height="0.8"/>
	<polygon id="XMLID_2383_" class="st2" points="209.2,105.3 214,107.6 214,107.7 209.2,110 209.2,110.8 214.8,108 214.8,107.3 
		209.2,104.5 	"/>
	<path id="XMLID_2384_" class="st2" d="M0.6,120.3v-1c-0.1,0-0.2,0-0.3,0c-0.1,0-0.1,0-0.2,0v1c0,0,0.1,0,0.1,0
		C0.4,120.3,0.5,120.3,0.6,120.3z"/>
	<rect id="XMLID_2385_" x="1.1" y="121.6" class="st2" width="3" height="0.8"/>
	<polygon id="XMLID_2386_" class="st2" points="5.2,119.7 9.9,122 9.9,122.1 5.2,124.4 5.2,125.2 10.8,122.4 10.8,121.7 5.2,118.9 	
		"/>
	<path id="XMLID_2389_" class="st2" d="M14.5,117.1c-0.8,0-1.5,0.1-2,0.2v8h1V122c0.2,0.1,0.5,0.1,0.8,0.1c1,0,1.9-0.3,2.5-0.9
		c0.4-0.4,0.6-1,0.6-1.7c0-0.7-0.3-1.3-0.7-1.7C16.3,117.3,15.5,117.1,14.5,117.1z M14.4,121.2c-0.3,0-0.6,0-0.9-0.1V118
		c0.2,0,0.5-0.1,1-0.1c1.2,0,1.9,0.5,1.9,1.6C16.4,120.6,15.6,121.2,14.4,121.2z"/>
	<path id="XMLID_2392_" class="st2" d="M24.1,125.2c-0.2-0.3-0.4-1.1-0.6-2.2c-0.2-0.8-0.6-1.4-1.2-1.6v0c0.9-0.3,1.5-1,1.5-2.1
		c0-0.6-0.2-1.2-0.6-1.5c-0.5-0.5-1.2-0.7-2.3-0.7c-0.7,0-1.5,0.1-2,0.2v8h1v-3.5h1c0.9,0,1.4,0.5,1.6,1.6c0.2,1,0.4,1.7,0.5,1.9
		H24.1z M21,120.9h-1.1v-3c0.2,0,0.5-0.1,1-0.1c1.1,0,1.9,0.5,1.9,1.5C22.8,120.3,22.1,120.9,21,120.9z"/>
	<polygon id="XMLID_2393_" class="st2" points="29.9,124.4 26.4,124.4 26.4,121.4 29.5,121.4 29.5,120.6 26.4,120.6 26.4,118 
		29.7,118 29.7,117.2 25.3,117.2 25.3,125.2 29.9,125.2 	"/>
	<path id="XMLID_2394_" class="st2" d="M37.3,117.2h-1v3.4c0,1.3,0,2.2,0.1,3.3l0,0c-0.4-0.8-0.9-1.7-1.5-2.6l-2.6-4.1h-1.1v8.1h1
		v-3.5c0-1.3,0-2.3-0.1-3.3l0,0c0.4,0.9,0.9,1.8,1.5,2.7l2.6,4.1h1.1V117.2z"/>
	<path id="XMLID_2397_" class="st2" d="M42.4,117c-2.2,0-3.8,1.7-3.8,4.2c0,2.4,1.5,4.1,3.6,4.1c2.1,0,3.8-1.5,3.8-4.3
		C46,118.7,44.6,117,42.4,117z M42.3,124.5c-1.6,0-2.6-1.5-2.6-3.3c0-1.8,0.9-3.4,2.6-3.4c1.7,0,2.6,1.7,2.6,3.3
		C44.9,123,44,124.5,42.3,124.5z"/>
	<path id="XMLID_2398_" class="st2" d="M51.6,125.2l1.4-3.9c0.4-1.1,0.7-2.1,1-3.1h0c0,1,0.1,2.4,0.1,3.5l0.2,3.6h1l-0.5-8.1h-1.3
		l-1.4,3.9c-0.4,1-0.6,1.9-0.9,2.7h0c-0.2-0.8-0.5-1.7-0.8-2.7l-1.4-3.9h-1.3l-0.6,8.1h1l0.2-3.5c0.1-1.2,0.1-2.6,0.2-3.6h0
		c0.2,1,0.6,2,0.9,3.1l1.3,3.9H51.6z"/>
	<path id="XMLID_2399_" class="st2" d="M57.5,125.4c0.4,0,0.7-0.3,0.7-0.8c0-0.4-0.3-0.8-0.7-0.8c-0.4,0-0.7,0.3-0.7,0.8
		C56.7,125,57,125.4,57.5,125.4z"/>
	<polygon id="XMLID_2400_" class="st2" points="60.6,119.9 60.8,117 59.8,117 60,119.9 	"/>
	<polygon id="XMLID_2401_" class="st2" points="58.2,119.9 58.8,119.9 59,117 58,117 	"/>
	<polygon id="XMLID_2402_" class="st2" points="71.5,119.9 72.2,119.9 72.4,117 71.3,117 	"/>
	<polygon id="XMLID_2403_" class="st2" points="73.3,119.9 74,119.9 74.2,117 73.1,117 	"/>
	<path id="XMLID_2404_" class="st2" d="M74.8,125.4c0.4,0,0.7-0.3,0.7-0.8c0-0.4-0.3-0.8-0.7-0.8c-0.4,0-0.7,0.3-0.7,0.8
		C74,125,74.3,125.4,74.8,125.4z"/>
	<path id="XMLID_2405_" class="st2" d="M79.3,120.8c-1-0.4-1.5-0.7-1.5-1.4c0-0.5,0.3-1,1.3-1c0.8,0,1.3,0.3,1.5,0.4l0.3-0.8
		c-0.3-0.2-0.8-0.4-1.6-0.4v-1.2h-0.7v1.2c-1.1,0.2-1.8,0.9-1.8,1.9c0,1,0.8,1.6,2,2.1c0.9,0.4,1.4,0.8,1.4,1.4
		c0,0.7-0.6,1.2-1.4,1.2c-0.7,0-1.3-0.2-1.7-0.5l-0.3,0.8c0.4,0.3,1.1,0.5,1.8,0.5v1.2h0.8V125c1.2-0.2,1.9-1.1,1.9-2
		C81.2,121.9,80.5,121.3,79.3,120.8z"/>
	<path id="XMLID_2406_" class="st2" d="M87.8,125.2c0-0.5,0-1,0-1.6v-4.2h-1.1v3.6c0,0.2,0,0.4-0.1,0.5c-0.2,0.5-0.7,1-1.4,1
		c-1,0-1.3-0.7-1.3-1.8v-3.2h-1.1v3.4c0,2,1.1,2.5,2,2.5c1,0,1.6-0.6,1.9-1.1h0l0.1,0.9H87.8z"/>
	<path id="XMLID_2407_" class="st2" d="M91.4,121.9c-0.8-0.3-1.1-0.5-1.1-1c0-0.4,0.3-0.8,1-0.8c0.5,0,1,0.2,1.2,0.3l0.3-0.8
		c-0.3-0.2-0.8-0.4-1.4-0.4c-1.2,0-2,0.8-2,1.7c0,0.7,0.5,1.3,1.5,1.6c0.8,0.3,1.1,0.6,1.1,1.1c0,0.5-0.4,0.9-1.1,0.9
		c-0.5,0-1.1-0.2-1.4-0.4l-0.3,0.8c0.4,0.2,1,0.4,1.6,0.4c1.4,0,2.2-0.7,2.2-1.7C92.9,122.8,92.4,122.2,91.4,121.9z"/>
	<path id="XMLID_2410_" class="st2" d="M98.7,125l-0.2-0.8c-0.4,0.2-0.9,0.3-1.6,0.3c-1.1,0-2-0.6-2-2H99c0-0.1,0-0.3,0-0.5
		c0-1.1-0.5-2.7-2.4-2.7c-1.7,0-2.7,1.4-2.7,3.1c0,1.8,1.1,2.9,2.9,2.9C97.7,125.4,98.3,125.2,98.7,125z M96.5,120.1
		c1.2,0,1.5,1,1.5,1.7h-3.1C95,121,95.5,120.1,96.5,120.1z"/>
	<path id="XMLID_2411_" class="st2" d="M103.2,119.3c-0.1,0-0.2,0-0.3,0c-0.7,0-1.3,0.5-1.6,1.3h0l0-1.1h-0.9c0,0.5,0,1.1,0,1.8v4h1
		v-3.1c0-0.2,0-0.3,0-0.5c0.1-0.8,0.7-1.4,1.4-1.4c0.1,0,0.3,0,0.4,0V119.3z"/>
	<rect id="XMLID_2412_" x="103.7" y="121.6" class="st2" width="3" height="0.8"/>
	<polygon id="XMLID_2413_" class="st2" points="113.3,121.7 107.8,118.9 107.8,119.7 112.5,122 112.5,122.1 107.8,124.4 
		107.8,125.2 113.3,122.4 	"/>
	<path id="XMLID_2414_" class="st2" d="M116.8,124.5c-0.7,0-1.4-0.2-1.9-0.5l-0.3,0.9c0.4,0.3,1.3,0.5,2.1,0.5
		c1.9,0,2.8-1.1,2.8-2.3c0-1.2-0.7-1.8-2.1-2.4c-1.1-0.4-1.6-0.8-1.6-1.6c0-0.6,0.4-1.2,1.5-1.2c0.7,0,1.3,0.2,1.5,0.4l0.3-0.9
		c-0.4-0.2-1-0.4-1.8-0.4c-1.6,0-2.6,0.9-2.6,2.2c0,1.1,0.8,1.8,2.1,2.3c1.1,0.4,1.5,0.9,1.5,1.6
		C118.5,123.9,117.8,124.5,116.8,124.5z"/>
	<polygon id="XMLID_2415_" class="st2" points="125.5,124.4 122,124.4 122,121.4 125.2,121.4 125.2,120.6 122,120.6 122,118 
		125.3,118 125.3,117.2 121,117.2 121,125.2 125.5,125.2 	"/>
	<path id="XMLID_2416_" class="st2" d="M130.6,117.9c0.7,0,1.2,0.1,1.6,0.3l0.3-0.9c-0.3-0.1-0.9-0.4-1.9-0.4
		c-2.5,0-4.2,1.7-4.2,4.2c0,2.7,1.7,4.1,4,4.1c1,0,1.8-0.2,2.1-0.4l-0.2-0.8c-0.4,0.2-1.1,0.3-1.7,0.3c-2,0-3.1-1.3-3.1-3.3
		C127.5,119.1,128.8,117.9,130.6,117.9z"/>
	<path id="XMLID_2417_" class="st2" d="M139.8,121.9v-4.7h-1.1v4.8c0,1.8-0.8,2.6-2,2.6c-1.1,0-1.9-0.8-1.9-2.6v-4.8h-1.1v4.8
		c0,2.5,1.2,3.5,2.9,3.5C138.5,125.4,139.8,124.3,139.8,121.9z"/>
	<path id="XMLID_2418_" class="st2" d="M141.7,125.4c0.4,0,0.7-0.3,0.7-0.8c0-0.4-0.3-0.8-0.7-0.8c-0.4,0-0.7,0.3-0.7,0.8
		C141,125,141.3,125.4,141.7,125.4z"/>
	<polygon id="XMLID_2419_" class="st2" points="143.1,119.9 143.3,117 142.2,117 142.4,119.9 	"/>
	<polygon id="XMLID_2420_" class="st2" points="144.9,119.9 145.1,117 144,117 144.2,119.9 	"/>
	<polygon id="XMLID_2421_" class="st2" points="146.5,122.4 152,125.2 152,124.4 147.3,122.1 147.3,122 152,119.7 152,118.9 
		146.5,121.7 	"/>
	<path id="XMLID_2424_" class="st2" d="M156.7,119.3c-0.9,0-1.6,0.4-2,1.1h0v-3.6h-1v7c0,0.5,0,1.1,0,1.5h0.9l0-1h0
		c0.4,0.8,1.1,1.1,1.9,1.1c1.3,0,2.6-1,2.6-3.1C159.2,120.5,158.2,119.3,156.7,119.3z M156.4,124.5c-0.8,0-1.4-0.5-1.6-1.2
		c0-0.1,0-0.3,0-0.4v-1c0-0.2,0-0.3,0.1-0.4c0.2-0.8,0.9-1.3,1.6-1.3c1.1,0,1.7,1,1.7,2.2C158.1,123.6,157.5,124.5,156.4,124.5z"/>
	<path id="XMLID_2425_" class="st2" d="M161.6,122.1c0-0.2,0-0.3,0-0.5c0.1-0.8,0.7-1.4,1.4-1.4c0.1,0,0.3,0,0.4,0v-1
		c-0.1,0-0.2,0-0.3,0c-0.7,0-1.3,0.5-1.6,1.3h0l0-1.1h-0.9c0,0.5,0,1.1,0,1.8v4h1V122.1z"/>
	<polygon id="XMLID_2426_" class="st2" points="169.9,121.7 164.4,118.9 164.4,119.7 169.1,122 169.1,122.1 164.4,124.4 
		164.4,125.2 169.9,122.4 	"/>
	<polygon id="XMLID_2427_" class="st2" points="171.5,119.9 172.2,119.9 172.4,117 171.3,117 	"/>
	<polygon id="XMLID_2428_" class="st2" points="174,119.9 174.2,117 173.1,117 173.3,119.9 	"/>
	<path id="XMLID_2429_" class="st2" d="M176.2,119.6c-0.4,0-0.7,0.3-0.7,0.8c0,0.4,0.3,0.7,0.7,0.7c0.4,0,0.7-0.3,0.7-0.7
		C176.9,119.9,176.6,119.6,176.2,119.6z"/>
	<path id="XMLID_2430_" class="st2" d="M175,126.7l0.7-0.1c0.3-0.6,0.9-1.9,1.2-2.9l-1.2,0.1C175.6,124.7,175.2,126,175,126.7z"/>
	<path id="XMLID_2431_" class="st2" d="M180.6,126.3V125c1.2-0.2,1.9-1.1,1.9-2c0-1.1-0.6-1.7-1.9-2.2c-1-0.4-1.5-0.7-1.5-1.4
		c0-0.5,0.3-1,1.3-1c0.8,0,1.3,0.3,1.5,0.4l0.3-0.8c-0.3-0.2-0.8-0.4-1.6-0.4v-1.2h-0.7v1.2c-1.1,0.2-1.8,0.9-1.8,1.9
		c0,1,0.8,1.6,2,2.1c0.9,0.4,1.4,0.8,1.4,1.4c0,0.7-0.6,1.2-1.4,1.2c-0.7,0-1.3-0.2-1.7-0.5l-0.3,0.8c0.4,0.3,1.1,0.5,1.8,0.5v1.2
		H180.6z"/>
	<rect id="XMLID_2432_" x="184.3" y="116.7" class="st2" width="1.1" height="8.5"/>
	<rect id="XMLID_2433_" x="186.7" y="122.8" class="st2" width="6.2" height="0.7"/>
	<rect id="XMLID_2434_" x="186.7" y="120.5" class="st2" width="6.2" height="0.7"/>
	<path id="XMLID_2435_" class="st2" d="M196.8,120.8c-1-0.4-1.5-0.7-1.5-1.4c0-0.5,0.3-1,1.3-1c0.8,0,1.3,0.3,1.5,0.4l0.3-0.8
		c-0.3-0.2-0.8-0.4-1.6-0.4v-1.2h-0.7v1.2c-1.1,0.2-1.8,0.9-1.8,1.9c0,1,0.8,1.6,2,2.1c0.9,0.4,1.4,0.8,1.4,1.4
		c0,0.7-0.6,1.2-1.4,1.2c-0.7,0-1.3-0.2-1.7-0.5l-0.3,0.8c0.4,0.3,1.1,0.5,1.8,0.5v1.2h0.8V125c1.2-0.2,1.9-1.1,1.9-2
		C198.6,121.9,198,121.3,196.8,120.8z"/>
	<path id="XMLID_2436_" class="st2" d="M205.3,119.4h-1.1v3.6c0,0.2,0,0.4-0.1,0.5c-0.2,0.5-0.7,1-1.4,1c-1,0-1.3-0.7-1.3-1.8v-3.2
		h-1.1v3.4c0,2,1.1,2.5,2,2.5c1,0,1.6-0.6,1.9-1.1h0l0.1,0.9h0.9c0-0.5,0-1,0-1.6V119.4z"/>
	<path id="XMLID_2437_" class="st2" d="M208.9,121.9c-0.8-0.3-1.1-0.5-1.1-1c0-0.4,0.3-0.8,1-0.8c0.5,0,1,0.2,1.2,0.3l0.3-0.8
		c-0.3-0.2-0.8-0.4-1.4-0.4c-1.2,0-2,0.8-2,1.7c0,0.7,0.5,1.3,1.5,1.6c0.8,0.3,1.1,0.6,1.1,1.1c0,0.5-0.4,0.9-1.1,0.9
		c-0.5,0-1.1-0.2-1.4-0.4l-0.3,0.8c0.4,0.2,1,0.4,1.6,0.4c1.4,0,2.2-0.7,2.2-1.7C210.4,122.8,209.9,122.2,208.9,121.9z"/>
	<path id="XMLID_2440_" class="st2" d="M214.1,119.3c-1.7,0-2.7,1.4-2.7,3.1c0,1.8,1.1,2.9,2.9,2.9c0.8,0,1.3-0.1,1.7-0.3v-0.8
		c-0.4,0.2-0.8,0.3-1.6,0.3c-1.1,0-2-0.6-2-2h3.6v-2.3C215.6,119.7,215,119.3,214.1,119.3z M212.4,121.8c0.1-0.7,0.6-1.7,1.6-1.7
		c1.2,0,1.5,1,1.5,1.7H212.4z"/>
	<path id="XMLID_2441_" class="st2" d="M0.5,140.7h0.8v-1.2c1.2-0.2,1.9-1.1,1.9-2c0-1.1-0.6-1.7-1.9-2.2c-0.5-0.2-0.9-0.4-1.1-0.6
		v1.2c0.2,0.1,0.4,0.2,0.6,0.3c0.9,0.4,1.4,0.8,1.4,1.4c0,0.7-0.6,1.2-1.4,1.2c-0.2,0-0.4,0-0.5,0v0.8c0.1,0,0.2,0,0.4,0V140.7z"/>
	<path id="XMLID_2442_" class="st2" d="M1.1,132.8c0.8,0,1.3,0.3,1.5,0.4l0.3-0.8C2.5,132.2,2,132,1.3,132v-1.2H0.6v1.2
		c-0.2,0-0.3,0.1-0.4,0.1v0.9C0.3,132.9,0.6,132.8,1.1,132.8z"/>
	<rect id="XMLID_2443_" x="4.9" y="131.1" class="st2" width="1.1" height="8.5"/>
	<rect id="XMLID_2444_" x="7.2" y="136" class="st2" width="3" height="0.8"/>
	<polygon id="XMLID_2445_" class="st2" points="11.3,134.1 16.1,136.4 16.1,136.5 11.3,138.8 11.3,139.6 16.9,136.8 16.9,136.1 
		11.3,133.3 	"/>
	<path id="XMLID_2446_" class="st2" d="M20.4,136.3c-0.8-0.3-1.1-0.5-1.1-1c0-0.4,0.3-0.8,1-0.8c0.5,0,1,0.2,1.2,0.3l0.3-0.8
		c-0.3-0.2-0.8-0.4-1.4-0.4c-1.2,0-2,0.8-2,1.7c0,0.7,0.5,1.3,1.5,1.6c0.8,0.3,1.1,0.6,1.1,1.1c0,0.5-0.4,0.9-1.1,0.9
		c-0.5,0-1.1-0.2-1.4-0.4l-0.3,0.8c0.4,0.2,1,0.4,1.6,0.4c1.4,0,2.2-0.7,2.2-1.7C22,137.2,21.5,136.7,20.4,136.3z"/>
	<path id="XMLID_2447_" class="st2" d="M24.6,132.2l-1,0.3v1.4h-0.9v0.8h0.9v3.2c0,0.7,0.1,1.2,0.4,1.5c0.3,0.3,0.6,0.4,1.1,0.4
		c0.4,0,0.7-0.1,0.9-0.1l0-0.8c-0.1,0-0.3,0.1-0.6,0.1c-0.6,0-0.8-0.4-0.8-1.1v-3.1h1.5v-0.8h-1.5V132.2z"/>
	<path id="XMLID_2450_" class="st2" d="M31.4,136.1c0-1.2-0.4-2.4-2.2-2.4c-0.7,0-1.4,0.2-1.9,0.5l0.2,0.7c0.4-0.3,1-0.4,1.5-0.4
		c1.2,0,1.3,0.9,1.3,1.3v0.1c-2.2,0-3.5,0.8-3.5,2.2c0,0.8,0.6,1.7,1.8,1.7c0.8,0,1.5-0.4,1.8-0.9h0l0.1,0.7h1
		c-0.1-0.4-0.1-0.9-0.1-1.4V136.1z M30.4,137.7c0,0.1,0,0.2-0.1,0.3c-0.2,0.5-0.6,1-1.4,1c-0.5,0-1-0.3-1-1c0-1.1,1.3-1.3,2.5-1.3
		V137.7z"/>
	<path id="XMLID_2451_" class="st2" d="M34,135L34,135l-0.1-1.1H33c0,0.5,0,1.1,0,1.8v4h1v-3.1c0-0.2,0-0.3,0-0.5
		c0.1-0.8,0.7-1.4,1.4-1.4c0.1,0,0.3,0,0.4,0v-1c-0.1,0-0.2,0-0.3,0C34.9,133.7,34.3,134.2,34,135z"/>
	<path id="XMLID_2452_" class="st2" d="M38.6,132.2l-1,0.3v1.4h-0.9v0.8h0.9v3.2c0,0.7,0.1,1.2,0.4,1.5c0.3,0.3,0.6,0.4,1.1,0.4
		c0.4,0,0.7-0.1,0.9-0.1l0-0.8c-0.1,0-0.3,0.1-0.6,0.1c-0.6,0-0.8-0.4-0.8-1.1v-3.1h1.5v-0.8h-1.5V132.2z"/>
	<path id="XMLID_2453_" class="st2" d="M43.6,131.3h-0.8c-0.8,1-1.6,2.5-1.6,4.9c0,2.3,0.8,3.8,1.5,4.8h0.8
		c-0.8-1.2-1.4-2.7-1.4-4.8C42,134,42.7,132.5,43.6,131.3z"/>
	<path id="XMLID_2454_" class="st2" d="M44.9,131.3H44c0.9,1.2,1.5,2.7,1.5,4.9c0,2.1-0.6,3.6-1.4,4.8h0.8c0.7-1,1.5-2.5,1.5-4.8
		C46.4,133.8,45.6,132.3,44.9,131.3z"/>
	<path id="XMLID_2455_" class="st2" d="M48.1,138.2c-0.1,0.8-0.4,2-0.7,2.7h0.7c0.3-0.6,0.8-1.9,1.1-2.9L48.1,138.2z"/>
	<path id="XMLID_2456_" class="st2" d="M48.6,134c-0.4,0-0.7,0.3-0.7,0.8c0,0.4,0.3,0.7,0.7,0.7c0.4,0,0.7-0.3,0.7-0.7
		C49.3,134.3,49.1,134,48.6,134z"/>
	<path id="XMLID_2457_" class="st2" d="M56.5,136.7c-0.2,0.7-0.3,1.3-0.4,1.9h0c-0.1-0.6-0.3-1.2-0.5-1.9l-0.9-2.9h-0.9l-0.9,3
		c-0.2,0.6-0.4,1.2-0.5,1.8h0c-0.1-0.6-0.3-1.2-0.4-1.8l-0.8-3h-1.1l1.8,5.8h1l0.9-2.8c0.2-0.6,0.4-1.2,0.5-1.9h0
		c0.1,0.7,0.3,1.3,0.5,1.9l0.9,2.8h1l1.9-5.8h-1L56.5,136.7z"/>
	<path id="XMLID_2458_" class="st2" d="M62.3,133.7c-0.4,0-0.8,0.1-1.1,0.3c-0.3,0.2-0.6,0.4-0.8,0.7h0v-3.6h-1.1v8.5h1.1v-3.5
		c0-0.2,0-0.4,0.1-0.5c0.2-0.6,0.7-1.1,1.4-1.1c1,0,1.3,0.8,1.3,1.7v3.3h1.1v-3.5C64.3,134.2,63.1,133.7,62.3,133.7z"/>
	<path id="XMLID_2459_" class="st2" d="M66.6,131.5c-0.4,0-0.7,0.3-0.7,0.7c0,0.4,0.3,0.6,0.6,0.6c0.4,0,0.7-0.3,0.7-0.6
		C67.2,131.8,67,131.5,66.6,131.5z"/>
	<rect id="XMLID_2460_" x="66.1" y="133.8" class="st2" width="1.1" height="5.8"/>
	<rect id="XMLID_2461_" x="68.9" y="131.1" class="st2" width="1.1" height="8.5"/>
	<path id="XMLID_2464_" class="st2" d="M74,133.7c-1.7,0-2.7,1.4-2.7,3.1c0,1.8,1.1,2.9,2.9,2.9c0.9,0,1.6-0.2,1.9-0.4l-0.2-0.8
		c-0.4,0.2-0.9,0.3-1.6,0.3c-1.1,0-2-0.6-2-2h4.1c0-0.1,0-0.3,0-0.5C76.4,135.4,75.9,133.7,74,133.7z M72.3,136.2
		c0.1-0.7,0.6-1.7,1.6-1.7c1.2,0,1.5,1,1.5,1.7H72.3z"/>
	<path id="XMLID_2465_" class="st2" d="M80,131.3h-0.8c-0.8,1-1.6,2.5-1.6,4.9c0,2.3,0.8,3.8,1.5,4.8h0.8c-0.8-1.2-1.4-2.7-1.4-4.8
		C78.5,134,79.1,132.5,80,131.3z"/>
	<path id="XMLID_2466_" class="st2" d="M83.7,135.2c-1-0.4-1.5-0.7-1.5-1.4c0-0.5,0.3-1,1.3-1c0.8,0,1.3,0.3,1.5,0.4l0.3-0.8
		c-0.3-0.2-0.8-0.4-1.6-0.4v-1.2h-0.7v1.2c-1.1,0.2-1.8,0.9-1.8,1.9c0,1,0.8,1.6,2,2.1c0.9,0.4,1.4,0.8,1.4,1.4
		c0,0.7-0.6,1.2-1.4,1.2c-0.7,0-1.3-0.2-1.7-0.5l-0.3,0.8c0.4,0.3,1.1,0.5,1.8,0.5v1.2h0.8v-1.2c1.2-0.2,1.9-1.1,1.9-2
		C85.5,136.3,84.9,135.7,83.7,135.2z"/>
	<path id="XMLID_2469_" class="st2" d="M89.6,133.7c-1.7,0-2.7,1.4-2.7,3.1c0,1.8,1.1,2.9,2.9,2.9c0.9,0,1.6-0.2,1.9-0.4l-0.2-0.8
		c-0.4,0.2-0.9,0.3-1.6,0.3c-1.1,0-2-0.6-2-2h4.1c0-0.1,0-0.3,0-0.5C92,135.4,91.5,133.7,89.6,133.7z M87.9,136.2
		c0.1-0.7,0.6-1.7,1.6-1.7c1.2,0,1.5,1,1.5,1.7H87.9z"/>
	<rect id="XMLID_2470_" x="93.3" y="131.1" class="st2" width="1.1" height="8.5"/>
	<rect id="XMLID_2471_" x="95.7" y="134.9" class="st2" width="6.2" height="0.7"/>
	<rect id="XMLID_2472_" x="95.7" y="137.2" class="st2" width="6.2" height="0.7"/>
	<path id="XMLID_2473_" class="st2" d="M105.8,135.2c-1-0.4-1.5-0.7-1.5-1.4c0-0.5,0.3-1,1.3-1c0.8,0,1.3,0.3,1.5,0.4l0.3-0.8
		c-0.3-0.2-0.8-0.4-1.6-0.4v-1.2h-0.7v1.2c-1.1,0.2-1.8,0.9-1.8,1.9c0,1,0.8,1.6,2,2.1c0.9,0.4,1.4,0.8,1.4,1.4
		c0,0.7-0.6,1.2-1.4,1.2c-0.7,0-1.3-0.2-1.7-0.5l-0.3,0.8c0.4,0.3,1.1,0.5,1.8,0.5v1.2h0.8v-1.2c1.2-0.2,1.9-1.1,1.9-2
		C107.7,136.3,107,135.7,105.8,135.2z"/>
	<rect id="XMLID_2474_" x="109.4" y="131.1" class="st2" width="1.1" height="8.5"/>
	<rect id="XMLID_2475_" x="111.7" y="136" class="st2" width="3" height="0.8"/>
	<polygon id="XMLID_2476_" class="st2" points="115.9,134.1 120.6,136.4 120.6,136.5 115.9,138.8 115.9,139.6 121.4,136.8 
		121.4,136.1 115.9,133.3 	"/>
	<path id="XMLID_2479_" class="st2" d="M126.6,135.8L126.6,135.8c0.9-0.3,1.5-1,1.5-2.1c0-0.6-0.2-1.2-0.6-1.5
		c-0.5-0.5-1.2-0.7-2.3-0.7c-0.7,0-1.5,0.1-2,0.2v8h1v-3.5h1c0.9,0,1.4,0.5,1.6,1.6c0.2,1,0.4,1.7,0.5,1.9h1.1
		c-0.2-0.3-0.4-1.1-0.6-2.2C127.6,136.6,127.2,136,126.6,135.8z M125.2,135.3h-1.1v-3c0.2,0,0.5-0.1,1-0.1c1.1,0,1.9,0.5,1.9,1.5
		C127.1,134.7,126.4,135.3,125.2,135.3z"/>
	<path id="XMLID_2482_" class="st2" d="M131.9,133.7c-1.7,0-2.7,1.4-2.7,3.1c0,1.8,1.1,2.9,2.9,2.9c0.9,0,1.6-0.2,1.9-0.4l-0.2-0.8
		c-0.4,0.2-0.9,0.3-1.6,0.3c-1.1,0-2-0.6-2-2h4.1c0-0.1,0-0.3,0-0.5C134.3,135.4,133.8,133.7,131.9,133.7z M130.2,136.2
		c0.1-0.7,0.6-1.7,1.6-1.7c1.2,0,1.5,1,1.5,1.7H130.2z"/>
	<path id="XMLID_2485_" class="st2" d="M139.7,136.1c0-1.2-0.4-2.4-2.2-2.4c-0.7,0-1.4,0.2-1.9,0.5l0.2,0.7c0.4-0.3,1-0.4,1.5-0.4
		c1.2,0,1.3,0.9,1.3,1.3v0.1c-2.2,0-3.5,0.8-3.5,2.2c0,0.8,0.6,1.7,1.8,1.7c0.8,0,1.5-0.4,1.8-0.9h0l0.1,0.7h1
		c-0.1-0.4-0.1-0.9-0.1-1.4V136.1z M138.7,137.7c0,0.1,0,0.2-0.1,0.3c-0.2,0.5-0.6,1-1.4,1c-0.5,0-1-0.3-1-1c0-1.1,1.3-1.3,2.5-1.3
		V137.7z"/>
	<path id="XMLID_2488_" class="st2" d="M146.4,131.1h-1.1v3.5h0c-0.3-0.5-0.9-0.9-1.8-0.9c-1.4,0-2.6,1.2-2.6,3.1c0,1.8,1.1,3,2.5,3
		c0.9,0,1.7-0.5,2-1.1h0l0,1h0.9c0-0.4,0-1,0-1.5V131.1z M145.4,137.2c0,0.2,0,0.3,0,0.5c-0.2,0.8-0.8,1.3-1.5,1.3
		c-1.1,0-1.7-1-1.7-2.1c0-1.3,0.6-2.2,1.7-2.2c0.8,0,1.4,0.6,1.5,1.2c0,0.1,0,0.3,0,0.4V137.2z"/>
	<path id="XMLID_2489_" class="st2" d="M150.5,131.3h-0.8c-0.8,1-1.6,2.5-1.6,4.9c0,2.3,0.8,3.8,1.5,4.8h0.8
		c-0.8-1.2-1.4-2.7-1.4-4.8C148.9,134,149.6,132.5,150.5,131.3z"/>
	<path id="XMLID_2490_" class="st2" d="M151.8,131.3h-0.8c0.9,1.2,1.5,2.7,1.5,4.9c0,2.1-0.6,3.6-1.4,4.8h0.8c0.7-1,1.5-2.5,1.5-4.8
		C153.3,133.8,152.5,132.3,151.8,131.3z"/>
	<path id="XMLID_2491_" class="st2" d="M155.2,131.3h-0.8c0.9,1.2,1.5,2.7,1.5,4.9c0,2.1-0.6,3.6-1.4,4.8h0.8c0.7-1,1.5-2.5,1.5-4.8
		C156.7,133.8,155.9,132.3,155.2,131.3z"/>
	<path id="XMLID_2492_" class="st2" d="M160.4,140.3c-0.7,0-0.9-0.4-0.9-1c0-0.3,0-0.6,0.1-0.9c0-0.3,0.1-0.6,0.1-0.9
		c0-0.8-0.3-1.2-0.9-1.3v0c0.5-0.1,0.9-0.5,0.9-1.3c0-0.3,0-0.6-0.1-0.9c0-0.3-0.1-0.6-0.1-0.9c0-0.6,0.2-1,0.9-1h0.2v-0.7h-0.3
		c-1,0-1.7,0.5-1.7,1.6c0,0.3,0,0.7,0.1,1c0,0.3,0.1,0.7,0.1,1c0,0.4-0.1,0.9-1,0.9v0.6c0.9,0,1,0.5,1,0.9c0,0.3,0,0.6-0.1,1
		c0,0.3-0.1,0.7-0.1,1c0,1.2,0.7,1.6,1.7,1.6h0.3v-0.7H160.4z"/>
	<path id="XMLID_2495_" class="st2" d="M164.1,133.7c-1.7,0-2.7,1.4-2.7,3.1c0,1.8,1.1,2.9,2.9,2.9c0.9,0,1.6-0.2,1.9-0.4l-0.2-0.8
		c-0.4,0.2-0.9,0.3-1.6,0.3c-1.1,0-2-0.6-2-2h4.1c0-0.1,0-0.3,0-0.5C166.5,135.4,166,133.7,164.1,133.7z M162.4,136.2
		c0.1-0.7,0.6-1.7,1.6-1.7c1.2,0,1.5,1,1.5,1.7H162.4z"/>
	<path id="XMLID_2496_" class="st2" d="M170.5,134.6c0.6,0,1,0.1,1.2,0.3l0.2-0.8c-0.3-0.1-0.8-0.3-1.5-0.3c-1.9,0-3.1,1.3-3.1,3.1
		c0,1.8,1.1,3,2.9,3c0.8,0,1.4-0.2,1.7-0.3l-0.2-0.8c-0.3,0.1-0.7,0.3-1.3,0.3c-1.2,0-2-0.8-2-2.2
		C168.5,135.5,169.2,134.6,170.5,134.6z"/>
	<path id="XMLID_2497_" class="st2" d="M176.1,133.7c-0.4,0-0.8,0.1-1.1,0.3c-0.3,0.2-0.6,0.4-0.8,0.7h0v-3.6h-1.1v8.5h1.1v-3.5
		c0-0.2,0-0.4,0.1-0.5c0.2-0.6,0.7-1.1,1.4-1.1c1,0,1.3,0.8,1.3,1.7v3.3h1.1v-3.5C178.1,134.2,176.9,133.7,176.1,133.7z"/>
	<path id="XMLID_2500_" class="st2" d="M182.3,133.7c-1.6,0-2.9,1.1-2.9,3.1c0,1.8,1.2,3,2.8,3c1.4,0,2.9-0.9,2.9-3.1
		C185.1,134.9,184,133.7,182.3,133.7z M182.3,139c-1,0-1.8-1-1.8-2.2c0-1.1,0.5-2.3,1.8-2.3c1.2,0,1.7,1.2,1.7,2.2
		C184,138,183.3,139,182.3,139z"/>
</g>
<g id="XMLID_365_">
	<ellipse id="XMLID_388_" class="st3" cx="110.1" cy="71.3" rx="77.2" ry="67"/>
	<g id="XMLID_372_">
		<path id="XMLID_385_" class="st4" d="M159.7,49.9l-96,1.7c-6,4.6-9.8,11.8-9.8,19.9v12.1l15.8,15.2h44l0.9-23l8.9,23h33.3
			l16.8-16.1v-9C173.6,63.4,168,54.5,159.7,49.9z"/>
		<polygon id="XMLID_380_" class="st5" points="113.7,98.7 123.5,98.7 114.7,75.7 		"/>
		<path id="XMLID_378_" class="st5" d="M173.6,84.8v-2.2l-16.8,16.1h2.9C167.3,98.7,173.6,92.5,173.6,84.8z"/>
		<path id="XMLID_376_" class="st5" d="M53.9,86.7c0,6.6,5.4,12,12,12h3.8L53.9,83.5V86.7z"/>
		<path id="XMLID_374_" class="st5" d="M146.3,46.3H99.6C84.5,46.8,76,47,71,47.7c-2.7,0.9-5.1,2.2-7.3,3.9l96-1.7
			C155.7,47.6,151.2,46.3,146.3,46.3z"/>
	</g>
	<path id="XMLID_371_" class="st6" d="M52.9,88.6c-0.2-10.2-0.5-28.6,5.8-40.1s25.2-16.4,25.2-16.4s-26.3-1.7-30,17.3
		c0,0-5.7,21-3.3,34.3C51.6,86.8,52.9,88.6,52.9,88.6z"/>
	<path id="XMLID_370_" class="st6" d="M173.8,89.7c0.2-10.2,0.5-28.6-5.8-40.1c-6.3-11.4-25.2-16.4-25.2-16.4s26.3-1.7,30,17.3
		c0,0,5.7,21,3.3,34.3C175.1,87.9,173.8,89.7,173.8,89.7z"/>
	<path id="XMLID_369_" class="st3" d="M22,26.3c-0.1-2,3.2-8.6,7-9.6s11.8-1.5,21,3.5s6,5.8,6,5.8l-7.8,7c0,0-1-4.3-7.8-5
		s-13.1,1.9-15.6,0.8S22,26.3,22,26.3z"/>
	<path id="XMLID_368_" class="st6" d="M50.2,20.4c0.7,0.4,5.6,3.3,5.3,3.6s-7.6,7.9-7.7,7.9c-0.4-0.8-3.9-3.3-5.2-3.5
		C43.5,27.5,50.2,20.4,50.2,20.4z"/>
	<path id="XMLID_367_" class="st3" d="M45.9,34.1c0,0-13.9-3.2-21.9,0.2S3.8,42.2,2.8,45.4c-1,3.2-1.7,8.3,2,9
		c3.7,0.7,8.9-1.5,9.5-2.8c0.6-1.3,7.5-9.4,12-10.3s6-2.3,11-2.6c5-0.3,6.8,3.3,6.8,3.3l3.8-4.3C47.9,37.8,48,34.2,45.9,34.1z"/>
	<path id="XMLID_366_" class="st6" d="M37.4,32.9c1.8-0.1,3.2,0.1,4.2,0.3c1.1,0.2,2.7,0.7,2.7,0.7s-3.5,5-3.8,5.3
		c-0.3-0.4-6-0.6-7.1,0.1C35.1,37.4,37.4,32.9,37.4,32.9z"/>
</g>
<polygon id="XMLID_48_" class="st3" points="78,63.9 96.9,68.2 96.9,66.2 78,58.1 "/>
<polygon id="XMLID_47_" class="st3" points="148.9,58.7 130.6,66.6 130.6,69.3 148.9,64.4 "/>
<path id="XMLID_46_" class="st3" d="M78,78.8c0,4.1,4.2,7.5,9.4,7.5s9.4-3.4,9.4-7.5c0-1.5-0.6-3-1.6-4.2H79.6
	C78.6,75.8,78,77.3,78,78.8z"/>
<path id="XMLID_45_" class="st3" d="M130.6,77.8c0,4.1,4.2,7.5,9.4,7.5s9.4-3.4,9.4-7.5c0-1.5-0.6-3-1.6-4.2h-15.7
	C131.2,74.8,130.6,76.3,130.6,77.8z"/>
<path id="XMLID_44_" class="st5" d="M88.4,70.4c-0.3,0-0.7-0.1-1-0.1s-0.7,0-1,0.1c-3.5,0.3-6.6,1.9-8.5,4.3h1.6h15.7h1.6
	C95,72.3,91.9,70.6,88.4,70.4z"/>
<path id="XMLID_43_" class="st5" d="M141,69.4c-0.3,0-0.7-0.1-1-0.1s-0.7,0-1,0.1c-3.5,0.3-6.6,1.9-8.5,4.3h1.6h15.7h1.6
	C147.6,71.3,144.6,69.6,141,69.4z"/>
<path id="XMLID_4_" class="st2" d="M57.9,14.3L45.5,58.9c-2.7,9.8,2,20.1,11.2,24.4l0,0c1.2,0.6,2.5,0.6,3.7,0.1l0,0
	c9-3.7,13.8-13.7,11-23.1L57.9,14.3z"/>
<path id="XMLID_3_" class="st7" d="M36.6,67l-8.3,29.5c-1.8,6.5,1.3,13.3,7.4,16.2l0,0c0.8,0.4,1.7,0.4,2.5,0.1h0
	c6-2.5,9.1-9.1,7.3-15.3L36.6,67z"/>
<path id="XMLID_2_" class="st7" d="M60.4,95.3L54,118.1c-1.4,5,1,10.2,5.7,12.4h0c0.6,0.3,1.3,0.3,1.9,0l0,0c4.6-1.9,7-7,5.6-11.7
	L60.4,95.3z"/>
</svg>
