<?xml version="1.0" encoding="utf-8"?>
<!-- Generator: Adobe Illustrator 19.0.0, SVG Export Plug-In . SVG Version: 6.00 Build 0)  -->
<svg version="1.1" id="Calque_1" xmlns="http://www.w3.org/2000/svg" xmlns:xlink="http://www.w3.org/1999/xlink" x="0px" y="0px"
	 viewBox="0 0 26.4 33" style="enable-background:new 0 0 26.4 33;" xml:space="preserve">
<style type="text/css">
	.st0{fill:#E62530;}
</style>
<g id="XMLID_41_">
	<path id="XMLID_48_" class="st0" d="M20.3,33c-1.5,0-2.9-0.2-4.2-0.6c-1.8-0.5-3.4-1.5-5.1-2.9c-1.2-1-2.3-2.3-3.5-3.9
		c-1.3-1.7-3-3.9-4.4-6.3C2,17.4,1.2,15.7,0.7,14c-0.3-1.2-0.5-2.5-0.6-3.8C0,8.9-0.1,7.6,0.2,6.4C0.4,5,1,3.8,2,2.8
		c0,0,0.1-0.1,0.1-0.1c0,0,0,0,0.1,0l0.4-0.4L3,3c0.2,0.3,0.3,0.5,0.5,0.8l0.9,1.4c1.2,1.8,2.3,3.5,3.5,5.3c0.1,0.2,0.2,0.5,0.1,0.7
		c-0.3,0.9-0.3,1.6-0.1,2.3c0.1,0.4,0.3,0.8,0.6,1.3c0.6,0.9,1.1,1.8,1.7,2.5c1.2,1.8,2.5,3.7,3.8,5.6c0.1,0.1,0.2,0.2,0.4,0.3
		l0.1,0.1c0.6,0.4,1.3,0.6,2,0.8l0.1,0c0.2,0.1,0.4,0.2,0.7,0.5c1.4,2,2.7,4.1,4.1,6l1.1,1.6c0,0,0,0.1,0.1,0.1l0,0.1l0.4,0.6
		l-0.7,0.1c-0.1,0-0.2,0-0.3,0c-0.2,0-0.4,0-0.6,0C20.9,33,20.6,33,20.3,33z M2.4,3.6C1.7,4.4,1.2,5.4,1,6.5
		c-0.2,1.2-0.2,2.4-0.1,3.5c0.1,1.3,0.3,2.5,0.6,3.7C2,15.4,2.7,17,3.8,18.9c1.4,2.4,3,4.6,4.3,6.2c1.2,1.6,2.3,2.7,3.4,3.7
		c1.5,1.4,3.1,2.3,4.7,2.7c1.5,0.4,3.1,0.6,5,0.5c0.1,0,0.1,0,0.2,0l-0.8-1.2c-1.3-2-2.7-4-4.1-6c0-0.1-0.1-0.1-0.2-0.1l-0.1,0
		c-0.8-0.2-1.5-0.4-2.3-0.9l-0.1-0.1c-0.2-0.1-0.5-0.3-0.7-0.6c-1.3-1.9-2.6-3.8-3.8-5.6C9,17,8.4,16.1,7.8,15.2
		c-0.3-0.5-0.6-1-0.7-1.4c-0.4-1.1-0.1-2.1,0.1-2.8C6,9.2,4.9,7.4,3.7,5.7L2.8,4.2C2.7,4,2.5,3.8,2.4,3.6z"/>
	<path id="XMLID_45_" class="st0" d="M9.2,10.8c-0.4,0-0.9-0.2-1.1-0.7C7.3,9,6.6,7.9,5.9,6.8L4.2,4.3C4,3.9,3.7,3.5,3.5,3.1
		C3.2,2.7,3.2,2.4,3.2,2c0.1-0.4,0.3-0.7,0.7-0.9C4.1,1,4.3,0.9,4.5,0.7C4.7,0.6,5,0.4,5.2,0.2C5.9-0.2,6.7,0,7.2,0.7l0.1,0.2
		c1.5,2.2,3,4.6,4.4,6.8c0.1,0.2,0.2,0.3,0.2,0.4c0,0,0,0,0,0.1l0,0.1l0,0.1c0,0.5-0.2,0.9-0.6,1.2c-0.5,0.3-1,0.7-1.5,1
		C9.6,10.7,9.4,10.8,9.2,10.8z M6,0.9c-0.1,0-0.2,0-0.3,0.1C5.5,1.1,5.2,1.3,5,1.5C4.8,1.6,4.6,1.7,4.4,1.8C4.2,2,4.1,2.1,4.1,2.2
		c0,0.1,0,0.3,0.1,0.5C4.5,3,4.7,3.4,5,3.8l1.7,2.6C7.3,7.5,8,8.5,8.7,9.6C8.8,9.8,9.1,10,9.4,9.8c0.5-0.3,1-0.7,1.5-1
		c0.1-0.1,0.2-0.1,0.2-0.4c0,0,0,0,0,0c0-0.1-0.1-0.2-0.1-0.2C9.5,5.9,8,3.6,6.6,1.4L6.4,1.1C6.3,0.9,6.2,0.9,6,0.9z"/>
	<path id="XMLID_42_" class="st0" d="M23.6,32.6c-0.4,0-0.8-0.2-1.1-0.7c-0.8-1.2-1.6-2.4-2.4-3.7l-1-1.6c-0.1-0.2-0.2-0.3-0.3-0.5
		c-0.3-0.4-0.6-0.9-0.8-1.3c-0.1-0.2-0.2-0.3-0.2-0.4c0,0,0-0.1,0-0.1l0-0.1l0-0.1c0-0.4,0.1-0.9,0.6-1.2c0.6-0.4,1.1-0.7,1.6-1
		c0.6-0.4,1.4-0.2,1.8,0.5c0.4,0.6,0.8,1.3,1.3,1.9l1.3,2c0.7,1,1.3,2,2,3c0.5,0.7,0.3,1.5-0.4,2c-0.4,0.2-0.7,0.5-1.1,0.7l-0.3,0.2
		C24.1,32.5,23.8,32.6,23.6,32.6z M18.5,24.2C18.5,24.2,18.5,24.2,18.5,24.2c0,0.1,0.1,0.2,0.1,0.3c0.3,0.4,0.5,0.9,0.8,1.3
		c0.1,0.2,0.2,0.3,0.3,0.5l1,1.6c0.8,1.2,1.6,2.4,2.4,3.7c0.2,0.3,0.4,0.4,0.8,0.2l0.3-0.2c0.3-0.2,0.7-0.5,1-0.7
		c0.3-0.2,0.4-0.4,0.1-0.8c-0.7-1-1.3-2-2-3l-1.3-2c-0.4-0.6-0.8-1.3-1.3-1.9c-0.2-0.2-0.4-0.3-0.6-0.2c-0.5,0.3-1,0.6-1.6,1
		C18.6,23.8,18.5,23.9,18.5,24.2z"/>
</g>
</svg>
