<?xml version="1.0" encoding="utf-8"?>
<!-- Generator: Adobe Illustrator 19.0.0, SVG Export Plug-In . SVG Version: 6.00 Build 0)  -->
<svg version="1.1" id="Calque_1" xmlns="http://www.w3.org/2000/svg" xmlns:xlink="http://www.w3.org/1999/xlink" x="0px" y="0px"
	 viewBox="0 0 51 59.5" style="enable-background:new 0 0 51 59.5;" xml:space="preserve">
<style type="text/css">
	.st0{fill-rule:evenodd;clip-rule:evenodd;fill:#FFFFFF;}
	.st1{fill-rule:evenodd;clip-rule:evenodd;fill:#E30613;stroke:#E30613;stroke-miterlimit:10;}
</style>
<g id="XMLID_64_">
	<g id="XMLID_72_">
		<path id="XMLID_73_" class="st0" d="M41.5,33.4h-10v-4.4c0-0.2-0.2-0.4-0.4-0.4H16.9c-0.2,0-0.4,0.2-0.4,0.4v4.4h-10
			c-0.6,0-1,0.6-1,1v22.4c0,0.6,0.4,1,1,1h1.9v1.5l0,0h2.5h0.2v-1.5h25.6v1.5l0,0h2.5h0.2v-1.5h2.1c0.6,0,1-0.4,1-1V34.5
			C42.5,34.1,42,33.4,41.5,33.4L41.5,33.4z M30,33.4h-12v-3.3c0,0,0-0.2,0.2-0.2h11.7c0.2,0,0.2,0.2,0.2,0.2V33.4z"/>
	</g>
	<path id="XMLID_70_" class="st1" d="M42.9,37c-4.4,0-8.1,3.7-8.1,8.1c0,4.6,3.7,8.1,8.1,8.1c4.6,0,8.1-3.5,8.1-8.1
		C51,40.7,47.5,37,42.9,37z"/>
	<path id="XMLID_67_" class="st0" d="M42.9,37c-4.4,0-8.1,3.7-8.1,8.1c0,4.6,3.7,8.1,8.1,8.1c4.6,0,8.1-3.5,8.1-8.1
		C51,40.7,47.5,37,42.9,37z M42.3,48.2l-1.5,1.5l-1.2-1.5l-2.1-2.1l1.3-1.2l2.1,2.1l6.2-6.2l1.5,1.2L42.3,48.2z"/>
</g>
</svg>
