<?xml version="1.0" encoding="utf-8"?>
<!-- Generator: Adobe Illustrator 19.0.0, SVG Export Plug-In . SVG Version: 6.00 Build 0)  -->
<svg version="1.1" id="Calque_1" xmlns="http://www.w3.org/2000/svg" xmlns:xlink="http://www.w3.org/1999/xlink" x="0px" y="0px"
	 viewBox="0 0 487.7 512.7" style="enable-background:new 0 0 487.7 512.7;" xml:space="preserve">
<style type="text/css">
	.st0{fill:#1C1F24;}
	.st1{fill:none;}
	.st2{fill:#EAC59B;}
	.st3{fill:#EAC599;}
	.st4{fill:#E41E32;}
	.st5{fill:#32323C;}
	.st6{fill:#B71A32;}
	.st7{fill:#31323C;}
	.st8{opacity:0.65;fill:#DCAD7F;}
	.st9{fill:#ECC397;}
	.st10{fill:#52484D;}
	.st11{fill:#31313A;}
	.st12{opacity:0.6;fill:#C79969;}
	.st13{opacity:0.37;fill:#DDAD7C;}
	.st14{opacity:0.41;fill:#C79969;}
	.st15{opacity:0.41;fill:#DDAD7C;}
	.st16{fill:#1C1D24;}
	.st17{fill:#1E1C26;}
</style>
<g id="XMLID_1_">
	<path id="XMLID_91_" class="st0" d="M316.3,84.8c0,0-3-3.3-10.3-3.8c-0.2,0-0.5,0-0.7,0c-0.3,0-0.7,0-1.1,0
		c0.6-0.1,10.5-1.1,11.2,1.5c0.1,0.2,0.1,0.3,0.2,0.5c0.2,0.3,0.3,0.6,0.4,0.9C316,83.9,316.3,84.8,316.3,84.8z"/>
	<path id="XMLID_30_" class="st1" d="M214.1,359.3c0.3,0,0.7,0,1,0c9.9,0.3,19.8-2.4,28.2-5.8c-7.9,2.9-17.7,5.3-28.9,5.7
		C214.3,359.3,214.2,359.3,214.1,359.3z"/>
	<path id="XMLID_33_" class="st1" d="M64.8,320.9l35.7,12.1C89,328.3,64.8,320.9,64.8,320.9z"/>
	<path id="XMLID_31_" class="st1" d="M141.9,327.7c0.1,2.5,0,5.2-0.2,7.8c-0.1,0.7-0.1,1.4-0.2,2.1v0.1l-1.2,9.5
		c-15.6-0.4-30.6,3.1-39.7,5.8c-0.1-3.8-0.1-19.9-0.1-19.9c0-15.5,20.2-21.6,34.4-18.9c0.3,0,0.7,0.1,1,0.1c0.6,0.1,1.2,0.4,1.7,0.7
		c0.2,0.1,0.4,0.3,0.6,0.4c0.1,0,0.1,0.1,0.2,0.1c0.9,0.8,1.6,1.9,2.2,3.3c0.2,0.6,0.4,1.3,0.6,2c0,0.1,0,0.2,0.1,0.3
		c0.1,0.4,0.2,0.8,0.3,1.2c0.1,0.4,0.1,0.8,0.2,1.3c0.1,0.5,0.1,1,0.2,1.5c0,0.4,0.1,0.8,0.1,1.3
		C141.9,326.8,141.9,327.3,141.9,327.7z"/>
	<path id="XMLID_35_" class="st1" d="M140.3,347.2c5.1,4.3,20.9,7.5,38.4,9.6c-2.2-0.4-4.4-0.9-6.7-1.4
		C159.7,353.5,147.3,350.9,140.3,347.2z"/>
	<path id="XMLID_36_" class="st2" d="M91.7,356c0,0,3.4-1.3,8.9-3c-0.1-3.8-0.1-19.9-0.1-19.9c-10.2-6.4-22.4-10.1-35.7-12.1
		c-9.4,18.9-17.2,25.6-12.3,27.6c4.9,2,10.3-2,7.6,0c-2.7,2,1.2,31.1,2.7,29.1c0,0,0.1-0.1,0.1-0.1C71.4,366.2,83.2,358.2,91.7,356z
		"/>
	<path id="XMLID_39_" class="st3" d="M326.3,97.8c-3.6-7.4-6.8-11.5-10.3-13.9c0,0-0.1,0-0.1-0.1c-0.5-0.3-0.7-0.4-0.7-0.4
		s-2-1.9-9.2-2.4c-0.2,0-0.5,0-0.7,0c-0.3,0-0.7,0-1.1,0h0c-1,0-2.1,0-3.2,0H145.7c-3.2,0-6.3,0.3-9.3,0.8c-4.9,0.9-9.6,2.4-14,4.5
		c-0.3,0.1-0.7,0.3-1,0.5h0c-0.2,0.1-0.3,0.2-0.5,0.3c-0.2,0.1-0.3,0.2-0.5,0.2c-0.2,0.1-0.3,0.2-0.5,0.2c-0.2,0.1-0.3,0.2-0.5,0.3
		c-0.1,0-0.1,0.1-0.2,0.1c-0.1,0-0.1,0.1-0.2,0.1c-0.2,0.1-0.4,0.2-0.6,0.4c-0.3,0.2-0.6,0.3-0.8,0.5c-0.2,0.1-0.3,0.2-0.5,0.3
		c-1.1,0.7-2.2,1.4-3.2,2.2h0c-0.4,0.3-0.7,0.6-1.1,0.9c-0.2,0.1-0.4,0.3-0.6,0.5l17.4-8.5h179.8l9.1,5.2L112,92.8h0
		c-0.4,0.3-0.8,0.6-1.2,1c-0.4,0.3-0.7,0.6-1.1,1c-0.2,0.1-0.3,0.3-0.5,0.5c0,0,0,0-0.1,0c-0.4,0.4-0.8,0.8-1.2,1.2
		c-0.2,0.2-0.3,0.3-0.5,0.5c-0.1,0.1-0.2,0.2-0.3,0.3c-0.1,0.1-0.2,0.2-0.3,0.3c-0.1,0.1-0.3,0.3-0.4,0.4c-0.2,0.2-0.4,0.4-0.6,0.7
		c-0.3,0.3-0.5,0.6-0.8,0.9c-0.1,0.1-0.2,0.3-0.3,0.4c-0.2,0.2-0.4,0.4-0.6,0.7c-0.1,0.1-0.2,0.2-0.2,0.3c-0.1,0.1-0.2,0.2-0.3,0.3
		c0,0,0,0,0,0c0,0.1-0.1,0.1-0.1,0.2c-0.2,0.2-0.4,0.5-0.5,0.7c-0.3,0.3-0.5,0.6-0.7,1c-0.2,0.3-0.5,0.6-0.7,1
		c-0.1,0.1-0.1,0.2-0.2,0.3c-0.2,0.3-0.4,0.6-0.6,0.9c-0.1,0.1-0.2,0.3-0.3,0.4c-0.1,0.1-0.2,0.3-0.3,0.4c-0.1,0.1-0.2,0.3-0.3,0.4
		c0,0-0.1,0.1-0.1,0.1c-0.4,0.6-0.8,1.3-1.2,1.9v0c-0.2,0.3-0.4,0.6-0.5,1c-0.2,0.3-0.3,0.7-0.5,1c-0.3,0.6-0.7,1.3-1,2v0
		c-0.2,0.4-0.4,0.9-0.6,1.4c0,0,0,0,0,0c-0.1,0.2-0.2,0.5-0.3,0.7c-0.1,0.2-0.2,0.5-0.3,0.7c0,0,0,0,0,0c-0.1,0.3-0.2,0.6-0.3,0.9
		c0,0.1-0.1,0.1-0.1,0.2c0,0.1,0,0.1-0.1,0.2v0c-0.1,0.3-0.3,0.7-0.4,1.1c0,0,0,0.1-0.1,0.1c0,0.1,0,0.1-0.1,0.2
		c-0.1,0.2-0.1,0.3-0.2,0.5c0,0,0,0,0,0.1c-0.1,0.3-0.2,0.7-0.3,1.1c-0.1,0.4-0.2,0.7-0.3,1.1c0,0.1,0,0.1-0.1,0.2c0,0,0,0.1,0,0.1
		c0,0,0,0,0,0c-0.1,0.5-0.2,1-0.3,1.5c-0.1,0.6-0.3,1.2-0.4,1.8c-0.1,0.3-0.1,0.6-0.2,1v0.1c0,0.1-0.1,0.3-0.1,0.4v0.1
		c0,0.1,0,0.2-0.1,0.3c0,0.2-0.1,0.5-0.1,0.7c0,0.2-0.1,0.3-0.1,0.5v0.1c0,0.1,0,0.2,0,0.3c0,0,0,0,0,0c0,0,0,0,0,0v0.1c0,0,0,0,0,0
		v0.1c0,0.3-0.1,0.5-0.1,0.8v0.1c0,0,0,0.1,0,0.1c0,0,0,0,0,0c0,0.1,0,0.1,0,0.2v0.1l0,0c0,0.2,0,0.4-0.1,0.6v0.2
		c0,0.4-0.1,0.8-0.1,1.2c0,0.2,0,0.5,0,0.7c0,0.2,0,0.4,0,0.6c0,0.2,0,0.3,0,0.5c0,0.1,0,0.2,0,0.2v0.4c0,0.2,0,0.4,0,0.6
		c0,0,0,0,0,0v18l33.3,33.8h113.6l6.7-42.5l14.2,42.5h43.2c2.6,0,4.9,0,7-0.3c0.2,0,0.4-0.1,0.7-0.1c0.4-0.1,0.9-0.2,1.3-0.3
		c0.4-0.1,0.8-0.3,1.3-0.4l1.2-0.6c0.2-0.1,0.3-0.2,0.5-0.3c0,0,0,0,0.1,0v0h0c1.7-1,3.3-2.5,4.9-4.8c1.7-2.3,3.3-5.3,5.1-9.3
		C332.8,145.4,331.2,107.9,326.3,97.8z M163.6,102.5l38,18.9v4.7l-38-11.8V102.5z M163.6,140.3h38c0,8.6-8.5,15.5-19,15.5
		C172.1,155.8,163.6,148.8,163.6,140.3z M192.8,169.4l18.2-18.4C207.7,157.1,196.2,172.3,192.8,169.4z M267,155.8l16.8,9.1
		C283.8,164.9,273.7,163.9,267,155.8z M290.3,155.8c-10.5,0-19-6.9-19-15.5h38C309.2,148.8,300.7,155.8,290.3,155.8z M310.8,114.3
		l-41.1,11.8V120l41.1-17.5V114.3z"/>
	<path id="XMLID_61_" class="st4" d="M45.2,271.7c-12.1,0.7-12.1-16.2-13.5-51.8c-0.6-15,2.3-24.7,5.9-30.8c0.6,1.6,1.2,3.1,1.9,4.5
		c0.1,0.1,0.1,0.2,0.1,0.3c2.4,6.7,8.3,13,9.8,13c0,0,0,0,0,0c-0.6,5.4-0.2,11.1-0.9,15.6c-1.3,8.8,9.4,27.6,14.8,33
		C68.8,260.9,57.4,271,45.2,271.7z"/>
	<path id="XMLID_70_" class="st5" d="M316.5,184c0.2,0,0.3,0,0.5,0c0.7,0,1.6,0.1,2.5,0.1C318.6,184.1,317.6,184.1,316.5,184z
		 M314.8,184L314.8,184C314.8,184,314.8,184,314.8,184L314.8,184z M249.5,250.1c1.5,2-125.7,4.6-130.9,2.4c-0.2,0.2-0.5,0.3-0.8,0.5
		c0.2,0.1,0.4,0.1,0.5,0.2c5.2,2.1,10.6,4,16.2,5.6c1.8,0.5,3.8,1,5.9,1.6c12.3,3,25.3,4.6,38.6,4.6c9.6,0,27.1-0.1,28,0
		c5.1,0.6,24.3-3.8,44.6-10.6c0,0,0,0,0,0c0.9-0.3,1.9-0.6,2.8-1C253.5,253.7,250.4,249.7,249.5,250.1z M120.4,87.3
		c0.2-0.1,0.3-0.2,0.5-0.2c0.2-0.1,0.3-0.2,0.5-0.3C121,86.9,120.7,87.1,120.4,87.3z M95,116.5c0-0.1,0.1-0.2,0.1-0.2
		c0.1-0.3,0.2-0.6,0.3-0.9C95.3,115.7,95.1,116.1,95,116.5z M96,113.9C96,113.9,96,113.9,96,113.9c-0.1,0.3-0.2,0.5-0.3,0.7
		c0.3-0.7,0.6-1.4,0.9-2.1C96.4,113,96.2,113.5,96,113.9z M94.6,117.4c0,0.1-0.1,0.2-0.1,0.4c0.1-0.4,0.2-0.7,0.4-1.1
		C94.8,117,94.7,117.2,94.6,117.4z M91.7,134.3L91.7,134.3c0,0.2,0,0.4,0,0.6v17.5c0-0.1,0-0.1,0-0.1v-17.4
		C91.7,134.7,91.7,134.5,91.7,134.3C91.8,134.3,91.7,134.3,91.7,134.3z M91.8,132.6c0,0.1,0,0.3,0,0.4c0,0,0,0,0,0v0.2
		c0-0.1,0-0.2,0-0.2c0-0.2,0-0.3,0-0.5c0-0.2,0-0.4,0-0.6C91.8,132.1,91.8,132.4,91.8,132.6z"/>
	<path id="XMLID_59_" class="st4" d="M310.3,185.7c2.3-0.3,4-1.4,4.4-1.6c-0.2,0.1-0.3,0.2-0.5,0.3l-1.2,0.6
		c-0.4,0.2-0.8,0.3-1.3,0.4c-0.4,0.1-0.9,0.2-1.3,0.3c-0.2,0-0.4,0.1-0.7,0.1c-2.1,0.3-4.3,0.3-7,0.3H108.9c-4.7,0-9-1.9-12.2-5.1
		c-0.8-0.8-1.5-1.6-2.1-2.5c-0.4-0.6-0.8-1.3-1.2-2c0,0,0-0.1,0-0.1h0c-0.1-0.2-0.2-0.4-0.3-0.7c-0.1-0.1-0.1-0.2-0.2-0.3
		c0,0,0-0.1,0-0.1c0,0,0-0.1,0-0.1c0,0,0,0,0-0.1c0,0,0-0.1,0-0.1c0-0.1-0.1-0.2-0.1-0.3c0,0,0-0.1-0.1-0.2c0-0.1-0.1-0.2-0.1-0.3
		c0-0.1-0.1-0.2-0.1-0.3c0-0.1,0-0.1,0-0.2c0,0,0,0,0,0c0-0.1-0.1-0.3-0.1-0.4c0-0.2-0.1-0.3-0.1-0.5h0c-0.1-0.3-0.1-0.6-0.2-0.8
		c0-0.1-0.1-0.3-0.1-0.4c0-0.1-0.1-0.2-0.1-0.3c0-0.2,0-0.3-0.1-0.5c0-0.2,0-0.3,0-0.5c0-0.1,0-0.1,0-0.2c0-0.4,0-0.8,0-1.2v-34
		c0-0.2,0-0.3,0-0.5v-0.1c0-0.2,0-0.4,0-0.6v-0.3c0-0.1,0-0.1,0-0.2c0-0.1,0-0.1,0-0.2v-0.4c0-0.2,0-0.5,0-0.7c0-0.2,0-0.5,0-0.7
		c0-0.4,0.1-0.8,0.1-1.2v-0.2c0-0.2,0-0.4,0.1-0.6l0,0v-0.1c0-0.1,0-0.1,0-0.2c0,0,0,0,0,0c0,0,0-0.1,0-0.1v-0.1
		c0-0.3,0.1-0.5,0.1-0.8v-0.1c0,0,0,0,0,0v-0.1c0,0,0,0,0,0c0,0,0,0,0,0s0,0,0,0c0-0.1,0-0.2,0-0.3v-0.1c0-0.2,0-0.3,0.1-0.5
		c0-0.2,0.1-0.5,0.1-0.7c0-0.1,0-0.2,0.1-0.3v-0.1c0-0.1,0-0.3,0.1-0.4v-0.1c0.1-0.3,0.1-0.6,0.2-1c0.1-0.6,0.3-1.2,0.4-1.8
		c0.1-0.5,0.2-1,0.3-1.5c0,0,0,0,0,0c0,0,0-0.1,0-0.1c0-0.1,0-0.1,0.1-0.2c0.1-0.4,0.2-0.8,0.3-1.1c0.1-0.4,0.2-0.7,0.3-1.1
		c0,0,0,0,0-0.1c0.1-0.2,0.1-0.3,0.2-0.5c0-0.1,0-0.1,0.1-0.2c0,0,0-0.1,0.1-0.1c0-0.1,0.1-0.2,0.1-0.4c0.1-0.2,0.2-0.5,0.3-0.7v0
		c0-0.1,0.1-0.2,0.1-0.2c0.1-0.4,0.3-0.8,0.4-1.2c0,0,0,0,0,0c0.1-0.2,0.2-0.5,0.3-0.7c0.1-0.2,0.2-0.4,0.3-0.7c0,0,0,0,0,0
		c0.2-0.4,0.4-0.9,0.6-1.4v0c0.3-0.7,0.6-1.4,1-2c0.1-0.3,0.3-0.7,0.5-1c0.2-0.3,0.4-0.7,0.5-1v0c0.4-0.6,0.7-1.3,1.2-1.9
		c0,0,0.1-0.1,0.1-0.1c0.1-0.1,0.2-0.3,0.3-0.4c0.1-0.1,0.2-0.3,0.3-0.4c0.1-0.1,0.2-0.3,0.3-0.4c0.2-0.3,0.4-0.6,0.6-0.9
		c0.1-0.1,0.1-0.2,0.2-0.3c0.2-0.3,0.5-0.7,0.7-1c0.2-0.3,0.5-0.6,0.7-1c0.2-0.2,0.4-0.5,0.5-0.7c0-0.1,0.1-0.1,0.1-0.2c0,0,0,0,0,0
		c0.1-0.1,0.2-0.2,0.3-0.3c0.1-0.1,0.2-0.2,0.2-0.3c0.2-0.2,0.4-0.4,0.6-0.7c0.1-0.1,0.2-0.3,0.3-0.4c0.2-0.2,0.3-0.4,0.5-0.6
		c0.3-0.3,0.6-0.6,0.9-1c0.1-0.1,0.3-0.3,0.4-0.4c0.1-0.1,0.2-0.2,0.3-0.3c0.1-0.1,0.2-0.2,0.3-0.3c0.2-0.2,0.3-0.3,0.5-0.5
		c0.4-0.4,0.8-0.8,1.2-1.2c0,0,0,0,0.1,0c0.2-0.2,0.3-0.3,0.5-0.5c0.4-0.3,0.7-0.6,1.1-1c0.4-0.3,0.8-0.6,1.2-1h0
		c0.2-0.2,0.4-0.3,0.6-0.5c0.4-0.3,0.7-0.6,1.1-0.9h0c1-0.7,2.1-1.5,3.2-2.2c0.2-0.1,0.3-0.2,0.5-0.3c0.1-0.1,0.3-0.2,0.4-0.3
		c0.1-0.1,0.3-0.2,0.4-0.2c0.2-0.1,0.4-0.3,0.6-0.4c0.1,0,0.1-0.1,0.2-0.1c0.1,0,0.1-0.1,0.2-0.1c0.1-0.1,0.3-0.2,0.5-0.3
		c0.2-0.1,0.3-0.2,0.5-0.2c0.3-0.2,0.7-0.4,1-0.5h0c0.3-0.2,0.7-0.3,1-0.5c4.4-2.1,9.1-3.7,14-4.5c3-0.5,6.1-0.8,9.3-0.8H301
		c1.1,0,2.2,0,3.2,0h0c0.6-0.1,10.5-1.1,11.2,1.5c8.3-0.8,14.1-3.2,10.9-8.9c-2.1-2.9-4.1-5.5-6.3-8.2c0.2,0.4,0.4,0.8,0.4,1.3
		c0,0.6-0.2,1.1-0.5,1.5c-0.1,0.2-0.2,0.3-0.3,0.4c-0.5,0.5-1.2,0.8-2,0.8h-70.3c-0.8,0-1.5-0.3-2-0.8c-0.2-0.3-0.4-0.6-0.6-0.9
		c-0.1-0.3-0.2-0.7-0.2-1.1c0-0.4,0.1-0.7,0.2-1.1c0.1-0.3,0.2-0.5,0.4-0.7c0-0.1,0.1-0.1,0.1-0.2c0.1-0.1,0.1-0.1,0.2-0.2
		c0.5-0.4,1.1-0.6,1.7-0.6h70.3c0.7,0,1.3,0.3,1.8,0.7C273.6,7.5,225.4,1.3,188.1,0L188,0.3C185,0.1,182,0,179,0
		C97.7,0,31.7,59.3,31.7,132.5c0,6,0.5,12,1.4,17.8l0,0c-0.7,0.5-1.4,0.9-2.1,1.4c-0.5,1.6,6.9,17.9,7.3,18.9v0c0,0,0,0,0,0l0,0
		L38,171l-5.4,5.5c0,0-0.4-0.4-1.2-1.4c-0.1-0.1-0.2-0.3-0.3-0.4c-0.1-0.2-0.3-0.4-0.5-0.7c-0.3-0.5-0.6-1-1-1.5
		c-0.1-0.2-0.2-0.3-0.3-0.5c-0.2-0.2-0.3-0.5-0.5-0.8c-1.8-3-4-7.3-6-13c-11.9,10.3-22.3,24-22.8,34c-0.7,12.8,6.8,29,12.8,27.6
		c6.1-1.3,6.1-13.5,14.8-33.7c1.7-3.8,3.4-6.8,5.2-9.2c0.2-0.3,0.5-0.6,0.7-0.9c0.7-0.9,1.5-1.7,2.2-2.4c0.5-0.5,1-1,1.5-1.4
		c0.3-0.2,0.6-0.5,0.9-0.7c1.3,3.7,2.8,7.4,4.4,11c-0.2,0.1-0.3,0.3-0.5,0.5c0.1,0.3,0.2,0.6,0.4,0.9c0.2,0.5,0.4,1.1,0.8,1.6
		c2.5,3.9,8.2,11.2,8.2,13.4c15.3,23.7,38.4,42.7,66.3,54.2c0.3-0.2,0.5-0.3,0.8-0.5c5.2,2.1,132.4-0.4,130.9-2.4
		c0.9-0.3,4.1,3.6,5,3.3c13.8-4.8,27.8-10.6,38.2-16.7c26.3-15.5,35.7-45.8,33.7-50.6C324.8,186,310.3,185.7,310.3,185.7z
		 M76.5,151.1c-1.3-6.1-1-38.4,0-45.8c1-7.4,2.7-12.5,6.1-20.9C92.7,71.7,96.1,67.1,114.3,59c0,0-16.8,13.1-24.9,26.6
		c-8.1,13.5-6.6,22.3-8.1,34.4c-3,17.2,0.3,28,0.3,28s6.8-36.1,12.5-52.6C99.8,78.9,112,69.8,112,69.8
		c13.4-10.5,33.3-12.1,33.3-12.1s8.8,0-16.5,10.1C87.7,85.6,84,175.3,84,175.3S77.9,157.1,76.5,151.1z"/>
	<path id="XMLID_80_" class="st6" d="M51.6,198.8c-0.8,1.7-1.3,3.5-1.7,5.4l0,0.2c-0.1,0.8-0.2,1.5-0.3,2.3l0,0.1c0,0,0,0,0,0
		c-1.6,0-7.4-6.4-9.8-13c0-0.1-0.1-0.2-0.1-0.3c-0.6-1.4-1.3-2.9-1.9-4.5c0,0,0.2-0.3,0.4-0.8c1.4-2.2,2.8-3.9,4.1-5.2
		c0.1,0.3,0.2,0.6,0.4,0.9c0.2,0.5,0.4,1.1,0.8,1.6C45.9,189.3,51.6,196.7,51.6,198.8z"/>
	<path id="XMLID_47_" class="st6" d="M51.6,198.8l-1.7,5.4C50.2,202.3,50.7,200.5,51.6,198.8z"/>
	<path id="XMLID_166_" class="st7" d="M92.2,127.7c0.1-0.5,0.2-1.1,0.2-1.6C92.4,126.7,92.3,127.2,92.2,127.7z"/>
	<path id="XMLID_167_" class="st4" d="M92.5,125.8c0.1-0.5,0.2-1,0.3-1.4c-0.1,0.6-0.2,1.2-0.3,1.8C92.5,126,92.5,125.9,92.5,125.8z
		"/>
	<path id="XMLID_168_" class="st4" d="M91.7,134.9c0-2.3,0.2-4.6,0.5-6.9c-0.1,0.6-0.2,1.3-0.2,1.9c-0.1,0.8-0.1,1.7-0.2,2.6
		c0,0.4,0,0.8,0,1.2C91.7,134,91.7,134.5,91.7,134.9l0,17.4h0V134.9z"/>
	<path id="XMLID_169_" class="st7" d="M92.2,127.8C92.2,127.8,92.2,127.8,92.2,127.8c0,0,0,0.1,0,0.2
		C92.2,127.9,92.2,127.9,92.2,127.8z"/>
	<path id="XMLID_170_" class="st7" d="M94.2,118.9c0.1-0.2,0.1-0.5,0.2-0.7c-0.2,0.5-0.3,1.1-0.5,1.6
		C94,119.4,94.1,119.2,94.2,118.9z"/>
	<path id="XMLID_171_" class="st4" d="M93.2,122.6c0.2-1,0.5-1.9,0.8-2.9c-0.1,0.4-0.3,0.9-0.4,1.3
		C93.4,121.6,93.3,122.1,93.2,122.6z"/>
	<path id="XMLID_172_" class="st7" d="M93,123.3c0-0.2,0.1-0.4,0.2-0.7c-0.1,0.6-0.3,1.2-0.4,1.8C92.9,124,92.9,123.6,93,123.3z"/>
	<path id="XMLID_173_" class="st7" d="M94.4,118.1c0.1-0.5,0.3-1,0.5-1.4c0,0,0,0,0,0C94.7,117.2,94.6,117.7,94.4,118.1z"/>
	<path id="XMLID_174_" class="st4" d="M94.9,116.7c0.1-0.5,0.3-0.9,0.5-1.4c-0.1,0.3-0.2,0.6-0.3,0.9C95,116.4,95,116.5,94.9,116.7z
		"/>
	<path id="XMLID_175_" class="st7" d="M95.4,115.3c0.2-0.5,0.3-0.9,0.5-1.4c-0.1,0.2-0.2,0.5-0.3,0.7
		C95.6,114.8,95.5,115.1,95.4,115.3z"/>
	<path id="XMLID_176_" class="st4" d="M96,113.9c0.2-0.5,0.4-0.9,0.6-1.4c0,0,0,0,0,0C96.4,113,96.2,113.5,96,113.9z"/>
	<path id="XMLID_177_" class="st4" d="M98.2,109.4c0.1-0.3,0.3-0.6,0.5-0.8c0,0,0,0,0,0c-0.4,0.6-0.7,1.3-1.1,2
		C97.8,110.1,98,109.7,98.2,109.4z"/>
	<path id="XMLID_178_" class="st4" d="M99.4,107.2c0.3-0.5,0.6-1.1,1-1.6c-0.2,0.3-0.4,0.6-0.5,0.9c-0.4,0.7-0.8,1.4-1.3,2.1
		C98.9,108.1,99.2,107.6,99.4,107.2z"/>
	<path id="XMLID_179_" class="st7" d="M101.5,104.1C101.5,104,101.5,104,101.5,104.1c-0.2,0.3-0.5,0.7-0.7,1.1
		C101,104.8,101.2,104.4,101.5,104.1z"/>
	<path id="XMLID_180_" class="st4" d="M103.6,101.2c-0.5,0.6-0.9,1.2-1.4,1.8c0.3-0.5,0.7-1,1.1-1.4
		C103.4,101.4,103.5,101.3,103.6,101.2c0.2-0.2,0.4-0.4,0.5-0.7c0.5-0.6,1-1.1,1.4-1.7c0.4-0.5,0.9-0.9,1.3-1.4
		c0.1-0.1,0.2-0.2,0.3-0.3l0.4-0.4c0.4-0.4,0.9-0.9,1.4-1.3c0.2-0.2,0.5-0.5,0.7-0.7c-0.6,0.5-1.2,1.1-1.7,1.7
		c-0.2,0.2-0.3,0.3-0.5,0.5C106.1,98.2,104.9,99.7,103.6,101.2C103.7,101.2,103.6,101.2,103.6,101.2z"/>
	<path id="XMLID_65_" class="st7" d="M314.8,184L314.8,184C314.8,184,314.7,184,314.8,184c-0.2,0.1-0.4,0.2-0.6,0.3
		C314.4,184.2,314.6,184.1,314.8,184z"/>
	<path id="XMLID_152_" class="st7" d="M119,88.1c0.3-0.2,0.6-0.3,0.9-0.5c-0.2,0.1-0.3,0.2-0.5,0.3c-0.6,0.4-1.3,0.7-1.9,1.1
		c-0.2,0.1-0.3,0.2-0.5,0.3c0.3-0.2,0.6-0.4,0.9-0.6C118.3,88.5,118.6,88.3,119,88.1z"/>
	<path id="XMLID_153_" class="st7" d="M121.3,86.8C121.4,86.8,121.4,86.8,121.3,86.8c-0.2,0.1-0.3,0.2-0.5,0.3
		c-0.2,0.1-0.3,0.2-0.5,0.2C120.7,87.1,121,86.9,121.3,86.8z"/>
	<path id="XMLID_145_" class="st3" d="M125.1,186.1h-16.2c-4.7,0-9-1.9-12.2-5.1c-0.8-0.8-1.5-1.6-2.1-2.5c-1.9-2.7-2.9-6-2.9-9.6
		v-16.6L125.1,186.1z"/>
	<path id="XMLID_144_" class="st8" d="M125.1,186.1h-16.2c-4.7,0-9-1.9-12.2-5.1c-0.8-0.8-1.5-1.6-2.1-2.5c-1.9-2.7-2.9-6-2.9-9.6
		v-16.6L125.1,186.1z"/>
	<polygon id="XMLID_143_" class="st7" points="91.7,152.3 91.7,152.3 91.7,152.3 91.7,152.3 	"/>
	<polygon id="XMLID_141_" class="st8" points="91.7,152.3 91.7,152.3 91.7,152.3 91.7,152.3 	"/>
	<polygon id="XMLID_58_" class="st7" points="91.7,152.3 91.7,152.3 91.7,152.3 	"/>
	<path id="XMLID_142_" class="st4" d="M94.7,178.5c-1.9-2.7-3-6-3-9.6v-16.6l0,0v16.6C91.7,172.5,92.8,175.8,94.7,178.5z"/>
	<path id="XMLID_29_" class="st5" d="M267,340.5C267,340.5,266.9,340.5,267,340.5L267,340.5C266.9,340.5,267,340.5,267,340.5z"/>
	<path id="XMLID_147_" class="st4" d="M337.8,262.3v33c0,0-0.7,12.8-20.2,15.5c-19.5,2.7-41.1-7.4-43.8-2.7
		c-6.3,7.9-7.4,18.4-7.3,25.3c-26.9,16.1-69.5,20.5-125,4.2c0-0.2,0-0.4,0-0.4c0.1-0.6,0.1-1.2,0.2-1.8c0.2-2.7,0.3-5.4,0.2-7.8
		c0-0.4,0-0.8-0.1-1.3c0-0.4-0.1-0.8-0.1-1.3c-0.1-0.5-0.1-1-0.2-1.5c-0.1-0.4-0.1-0.9-0.2-1.3c-0.1-0.4-0.2-0.8-0.3-1.2
		c0-0.1,0-0.2-0.1-0.3c-0.2-0.7-0.4-1.4-0.6-2c-0.5-1.4-1.3-2.5-2.2-3.3c0,0-0.1-0.1-0.2-0.1c-0.2-0.2-0.4-0.3-0.6-0.4
		c-0.5-0.3-1.1-0.5-1.7-0.7c-0.3-0.1-0.6-0.1-1-0.1c-14.2-2.7-34.4,3.4-34.4,18.9c0,0-0.1,0-0.1,0c-0.6-0.3-1.4-0.6-2.1-0.8
		c-0.4-0.2-0.9-0.3-1.3-0.5c-0.4-0.2-0.8-0.3-1.3-0.5c-0.2-0.1-0.5-0.2-0.7-0.3c-0.6-0.2-1.3-0.5-2-0.7c-0.9-0.3-1.8-0.6-2.6-1
		c-0.5-0.2-1.1-0.4-1.6-0.6c-0.5-0.2-1-0.3-1.5-0.5c-1.2-0.4-2.5-0.8-3.7-1.3c-0.2-0.1-0.5-0.2-0.7-0.2c-0.5-0.2-1-0.3-1.5-0.5
		c-0.5-0.2-1-0.3-1.5-0.5c-0.5-0.2-1-0.3-1.4-0.5c-0.7-0.2-1.3-0.4-2-0.6c-0.3-0.1-0.5-0.2-0.8-0.3c-0.4-0.1-0.8-0.3-1.3-0.4
		c-0.8-0.3-1.7-0.5-2.4-0.8c-0.3-0.1-0.6-0.2-0.9-0.3c-0.1,0-0.1,0-0.2-0.1c-1.1-0.3-2-0.6-2.8-0.9c0,0-0.1,0-0.1,0
		c-0.6-0.2-1.2-0.4-1.6-0.5c-0.3-0.1-0.6-0.2-0.9-0.3c0,0-0.1,0-0.1,0c0,0-0.1,0-0.1,0c0,0-0.1,0-0.1,0l0,0c0,0-0.1,0-0.1,0
		c0,0,0,0-0.1,0l0,0c0,0-0.1,0-0.1,0c0.7-13.5,7.4-35,18.9-43.8c8-6.1,24.9-18,34.2-24.1c0.3-0.2,0.5-0.3,0.8-0.5
		c5.2,2.1,132.4-0.4,130.9-2.4c0.9-0.3,4.1,3.6,5,3.3c6.1,3.5,15.7,8.3,24,9.6C292,265,337.8,262.3,337.8,262.3z"/>
	<path id="XMLID_71_" class="st5" d="M434.2,317.6v0.3l-1.8,0.4C433.3,318,433.9,317.7,434.2,317.6z"/>
	<path id="XMLID_60_" class="st6" d="M353.7,404.4c-3.4,1.2-6.8,2.3-10.2,3.3C346.4,406.8,349.2,405.7,353.7,404.4z"/>
	<path id="XMLID_21_" class="st5" d="M267,340.5C267,340.5,266.9,340.5,267,340.5L267,340.5C266.9,340.5,267,340.5,267,340.5z"/>
	<path id="XMLID_69_" class="st4" d="M480.7,325c-6.1,8.8-21.6,32.4-29,34.4c-3.5,1-7.8-0.2-11.4-1.7l-4.9-40.1l-1.2,0.3
		c0-0.1,0-0.2,0-0.3c0,0,27-31.7,46.5-31.7C492.8,285.9,486.8,316.2,480.7,325z"/>
	<path id="XMLID_68_" class="st5" d="M434.2,317.8L434.2,317.8l0-0.3C434.2,317.6,434.2,317.7,434.2,317.8z"/>
	<path id="XMLID_76_" class="st9" d="M337.8,295.3c0,0,22.9-1.3,29-16.9c10.1-31.7-5.4-54.6-9.4-60.7s-9.4,16.9-10.1,31.7
		c0-4-6.7-8.1-8.8-8.1s0.7,10.1-0.6,20.9C339.1,278.5,337.8,295.3,337.8,295.3z"/>
	<path id="XMLID_77_" class="st9" d="M337.8,262.3v33C337.8,295.3,339.1,278.5,337.8,262.3z"/>
	<path id="XMLID_19_" class="st6" d="M128.8,67.8C87.7,85.6,84,175.3,84,175.3s-6.1-18.2-7.4-24.3c-1.3-6.1-1-38.4,0-45.8
		c1-7.4,2.7-12.5,6.1-20.9C92.7,71.7,96.1,67.1,114.3,59c0,0-16.8,13.1-24.9,26.6c-8.1,13.5-6.6,22.3-8.1,34.4
		c-3,17.2,0.3,28,0.3,28s6.8-36.1,12.5-52.6C99.8,78.9,112,69.8,112,69.8c13.4-10.5,33.3-12.1,33.3-12.1S154.1,57.7,128.8,67.8z"/>
	<polygon id="XMLID_81_" class="st10" points="201.6,121.4 163.6,102.5 163.6,114.3 201.6,126.1 	"/>
	<polygon id="XMLID_82_" class="st10" points="269.7,126.1 310.8,114.3 310.8,102.5 269.7,120 	"/>
	<path id="XMLID_83_" class="st11" d="M201.6,140.3h-38c0,8.6,8.5,15.5,19,15.5C193.1,155.8,201.6,148.8,201.6,140.3z"/>
	<path id="XMLID_84_" class="st11" d="M290.3,155.8c10.5,0,19-6.9,19-15.5h-38C271.3,148.8,279.8,155.8,290.3,155.8z"/>
	<polygon id="XMLID_139_" class="st3" points="259.6,186.1 238.7,186.1 245.3,143.6 	"/>
	<polygon id="XMLID_138_" class="st12" points="259.6,186.1 238.7,186.1 245.3,143.6 	"/>
	<path id="XMLID_88_" class="st3" d="M318.4,89.6l-9.1-5.2H129.5l-17.4,8.5c0,0,0,0,0,0L318.4,89.6z"/>
	<path id="XMLID_87_" class="st13" d="M318.4,89.6l-9.1-5.2H129.5l-17.4,8.5c0,0,0,0,0,0L318.4,89.6z"/>
	<polygon id="XMLID_90_" class="st7" points="112,92.8 112,92.8 112,92.8 	"/>
	<polygon id="XMLID_89_" class="st13" points="112,92.8 112,92.8 112,92.8 	"/>
	<path id="XMLID_135_" class="st7" d="M112.1,92.8C112,92.8,112,92.8,112.1,92.8L112.1,92.8L112.1,92.8z"/>
	<path id="XMLID_133_" class="st13" d="M112.1,92.8C112,92.8,112,92.8,112.1,92.8L112.1,92.8L112.1,92.8z"/>
	<path id="XMLID_94_" class="st3" d="M211.1,151l-18.2,18.4C196.2,172.3,207.7,157.1,211.1,151z"/>
	<path id="XMLID_93_" class="st14" d="M211.1,151l-18.2,18.4C196.2,172.3,207.7,157.1,211.1,151z"/>
	<path id="XMLID_96_" class="st3" d="M283.9,164.9l-16.9-9.1C273.7,163.9,283.9,164.9,283.9,164.9z"/>
	<path id="XMLID_95_" class="st15" d="M283.9,164.9l-16.9-9.1C273.7,163.9,283.9,164.9,283.9,164.9z"/>
	<path id="XMLID_11_" class="st16" d="M140.4,260.4c-2.1-0.5-4-1.1-5.9-1.6C136.5,259.4,138.4,259.9,140.4,260.4z"/>
	<path id="XMLID_14_" class="st6" d="M254.7,265c0,14.1-23,25.4-48.5,25.7c-24.8,0.3-58-14.5-68.8-25.8c-0.1-0.1-0.1-0.1-0.2-0.2
		c-0.4-0.5-0.8-1.2-1.2-2c-0.7-1.5-1.4-3.2-1.5-3.8c1.9,0.6,3.9,1.1,5.9,1.6c12.3,3,25.3,4.6,38.6,4.6c9.6,0,27.1-0.1,28,0
		c5.1,0.6,24.3-3.8,44.6-10.6c0,0,0,0,0,0c1.5,2,2.7,6.8,3,9.6C254.7,264.4,254.7,264.7,254.7,265z"/>
	<path id="XMLID_27_" class="st16" d="M141.5,337.7c-0.3,3.3-0.8,6.6-1.2,9.5L141.5,337.7z"/>
	<path id="XMLID_26_" class="st16" d="M267,340.5c0,0-0.5-2.8-0.5-7.1L267,340.5z"/>
	<path id="XMLID_25_" class="st16" d="M214.4,359.3c-0.1,0-0.2,0-0.3,0c-0.1,0-0.3,0-0.5,0C213.9,359.3,214.1,359.3,214.4,359.3z"/>
	<path id="XMLID_23_" class="st16" d="M179.5,356.9c-0.3,0-0.5,0-0.8-0.1c-2.2-0.4-4.4-0.9-6.7-1.4c0.9,0.1,1.8,0.3,2.6,0.4
		C176.4,356.2,178,356.6,179.5,356.9z"/>
	<path id="XMLID_20_" class="st16" d="M180.7,357.1c-0.7-0.1-1.4-0.2-2-0.4c0.3,0,0.5,0.1,0.8,0.1c0,0,0,0,0.1,0
		C179.9,357,180.4,357.1,180.7,357.1z"/>
	<g id="XMLID_45_">
		<path id="XMLID_22_" class="st4" d="M418.7,321.3L418.7,321.3c-37.5,7.2-131,21.4-151.7,19.2c0,0,0,0,0,0c0,0,0,0-0.1,0.1v0
			c0,0,0.1,0,0.1-0.1c-1.3,0.7-2.5,1.4-3.8,2c-0.6,0.3-1.2,0.6-1.7,0.9c-17.9,9.3-32,14.4-47,15.8c0,0,0,0,0.1,0c0,0,0.1,0,0.1,0
			c0,0,0,0,0,0c-0.2,0-0.3,0-0.5,0c-10.2,0.9-20.8,0.1-33.3-2.2c-0.4-0.1-0.8-0.2-1.2-0.3c0,0,0,0-0.1,0c-1.5-0.3-3.1-0.7-4.8-1.1
			c-9.2-2.1-21.9-5.2-31.4-7.7c-0.6-0.2-1.2-0.3-1.8-0.5c-0.4-0.1-0.8-0.2-1.2-0.3c-15.6-0.4-30.6,3.1-39.7,5.8h0
			c-0.6,0.2-1.1,0.3-1.7,0.5c-0.5,0.1-1,0.3-1.5,0.4c-0.2,0.1-0.4,0.1-0.6,0.2c-0.3,0.1-0.5,0.2-0.8,0.3c-0.2,0.1-0.5,0.2-0.7,0.2
			c-0.2,0.1-0.4,0.2-0.7,0.2c-1.9,0.7-3,1.1-3,1.1c-5.9,1.5-13.3,5.8-20.1,12c-0.6,0.6-1.2,1.2-1.8,1.7c-0.3,0.3-0.6,0.6-0.9,0.9
			c-0.9,0.9-1.8,1.9-2.7,2.9c-1.2,1.3-2.3,2.7-3.3,4.1c0,0,0,0,0,0c-4.2,5.7-7.7,12.3-9.5,19.4c-5.4,21.6,16.8,40.4,16.8,40.4
			c53.9,43.1,111.9,44.5,131.4,44.5c8,9.4,9.5,22.2,25,29c15.5,6.8,16.9-8.8,16.9-15.5c0-6.8-34.4-62-41.8-64.7
			c-7.4-2.7-6,0.7-14.1,4.7s-4.7-1.4-18.2-8.8c-10.5-5.8-23.4-9.9-28.6-11.5c-1.6,0-5-1.8-6.6-1.9c-12.2-0.8-17.5-1.5-18.2-1.6
			c-0.1,0-0.1,0-0.1,0l-0.7-6c0,0,47.9,7.5,62.5,7.8c14.7,0.2,48.4,5.2,73.8,2.8c25.5-2.5,31-1.5,78.2-14.2
			c2.5-0.7,7.9-1.6,10.4-2.3c1.2-0.3,5.9,0.3,7.1,0c2.1-0.6,3-2.7,5.1-3.3c5-1.4,10.5,0.1,15.2-1.3c2.1-0.6,4.8-4.9,6.8-5.5
			c5.3-1.6,8.5-2.3,13.1-3.8c1.1-0.4,4.1-2.7,5.2-3c0.6-0.2,5.7-1,6.4-1.2c1.8-0.6-0.6-1.1,1-1.7c1.6-0.5,1.1-0.7,2.5-1.2
			c0.8-0.3,2-0.5,2.8-0.7c3.3-1.1,3.8-0.2,6.4-1.1c0.1-0.1,0.2-0.1,0.3-0.1c0.2-0.1,0.5-0.3,0.8-0.5c0.1-0.1,0.1-0.1,0.2-0.1
			c0.7-0.5,1.6-1,1.8-1.1c0.2-0.1,0.3-0.2,0.5-0.3c0,0,0,0,0,0c0.4-0.6-0.2-1.5,0.7-1.8c0.3-0.1,0.5-0.2,0.7-0.2
			c0.4-0.1,0.7-0.3,1.1-0.4c0.4-0.1,0.7-0.2,1-0.3c0.4-0.1,0.7-0.3,1.1-0.4c0.1,0,0.3-0.1,0.4-0.1c0.1-0.1,0.2-0.1,0.3-0.1
			c0.1,0,0.2-0.1,0.3-0.1c0.1,0,0.1,0,0.2-0.1c0,0,0.1,0,0.1,0c0,0,0.1,0,0.1,0c0,0,0,0,0,0c5.1-3.2,9.1-6,12-8.1L418.7,321.3z"/>
		<path id="XMLID_132_" class="st6" d="M266.5,333.4L266.5,333.4c-26.4,15.1-69.1,19.5-124.9,3.9c0,0-0.8,7-1.3,9.9
			c0.2,0.7,1.1,0.8,1.5,0.9c9.6,2.7,40.7,9.8,41.1,9.8c12.5,2.3,21.9,2.1,21.8,2.1c-0.8,0,8,0.3,7.2,0.3c0,0,6.1-0.4,6.3-0.4
			c15.5-1.4,26.3-7.5,45-17.5c1.3-0.6,2.5-1.3,3.8-2c0,0,0,0,0,0S266.5,337.6,266.5,333.4z"/>
	</g>
	<path id="XMLID_49_" class="st6" d="M343.5,407.7c-2.9,1-5.7,1.8-10.1,2.8C336.8,409.7,340.2,408.7,343.5,407.7z"/>
	<path id="XMLID_108_" class="st16" d="M421.1,371.2C421.1,371.2,421.1,371.2,421.1,371.2C421,371.2,421,371.2,421.1,371.2
		C421,371.2,421.1,371.2,421.1,371.2z"/>
	<path id="XMLID_46_" class="st6" d="M365.8,399.9c-4.5,1.9-8.6,3.5-11.9,4.5c-0.1,0-0.1,0-0.2,0C357.8,403,361.8,401.5,365.8,399.9
		z"/>
	<path id="XMLID_34_" class="st6" d="M395,380.1c-1.6,0.5-3.4,1.1-5.2,1.7C391.6,381.2,393.3,380.6,395,380.1z"/>
	<polygon id="XMLID_78_" class="st6" points="435.4,317.6 434.2,317.8 434.2,317.8 432.4,318.2 418.7,321.2 418.7,321.3 
		433.1,363.1 433.5,364.2 440.3,357.6 	"/>
	<path id="XMLID_63_" class="st17" d="M320.1,65.3c-0.1-0.1-0.2-0.2-0.3-0.3c-0.1-0.1-0.2-0.3-0.3-0.4
		C319.7,64.8,319.8,65,320.1,65.3C320,65.3,320,65.3,320.1,65.3z"/>
	<path id="XMLID_53_" class="st6" d="M320.4,66.7c0,0.6-0.2,1.1-0.5,1.5c-0.1,0.2-0.2,0.3-0.3,0.4c-0.5,0.5-1.2,0.8-2,0.8h-70.3
		c-0.8,0-1.5-0.3-2-0.8c-0.2-0.3-0.4-0.6-0.6-0.9c-0.1-0.3-0.2-0.7-0.2-1.1c0-0.4,0.1-0.7,0.2-1.1c0.1-0.3,0.2-0.5,0.4-0.7
		c0-0.1,0.1-0.1,0.1-0.2c0.1-0.1,0.1-0.1,0.2-0.2c0.5-0.4,1.1-0.6,1.7-0.6h70.3c0.7,0,1.3,0.3,1.8,0.7c0.1,0.1,0.2,0.3,0.3,0.4
		c0.1,0.1,0.2,0.2,0.3,0.3v0C320.3,65.7,320.4,66.2,320.4,66.7z"/>
	<path id="XMLID_51_" class="st17" d="M320.1,65.3c-0.1-0.1-0.2-0.2-0.3-0.3C319.9,65.1,319.9,65.2,320.1,65.3
		C320,65.3,320,65.3,320.1,65.3z"/>
	<path id="XMLID_15_" class="st6" d="M38.2,170.7L38,171l-5.4,5.5c0,0-0.4-0.4-1.2-1.4c0.9,1.3,1.4,1.9,1.4,1.9
		c0.2-0.3,0.5-0.6,0.7-0.9c0.5-0.6,1-1.2,1.5-1.8l0.7-0.6l1.5-1.4l0.5-0.4c0.1-0.1,0.3-0.2,0.4-0.3L38.2,170.7z"/>
	<path id="XMLID_56_" class="st6" d="M30.9,151.8c-2.3,1.6-4.5,3.3-6.8,5.2c-0.1,0.1-0.2,0.2-0.3,0.3c-0.3,0.2-0.5,0.4-0.7,0.6
		c0,0-0.1,0.1-0.1,0.1c0,0-0.1,0.1-0.1,0.1c0,0,0,0,0,0h0v0c2.1,5.7,4.2,10,6,13c0.2,0.3,0.3,0.5,0.5,0.8c0.1,0.2,0.2,0.3,0.3,0.5
		c0.4,0.6,0.7,1.1,1,1.5c0.2,0.3,0.3,0.5,0.5,0.7c0.1,0.2,0.2,0.3,0.3,0.4c0.7,1,1.2,1.4,1.2,1.4L38,171l0.2-0.2v-0.1
		C37.8,169.7,30.5,153.4,30.9,151.8z M31.2,154.2c0.1-0.3,0.1-0.6,0-0.8C31.3,153.6,31.3,153.8,31.2,154.2z"/>
	<path id="XMLID_32_" class="st6" d="M30.9,151.8c-2.3,1.6-4.5,3.3-6.8,5.2c-0.1,0.1-0.2,0.2-0.3,0.3c-0.3,0.2-0.5,0.4-0.7,0.6
		C24.2,157,28.1,153.5,30.9,151.8z"/>
	<path id="XMLID_28_" class="st0" d="M31.2,154.2c0.1-0.3,0.1-0.6,0-0.8C31.3,153.6,31.3,153.8,31.2,154.2z"/>
	<path id="XMLID_64_" class="st6" d="M421,371.2c0,0-0.1,0.1-0.2,0.1c-13,8.3-32.4,19.4-55,28.5c-3.9,1.6-8,3.1-12.1,4.5
		c-4.4,1.3-7.3,2.4-10.2,3.3c-3.3,1-6.7,1.9-10.1,2.8c-6.7,1.7-13.6,3.1-20.5,4.1c-8.6,1.2-17.3,2.1-25.8,2.7
		c-5.1,0.6-10.7,1.3-16.9,2c-63.9,0-86.3-4.4-97.5-4.9c-0.5,0-1,0.1-1.3,0.2c-5.9,1.2-16.1,1-23.6,0.6c-2.3,0.1-4.7,0.1-7.1,0.1
		c-1.6,0-3.2-0.1-4.8-0.2c-13.3-0.8-20.1-3.4-20.1-3.4l-1.3-6.8c0,0,48.3,5.8,62.9,6.1c14.7,0.2,48.4,5.2,73.8,2.8
		c25.5-2.5,33.5-2.2,80.7-14.9c2.5-0.7,5-1.3,7.4-2c1.2-0.3,2.4-0.7,3.6-1c2.1-0.6,4.2-1.2,6.2-1.8c5-1.4,9.8-2.8,14.4-4.2
		c2.1-0.6,4.2-1.3,6.2-1.9c5.3-1.6,10.2-3.1,14.8-4.6c1.1-0.4,2.2-0.7,3.3-1.1c0.6-0.2,1.3-0.4,2-0.6c1.8-0.6,3.5-1.1,5.2-1.7
		c1.6-0.5,3.1-1,4.5-1.5c0.8-0.3,1.6-0.5,2.4-0.8c3.3-1.1,6.3-2.1,8.8-3c0.6-0.2,1.1-0.4,1.6-0.6c1.3-0.4,2.5-0.9,3.6-1.2
		c0.3-0.1,0.5-0.2,0.7-0.2c0.4-0.1,0.7-0.3,1.1-0.4c0.4-0.1,0.7-0.2,1-0.3c0.4-0.1,0.7-0.3,1.1-0.4c0.1,0,0.3-0.1,0.4-0.1
		c0.1-0.1,0.2-0.1,0.3-0.1c0.1,0,0.2-0.1,0.3-0.1c0.1,0,0.1,0,0.2-0.1C420.9,371.2,421,371.2,421,371.2z"/>
	<path id="XMLID_85_" class="st6" d="M326.3,186.1c-1.6-0.1-16.1-0.4-16.1-0.4c2.3-0.3,4-1.4,4.4-1.6c0,0,0,0,0.1,0c0,0,0,0,0,0
		s0.5,0,1.2,0c1.2,0,3.1,0.1,4.8,0.2c0.2,0,0.4,0,0.6,0.1c0.4,0,0.8,0.1,1.2,0.1c0.2,0.1,0.4,0.1,0.7,0.1c0.2,0,0.3,0.1,0.5,0.1
		c0.1,0,0.3,0.1,0.4,0.1c0.1,0,0.2,0.1,0.4,0.1c0.1,0,0.2,0.1,0.3,0.1c0.6,0.2,1.1,0.5,1.3,0.8C326.2,185.9,326.3,186,326.3,186.1z"
		/>
	<path id="XMLID_67_" class="st17" d="M326.2,185.8c-0.3-0.3-0.7-0.6-1.3-0.8C325.9,185.3,326,185.5,326.2,185.8z"/>
</g>
</svg>
