<?xml version="1.0" encoding="utf-8"?>
<!-- Generator: Adobe Illustrator 19.0.0, SVG Export Plug-In . SVG Version: 6.00 Build 0)  -->
<svg version="1.1" id="Calque_1" xmlns="http://www.w3.org/2000/svg" xmlns:xlink="http://www.w3.org/1999/xlink" x="0px" y="0px"
	 viewBox="0 0 437 560" style="enable-background:new 0 0 437 560;" xml:space="preserve">
<style type="text/css">
	.st0{opacity:0.31;}
	.st1{opacity:0.47;}
	.st2{fill:#D83636;}
	.st3{fill:#F3C2C2;}
	.st4{fill:#CB2928;}
	.st5{fill:#30333E;}
	.st6{opacity:0.47;fill:#EEA9AA;}
</style>
<g id="XMLID_2_" class="st0">
	<path id="XMLID_34_" d="M396.4,511.9c-6-7.9-24.8-13.3-25.5-15.7s8.3,0.5,8.8-2.9s2.4-50-6.9-64.5s-23.3-48.8-65-58.3
		c-6.9-10.2-5.2-48,3.3-48.8c8.6-0.8,23.1-1,26.7,3.5c3.6,4.5,3.8,12.9,8.8,14c5,1.2-1.3,7.3,10.7,0.8c12-6.4,27.1-5.8,27.9-8.7
		s6.7-16.9-9.5-36.4c-16.2-19.5-51.5-33.1-58.7-33c-8.2-2.3-3.2-14.9-3.2-14.9l-155.2,6.2c0,0,6.6,8.7-0.1,11.5
		c-6.6,2.8-26.1,4-40.4,19.9c-14.3,16-25.7,28.6-22.6,44.5c0.8,4.3,36,17.6,38.1,13.3c2.1-4.3,2.1-15.2,18.6-18.1
		c16.4-2.9,19.7-5.7,20.7,3.3c1,9,1.4,47.1,1.4,47.1s-19.5,1.4-39.4,26.7c0,0-26.3,24.8-26.5,56.2s-1.2,35.5-1.2,35.5
		s4.3,1.2,10.3,2.4c-6.5,5.4-25.9,7.3-28.2,15.3c-1,3.6-1.7,6.9,25,11.4s48.3-13.6,50.5-17.2c2.1-3.6,3.2-6.8,2.4-11.8
		c0,0,7.9-73.6,76.7-73.3c55.2,1,73.4,41.1,72.3,74.2c-1.1,33.1,56.5,33.1,61.8,31.2C383.1,523.5,402.4,519.7,396.4,511.9z"/>
	<path id="XMLID_33_" d="M99.1,331.4c0,0-8.2,7.9-11.9,12.5s-8.8,13.8-3.3,20.1c5.5,6.3,19.4,7,22.6,4.9c2.4,3.1,1.2,5.1,3.2,5
		s8.2-3.6,10.5-11.2c1.9-9.2,3-14.2,2-17.7l0.4-8.3c0,0-9.3-5.2-13.9-5.2C104,331.4,99.1,331.4,99.1,331.4z"/>
	<path id="XMLID_32_" d="M357.4,340.1c0,0,10.5-8.9,23-7.7c4.9,2.1,8.8,8.8,17.9,13.8c9,5,13.1,11.8,6.3,20.1
		c-6.8,8.3-15.5,11.2-21.9,8.3c-6.5,0.5-6.1,6.4-9.8,5.1c-3.7-1.3-9.6-3-10.8-11.9c-1.2-8.9-1.4-13.7-1.8-16.4
		C359.9,348.7,358.8,340.1,357.4,340.1z"/>
	<ellipse id="XMLID_31_" cx="238.3" cy="276.2" rx="65.5" ry="26"/>
	<g id="XMLID_6_">
		<ellipse id="XMLID_30_" cx="235.2" cy="156" rx="147" ry="127.5"/>
		<g id="XMLID_13_">
			<path id="XMLID_29_" d="M176,108.5c-5.3,0-10.5,0.9-15.2,2.5c9.5,4.6,25.8,2.2,54.6-2.5H176z"/>
			<path id="XMLID_27_" d="M329.7,115.1l-182.8,3.2c-11.4,8.7-18.7,22.4-18.7,37.9v23l30.1,28.9h83.9l1.8-43.8l16.9,43.8h63.4
				l32-30.7v-17.1C356.2,141,345.5,124,329.7,115.1z"/>
			<path id="XMLID_26_" d="M192.1,151.9c0.6,0,1.3,0,1.9,0.1C193.4,152,192.8,151.9,192.1,151.9z"/>
			<path id="XMLID_25_" d="M190.3,152c0.6,0,1.2-0.1,1.9-0.1C191.5,151.9,190.9,152,190.3,152z"/>
			<path id="XMLID_24_" d="M290.5,150.1c0.6,0,1.2-0.1,1.9-0.1C291.7,150.1,291.1,150.1,290.5,150.1z"/>
			<path id="XMLID_23_" d="M292.4,150.1c0.6,0,1.3,0,1.9,0.1C293.6,150.1,293,150.1,292.4,150.1z"/>
			<polygon id="XMLID_22_" points="242.2,208.1 260.8,208.1 243.9,164.4 			"/>
			<polygon id="XMLID_21_" class="st1" points="242.2,208.1 260.8,208.1 243.9,164.4 			"/>
			<path id="XMLID_20_" d="M356.1,181.6v-4.2l-32,30.7h5.5C344.3,208.1,356.1,196.3,356.1,181.6z"/>
			<path id="XMLID_19_" class="st1" d="M356.1,181.6v-4.2l-32,30.7h5.5C344.3,208.1,356.1,196.3,356.1,181.6z"/>
			<path id="XMLID_18_" d="M128.2,185.3c0,12.6,10.2,22.9,22.9,22.9h7.2l-30.1-28.9V185.3z"/>
			<path id="XMLID_17_" class="st1" d="M128.2,185.3c0,12.6,10.2,22.9,22.9,22.9h7.2l-30.1-28.9V185.3z"/>
			<path id="XMLID_16_" d="M304.2,108.5h-88.9c-28.8,0.9-45.1,1.3-54.6,2.5c-5.1,1.7-9.7,4.2-13.9,7.4l182.8-3.2
				C322.2,110.9,313.5,108.5,304.2,108.5z"/>
			<path id="XMLID_15_" class="st1" d="M304.2,108.5h-88.9c-28.8,0.9-45.1,1.3-54.6,2.5c-5.1,1.7-9.7,4.2-13.9,7.4l182.8-3.2
				C322.2,110.9,313.5,108.5,304.2,108.5z"/>
		</g>
		<path id="XMLID_12_" d="M126.3,188.9c-0.3-19.4-1-54.5,11.1-76.3s47.9-31.3,47.9-31.3s-50.2-3.2-57.1,33c0,0-10.8,40-6.3,65.4
			C123.8,185.4,126.3,188.9,126.3,188.9z"/>
		<path id="XMLID_11_" d="M356.5,191.1c0.3-19.4,1-54.5-11.1-76.3c-12.1-21.8-47.9-31.3-47.9-31.3s50.2-3.2,57.1,33
			c0,0,10.8,40,6.3,65.4C359,187.6,356.5,191.1,356.5,191.1z"/>
		<path id="XMLID_10_" d="M67.4,70.4c-0.2-3.8,6-16.3,13.3-18.3s22.5-2.9,40,6.7s11.4,11,11.4,11l-14.8,13.3c0,0-1.9-8.3-14.8-9.5
			S77.7,77.2,73,75.1C68.2,73.1,67.4,70.4,67.4,70.4z"/>
		<path id="XMLID_9_" d="M121.2,59c1.3,0.7,10.7,6.3,10,6.9c-0.7,0.6-14.4,15-14.8,15c-0.7-1.6-7.5-6.2-9.9-6.7
			C108.4,72.6,121.2,59,121.2,59z"/>
		<path id="XMLID_8_" d="M112.9,85.2c0,0-26.4-6.2-41.6,0.4s-38.6,15-40.5,21.1c-1.9,6.1-3.2,15.9,3.8,17.2s16.9-2.9,18-5.2
			s14.3-17.9,22.8-19.7s11.5-4.4,21-4.9c9.5-0.6,13,6.3,13,6.3l7.3-8.2C116.8,92.2,116.9,85.4,112.9,85.2z"/>
		<path id="XMLID_7_" d="M96.8,82.8c3.4-0.1,6.1,0.2,8,0.5c2.1,0.4,5.1,1.3,5.1,1.3s-6.7,9.4-7.2,10.1c-0.6-0.7-11.4-1.1-13.5,0.2
			C92.3,91.4,96.8,82.8,96.8,82.8z"/>
	</g>
	<path id="XMLID_5_" d="M303.8,376.4c-38.2,20.7-81.9,18.7-129.6,0V364c44.6,17.5,87.9,18.7,129.6,0V376.4z"/>
	<path id="XMLID_4_" d="M167.1,500.5c-18.8,9.3-32.7,3.5-51.7-3.4l2.1-1.4c16.2,5.9,36.1,3.6,49.7-2.4
		C168.8,495.1,168.6,497.6,167.1,500.5z"/>
	<path id="XMLID_3_" d="M316.7,501.4c20,10.5,35.2,3.8,55.4-4l-1.2-1.6c-17.2,6.7-39.8,4.3-54.2-2.4
		C314.9,495.3,315.2,498.1,316.7,501.4z"/>
</g>
<g id="XMLID_341_">
	<path id="XMLID_317_" class="st2" d="M371.8,521.4c-6-7.9-24.8-13.3-25.5-15.7c-0.6-2.4,8.3,0.5,8.8-2.9s2.4-50-6.9-64.5
		c-9.3-14.5-23.3-48.8-65-58.3c-6.9-10.2-5.2-48,3.3-48.8c8.6-0.8,23.1-1,26.7,3.5c3.6,4.5,3.8,12.9,8.8,14c5,1.2-1.3,7.3,10.7,0.8
		c12-6.4,27.1-5.8,27.9-8.7c0.7-2.9,6.7-16.9-9.5-36.4c-16.2-19.5-51.5-33.1-58.7-33c-8.2-2.3-3.2-14.9-3.2-14.9l-155.2,6.2
		c0,0,6.6,8.7-0.1,11.5c-6.6,2.8-26.1,4-40.4,19.9s-25.7,28.6-22.6,44.5c0.8,4.3,36,17.6,38.1,13.3c2.1-4.3,2.1-15.2,18.6-18.1
		s19.7-5.7,20.7,3.3c1,9,1.4,47.1,1.4,47.1s-19.5,1.4-39.4,26.7c0,0-26.3,24.8-26.5,56.2s-1.2,35.5-1.2,35.5s4.3,1.2,10.3,2.4
		c-6.5,5.4-25.9,7.3-28.2,15.3c-1,3.6-1.7,6.9,25,11.4c26.7,4.5,48.3-13.6,50.5-17.2c2.1-3.6,3.2-6.8,2.4-11.8
		c0,0,7.9-73.6,76.7-73.3c55.2,1,73.4,41.1,72.3,74.2c-1.1,33.1,56.5,33.1,61.8,31.2S377.7,529.3,371.8,521.4z"/>
	<path id="XMLID_311_" class="st3" d="M74.5,340.9c0,0-8.2,7.9-11.9,12.5c-3.7,4.6-8.8,13.8-3.3,20.1c5.5,6.3,19.4,7,22.6,4.9
		c2.4,3.1,1.2,5.1,3.2,5c2-0.1,8.2-3.6,10.5-11.2c1.9-9.2,3-14.2,2-17.7l0.4-8.3c0,0-9.3-5.2-13.9-5.2
		C79.4,340.9,74.5,340.9,74.5,340.9z"/>
	<path id="XMLID_313_" class="st3" d="M332.7,349.6c0,0,10.5-8.9,23-7.7c4.9,2.1,8.8,8.8,17.9,13.8c9,5,13.1,11.8,6.3,20.1
		c-6.8,8.3-15.5,11.2-21.9,8.3c-6.5,0.5-6.1,6.4-9.8,5.1s-9.6-3-10.8-11.9c-1.2-8.9-1.4-13.7-1.8-16.4S334.2,349.6,332.7,349.6z"/>
	<ellipse id="XMLID_275_" class="st4" cx="213.7" cy="285.7" rx="65.5" ry="26"/>
	<g id="XMLID_276_">
		<ellipse id="XMLID_307_" class="st2" cx="210.6" cy="165.5" rx="147" ry="127.5"/>
		<g id="XMLID_283_">
			<path id="XMLID_306_" class="st3" d="M151.4,118c-5.3,0-10.5,0.9-15.2,2.5c9.5,4.6,25.8,2.2,54.6-2.5H151.4z"/>
			<path id="XMLID_302_" class="st3" d="M305.1,124.6l-182.8,3.2c-11.4,8.7-18.7,22.4-18.7,37.9v23l30.1,28.9h83.9l1.8-43.8
				l16.9,43.8h63.4l32-30.7v-17.1C331.5,150.5,320.9,133.6,305.1,124.6z"/>
			<path id="XMLID_299_" class="st5" d="M167.5,161.5c0.6,0,1.3,0,1.9,0.1C168.8,161.5,168.2,161.5,167.5,161.5z"/>
			<path id="XMLID_297_" class="st5" d="M165.6,161.5c0.6,0,1.2-0.1,1.9-0.1C166.9,161.5,166.3,161.5,165.6,161.5z"/>
			<path id="XMLID_296_" class="st5" d="M265.9,159.7c0.6,0,1.2-0.1,1.9-0.1C267.1,159.6,266.5,159.6,265.9,159.7z"/>
			<path id="XMLID_295_" class="st5" d="M267.8,159.6c0.6,0,1.3,0,1.9,0.1C269,159.6,268.4,159.6,267.8,159.6z"/>
			<polygon id="XMLID_293_" class="st3" points="217.6,217.7 236.2,217.7 219.3,173.9 			"/>
			<polygon id="XMLID_292_" class="st6" points="217.6,217.7 236.2,217.7 219.3,173.9 			"/>
			<path id="XMLID_291_" class="st3" d="M331.5,191.2v-4.2l-32,30.7h5.5C319.7,217.7,331.5,205.8,331.5,191.2z"/>
			<path id="XMLID_290_" class="st6" d="M331.5,191.2v-4.2l-32,30.7h5.5C319.7,217.7,331.5,205.8,331.5,191.2z"/>
			<path id="XMLID_289_" class="st3" d="M103.6,194.8c0,12.6,10.2,22.9,22.9,22.9h7.2l-30.1-28.9V194.8z"/>
			<path id="XMLID_288_" class="st6" d="M103.6,194.8c0,12.6,10.2,22.9,22.9,22.9h7.2l-30.1-28.9V194.8z"/>
			<path id="XMLID_287_" class="st3" d="M279.6,118h-88.9c-28.8,0.9-45.1,1.3-54.6,2.5c-5.1,1.7-9.7,4.2-13.9,7.4l182.8-3.2
				C297.6,120.4,288.9,118,279.6,118z"/>
			<path id="XMLID_286_" class="st6" d="M279.6,118h-88.9c-28.8,0.9-45.1,1.3-54.6,2.5c-5.1,1.7-9.7,4.2-13.9,7.4l182.8-3.2
				C297.6,120.4,288.9,118,279.6,118z"/>
		</g>
		<path id="XMLID_282_" class="st4" d="M101.7,198.5c-0.3-19.4-1-54.5,11.1-76.3s47.9-31.3,47.9-31.3s-50.2-3.2-57.1,33
			c0,0-10.8,40-6.3,65.4C99.2,195,101.7,198.5,101.7,198.5z"/>
		<path id="XMLID_281_" class="st4" d="M331.9,200.6c0.3-19.4,1-54.5-11.1-76.3C308.7,102.5,272.8,93,272.8,93s50.2-3.2,57.1,33
			c0,0,10.8,40,6.3,65.4C334.4,197.1,331.9,200.6,331.9,200.6z"/>
		<path id="XMLID_280_" class="st2" d="M42.8,79.9c-0.2-3.8,6-16.3,13.3-18.3s22.5-2.9,40,6.7s11.4,11,11.4,11L92.8,92.6
			c0,0-1.9-8.3-14.8-9.5s-24.9,3.7-29.7,1.6S42.8,79.9,42.8,79.9z"/>
		<path id="XMLID_279_" class="st4" d="M96.5,68.5c1.3,0.7,10.7,6.3,10,6.9c-0.7,0.6-14.4,15-14.8,15c-0.7-1.6-7.5-6.2-9.9-6.7
			C83.8,82.1,96.5,68.5,96.5,68.5z"/>
		<path id="XMLID_278_" class="st2" d="M88.3,94.7c0,0-26.4-6.2-41.6,0.4c-15.2,6.5-38.6,15-40.5,21.1C4.3,122.3,3,132,10,133.4
			c7,1.3,16.9-2.9,18-5.2c1.1-2.4,14.3-17.9,22.8-19.7s11.5-4.4,21-4.9c9.5-0.6,13,6.3,13,6.3l7.3-8.2
			C92.2,101.7,92.3,94.9,88.3,94.7z"/>
		<path id="XMLID_277_" class="st4" d="M72.2,92.3c3.4-0.1,6.1,0.2,8,0.5c2.1,0.4,5.1,1.3,5.1,1.3s-6.7,9.4-7.2,10.1
			c-0.6-0.7-11.4-1.1-13.5,0.2C67.7,100.9,72.2,92.3,72.2,92.3z"/>
	</g>
	<path id="XMLID_308_" class="st4" d="M279.2,385.9c-38.2,20.7-81.9,18.7-129.6,0v-12.4c44.6,17.5,87.9,18.7,129.6,0V385.9z"/>
	<path id="XMLID_309_" class="st4" d="M142.5,510c-18.8,9.3-32.7,3.5-51.7-3.4l2.1-1.4c16.2,5.9,36.1,3.6,49.7-2.4
		C144.2,504.6,144,507.1,142.5,510z"/>
	<path id="XMLID_312_" class="st4" d="M292.1,510.9c20,10.5,35.2,3.8,55.4-4l-1.2-1.6c-17.2,6.7-39.8,4.3-54.2-2.4
		C290.3,504.9,290.6,507.7,292.1,510.9z"/>
</g>
<g id="XMLID_35_">
	<path id="XMLID_36_" class="st2" d="M180.1,130.8l-5,29.7l7.5,37.4h-13.1c-1.6-6.7-3-14.8-4.3-24.4c-0.4,4.3-0.9,8.8-1.5,13.5
		l-1.3,10.9h-13.7l5.1-37.4l-5.1-29.7h13.6c0.2,1.8,0.7,4.9,1.5,9.2c0.6,3.3,1.1,6.3,1.4,9.1l3-18.3H180.1z"/>
</g>
<g id="XMLID_38_">
	<path id="XMLID_39_" class="st2" d="M283.1,130.8l-5,29.7l7.5,37.4h-13.1c-1.6-6.7-3-14.8-4.3-24.4c-0.4,4.3-0.9,8.8-1.5,13.5
		l-1.3,10.9h-13.7l5.1-37.4l-5.1-29.7h13.6c0.2,1.8,0.7,4.9,1.5,9.2c0.6,3.3,1.1,6.3,1.4,9.1l3-18.3H283.1z"/>
</g>
</svg>
