<?xml version="1.0" encoding="utf-8"?>
<!-- Generator: Adobe Illustrator 19.0.0, SVG Export Plug-In . SVG Version: 6.00 Build 0)  -->
<svg version="1.1" id="Calque_1" xmlns="http://www.w3.org/2000/svg" xmlns:xlink="http://www.w3.org/1999/xlink" x="0px" y="0px"
	 viewBox="285.1 408.4 25 25" style="enable-background:new 285.1 408.4 25 25;" xml:space="preserve">
<style type="text/css">
	.st0{fill:#FFFFFF;}
</style>
<g>
	<path class="st0" d="M292.6,426.7c-2.8-0.2-4.3-2.2-4.7-3.6c0.7,0.1,1.5,0.1,2.2-0.1c-1.2-0.3-2.1-0.9-2.9-1.8
		c-0.7-0.9-1.1-2-1.1-3.3c0.7,0.4,1.4,0.6,2.2,0.6c-2.3-1.9-2.8-4.2-1.5-6.9c2.8,3.3,6.3,5.1,10.6,5.4c0-0.3-0.1-0.6-0.1-0.9
		c-0.1-1.6,0.5-2.9,1.6-4c1.3-1.2,2.9-1.6,4.6-1.3c1,0.2,1.8,0.7,2.6,1.4c0.1,0.1,0.2,0.1,0.3,0.1c1-0.2,1.9-0.5,2.7-1
		c0.1,0,0.2-0.1,0.3-0.2c-0.2,0.6-0.4,1.1-0.8,1.6c-0.4,0.4-0.8,0.8-1.2,1.2c0.9-0.1,1.8-0.4,2.8-0.8c-0.4,0.6-0.8,1.2-1.3,1.6
		c-0.3,0.3-0.7,0.6-1,0.9c-0.1,0.1-0.2,0.2-0.2,0.3c0.1,1.5-0.1,2.9-0.5,4.4c-0.3,1.2-0.8,2.4-1.5,3.5c-0.7,1.2-1.5,2.3-2.5,3.2
		c-1.3,1.3-2.8,2.3-4.5,3c-1.6,0.7-3.3,1-5,1.1c-1.2,0-2.4,0-3.6-0.3c-1.2-0.3-2.4-0.6-3.5-1.2c-0.5-0.2-0.9-0.5-1.3-0.8
		C287.9,429.1,290.4,428.4,292.6,426.7z"/>
</g>
</svg>
