<?xml version="1.0" encoding="utf-8"?>
<!-- Generator: Adobe Illustrator 19.0.0, SVG Export Plug-In . SVG Version: 6.00 Build 0)  -->
<svg version="1.1" id="Calque_1" xmlns="http://www.w3.org/2000/svg" xmlns:xlink="http://www.w3.org/1999/xlink" x="0px" y="0px"
	 viewBox="285.1 408.4 25 25" style="enable-background:new 285.1 408.4 25 25;" xml:space="preserve">
<style type="text/css">
	.st0{fill:#FFFFFF;}
</style>
<g>
	<path class="st0" d="M310.1,414.7c0,4.2,0,8.3,0,12.5c0,0,0,0,0,0.1c0,0.2,0,0.5-0.1,0.7c-0.2,1.4-0.9,2.7-1.9,3.7
		c-1.1,1-2.4,1.6-3.8,1.8c-0.1,0-0.3,0-0.4,0c-4.2,0-8.3,0-12.5,0c0,0,0,0-0.1,0c-0.3,0-0.5,0-0.8-0.1c-1.5-0.3-2.7-1-3.7-2.1
		c-0.9-1-1.5-2.3-1.6-3.6c0-0.1,0-0.3,0-0.4c0-4.2,0-8.4,0-12.6c0,0,0-0.1,0-0.1c0-0.2,0-0.5,0.1-0.7c0.2-1.4,0.8-2.5,1.8-3.5
		c1.1-1.1,2.4-1.7,3.9-1.9c0.1,0,0.3,0,0.4,0c4.2,0,8.4,0,12.6,0c0,0,0,0,0.1,0c0.3,0,0.5,0,0.8,0.1c1.7,0.3,3.1,1.2,4.1,2.6
		c0.7,0.9,1,1.9,1.2,3.1C310.1,414.4,310.1,414.5,310.1,414.7z M308,421c0-2,0-4,0-6c0-0.3,0-0.6-0.1-0.9c-0.4-2.1-2.2-3.5-4.3-3.5
		c-4,0-8,0-12,0c-0.3,0-0.6,0-0.9,0.1c-2,0.4-3.5,2.2-3.5,4.3c0,4,0,8,0,12c0,0.3,0,0.5,0.1,0.8c0.4,2.1,2.2,3.6,4.3,3.6
		c4,0,8,0,12,0c0.3,0,0.7,0,1-0.1c2-0.5,3.4-2.2,3.4-4.3C308,424.9,308,422.9,308,421z"/>
	<path class="st0" d="M297.7,414.7c3.4,0,6.2,2.8,6.2,6.2c0,3.4-2.8,6.2-6.2,6.2c-3.4,0-6.2-2.8-6.2-6.3
		C291.5,417.5,294.2,414.7,297.7,414.7z M297.7,425.3c2.4,0,4.3-1.9,4.3-4.3c0-2.4-1.9-4.3-4.3-4.3c-2.4,0-4.3,1.9-4.3,4.3
		C293.3,423.3,295.3,425.3,297.7,425.3z"/>
	<path class="st0" d="M304.6,415.5c-0.8,0-1.4-0.6-1.4-1.4c0-0.8,0.6-1.4,1.4-1.4c0.8,0,1.4,0.6,1.4,1.4
		C306,414.8,305.3,415.5,304.6,415.5z"/>
</g>
</svg>
